<svg width="89" height="116" viewBox="0 0 89 116" fill="none" xmlns="http://www.w3.org/2000/svg">
<path fill-rule="evenodd" clip-rule="evenodd" d="M48.0831 79.8524C127.95 24.7308 68.485 -17.455 44.5 7.21005C20.5077 -17.455 -38.9576 24.7308 40.9169 79.8524L39.2058 83.2747C39.0982 83.4898 39.0341 83.724 39.017 83.9638C39 84.2037 39.0303 84.4446 39.1064 84.6728C39.26 85.1336 39.5903 85.5145 40.0248 85.7317C40.4592 85.9489 40.9621 85.9846 41.4229 85.831C41.8837 85.6774 42.2645 85.3471 42.4818 84.9127L42.7743 84.3277C42.8401 85.5708 42.9498 86.6311 43.1472 87.6183C43.6444 90.1338 44.6682 92.1667 46.4232 95.6767L46.5183 95.8814C48.0685 98.9673 47.8491 102.097 46.8839 104.993C45.8967 107.932 44.2075 110.484 42.979 112.327C42.7094 112.731 42.6111 113.225 42.7058 113.7C42.8004 114.176 43.0802 114.595 43.4836 114.865C43.887 115.134 44.3809 115.233 44.8568 115.138C45.3326 115.043 45.7514 114.763 46.021 114.36L46.0503 114.309C47.2641 112.495 49.2019 109.585 50.35 106.155C51.52 102.653 51.9003 98.47 49.7943 94.2434C47.9076 90.4775 47.1252 88.8907 46.7303 86.9017C46.597 86.2034 46.5066 85.4977 46.4598 84.7884L46.5183 84.9127C46.7355 85.3471 47.1164 85.6774 47.5771 85.831C48.0379 85.9846 48.5408 85.9489 48.9753 85.7317C49.4097 85.5145 49.74 85.1336 49.8936 84.6728C50.0472 84.212 50.0115 83.7091 49.7943 83.2747L48.0758 79.8524H48.0831ZM35.1839 9.27949C26.6502 4.81886 14.7089 8.24111 9.92651 17.5792C8.19344 20.9649 7.29401 25.4767 8.44938 31.1073C8.85157 33.0817 11.8643 32.5479 12.3031 30.5881C14.3871 21.4036 20.9099 12.5847 34.1601 12.1021C35.8713 12.0436 36.7049 10.0692 35.1839 9.27949V9.27949Z" fill="#F9F9F9"/>
</svg>
