<svg width="368" height="520" viewBox="0 0 368 520" fill="none" xmlns="http://www.w3.org/2000/svg">
<g opacity="0.25">
<path fill-rule="evenodd" clip-rule="evenodd" d="M205.16 481.847C278.414 481.847 337.794 490.388 337.794 500.923C337.794 511.457 278.414 520 205.16 520C131.906 520 72.5251 511.459 72.5251 500.923C72.5251 490.386 131.91 481.847 205.16 481.847Z" fill="#010071"/>
</g>
<path fill-rule="evenodd" clip-rule="evenodd" d="M142.161 266.817C192.615 285.788 248.729 282.479 296.611 257.711C333.249 256.016 383.454 383.105 358.068 409.34C350.784 416.864 340.036 419.905 329.901 417.308C319.765 414.709 311.798 406.873 309.021 396.769C309.226 418.713 304.89 439.36 296.019 458.704L296.636 458.789C306.027 461.367 312.985 470.012 312.985 480.208C312.985 492.423 303.009 502.413 290.816 502.413H236.95C215.528 502.413 218.88 442.802 219.641 428.886C213.505 429.707 207.04 429.596 201.05 428.714C200.632 442.309 201.365 502.413 182.189 502.413H128.327C116.134 502.413 106.158 492.423 106.158 480.208C106.158 470.012 113.112 461.367 122.507 458.789C108.283 418.133 102.58 374.968 105.768 331.992C43.7939 325.507 -27.6955 238.514 16.98 207.597C27.8454 200.078 43.9252 198.939 52.6539 208.864C89.2421 250.46 117.342 271.251 142.161 266.817Z" fill="#FA9B27"/>
<g opacity="0.5">
<path fill-rule="evenodd" clip-rule="evenodd" d="M303.434 258.789C332.611 268.886 366.591 346.797 364.898 388.262C363.098 391.62 360.994 394.916 358.575 398.147C355.833 344.535 337.135 298.991 302.478 261.514C302.786 260.516 303.105 259.609 303.434 258.789Z" fill="white"/>
</g>
<g opacity="0.5">
<path fill-rule="evenodd" clip-rule="evenodd" d="M122.507 458.789C114.1 434.758 108.669 409.849 106.293 384.623C104.985 357.385 108.379 329.084 116.467 299.717C108.064 361.868 114.175 414.519 134.8 457.673C132.118 457.696 128.023 458.068 122.507 458.789Z" fill="white"/>
</g>
<path fill-rule="evenodd" clip-rule="evenodd" d="M364.958 385.274C364.955 389.129 364.668 392.703 364.08 395.942C361.21 406.186 352.683 414.322 341.613 416.22C326.897 418.745 312.755 409.372 309.319 394.817C313.938 384.446 323.421 377.07 334.595 375.155C345.768 373.237 357.161 377.033 364.958 385.274Z" fill="white"/>
<path fill-rule="evenodd" clip-rule="evenodd" d="M20.6217 277.931C1.18716 251.774 -5.07265 222.856 16.98 207.597C27.8454 200.078 43.9252 198.939 52.6539 208.864C61.5815 219.01 69.9987 227.914 77.987 235.52C74.2568 259.852 53.3305 278.484 28.0754 278.484C25.5426 278.484 23.0522 278.294 20.6217 277.931Z" fill="white"/>
<g opacity="0.5">
<path fill-rule="evenodd" clip-rule="evenodd" d="M309.265 397.604C309.18 397.327 309.099 397.049 309.021 396.769C309.063 401.112 308.925 405.404 308.61 409.645C308.32 413.174 307.944 416.593 307.483 419.91C305.524 433.376 301.705 446.306 296.019 458.704C290.344 458.029 286.653 457.691 284.942 457.691C301.638 418.732 306.414 366.983 299.268 302.443C306.697 339.436 310.027 371.154 309.265 397.604Z" fill="white"/>
</g>
<g opacity="0.5">
<path fill-rule="evenodd" clip-rule="evenodd" d="M38.2712 201.824C43.7623 202.365 48.8917 204.584 52.6539 208.864C74.4516 233.643 93.2343 251.036 110.104 260.114C110.813 261.665 111.518 263.242 112.219 264.85C84.8632 254.794 60.2139 233.786 38.2712 201.824Z" fill="white"/>
</g>
<path d="M290.815 505.465H236.95C233.033 505.465 229.583 503.918 226.698 500.865C218.025 491.689 214.655 469.241 216.415 432.293C212.356 432.604 208.163 432.557 204.02 432.151C204.014 432.513 204.007 432.889 204 433.278C203.356 468.974 200.261 505.465 182.189 505.465H128.327C114.423 505.465 103.111 494.135 103.111 480.208C103.111 469.96 109.354 460.792 118.634 456.904C105.228 417.392 99.8138 376.298 102.527 334.664C82.3915 331.766 59.9214 320.557 40.3909 303.585C20.5294 286.325 6.42352 265.789 1.68988 247.24C-2.89421 229.279 1.92089 214.309 15.2478 205.086C26.9035 197.02 44.9379 195.473 54.9402 206.846C89.951 246.649 114.535 264.366 135.337 264.368C137.471 264.368 139.564 264.181 141.626 263.813C142.166 263.715 142.72 263.768 143.232 263.96C192.788 282.593 248.183 279.329 295.213 254.999C295.603 254.797 296.032 254.682 296.47 254.662C320.965 253.567 343.129 298.505 349.347 312.317C358.073 331.701 364.268 352.028 366.79 369.552C368.799 383.515 369.297 402.122 360.256 411.464C352.231 419.754 340.312 423.126 329.146 420.264C322.133 418.467 316.039 414.369 311.718 408.812C310.579 425.545 306.724 441.621 300.209 456.78C309.655 460.595 316.032 469.85 316.032 480.208C316.032 494.135 304.72 505.465 290.815 505.465ZM219.641 425.834C220.403 425.834 221.143 426.121 221.71 426.646C222.376 427.263 222.733 428.145 222.684 429.053L222.674 429.228C220.173 474.933 225.888 491.13 231.124 496.668C232.836 498.48 234.742 499.361 236.95 499.361H290.815C301.36 499.361 309.938 490.769 309.938 480.208C309.938 471.674 304.223 464.126 296.016 461.784L295.605 461.728C294.649 461.596 293.812 461.019 293.348 460.172C292.884 459.325 292.848 458.308 293.25 457.43C301.894 438.582 306.174 418.182 305.974 396.797C305.96 395.264 307.083 393.959 308.599 393.746C310.112 393.539 311.552 394.481 311.959 395.959C314.439 404.982 321.604 412.03 330.657 414.351C339.71 416.67 349.374 413.937 355.88 407.215C367.359 395.353 362.162 355.633 343.791 314.825C328.958 281.876 310.829 260.796 297.381 260.746C249.202 285.445 192.608 288.797 141.861 269.962C117.549 273.799 90.1042 256.057 50.3674 210.881C42.6055 202.056 28.1779 203.558 18.7119 210.108C4.51652 219.932 4.831 234.901 7.59435 245.729C16.2553 279.664 62.1191 324.356 106.084 328.956C107.723 329.128 108.929 330.573 108.807 332.218C105.631 375.02 111.208 417.265 125.383 457.779C125.662 458.578 125.598 459.457 125.205 460.207C124.813 460.956 124.127 461.509 123.312 461.732C115.006 464.012 109.205 471.609 109.205 480.208C109.205 490.769 117.783 499.361 128.327 499.361H182.189C187.806 499.361 192.358 490.518 195.004 474.462C197.426 459.765 197.739 442.463 197.906 433.167C197.939 431.347 197.967 429.807 198.004 428.62C198.03 427.75 198.427 426.932 199.093 426.373C199.76 425.814 200.633 425.567 201.492 425.694C207.409 426.565 213.545 426.624 219.237 425.86C219.372 425.843 219.507 425.834 219.641 425.834Z" fill="#010071"/>
<path fill-rule="evenodd" clip-rule="evenodd" d="M189.214 498.967C187.23 501.157 184.91 502.413 182.189 502.413H128.327C116.134 502.413 106.158 492.423 106.158 480.208C106.158 470.012 113.112 461.367 122.507 458.789C164.398 452.588 191.134 471.988 189.214 498.967Z" fill="white"/>
<path d="M182.189 505.029H128.327C114.663 505.029 103.546 493.894 103.546 480.208C103.546 469.063 111.059 459.218 121.817 456.266C121.918 456.238 122.021 456.216 122.125 456.201C146.245 452.629 167.334 457.323 179.986 469.072C188.439 476.922 192.641 487.604 191.82 499.153C191.778 499.737 191.541 500.291 191.148 500.725C188.56 503.581 185.546 505.029 182.189 505.029ZM123.049 461.353C114.633 463.733 108.769 471.464 108.769 480.208C108.769 491.009 117.543 499.797 128.327 499.797H182.189C183.798 499.797 185.268 499.155 186.664 497.839C187.102 488.145 183.577 479.542 176.435 472.909C164.977 462.269 145.525 458.063 123.049 461.353Z" fill="#010071"/>
<path d="M303.685 303.529C305.29 312.259 306.669 321.029 307.84 329.832C308.999 338.634 309.97 347.469 310.687 356.332C311.06 360.764 311.375 365.202 311.609 369.648C311.869 374.093 312.012 378.548 312.097 383.007C312.279 391.924 312.076 400.879 311.216 409.824C311.078 411.262 309.802 412.316 308.366 412.177C306.963 412.042 305.926 410.818 306.009 409.421L306.011 409.389C306.534 400.673 306.66 391.897 306.51 383.106C306.415 378.71 306.273 374.313 306.1 369.912C305.914 365.512 305.689 361.109 305.435 356.706C304.894 347.902 304.282 339.092 303.571 330.281L301.526 303.809C301.479 303.208 301.928 302.683 302.528 302.636C303.088 302.593 303.584 302.989 303.685 303.529Z" fill="#010071"/>
<path d="M114.876 302.371C113.393 307.971 112.026 313.594 110.855 319.241C109.687 324.886 108.711 330.56 108.092 336.225L108.091 336.23C107.934 337.667 106.644 338.705 105.209 338.548C103.774 338.39 102.738 337.098 102.895 335.661C102.901 335.604 102.911 335.541 102.92 335.486C103.96 329.647 105.348 323.929 106.918 318.282C108.491 312.636 110.251 307.063 112.12 301.536C112.376 300.782 113.193 300.377 113.946 300.633C114.667 300.878 115.066 301.645 114.876 302.371Z" fill="#010071"/>
<path fill-rule="evenodd" clip-rule="evenodd" d="M114.936 433.887C111 417.838 108.443 404.403 107.267 393.579C77.3602 385.306 54.9212 360.468 49.6782 329.841C36.5459 348.37 36.1207 373.077 48.6084 392.05C44.0986 393.423 39.4012 394.076 34.686 393.98C39.851 412.818 55.8176 426.693 75.1637 429.161C72.7371 433.607 68.6594 436.919 63.8132 438.384C80.559 445.369 99.6606 443.687 114.936 433.887Z" fill="#FA9B27"/>
<g opacity="0.5">
<path fill-rule="evenodd" clip-rule="evenodd" d="M108.468 402.565C107.971 399.393 107.571 396.398 107.267 393.579C77.3602 385.306 54.9212 360.468 49.6782 329.841C46.9789 333.652 44.8143 337.724 43.1917 341.955C52.987 375.933 74.7458 396.137 108.468 402.565Z" fill="white"/>
</g>
<path d="M85.0762 445.693C77.4772 445.693 69.8524 444.209 62.6416 441.202C61.4539 440.706 60.7048 439.517 60.7701 438.23C60.835 436.943 61.7006 435.836 62.9323 435.462C65.5795 434.662 67.93 433.233 69.8169 431.309C51.4705 427.13 36.8071 413.241 31.7477 394.788C31.4929 393.859 31.6908 392.864 32.2815 392.104C32.8721 391.345 33.7712 390.9 34.7481 390.929C37.8106 390.988 40.8638 390.715 43.8598 390.107C32.8822 370.536 34.0494 346.62 47.1936 328.074C47.9068 327.069 49.1555 326.593 50.3545 326.865C51.5556 327.139 52.4736 328.11 52.6816 329.325C57.7015 358.65 79.4459 382.717 108.078 390.637C109.282 390.971 110.161 392.005 110.296 393.249C111.451 403.877 114.008 417.304 117.896 433.159C118.207 434.427 117.678 435.752 116.58 436.457C107.046 442.574 96.0897 445.693 85.0762 445.693ZM71.611 437.822C85.0056 441.401 99.3655 439.513 111.45 432.446C108.028 418.243 105.684 405.985 104.471 395.946C77.022 387.602 55.7458 365.414 48.331 337.892C39.7337 354.484 40.6328 374.387 51.1524 390.37C51.6818 391.173 51.8011 392.18 51.4745 393.086C51.148 393.991 50.4142 394.69 49.4946 394.97C46.0127 396.03 42.4402 396.686 38.831 396.932C44.6468 412.689 58.6788 423.981 75.5488 426.133C76.5479 426.26 77.4199 426.874 77.878 427.773C78.336 428.672 78.3206 429.739 77.8376 430.625C76.2757 433.486 74.1514 435.925 71.611 437.822Z" fill="#010071"/>
<path fill-rule="evenodd" clip-rule="evenodd" d="M229.968 498.967C231.952 501.157 234.272 502.413 236.989 502.413H290.851C303.045 502.413 313.021 492.423 313.021 480.208C313.021 470.012 306.066 461.367 296.675 458.789C254.78 452.588 228.048 471.988 229.968 498.967Z" fill="white"/>
<path d="M290.851 505.029H236.989C233.635 505.029 230.622 503.581 228.034 500.725C227.641 500.291 227.404 499.737 227.362 499.153C226.54 487.604 230.743 476.921 239.195 469.072C251.847 457.322 272.937 452.63 297.057 456.201C297.161 456.216 297.264 456.238 297.365 456.266C308.121 459.218 315.632 469.063 315.632 480.208C315.632 493.894 304.516 505.029 290.851 505.029ZM232.518 497.839C233.913 499.155 235.383 499.797 236.989 499.797H290.851C301.635 499.797 310.409 491.009 310.409 480.208C310.409 471.465 304.547 463.733 296.133 461.353C273.656 458.061 254.204 462.269 242.747 472.909C235.604 479.542 232.079 488.145 232.518 497.839Z" fill="#010071"/>
<path fill-rule="evenodd" clip-rule="evenodd" d="M41.449 260.12C38.9372 263.045 34.8347 264.035 31.2674 262.577C27.6963 261.117 25.4577 257.537 25.7091 253.683C25.8793 245.075 31.271 237.443 39.3196 234.416C47.2978 231.416 64.8369 235.741 64.2703 244.098C64.1604 245.747 63.1719 247.21 61.6878 247.928C55.4312 250.946 54.9851 240.179 41.449 260.12Z" fill="#FF6A9F"/>
<path fill-rule="evenodd" clip-rule="evenodd" d="M46.5926 216.038C49.3133 216.038 51.5167 218.536 51.5167 221.614C51.5167 224.693 49.3133 227.19 46.5926 227.19C43.8719 227.19 41.6685 224.694 41.6685 221.614C41.6685 218.535 43.8719 216.038 46.5926 216.038Z" fill="#FF6A9F"/>
<path fill-rule="evenodd" clip-rule="evenodd" d="M29.5671 214.214C32.6418 214.214 35.1322 216.519 35.1322 219.363C35.1322 222.207 32.6418 224.511 29.5671 224.511C26.4923 224.511 23.998 222.207 23.998 219.363C23.998 216.519 26.492 214.214 29.5671 214.214Z" fill="#FF6A9F"/>
<path fill-rule="evenodd" clip-rule="evenodd" d="M19.4457 229.445C22.4925 229.445 24.9615 232.085 24.9615 235.343C24.9615 238.6 22.4925 241.241 19.4457 241.241C16.4028 241.241 13.9335 238.6 13.9335 235.343C13.9335 232.085 16.4028 229.445 19.4457 229.445Z" fill="#FF6A9F"/>
<path fill-rule="evenodd" clip-rule="evenodd" d="M209.316 322.108C248.702 322.108 280.632 346.057 280.632 375.6C280.632 405.142 248.702 429.092 209.316 429.092C169.929 429.092 138 405.143 138 375.6C138 346.057 169.929 322.108 209.316 322.108Z" fill="white"/>
<g opacity="0.2">
<path fill-rule="evenodd" clip-rule="evenodd" d="M306.248 258.859C307.395 259.393 308.55 260.023 309.705 260.75C300.006 284.044 271.02 308.632 223.815 336.365C215.883 341.026 206.067 341.757 192.945 336.365C160.47 318.892 132.342 292.805 108.554 258.108C116.067 262.4 123.199 265.079 130.043 266.066C186.398 290.634 251.38 288.317 306.248 258.859Z" fill="#010071"/>
</g>
<path fill-rule="evenodd" clip-rule="evenodd" d="M113.459 251.618C171.2 286.994 243.611 287.999 302.307 254.239C295.403 276.866 268.26 300.712 222.075 327.847C214.813 332.114 205.822 332.783 193.805 327.847C162.662 311.089 135.88 285.678 113.459 251.618Z" fill="#FF125D"/>
<path fill-rule="evenodd" clip-rule="evenodd" d="M216.606 309.586C221.633 304.458 212.796 298.58 206.818 299.277C201.184 299.931 194.159 306.659 200.361 310.458C204.406 312.929 205.864 309.096 207.992 308.933C210.265 308.759 212.848 313.425 216.606 309.586Z" fill="white"/>
<path fill-rule="evenodd" clip-rule="evenodd" d="M190.77 298.447C191.875 297.796 193.585 298.656 194.588 300.366C195.594 302.077 195.51 303.991 194.406 304.641C193.298 305.292 191.59 304.435 190.584 302.724C189.581 301.014 189.665 299.1 190.77 298.447Z" fill="white"/>
<path fill-rule="evenodd" clip-rule="evenodd" d="M223.048 294.335C222.045 293.533 220.233 294.143 218.998 295.697C217.766 297.251 217.58 299.155 218.583 299.957C219.586 300.756 221.398 300.146 222.633 298.595C223.866 297.041 224.051 295.133 223.048 294.335Z" fill="white"/>
<path fill-rule="evenodd" clip-rule="evenodd" d="M198.166 287.885C200.082 287.095 202.524 288.611 203.617 291.271C204.713 293.931 204.049 296.73 202.13 297.521C200.213 298.313 197.772 296.797 196.679 294.137C195.583 291.474 196.25 288.678 198.166 287.885Z" fill="white"/>
<path fill-rule="evenodd" clip-rule="evenodd" d="M210.149 296.301C208.096 296.013 206.754 293.469 207.151 290.621C207.548 287.769 209.537 285.692 211.59 285.98C213.643 286.268 214.985 288.812 214.588 291.66C214.188 294.509 212.202 296.588 210.149 296.301Z" fill="white"/>
<g opacity="0.4">
<path fill-rule="evenodd" clip-rule="evenodd" d="M282.955 283.578C269.216 297.497 248.843 312.12 222.075 327.847C214.813 332.114 205.822 332.783 193.805 327.847C173.145 316.729 154.401 301.799 137.577 283.066C137.648 281.748 137.758 280.428 137.899 279.105C167.452 302.22 183.716 322.631 208.121 322.342C231.994 322.062 252.743 299.954 282.611 279.105C282.774 280.599 282.887 282.089 282.955 283.578Z" fill="white"/>
</g>
<path d="M209.223 333.925C204.196 333.925 198.75 332.705 192.814 330.268C192.731 330.233 192.649 330.194 192.569 330.152C161.187 313.265 133.837 287.327 111.278 253.059C110.605 252.035 110.731 250.682 111.581 249.801C112.431 248.919 113.779 248.747 114.822 249.387C171.771 284.279 243.113 285.268 301.007 251.97C301.937 251.436 303.098 251.523 303.936 252.193C304.774 252.862 305.118 253.976 304.805 255.003C297.888 277.672 272.02 301.536 223.396 330.104C219.061 332.651 214.361 333.925 209.223 333.925ZM194.921 325.478C205.254 329.695 213.706 329.732 220.753 325.591C262.744 300.921 287.878 279.388 297.226 260.016C242.27 288.858 176.733 288.611 122.09 259.562C142.822 288.432 167.285 310.58 194.921 325.478Z" fill="#010071"/>
<path fill-rule="evenodd" clip-rule="evenodd" d="M300.944 258.083C301.854 255.521 302.308 254.239 302.308 254.239C332.675 248.359 350.838 253.912 356.8 270.896C345.765 277.324 333.674 277.496 320.531 271.41C315.823 265.476 309.294 261.034 300.944 258.083Z" fill="#FF125D"/>
<path d="M338.963 278.46C332.689 278.46 326.167 276.902 319.435 273.785C319.065 273.614 318.74 273.358 318.486 273.038C314.11 267.523 307.916 263.321 300.075 260.551C299.421 260.319 298.885 259.837 298.587 259.21C298.288 258.583 298.251 257.862 298.483 257.207L299.845 253.365C300.155 252.491 300.903 251.846 301.812 251.67C333.501 245.535 352.833 251.711 359.264 270.029C359.68 271.213 359.197 272.526 358.113 273.157C352.046 276.692 345.645 278.46 338.963 278.46ZM322.175 269.286C333.607 274.437 343.89 274.578 353.52 269.705C347.385 255.882 331.232 251.569 304.267 256.531L304.262 256.544C311.677 259.546 317.692 263.824 322.175 269.286Z" fill="#010071"/>
<path fill-rule="evenodd" clip-rule="evenodd" d="M354.448 231.159C343.125 228.045 333.192 229.387 324.644 235.183C318.274 242.437 310.732 248.789 302.307 254.239C315.479 251.687 326.355 251.29 334.935 253.041C345.626 249.571 352.131 242.276 354.448 231.159Z" fill="#FF125D"/>
<path d="M302.306 256.855C301.257 256.855 300.288 256.22 299.884 255.214C299.418 254.052 299.839 252.721 300.89 252.041C309.297 246.603 316.629 240.35 322.682 233.455C322.829 233.288 322.996 233.141 323.179 233.016C332.348 226.8 343.1 225.325 355.139 228.636C356.469 229.002 357.286 230.341 357.004 231.694C354.492 243.746 347.338 251.766 335.74 255.529C335.311 255.668 334.854 255.693 334.414 255.604C326.206 253.929 315.572 254.335 302.803 256.807C302.637 256.839 302.471 256.855 302.306 256.855ZM323.33 249.364C327.487 249.364 331.302 249.689 334.761 250.341C343.407 247.355 348.837 241.689 351.29 233.071C341.821 230.993 333.647 232.342 326.378 237.168C322.345 241.728 317.786 246.016 312.756 249.983C316.49 249.57 320.019 249.364 323.33 249.364Z" fill="#010071"/>
<path d="M123.242 484.12C122.861 487.071 122.675 490.039 123.017 492.746C123.184 494.091 123.49 495.359 123.95 496.407C124.406 497.462 125.045 498.227 125.693 498.709C127.031 499.705 127.309 501.6 126.315 502.94C125.32 504.28 123.428 504.559 122.09 503.562C121.799 503.345 121.558 503.086 121.369 502.799L120.932 502.125C119.955 500.628 119.38 498.945 119.145 497.301C118.906 495.652 118.94 494.032 119.11 492.464C119.457 489.323 120.337 486.371 121.361 483.512C121.544 483 122.107 482.734 122.618 482.917C123.061 483.076 123.319 483.521 123.261 483.97L123.242 484.12Z" fill="#010071"/>
<path d="M144.029 487.926C143.623 490.391 143.378 492.87 143.558 495.169C143.645 496.314 143.841 497.405 144.164 498.355C144.492 499.304 144.962 500.078 145.494 500.645C146.457 501.671 146.407 503.285 145.382 504.249C144.358 505.213 142.747 505.163 141.785 504.136C141.659 504.002 141.55 503.858 141.459 503.706L141.242 503.341C140.452 502.01 139.985 500.552 139.766 499.126C139.552 497.695 139.553 496.289 139.667 494.925C139.9 492.191 140.579 489.615 141.384 487.117C141.618 486.393 142.395 485.994 143.119 486.229C143.777 486.441 144.165 487.103 144.055 487.766L144.029 487.926Z" fill="#010071"/>
<path d="M273.941 485.366C275.354 487.946 276.651 490.623 277.537 493.524C277.978 494.974 278.315 496.48 278.448 498.055C278.582 499.624 278.467 501.282 277.981 502.904L277.874 503.261C277.488 504.549 276.132 505.28 274.846 504.893C273.56 504.506 272.83 503.149 273.216 501.86C273.271 501.676 273.353 501.492 273.445 501.332C273.919 500.52 274.272 499.46 274.402 498.252C274.54 497.046 274.504 495.727 274.349 494.385C274.04 491.689 273.267 488.916 272.335 486.189L272.301 486.091C272.14 485.621 272.391 485.108 272.861 484.947C273.281 484.803 273.735 484.989 273.941 485.366Z" fill="#010071"/>
<path d="M296.874 483.591C297.932 486.349 298.858 489.182 299.503 492.128C300.142 495.07 300.512 498.141 300.275 501.315L300.262 501.492C300.163 502.819 299.009 503.814 297.685 503.715C296.36 503.616 295.366 502.461 295.465 501.134C295.477 500.973 295.509 500.805 295.55 500.656C296.247 498.194 296.483 495.42 296.411 492.605C296.339 489.783 295.975 486.907 295.456 484.04L295.447 483.992C295.374 483.586 295.642 483.198 296.046 483.125C296.404 483.06 296.748 483.263 296.874 483.591Z" fill="#010071"/>
<path d="M181.543 422.948C190.758 426.1 200.493 427.729 210.237 427.744C219.981 427.764 229.728 426.17 238.966 423.048C239.827 422.757 240.761 423.22 241.052 424.083C241.317 424.87 240.956 425.717 240.237 426.081L240.029 426.186C235.472 428.5 230.574 430.129 225.559 431.231C220.542 432.354 215.389 432.871 210.237 432.915C208.949 432.905 207.662 432.848 206.374 432.814L202.521 432.539L198.694 432.025C197.425 431.808 196.159 431.581 194.902 431.317C189.878 430.238 184.971 428.612 180.412 426.286L180.182 426.169C179.321 425.73 178.978 424.674 179.417 423.811C179.818 423.023 180.731 422.669 181.543 422.948Z" fill="#010071"/>
<path fill-rule="evenodd" clip-rule="evenodd" d="M209.825 24.6573C196.703 24.2849 183.489 27.9521 172.139 35.6658C102.381 -26.4376 74.395 0.233081 88.1861 115.677C-12.905 331.992 429.129 334.568 331.463 115.677C345.254 0.233081 317.268 -26.4376 247.511 35.6658C236.16 27.9521 222.947 24.2849 209.825 24.6573Z" fill="#FA9B27"/>
<g opacity="0.5">
<path fill-rule="evenodd" clip-rule="evenodd" d="M109.165 92.6793C119.995 75.442 132.047 61.5805 144.9 51.1097C146.852 49.5183 148.825 48.0049 150.812 46.5697C154.217 42.3437 153.565 37.1367 148.857 30.9504C135.164 16.7448 114.416 3.08208 94.5275 14.4031C110.363 -3.82796 135.289 3.26484 169.301 35.6818L169.287 35.696C194.46 24.0719 221.43 24.0117 247.5 35.6713C281.509 3.26484 306.431 -3.82614 322.267 14.4031C302.315 -1.39939 250.015 32.068 270.098 48.9256H270.095C284.765 59.6646 298.861 74.349 311.862 93.0201C280.978 58.9993 250.083 40.5288 219.181 37.5836C220.948 38.5046 222 39.6561 222 40.9067C222 43.9155 215.908 46.355 208.397 46.355C200.886 46.355 194.793 43.9155 194.793 40.9067C194.793 39.922 195.445 38.9995 196.582 38.2027C167.452 42.5621 138.314 60.7164 109.165 92.6793Z" fill="white"/>
</g>
<path fill-rule="evenodd" clip-rule="evenodd" d="M73.5871 186.274C80.0098 248.033 144.985 279.023 209.825 278.858C274.665 279.023 339.64 248.033 346.062 186.274C343.887 158.826 332.069 149.175 311.437 159.112C278.654 174.901 258.372 174.376 244.613 160.183C235.19 150.463 222.67 145.719 209.825 145.426C196.979 145.719 184.46 150.463 175.037 160.183C161.277 174.376 140.996 174.901 108.216 159.112C87.5806 149.175 75.7623 158.826 73.5871 186.274Z" fill="white"/>
<path d="M209.304 281.932C208.863 281.932 208.426 281.932 207.985 281.928C168.259 281.674 131.038 269.945 105.865 249.749C66.7963 218.404 59.4223 170.634 85.0581 115.176C77.3264 49.7212 82.9845 12.9644 102.35 2.82617C117.948 -5.34105 140.881 4.15231 172.415 31.8393C183.632 24.7749 196.513 21.2435 209.825 21.6041C223.126 21.2338 236.018 24.7745 247.235 31.8393C278.769 4.1515 301.7 -5.33943 317.299 2.82577C336.668 12.966 342.326 49.7272 334.588 115.205C359.528 171.705 351.132 219.925 310.909 251.055C285.512 270.709 248.54 281.932 209.304 281.932ZM114.353 6.11729C110.934 6.11729 107.873 6.82236 105.173 8.23572C88.4661 16.9824 83.7687 53.0091 91.2121 115.315C91.2794 115.881 91.1875 116.455 90.946 116.971C66.1815 169.963 72.8326 215.426 109.675 244.985C159.926 285.302 255.91 285.904 307.182 246.224C345.142 216.847 352.777 170.927 328.681 116.923C328.456 116.419 328.372 115.863 328.438 115.315C335.881 53.0091 331.183 16.9824 314.476 8.23572C301.286 1.33003 279.437 11.3261 249.535 37.947C248.493 38.8758 246.955 38.9756 245.8 38.1914C235.172 30.9679 222.756 27.3464 209.911 27.7082C209.854 27.7099 209.796 27.7099 209.739 27.7082C196.889 27.344 184.478 30.9679 173.85 38.1914C172.695 38.9772 171.157 38.875 170.114 37.947C146.332 16.7745 127.643 6.11729 114.353 6.11729Z" fill="#010071"/>
<g opacity="0.3">
<path fill-rule="evenodd" clip-rule="evenodd" d="M74.0201 187.985C76.2238 209.151 85.3034 226.702 98.8964 240.624C167.704 279.667 251.933 279.655 320.73 240.586C320.613 241.019 320.485 241.448 320.365 241.88C334.649 227.761 344.224 209.794 346.495 187.985C346.028 182.102 345.117 177.039 343.775 172.809L343.7 172.765C335.981 221.529 293.434 252.798 210.226 253.481C127.705 254.157 86.5114 229.218 76.7549 172.768C75.4054 177.007 74.4876 182.083 74.0201 187.985Z" fill="#010071"/>
</g>
<path fill-rule="evenodd" clip-rule="evenodd" d="M209.825 158.604C220.651 158.604 229.429 162.206 229.429 166.648C229.429 171.09 220.651 185.31 209.825 185.31C198.998 185.31 190.22 171.091 190.22 166.648C190.22 162.205 198.998 158.604 209.825 158.604Z" fill="#010071"/>
<path d="M225.56 197.682C219.892 197.682 214.3 195.91 209.661 192.598C203.341 196.47 195.731 197.963 188.393 196.707C180.161 195.298 172.759 190.516 168.084 183.587C167.008 181.991 167.427 179.823 169.02 178.744C170.615 177.667 172.779 178.085 173.855 179.681C177.471 185.041 183.198 188.74 189.567 189.831C195.931 190.921 202.56 189.336 207.751 185.482C209.069 184.503 210.89 184.577 212.123 185.663C216.88 189.849 223.422 191.578 229.626 190.29C236.01 188.963 240.972 185.161 243.599 179.583C244.421 177.841 246.495 177.097 248.235 177.917C249.974 178.739 250.719 180.818 249.899 182.56C246.316 190.167 239.618 195.338 231.04 197.12C229.226 197.497 227.388 197.682 225.56 197.682Z" fill="#010071"/>
<path fill-rule="evenodd" clip-rule="evenodd" d="M185.994 192.582C186.851 205.136 197.252 214.892 209.814 214.926C222.38 214.963 232.834 205.267 233.766 192.719C232.657 193.131 231.509 193.462 230.333 193.705C223.028 195.224 215.433 193.217 209.825 188.284C203.845 192.724 196.317 194.525 188.98 193.269C187.967 193.095 186.972 192.865 185.994 192.582Z" fill="#010071"/>
<path d="M209.886 218.414C209.858 218.414 209.832 218.413 209.804 218.413C195.482 218.375 183.497 207.134 182.52 192.82C182.442 191.685 182.922 190.584 183.806 189.869C184.69 189.154 185.866 188.916 186.958 189.231C187.82 189.479 188.698 189.682 189.569 189.831C195.933 190.92 202.561 189.336 207.751 185.482C209.069 184.503 210.89 184.578 212.123 185.663C216.882 189.849 223.424 191.581 229.625 190.29C230.617 190.085 231.602 189.802 232.556 189.448C233.668 189.036 234.912 189.218 235.86 189.932C236.807 190.646 237.327 191.793 237.238 192.978C236.178 207.256 224.171 218.414 209.886 218.414ZM190.329 196.974C192.919 205.35 200.741 211.414 209.824 211.438H209.885C218.82 211.438 226.558 205.59 229.295 197.424C222.398 198.388 215.321 196.639 209.661 192.598C203.895 196.13 197.055 197.683 190.329 196.974Z" fill="#010071"/>
<path fill-rule="evenodd" clip-rule="evenodd" d="M194.978 209.713C203.515 216.655 215.744 216.655 224.285 209.713C221.023 204.797 215.521 201.842 209.63 201.842C203.739 201.842 198.237 204.797 194.978 209.713Z" fill="#FF6A9F"/>
<path d="M209.63 216.197C204.133 216.197 198.638 214.375 194.154 210.729C193.632 210.304 193.517 209.552 193.89 208.99C197.4 203.695 203.284 200.534 209.63 200.534C215.975 200.534 221.86 203.695 225.373 208.99C225.746 209.551 225.631 210.304 225.108 210.729C220.624 214.374 215.126 216.197 209.63 216.197ZM196.776 209.447C204.404 214.962 214.855 214.962 222.486 209.447C219.41 205.482 214.689 203.15 209.63 203.15C204.57 203.15 199.85 205.482 196.776 209.447Z" fill="#010071"/>
<path d="M265.107 189.614C243.409 189.614 225.756 171.934 225.756 150.202C225.756 128.47 243.409 110.791 265.107 110.791C286.806 110.791 304.454 128.471 304.454 150.202C304.454 171.933 286.804 189.614 265.107 189.614ZM265.107 117.767C247.249 117.767 232.721 132.317 232.721 150.202C232.721 168.087 247.249 182.639 265.107 182.639C282.965 182.639 297.49 168.088 297.49 150.202C297.49 132.317 282.963 117.767 265.107 117.767Z" fill="#010071"/>
<path d="M153.31 189.614C131.613 189.614 113.962 171.934 113.962 150.202C113.962 128.47 131.613 110.791 153.31 110.791C175.006 110.791 192.661 128.471 192.661 150.202C192.661 171.933 175.008 189.614 153.31 189.614ZM153.31 117.767C135.454 117.767 120.927 132.317 120.927 150.202C120.927 168.087 135.454 182.639 153.31 182.639C171.165 182.639 185.696 168.088 185.696 150.202C185.696 132.317 171.167 117.767 153.31 117.767Z" fill="#010071"/>
<path d="M230.053 145.498C229.448 145.498 228.835 145.339 228.277 145.007C216.478 137.985 201.819 137.984 190.019 145.007C188.366 145.991 186.229 145.447 185.246 143.791C184.264 142.135 184.808 139.995 186.461 139.011C200.455 130.68 217.841 130.681 231.835 139.011C233.488 139.995 234.032 142.135 233.05 143.791C232.399 144.888 231.241 145.497 230.053 145.498Z" fill="#010071"/>
<path fill-rule="evenodd" clip-rule="evenodd" d="M158.035 93.4811C164.887 93.9477 170.243 97.2192 170.003 100.789C169.761 104.358 164.012 106.876 157.157 106.409C150.306 105.943 144.949 102.671 145.19 99.1017C145.435 95.5303 151.184 93.0164 158.035 93.4811Z" fill="white"/>
<path fill-rule="evenodd" clip-rule="evenodd" d="M261.561 93.4811C254.709 93.9477 249.349 97.2192 249.594 100.789C249.835 104.358 255.585 106.876 262.436 106.409C269.291 105.943 274.647 102.671 274.406 99.1017C274.165 95.5303 268.412 93.0164 261.561 93.4811Z" fill="white"/>
<path fill-rule="evenodd" clip-rule="evenodd" d="M313.276 89.7202C319.55 20.1722 305.485 5.37258 271.083 45.3173C287.45 57.7378 301.698 72.7329 313.276 89.7202Z" fill="#FF6A9F"/>
<path d="M313.275 92.3365C312.426 92.3365 311.612 91.9206 311.118 91.1949C299.679 74.4094 285.678 59.6757 269.506 47.4025C268.93 46.9659 268.562 46.3105 268.486 45.5921C268.41 44.8733 268.634 44.1554 269.105 43.6082C284.886 25.2861 296.699 18.1386 305.218 21.7544C316.264 26.4447 319.651 48.116 315.877 89.9556C315.778 91.0552 315 91.9743 313.933 92.2521C313.715 92.3091 313.494 92.3365 313.275 92.3365ZM274.88 44.9424C288.673 55.7268 300.877 68.2815 311.258 82.3582C314.479 38.3791 307.683 28.484 303.179 26.5715C299.154 24.8642 290.997 26.7617 274.88 44.9424Z" fill="#010071"/>
<path fill-rule="evenodd" clip-rule="evenodd" d="M107.033 89.7202C100.759 20.1722 114.819 5.37258 149.221 45.3173C132.855 57.7378 118.607 72.7329 107.033 89.7202Z" fill="#FF6A9F"/>
<path d="M107.033 92.3365C106.815 92.3365 106.594 92.3091 106.376 92.2521C105.309 91.9743 104.531 91.0552 104.432 89.9556C100.657 48.1156 104.044 26.4439 115.089 21.7544C123.608 18.1382 135.42 25.2866 151.199 43.6082C151.67 44.1554 151.895 44.8733 151.819 45.5921C151.743 46.3105 151.374 46.9659 150.799 47.4025C134.624 59.6769 120.625 74.411 109.19 91.1949C108.696 91.9202 107.882 92.3365 107.033 92.3365ZM119.725 26.0732C118.711 26.0732 117.853 26.2638 117.128 26.5715C112.625 28.4832 105.831 38.3844 109.05 82.357C119.427 68.2819 131.631 55.7272 145.424 44.9424C132.21 30.035 124.347 26.0732 119.725 26.0732Z" fill="#010071"/>
<g opacity="0.3">
<path fill-rule="evenodd" clip-rule="evenodd" d="M106.888 81.8236C111.008 82.0118 115.075 79.2337 119.086 73.4871C113.641 45.0796 115.982 28.5752 126.11 23.9731C107.218 21.3595 100.809 40.6428 106.888 81.8236Z" fill="#010071"/>
</g>
<g opacity="0.3">
<path fill-rule="evenodd" clip-rule="evenodd" d="M314.41 81.8236C310.29 82.0118 306.223 79.2337 302.213 73.4871C307.658 45.0796 305.316 28.5752 295.188 23.9731C314.084 21.3595 320.489 40.6428 314.41 81.8236Z" fill="#010071"/>
</g>
<g opacity="0.2">
<path fill-rule="evenodd" clip-rule="evenodd" d="M106.201 331.087C108.84 319.201 111.416 309.189 113.931 301.05C79.2881 327.592 1.47501 246.197 13.1302 210.15C-5.25966 238.605 6.00226 269.828 46.916 303.813C67.0024 319.784 86.7628 328.875 106.201 331.087Z" fill="#010071"/>
</g>
<g opacity="0.2">
<path fill-rule="evenodd" clip-rule="evenodd" d="M312.075 406.44C309.142 368.756 306.875 333.216 305.27 299.822C318.976 342.894 327.252 374.8 330.097 395.539C332.172 401.542 337.653 405.698 343.984 406.071C350.314 406.445 356.244 402.959 359.008 397.243C357.477 407.921 349.372 416.464 338.801 418.534C328.23 420.606 317.51 415.754 312.075 406.44Z" fill="#010071"/>
</g>
<g opacity="0.2">
<path fill-rule="evenodd" clip-rule="evenodd" d="M201.415 430.628C192.69 427.171 184.999 424.508 178.346 422.641C177.375 443.255 174.222 457.159 168.895 464.351C182.962 472.411 190.274 482.573 190.83 494.838C199.247 475.645 202.779 454.244 201.415 430.628Z" fill="#010071"/>
</g>
<g opacity="0.2">
<path fill-rule="evenodd" clip-rule="evenodd" d="M242.779 422.221C231.945 425.623 224.828 427.385 221.431 427.506C217.821 464.539 220.089 486.073 228.24 492.112C238.432 472.186 248.231 461.667 257.633 460.561C246.608 452.793 241.656 440.014 242.779 422.221Z" fill="#010071"/>
</g>
<g opacity="0.2">
<path fill-rule="evenodd" clip-rule="evenodd" d="M189.647 498.063C165.338 501.256 146.856 501.317 134.198 498.244C190.192 504.192 190.479 473.706 146.271 459.923C172.77 463.386 187.231 476.099 189.647 498.063Z" fill="#010071"/>
</g>
<g opacity="0.2">
<path fill-rule="evenodd" clip-rule="evenodd" d="M231.106 498.063C255.412 501.256 273.893 501.317 286.551 498.244C231.067 502.15 230.613 473.025 274.478 459.923C247.979 463.386 233.522 476.099 231.106 498.063Z" fill="#010071"/>
</g>
<g opacity="0.2">
<path fill-rule="evenodd" clip-rule="evenodd" d="M111.841 417.553C114.009 427.809 115.369 432.983 115.369 432.983C109.17 438.351 94.3902 439.68 80.893 439.74C70.97 439.318 72.1674 433.815 74.4311 427.903C57.5685 422.56 38.633 402.909 35.4875 394.342C45.9238 392.52 48.7439 395.644 47.4967 391.585C42.6825 382.679 41.9244 373.837 42.5407 364.801C57.0298 392.399 84.6337 410.515 111.841 417.553Z" fill="#010071"/>
</g>
<g opacity="0.2">
<path fill-rule="evenodd" clip-rule="evenodd" d="M297.044 256.806C300.785 256.964 302.128 258.703 301.072 262.019C246.945 299.449 175.296 299.252 121.371 261.531C121.19 257.464 121.098 255.431 121.098 255.431C175.894 285.075 241.794 285.59 297.044 256.806Z" fill="#010071"/>
</g>
<g opacity="0.3">
<path fill-rule="evenodd" clip-rule="evenodd" d="M354.151 270.132C333.476 275.119 317.51 271.359 306.248 258.859C324.407 255.708 340.374 259.466 354.151 270.132Z" fill="#010071"/>
</g>
<g opacity="0.3">
<path fill-rule="evenodd" clip-rule="evenodd" d="M335.612 250.375C327.726 251.782 320.411 251.328 313.677 249.012C333.394 243.555 345.638 238.05 350.406 232.492C350.789 243.665 345.858 249.626 335.612 250.375Z" fill="#010071"/>
</g>
<path d="M210.546 166.836C215.956 166.836 220.341 165.909 220.341 164.765C220.341 163.621 215.956 162.694 210.546 162.694C205.137 162.694 200.752 163.621 200.752 164.765C200.752 165.909 205.137 166.836 210.546 166.836Z" fill="white"/>
<path d="M258.768 127.567C266.802 125.979 274.567 134.827 276.112 147.328C277.657 159.83 272.397 171.251 264.363 172.839C256.329 174.427 248.564 165.579 247.018 153.077C245.473 140.576 250.734 129.154 258.768 127.567Z" fill="#010071"/>
<path d="M259.512 132.795C262.121 133.725 263.371 137.917 262.306 142.158C261.24 146.399 258.262 149.083 255.653 148.153C253.045 147.223 251.794 143.031 252.86 138.79C253.925 134.549 256.904 131.865 259.512 132.795Z" fill="white"/>
<path d="M269.072 159.127C270.321 159.99 270.549 162.341 269.58 164.379C268.612 166.417 266.815 167.37 265.566 166.508C264.317 165.645 264.089 163.294 265.057 161.256C266.025 159.218 267.823 158.265 269.072 159.127Z" fill="#B199C5"/>
<path d="M169.918 151.255C170.815 138.666 164.949 127.99 156.817 127.409C148.685 126.828 141.366 136.562 140.47 149.151C139.573 161.74 145.439 172.416 153.571 172.997C161.703 173.578 169.022 163.843 169.918 151.255Z" fill="#010071"/>
<path d="M157.247 132.795C154.639 133.725 153.388 137.917 154.454 142.158C155.519 146.399 158.498 149.083 161.106 148.153C163.715 147.223 164.965 143.031 163.9 138.79C162.834 134.549 159.856 131.865 157.247 132.795Z" fill="white"/>
<path d="M147.688 159.127C146.438 159.99 146.211 162.341 147.179 164.379C148.147 166.417 149.945 167.37 151.194 166.508C152.443 165.645 152.671 163.294 151.702 161.256C150.734 159.218 148.936 158.265 147.688 159.127Z" fill="#B199C5"/>
</svg>
