<svg width="214" height="192" viewBox="0 0 214 192" fill="none" xmlns="http://www.w3.org/2000/svg">
<g clip-path="url(#clip0_550_10728)">
<path d="M115.054 156.293C114.433 156.375 113.817 156.412 113.209 156.412C107.202 156.412 101.995 152.753 100.648 151.723C99.9098 152.408 99.2786 152.971 98.9064 153.299C100.183 154.754 105.802 160.357 115.473 158.909C119.491 158.307 122.67 156.098 124.666 152.522C125.352 151.293 125.879 149.928 126.246 148.483C124.347 151.642 120.742 155.547 115.054 156.293Z" fill="white"/>
<path d="M117.024 127.333C113.765 126.429 110.244 127.026 107.606 128.932C104.299 131.32 102.053 136.592 102.598 140.683C102.808 142.259 103.508 144.255 105.537 145.593C105.538 145.594 105.539 145.594 105.54 145.595C105.549 145.601 105.558 145.606 105.567 145.613C106.003 145.897 106.5 146.151 107.066 146.364C111.211 147.926 113.051 145.893 113.78 144.541C114.85 142.557 114.704 139.74 113.486 138.854C113.274 138.7 113.227 138.403 113.381 138.191C113.535 137.977 113.834 137.931 114.045 138.086C115.66 139.26 115.933 142.552 114.617 144.992C113.911 146.3 111.731 149.138 106.731 147.254C106.257 147.075 105.825 146.871 105.433 146.647C104.523 147.94 102.832 149.654 101.353 151.059C102.947 152.239 108.781 156.157 114.93 155.351C122.347 154.378 125.993 147.661 126.804 145.076C127.076 141.683 126.557 138.116 125.224 134.998C123.538 131.054 120.626 128.332 117.024 127.333Z" fill="#FC9B28"/>
<path d="M106.633 142.701C102.862 140.034 106.02 130.622 106.02 130.622H105.814C103.534 133.325 102.159 137.386 102.598 140.683C102.808 142.259 103.508 144.255 105.537 145.593C105.538 145.594 105.539 145.594 105.54 145.595C105.549 145.601 105.558 145.606 105.567 145.613C106.003 145.897 106.5 146.151 107.066 146.364C111.211 147.926 113.051 145.893 113.78 144.541C114.547 143.119 114.686 141.272 114.256 140.011C114.202 142.641 110.023 145.098 106.633 142.701Z" fill="#EF7F25"/>
<path d="M115.973 152.675C109.014 154.097 105.754 150.099 106.899 149.405C111.722 150.835 117.281 148.914 117.077 143.396C116.873 137.877 114.045 138.086 114.045 138.086C115.66 139.26 115.933 142.552 114.617 144.992C113.911 146.3 111.731 149.138 106.731 147.254C106.257 147.075 105.825 146.871 105.433 146.647C104.523 147.94 102.832 149.654 101.353 151.059C102.947 152.239 108.781 156.157 114.93 155.351C122.347 154.378 125.993 147.661 126.804 145.076C126.956 143.176 126.86 141.223 126.513 139.324C126.435 144.756 122.022 151.439 115.973 152.675Z" fill="#EF7F25"/>
<g opacity="0.15">
<path d="M116.014 157.416C107.82 158.895 103.048 154.169 101.578 152.393C101.178 152.12 100.863 151.887 100.648 151.723C99.9098 152.408 99.2786 152.971 98.9064 153.299C100.183 154.754 105.802 160.357 115.473 158.908C119.335 158.33 122.418 156.264 124.425 152.929C122.82 154.814 120.221 156.657 116.014 157.416Z" fill="#000072"/>
</g>
<g opacity="0.3">
<path d="M126.246 148.483C126.169 148.612 126.087 148.743 126.004 148.874C126.081 148.767 126.156 148.657 126.228 148.546C126.234 148.525 126.241 148.505 126.246 148.483Z" fill="#040371"/>
</g>
<g opacity="0.4">
<path d="M106.363 130.015C106.476 129.974 111.79 128.035 116.442 129.012C116.338 129.108 116.253 129.218 116.196 129.345C115.8 130.225 116.75 131.51 118.317 132.215C119.748 132.859 121.196 132.795 121.739 132.109C123.999 134.359 125.519 136.933 126.374 138.629C126.102 137.378 125.72 136.157 125.224 134.998C123.538 131.054 120.626 128.332 117.024 127.333C113.765 126.429 110.244 127.026 107.606 128.932C107.54 128.979 107.478 129.035 107.413 129.084C106.888 129.547 106.466 129.921 106.377 130C106.372 130.005 106.368 130.01 106.363 130.015Z" fill="white"/>
</g>
<g opacity="0.4">
<path d="M120.521 134.181C119.951 133.925 119.373 133.976 119.229 134.296C119.085 134.616 119.43 135.083 120 135.34C120.569 135.596 121.148 135.544 121.292 135.224C121.436 134.905 121.091 134.437 120.521 134.181Z" fill="white"/>
</g>
<path d="M112.274 160.639C102.602 160.639 97.6611 154.155 97.4334 153.849C97.1177 153.424 97.1833 152.828 97.5836 152.481C97.6326 152.439 102.013 148.641 103.906 146.215C102.381 144.905 101.418 143.081 101.125 140.879C100.505 136.225 102.969 130.448 106.736 127.728C109.736 125.56 113.732 124.877 117.421 125.901C121.466 127.023 124.722 130.047 126.59 134.414C129.155 140.411 128.903 147.979 125.964 153.246C123.735 157.24 120.183 159.706 115.693 160.378C114.495 160.558 113.355 160.639 112.274 160.639ZM99.6605 153.346C101.356 155.156 106.59 159.696 115.394 158.379C119.241 157.803 122.286 155.687 124.199 152.261C126.848 147.513 127.062 140.66 124.731 135.208C123.11 131.418 120.322 128.804 116.881 127.85C113.776 126.989 110.427 127.556 107.919 129.366C104.756 131.651 102.607 136.696 103.129 140.612C103.366 142.387 104.274 144.739 107.255 145.863C110.044 146.914 112.193 146.354 113.309 144.287C114.331 142.392 114.087 139.954 113.171 139.288C112.719 138.959 112.619 138.327 112.948 137.875C113.276 137.424 113.908 137.324 114.36 137.653C116.206 138.995 116.546 142.544 115.088 145.247C113.48 148.228 110.286 149.166 106.541 147.755C106.211 147.63 105.894 147.49 105.59 147.336C104.041 149.354 101.06 152.096 99.6605 153.346Z" fill="#040371"/>
<path d="M113.216 156.948C106.188 156.948 100.247 152.099 99.9756 151.875C99.5455 151.519 99.4856 150.881 99.842 150.451C100.198 150.022 100.835 149.962 101.265 150.318C101.362 150.397 107.938 155.726 114.86 154.82C122.053 153.877 125.564 147.311 126.31 144.861C126.473 144.327 127.036 144.026 127.572 144.188C128.106 144.351 128.407 144.916 128.244 145.45C127.393 148.247 123.375 155.742 115.123 156.825C114.481 156.909 113.844 156.948 113.216 156.948Z" fill="#040371"/>
<path d="M28.5904 44.0933C30.0004 46.6126 32.1207 48.7443 34.5602 50.2972C35.3917 50.8437 36.2925 51.2763 37.2132 51.6858C36.2412 51.4369 35.2611 51.1556 34.3272 50.7457C31.4481 49.5289 28.8284 47.6188 26.8717 45.1582C26.05 43.9555 27.8764 42.8197 28.5904 44.0933Z" fill="#040371"/>
<path d="M55.9808 44.4325C54.5239 45.8289 52.1013 46.4645 50.1419 45.6118C48.2814 44.6948 47.0076 43.1215 45.5644 41.753C45.1109 41.3042 44.6713 40.8438 44.1926 40.4492C43.7175 40.054 43.2199 39.6657 42.5471 39.6963C44.3983 38.7773 47.8527 42.3188 49.2594 43.413C51.1162 45.2788 53.545 45.2886 55.9808 44.4325Z" fill="#040371"/>
<g opacity="0.15">
<path d="M86.5907 192C112.85 192 134.137 189.301 134.137 185.971C134.137 182.641 112.85 179.942 86.5907 179.942C60.3315 179.942 39.0443 182.641 39.0443 185.971C39.0443 189.301 60.3315 192 86.5907 192Z" fill="#000072"/>
</g>
<path d="M39.0581 24.1289C41.0697 24.6633 43.0839 25.4909 44.4271 27.1463C45.2186 28.0647 45.7732 29.165 46.0363 30.3506C45.1638 29.7511 44.237 28.7485 43.4735 28.0387L41.0639 25.7383C40.5155 25.3394 39.6522 24.6931 39.0581 24.1289Z" fill="#040371"/>
<path d="M38.5225 28.7876C35.5952 27.7342 31.2925 28.1348 31.2489 28.1391C31.0815 28.1555 30.9172 28.0813 30.8185 27.9451L19.9655 12.9843C19.8591 12.8377 19.8455 12.6434 19.9299 12.4834C19.9627 12.4209 23.1919 6.21248 20.8915 3.1822C19.8968 1.87233 18.2689 1.26751 16.5352 1.56048C14.1295 1.96916 12.1261 3.96676 11.1757 6.90393C11.1147 7.09326 10.9418 7.22413 10.7429 7.23248C10.6559 7.23588 2.04119 7.6526 1.81721 13.0316C1.77823 13.9653 2.08636 14.7418 2.75894 15.4054C5.53523 18.1452 13.2556 17.7529 13.3341 17.7489C13.3428 17.7486 13.3515 17.7483 13.3601 17.7483C13.5154 17.7483 13.6615 17.8244 13.7506 17.9528L23.3157 31.7489C23.3875 31.8522 23.4153 31.98 23.393 32.1037C23.3769 32.1928 21.8307 41.0411 25.1091 43.4715C26.2779 44.3381 27.4789 44.5611 28.6786 44.1364C30.5064 43.4882 32.0727 41.408 32.766 38.7075C32.8202 38.4975 33.0095 38.3508 33.2261 38.3505C33.2796 38.3505 38.5946 38.3193 40.3902 35.9622C41.2818 34.7921 41.546 33.1853 41.0968 31.6641C40.6878 30.2778 39.7491 29.2293 38.5225 28.7876Z" fill="white"/>
<g opacity="0.15">
<path d="M24.0744 35.7597C23.9518 38.4883 24.8261 43.8534 27.6921 42.995C30.5579 42.1366 30.6965 37.0883 30.2877 35.7393C29.8789 34.3904 21.7036 22.577 18.7605 18.2849C15.8173 13.9929 13.3749 11.9388 10.0639 10.3753C6.75286 8.81171 2.98202 12.0921 3.50316 14.0235C4.02437 15.9549 11.8727 17.4265 11.934 17.5185L12.424 17.7698C12.9759 17.7667 13.318 17.7497 13.3342 17.7489C13.3428 17.7486 13.3515 17.7483 13.3602 17.7483C13.5155 17.7483 13.6615 17.8244 13.7506 17.9528L23.3157 31.7488C23.3875 31.8522 23.4153 31.9799 23.3931 32.1037C23.3916 32.1116 23.3776 32.1919 23.3564 32.3282C23.758 33.2228 24.1342 34.4322 24.0744 35.7597ZM20.3956 22.6383C19.8744 22.5157 16.4407 18.2236 17.2071 18.3156C17.2071 18.3156 20.9167 22.7609 20.3956 22.6383Z" fill="#000072"/>
</g>
<path d="M20.3956 22.6383C20.9167 22.7609 17.2071 18.3155 17.2071 18.3155C16.4407 18.2236 19.8744 22.5156 20.3956 22.6383Z" fill="white"/>
<path d="M27.497 45.8327C26.3785 45.8328 25.2693 45.4404 24.2241 44.6655C20.6125 41.9879 21.5388 34.3113 21.8606 32.2581L12.8438 19.2529C10.8854 19.2968 4.49814 19.2098 1.71487 16.4632C0.741105 15.5022 0.27584 14.3268 0.332514 12.9697C0.572993 7.19613 7.6961 6.02655 9.99105 5.79952C11.197 2.67922 13.5124 0.566467 16.2867 0.0954372C18.5766 -0.294419 20.7399 0.524844 22.0749 2.2836C24.4989 5.47579 22.3461 10.8374 21.5254 12.6034L31.6905 26.6166C33.0395 26.5374 36.4319 26.4557 39.0256 27.3895C40.7028 27.9932 41.9773 29.3977 42.522 31.2427C43.1047 33.2163 42.7496 35.3174 41.5722 36.8629C39.7672 39.2317 35.7322 39.715 33.9928 39.8122C33.0853 42.6293 31.2832 44.7894 29.1752 45.537C28.6181 45.7345 28.0564 45.8327 27.497 45.8327ZM13.3603 17.2127C13.6908 17.2127 14.0017 17.3742 14.1909 17.6475L23.756 31.4435C23.9084 31.6633 23.9676 31.935 23.9202 32.1982C23.4924 34.586 22.9295 41.1888 25.4281 43.0414C26.4448 43.795 27.4784 43.9935 28.4996 43.6314C30.1362 43.051 31.6072 41.0658 32.247 38.5741C32.362 38.1271 32.7648 37.8146 33.2262 37.8146C34.64 37.8122 38.6087 37.4165 39.9641 35.6376C40.7409 34.6181 40.9779 33.1534 40.5831 31.8154C40.2225 30.5948 39.4053 29.675 38.341 29.2918C35.5218 28.2774 31.3431 28.6685 31.3005 28.6722C30.9473 28.7066 30.5954 28.5501 30.3847 28.2598L19.5321 13.2989C19.3057 12.987 19.2765 12.5736 19.4565 12.233C20.3256 10.5817 22.2017 5.79376 20.4648 3.50617C19.5929 2.35805 18.1561 1.82954 16.6252 2.08859C14.4199 2.46324 12.5732 4.32495 11.6856 7.06884C11.5553 7.47166 11.1874 7.75073 10.7644 7.7677C10.6834 7.77107 2.55606 8.17069 2.35241 13.0539C2.32039 13.8282 2.57624 14.4726 3.135 15.0242C5.30028 17.1606 11.2095 17.3302 13.3049 17.2141C13.3235 17.2131 13.3421 17.2127 13.3603 17.2127Z" fill="#040371"/>
<path d="M78.7668 163.259C78.6556 163.391 78.541 163.526 78.4197 163.66C78.3591 163.728 78.3018 163.795 78.2411 163.866C77.8266 164.344 77.3919 164.836 76.9438 165.335C76.8393 165.453 76.7348 165.571 76.627 165.689C76.5394 165.783 76.4552 165.881 76.3642 165.975C76.1788 166.181 75.9901 166.383 75.8014 166.589C75.7879 166.599 75.7778 166.612 75.7677 166.622C75.6397 166.761 75.5083 166.899 75.3768 167.037C75.0938 167.333 74.8074 167.63 74.5176 167.923L74.3019 168.139C73.9649 168.472 73.6279 168.803 73.2876 169.119C73.2168 169.183 73.1461 169.251 73.0753 169.315C72.5799 169.77 72.0812 170.204 71.5825 170.605C71.5117 170.666 71.441 170.72 71.3668 170.777C71.0568 171.027 70.7468 171.256 70.4368 171.475C70.2481 171.606 70.0594 171.734 69.874 171.852C69.8673 171.859 69.8606 171.866 69.8505 171.869C69.7191 171.953 69.591 172.034 69.4596 172.112C69.3147 172.199 69.1731 172.28 69.0282 172.358C68.9575 172.398 68.8867 172.435 68.8193 172.472C68.5261 172.624 68.2363 172.759 67.9499 172.873C67.8926 172.897 67.8387 172.917 67.7814 172.937C67.714 172.964 67.6466 172.988 67.5792 173.011C67.5085 173.035 67.4411 173.059 67.3737 173.079C67.0333 173.183 66.7031 173.257 66.3762 173.301C66.3122 173.308 66.2482 173.315 66.1808 173.322C65.9584 173.338 65.7427 173.342 65.5304 173.328C60.3882 173.005 51.2596 168.018 48.9682 163.361C48.2774 161.955 48.2976 160.709 49.0288 159.661C49.568 158.889 50.1374 158.269 50.7103 157.774H50.7137C52.4558 156.271 54.2654 155.917 55.583 155.917C56.6916 155.917 57.4498 156.166 57.5273 156.19C57.5273 156.193 57.5307 156.193 57.5307 156.193C57.9586 156.318 58.4034 156.476 58.8314 156.638C59.2695 156.806 59.7042 156.988 60.1287 157.191C60.9712 157.598 61.8001 158.067 62.4842 158.724C62.3561 158.552 62.218 158.383 62.0697 158.225L62.063 158.218L62.0596 158.215C61.9989 158.148 61.9349 158.08 61.8675 158.016C61.4126 157.561 60.9004 157.157 60.3714 156.786C59.9737 156.506 59.5626 156.25 59.1482 156.004C58.8381 155.822 58.5248 155.654 58.2046 155.485C58.2248 155.354 58.2518 155.219 58.2788 155.084C58.299 154.99 58.3192 154.896 58.3428 154.801C58.3731 154.66 58.4102 154.515 58.4506 154.367C58.4776 154.255 58.5079 154.144 58.5416 154.033C58.5551 153.986 58.5686 153.939 58.5854 153.892C58.6393 153.71 58.6966 153.524 58.7573 153.339C58.8145 153.157 58.8786 152.978 58.9392 152.796C59.0134 152.598 59.0841 152.399 59.1616 152.2C59.229 152.025 59.2964 151.85 59.3672 151.678C59.3706 151.657 59.3807 151.641 59.3874 151.624C59.4548 151.462 59.5188 151.3 59.5862 151.142C60.8128 152.729 66.6829 159.597 78.7668 163.259Z" fill="white"/>
<path d="M111.167 118.572C110.676 113.301 108.948 106.744 108.499 105.103C105.344 105.427 84.7784 107.081 64.2236 97.7346C63.2236 99.3195 59.0505 106.227 56.5366 114.912C53.9308 123.914 52.6325 136.72 61.1526 146.746C61.4878 146.2 61.1546 148.185 60.3182 149.492C60.0851 149.988 59.8336 150.55 59.586 151.141C60.8132 152.728 66.6838 159.598 78.7683 163.259C78.9392 163.061 79.108 162.866 79.2718 162.676C81.607 159.971 82.7651 158.664 83.5647 158.506L83.7793 158.464C87.0227 157.835 91.5985 156.696 95.9263 154.756C96.4141 154.311 101.19 151.912 102.613 150.748C102.643 150.717 102.676 150.69 102.712 150.669C104.012 149.593 105.16 148.387 106.076 147.036C107.766 144.544 108.939 141.626 109.747 138.619C109.748 138.542 109.768 138.467 109.806 138.398C112.026 129.933 111.378 120.826 111.167 118.572Z" fill="#FAA327"/>
<path d="M89.3849 158.097C89.4051 159.883 89.1288 161.494 88.657 162.936C86.7935 168.654 81.8872 171.731 80.3876 172.56C79.6834 171.893 79.0027 171.151 78.3995 170.444C77.365 169.224 76.5495 168.098 76.1822 167.573C77.5402 166.134 78.8308 164.641 79.9968 163.286C81.5165 161.527 83.2418 159.529 83.7506 159.431L83.9629 159.388C85.5231 159.084 87.39 158.666 89.3849 158.097Z" fill="#FC9B28"/>
<path d="M98.2564 161.917C97.0064 159.99 95.9149 158.296 96.1673 155.678C93.8905 156.688 91.5594 157.48 89.3863 158.097C89.4895 166.957 82.2682 171.523 80.3869 172.559C81.2044 173.332 82.0614 174.011 82.8892 174.439C83.3614 174.52 83.9075 174.547 84.426 174.539C84.9841 174.529 85.5466 174.482 86.1051 174.393C86.6615 174.298 87.2212 174.186 87.766 174.017C88.3158 173.861 88.8503 173.655 89.3822 173.434C88.8873 173.724 88.3811 174.005 87.8497 174.237C87.3234 174.484 86.772 174.676 86.2128 174.852C85.6513 175.022 85.075 175.151 84.4881 175.243C84.0707 175.304 83.6634 175.35 83.2327 175.362C83.3497 177.251 84.1298 184.222 89.2701 185.003C91.7141 185.375 94.5155 184.208 96.9546 181.802C100.321 178.482 102.092 173.722 101.467 169.676C100.896 165.986 99.4936 163.824 98.2564 161.917Z" fill="white"/>
<g opacity="0.15">
<path d="M101.132 176.3C100.596 179.582 94.8539 184.121 94.8539 184.121C86.524 187.889 84.1651 180.839 84.1651 180.839C85.4153 181.931 88.7817 183.673 91.8582 182.012C94.9348 180.351 98.5034 175.407 96.8623 170.828C95.6121 167.34 91.7673 164.065 88.657 162.936C89.1288 161.494 89.4051 159.883 89.3849 158.097C87.39 158.666 85.5231 159.084 83.9629 159.388L83.7506 159.431C83.2418 159.529 81.5165 161.527 79.9968 163.286C78.8308 164.641 77.5402 166.134 76.1822 167.573C76.5495 168.098 77.365 169.224 78.3995 170.444C77.5604 170.258 75.825 167.434 75.825 167.434C75.825 167.434 81.3008 161.389 81.4558 161.238C81.6109 161.083 82.6622 159.017 86.0589 158.471C89.4556 157.922 96.212 155.307 96.212 155.307C96.212 155.307 96.6264 157.012 96.6264 157.891C96.6264 158.774 99.7367 163.576 101.132 166.363C102.527 169.153 101.664 173.018 101.132 176.3Z" fill="#000072"/>
</g>
<path d="M89.3849 158.097C89.4051 159.883 89.1288 161.494 88.657 162.936C87.6865 162.579 86.7868 162.437 86.0589 162.562C83.0093 163.091 78.3995 170.444 78.3995 170.444C77.365 169.224 76.5495 168.098 76.1822 167.573C77.5402 166.134 78.8308 164.641 79.9968 163.286C81.5165 161.527 83.2418 159.529 83.7506 159.431L83.9629 159.388C85.5231 159.084 87.39 158.666 89.3849 158.097Z" fill="#EF7F25"/>
<g opacity="0.4">
<path d="M79.1874 145.621C79.3133 144.543 77.3338 143.426 74.7661 143.126C72.1984 142.826 70.0147 143.457 69.8888 144.536C69.7629 145.614 71.7424 146.731 74.3101 147.031C76.8778 147.331 79.0615 146.7 79.1874 145.621Z" fill="white"/>
</g>
<g opacity="0.4">
<path d="M87.1918 177.545C87.4405 177.545 87.6421 177.346 87.6421 177.1C87.6421 176.855 87.4405 176.656 87.1918 176.656C86.9431 176.656 86.7414 176.855 86.7414 177.1C86.7414 177.346 86.9431 177.545 87.1918 177.545Z" fill="white"/>
</g>
<path d="M79.1762 164.396C79.0821 164.396 78.9864 164.382 78.8912 164.355C64.6915 160.188 58.7487 151.735 58.5028 151.377C58.1864 150.917 58.3026 150.288 58.7628 149.972C59.2232 149.655 59.8512 149.772 60.1675 150.23C60.2242 150.312 65.9935 158.463 79.4606 162.415C79.9963 162.572 80.3031 163.134 80.1458 163.669C80.0165 164.11 79.6136 164.396 79.1762 164.396Z" fill="#040371"/>
<path d="M79.9428 173.802C79.5634 173.802 79.1999 173.588 79.0277 173.222C78.7901 172.717 79.0059 172.115 79.5102 171.877C79.8874 171.698 88.7499 167.378 88.3721 157.694C88.3503 157.136 88.7851 156.666 89.3429 156.645C89.3564 156.644 89.3698 156.644 89.383 156.644C89.9232 156.644 90.3711 157.071 90.3926 157.615C90.8233 168.656 80.7997 173.505 80.3729 173.705C80.2336 173.771 80.0872 173.802 79.9428 173.802Z" fill="#040371"/>
<path d="M80.5916 161.726C80.7615 160.801 80.9703 160.038 81.3864 159.248C81.7424 158.717 82.1891 158.237 82.4331 157.631C82.567 157.375 82.7105 156.986 82.8325 156.72C83.1384 155.913 83.353 155.08 83.5387 154.23C83.5487 154.171 83.6065 154.131 83.6652 154.146C83.705 154.156 83.7335 154.188 83.7409 154.226C84.0727 155.676 84.0949 157.177 83.7287 158.637C83.6307 159.01 83.5552 159.393 83.4412 159.765C83.2121 160.534 82.6275 161.131 81.938 161.528C81.7912 161.635 80.5387 162.149 80.5916 161.726Z" fill="#040371"/>
<path d="M93.405 104.639C93.405 104.639 93.2668 104.781 93.0377 105.057C92.4075 105.819 91.0832 107.601 90.0622 110.236C89.1523 112.585 88.4818 115.608 88.748 119.19C89.4253 128.265 84.4179 133.919 84.4179 133.919C84.4179 133.919 80.7785 133.848 76.0811 135.007C71.3837 136.167 64.8363 141.481 64.8363 141.481C59.1549 142.697 56.3344 139.247 56.3344 139.247C56.3344 139.247 53.4937 135.328 54.3092 123.57C55.1247 111.813 64.4656 97.3269 64.4656 97.3269C74.9455 103.595 93.405 104.639 93.405 104.639Z" fill="white"/>
<g opacity="0.35">
<path d="M118.306 137.368C118.253 137.245 118.195 137.127 118.134 137.012C118.146 137.097 118.155 137.187 118.161 137.282C118.214 137.31 118.262 137.339 118.306 137.368Z" fill="#040371"/>
</g>
<g opacity="0.4">
<path d="M118.306 137.368C118.253 137.245 118.195 137.127 118.134 137.012C118.146 137.097 118.155 137.187 118.161 137.282C118.214 137.31 118.262 137.339 118.306 137.368Z" fill="white"/>
</g>
<path d="M109.805 138.397C109.768 138.468 109.748 138.542 109.748 138.62C108.939 141.626 107.767 144.544 106.075 147.037C105.159 148.385 104.013 149.592 102.712 150.67C102.675 150.69 102.645 150.717 102.614 150.747C101.189 151.913 96.4141 154.309 95.9255 154.757C91.5988 156.695 87.0227 157.834 83.781 158.464L83.5653 158.505C82.7667 158.663 81.6075 159.97 79.2723 162.676C79.1071 162.865 78.942 163.061 78.7668 163.259C66.6829 159.596 60.8128 152.729 59.5862 151.142C59.8322 150.549 60.0849 149.986 60.3174 149.491C61.1531 148.186 62.0394 146.916 62.9796 145.69C64.3645 143.91 65.7967 142.158 67.4175 140.578C66.9794 141.541 65.9483 144.045 66.1909 145.828C66.5009 148.075 76.1013 153.608 86.0117 148.321C95.9188 143.031 84.7178 133.916 86.625 133.919C88.1482 133.922 95.2752 135.766 98.0788 136.507C99.7199 136.942 106.587 117.424 94.5237 111.992C93.041 111.325 91.5516 110.742 90.0622 110.236C91.0832 107.601 92.4075 105.819 93.0376 105.057C101.064 105.755 106.931 105.266 108.498 105.104C108.542 105.263 108.596 105.465 108.66 105.707C109.27 107.992 110.722 113.805 111.167 118.573C111.18 118.701 111.19 118.849 111.207 119.021C111.443 121.855 111.901 130.411 109.805 138.397Z" fill="#EF7F25"/>
<g opacity="0.15">
<path d="M78.7668 163.259C78.6556 163.391 78.541 163.526 78.4197 163.66C78.3591 163.728 78.3018 163.795 78.2411 163.866C77.8266 164.344 77.3919 164.836 76.9438 165.335C76.8393 165.453 76.7348 165.571 76.627 165.689C76.5394 165.783 76.4552 165.881 76.3642 165.975C76.1788 166.181 75.9901 166.383 75.8014 166.589C75.7879 166.599 75.7778 166.612 75.7677 166.622C75.6397 166.761 75.5083 166.899 75.3768 167.037C75.0938 167.333 74.8074 167.63 74.5176 167.923L74.3019 168.139C73.9649 168.472 73.6279 168.803 73.2876 169.119C73.2168 169.183 73.1461 169.251 73.0753 169.315C72.5799 169.77 72.0812 170.204 71.5825 170.605C71.5117 170.666 71.441 170.72 71.3668 170.777C71.0568 171.027 70.7468 171.256 70.4368 171.475C70.2481 171.606 70.0594 171.734 69.874 171.852C69.8673 171.859 69.8606 171.866 69.8505 171.869C69.7191 171.953 69.591 172.034 69.4596 172.112C69.3147 172.199 69.1731 172.28 69.0282 172.358C68.9575 172.398 68.8867 172.435 68.8193 172.472C68.5261 172.624 68.2363 172.759 67.9499 172.873C67.8926 172.897 67.8387 172.917 67.7814 172.937C67.714 172.964 67.6466 172.988 67.5792 173.011C67.5085 173.035 67.4411 173.059 67.3737 173.079C67.0333 173.183 66.7031 173.257 66.3762 173.301C66.3122 173.308 66.2482 173.315 66.1808 173.322C65.9584 173.338 65.7427 173.342 65.5304 173.328C60.3882 173.005 51.2596 168.018 48.9682 163.361C48.2774 161.955 48.2976 160.709 49.0288 159.661C49.568 158.889 50.1374 158.269 50.7103 157.774H50.7137C51.8931 157.521 53.3758 157.993 55.7919 159.647C58.9898 161.834 64.4892 163.536 64.4488 161.874C64.4083 160.264 62.2079 158.343 62.0697 158.225L62.063 158.218L62.0596 158.215C61.9989 158.148 61.9349 158.08 61.8675 158.016C61.4126 157.561 60.9004 157.157 60.3714 156.786C59.9737 156.506 59.5626 156.25 59.1482 156.004C58.8381 155.822 58.5248 155.654 58.2046 155.485C58.2248 155.354 58.2518 155.219 58.2788 155.084C58.299 154.99 58.3192 154.896 58.3428 154.801C58.3731 154.66 58.4102 154.515 58.4506 154.367C58.4776 154.255 58.5079 154.144 58.5416 154.033C58.5551 153.986 58.5686 153.939 58.5854 153.892C58.636 153.71 58.6932 153.524 58.7573 153.339C58.8145 153.157 58.8786 152.978 58.9392 152.796C59.0134 152.598 59.0841 152.399 59.1616 152.2C59.229 152.025 59.2964 151.85 59.3672 151.678C59.3706 151.657 59.3807 151.641 59.3874 151.624C59.4548 151.462 59.5188 151.3 59.5862 151.142C60.8128 152.729 66.6829 159.597 78.7668 163.259Z" fill="#000072"/>
</g>
<g opacity="0.15">
<path d="M93.0376 105.057C92.4075 105.819 91.0832 107.601 90.0622 110.236C79.4374 106.628 69.0552 107.008 64.4488 109.569C62.2887 110.769 60.1658 113.276 58.4203 116.481C57.6217 117.94 56.9039 119.544 56.294 121.239C55.5324 123.358 54.9393 125.613 54.5788 127.897C54.572 125.545 54.7911 123.24 55.1483 121.047V121.043C55.4987 118.87 55.9873 116.807 56.5366 114.914C56.6175 114.631 56.7017 114.351 56.786 114.075C59.3166 105.785 63.2559 99.268 64.223 97.7347C74.5647 102.439 84.9065 104.356 93.0376 105.057Z" fill="#000072"/>
</g>
<g opacity="0.4">
<path d="M56.8982 157.164C59.6146 157.505 61.7156 158.121 61.771 158.137C61.2558 157.768 60.6965 157.464 60.1276 157.191C59.7046 156.987 59.2697 156.808 58.8326 156.639C58.403 156.475 57.959 156.319 57.5311 156.192C57.5295 156.191 57.5277 156.191 57.526 156.191C57.449 156.164 56.6903 155.915 55.5839 155.915C54.3169 155.915 52.5936 156.248 50.913 157.609C51.0333 157.57 53.5936 156.748 56.8982 157.164Z" fill="white"/>
</g>
<g opacity="0.4">
<path d="M84.8909 177.863C85.4413 177.863 85.8875 177.422 85.8875 176.878C85.8875 176.511 85.6816 176.195 85.3801 176.026C86.2368 175.666 87.5607 174.981 88.4951 173.926C88.2834 174.036 88.0691 174.141 87.8497 174.237C87.3234 174.484 86.772 174.676 86.2128 174.852C85.6513 175.022 85.075 175.151 84.4881 175.243C84.0707 175.304 83.6634 175.35 83.2327 175.362C83.3008 176.461 83.5952 179.279 84.8402 181.599C84.7501 180.718 84.5875 179.039 84.5231 177.791C84.6371 177.836 84.7607 177.863 84.8909 177.863Z" fill="white"/>
</g>
<path d="M65.7898 174.818C65.672 174.818 65.5551 174.815 65.4379 174.808C59.765 174.451 50.0991 169.126 47.6066 163.959C46.7007 162.081 46.7702 160.303 47.808 158.815C50.9 154.383 54.933 154.282 56.8742 154.548C57.4838 151.845 59.033 148.667 59.7141 147.348C52.8766 139.035 51.2839 127.688 55.1136 114.479C58.0365 104.396 62.9937 96.888 63.2031 96.5733C63.4932 96.1381 64.0671 95.9956 64.5266 96.245C84.3284 106.984 108.68 104.299 108.923 104.27C109.415 104.216 109.876 104.521 110.013 104.997C110.096 105.29 112.072 112.253 112.649 118.435C112.944 121.599 114.074 137.891 107.309 147.866C102.184 155.422 90.5453 158.661 84.0636 159.919L83.8955 159.952C83.3624 160.211 81.7216 162.112 80.4004 163.642C76.3142 168.376 70.7524 174.818 65.7898 174.818ZM55.6016 156.459C53.9775 156.459 51.5138 157.037 49.4661 159.972C48.8541 160.849 48.8417 161.866 49.4276 163.081C51.5734 167.529 60.6251 172.479 65.5647 172.79C69.6128 173.034 75.1835 166.591 78.8698 162.321C81.3508 159.447 82.4885 158.169 83.4623 157.976L83.6784 157.934C89.854 156.735 100.918 153.686 105.635 146.731C110.581 139.439 111.42 127.032 110.636 118.622C110.188 113.823 108.825 108.378 108.289 106.36C103.764 106.732 82.4555 107.874 64.3991 98.467C63.0735 100.629 59.3487 107.106 57.0416 115.089C53.2948 128.055 54.8594 138.642 61.6917 146.557C61.9674 146.876 62.0158 147.333 61.8128 147.703C61.7856 147.753 59.0891 152.702 58.6878 155.874C58.6497 156.176 58.4768 156.445 58.2174 156.606C57.9584 156.767 57.6398 156.801 57.3522 156.701C57.2834 156.678 56.6017 156.459 55.6016 156.459Z" fill="#040371"/>
<path d="M58.0443 154.802C59.7212 155.853 61.4112 157.054 62.4856 158.725C60.9853 157.585 59.1236 157.074 57.3252 156.691C55.7451 156.302 56.6047 154.042 58.0443 154.802Z" fill="#040371"/>
<path d="M94.0347 135.633C88.4612 134.248 82.5875 133.794 77.0659 135.443C73.454 136.467 70.1479 138.417 67.4806 141.045C63.3841 145.01 60.2572 149.691 57.7823 154.91C57.7607 154.964 57.6966 154.989 57.6443 154.964C57.603 154.944 57.5811 154.901 57.5871 154.858C57.8675 152.904 58.4733 151.017 59.2388 149.196C63.0202 139.763 72.4528 133.389 82.6007 133.45C86.541 133.458 90.4211 134.19 94.092 135.439C94.1449 135.457 94.1732 135.514 94.1551 135.567C94.1382 135.617 94.0852 135.645 94.0347 135.633Z" fill="#040371"/>
<path d="M90.179 186.553C89.797 186.553 89.4185 186.524 89.0458 186.468C82.7946 185.518 81.8804 177.761 81.7469 175.501C78.3293 173.446 74.8806 168.312 74.7282 168.084C74.4182 167.62 74.5437 166.992 75.008 166.682C75.4724 166.372 76.0996 166.497 76.4099 166.962C76.4464 167.016 80.084 172.428 83.1891 173.989C83.5285 174.16 83.7434 174.507 83.746 174.886C83.7466 174.973 83.8827 183.638 89.3493 184.469C91.6603 184.819 94.327 183.677 96.6662 181.332C99.8545 178.136 101.532 173.593 100.939 169.759C100.386 166.184 99.0178 164.074 97.81 162.213C96.4203 160.071 95.1074 158.047 95.7705 154.688C95.8785 154.141 96.41 153.783 96.9579 153.892C97.5058 154 97.8622 154.532 97.7539 155.08C97.2499 157.634 98.1962 159.093 99.5061 161.112C100.759 163.044 102.318 165.447 102.937 169.45C103.625 173.899 101.725 179.123 98.0975 182.76C95.6524 185.211 92.8249 186.553 90.179 186.553Z" fill="#040371"/>
<path d="M82.8762 173.892C84.4396 174.304 86.1316 174.211 87.7182 173.891C88.2783 173.779 88.8292 173.615 89.3822 173.434C88.9067 173.764 88.4154 174.088 87.8936 174.365C86.4283 175.161 84.7978 175.71 83.1231 175.872C82.8968 175.895 82.6659 175.901 82.4227 175.887C80.7937 175.717 81.3328 173.341 82.8762 173.892Z" fill="#040371"/>
<path d="M126.325 56.2C125.364 52.314 121.822 46.1906 116.074 41.2713C111.336 37.2152 103.366 32.4976 91.9435 32.4976C91.443 32.4976 90.9375 32.5065 90.4233 32.5251C79.2024 32.9301 70.1761 40.1317 63.3062 48.8727C63.2796 48.921 63.247 48.9629 63.207 48.9981C58.9895 54.3895 55.592 60.3534 53.0018 65.6661C52.0961 67.5236 51.2872 69.3029 50.5792 70.9483C48.9819 74.6598 49.0382 78.6872 50.7428 82.5952C53.0946 87.9872 59.6926 95.7651 77.771 102.197C90.8051 106.834 100.789 105.941 106.869 104.375C113.455 102.68 117.01 99.8506 117.045 99.8225C117.049 99.8194 117.053 99.816 117.057 99.8132C121.199 96.6752 123.941 92.7058 125.696 88.4038C130.399 76.8732 127.994 62.9482 126.325 56.2Z" fill="#FAA327"/>
<path d="M125.697 88.4038C125.589 88.67 125.478 88.9396 125.357 89.2058C125.296 89.3406 125.239 89.472 125.175 89.6068C125.06 89.8595 124.942 90.1123 124.818 90.365C124.555 90.8974 124.272 91.4264 123.972 91.9454C123.898 92.0735 123.824 92.1981 123.749 92.3262C123.672 92.4509 123.598 92.5789 123.52 92.7036C123.369 92.9529 123.207 93.2023 123.042 93.4483C122.958 93.573 122.873 93.6977 122.789 93.819C122.705 93.9403 122.621 94.0616 122.533 94.1829C122.449 94.3042 122.361 94.4289 122.267 94.5502C122.179 94.6682 122.092 94.7861 122.001 94.904C121.893 95.0489 121.782 95.1905 121.667 95.332C121.499 95.5443 121.327 95.7532 121.148 95.9588C120.953 96.1879 120.75 96.4171 120.541 96.6428C120.44 96.7574 120.336 96.8686 120.228 96.9798C120.12 97.0977 120.009 97.2123 119.895 97.3269C119.79 97.4313 119.686 97.5358 119.578 97.6402C119.467 97.7515 119.355 97.8593 119.241 97.9637C119.13 98.0716 119.015 98.1794 118.897 98.2839C118.317 98.8129 117.704 99.3218 117.057 99.8137C117.054 99.8171 117.05 99.8205 117.044 99.8239C117.01 99.8508 113.455 102.678 106.87 104.376C100.788 105.94 90.8035 106.833 77.7693 102.196C59.6941 95.7667 53.0961 87.986 50.744 82.5944C49.0389 78.6888 48.9816 74.6586 50.5789 70.9485C51.2865 69.3041 52.0953 67.5249 53.0017 65.6648C53.7464 65.5637 55.1382 65.503 56.6478 66.0927C57.3217 66.3556 58.0159 66.7498 58.6899 67.326C61.5912 69.8196 65.3518 73.0917 69.2776 72.1077C73.2 71.1271 79.7339 67.0396 85.0918 70.9654C90.4531 74.8878 93.8026 85.6002 102.47 86.5808C106.368 87.0222 110.803 86.1831 114.796 85.6912C114.796 85.6912 114.796 85.6878 114.799 85.6878C119.679 85.0913 123.905 85.0071 125.697 88.4038Z" fill="white"/>
<path d="M90.3892 31.5753C90.8924 31.5572 91.3873 31.5512 91.8781 31.5505C90.9971 28.6708 86.8691 16.4545 80.5726 17.5165C74.5994 18.5284 66.8174 38.9776 64.2273 46.2536C71.0211 38.2692 79.7245 31.9601 90.3892 31.5753Z" fill="#FAA327"/>
<path d="M133.39 34.3259C130.698 32.5309 119.417 36.6266 114.382 38.7252C115.22 39.3363 115.992 39.9497 116.693 40.5492C123.004 45.9517 126.323 52.2338 127.248 55.9716C128.352 60.4355 129.045 64.8673 129.309 69.0817C135.212 60.9722 136.39 47.0955 135.277 39.4784C134.882 36.7767 134.177 34.8502 133.39 34.3259Z" fill="#FAA327"/>
<path d="M102.428 59.1719C103.328 58.0452 105.786 57.7609 107.742 58.7018C109.631 59.61 111.912 61.4405 110.604 62.953C109.296 64.4654 107.456 63.8523 104.472 62.5442C101.488 61.2361 101.815 60.296 102.428 59.1719Z" fill="white"/>
<path d="M70.3726 47.9937C71.1361 48.0094 71.8832 48.202 72.5679 48.5404C73.8701 49.184 76.3216 50.5719 76.2642 51.8746C76.186 53.6464 73.9249 53.8085 71.4117 53.0082C68.8985 52.2079 67.9958 50.5242 67.8788 49.2214C67.795 48.2891 69.1027 47.9674 70.3726 47.9937Z" fill="white"/>
<path d="M71.7095 39.4284C71.7095 39.4284 75.695 24.774 79.3126 24.2835C82.9302 23.793 82.9915 33.2968 82.9915 33.2968C82.9915 33.2968 74.5504 36.5057 71.7095 39.4284Z" fill="#FD69AA"/>
<path d="M119.597 44.5993C119.597 44.5993 127.159 38.9583 129.939 40.5525C132.718 42.1467 131.982 53.2243 127.404 59.315C127.404 59.315 124.992 47.6242 119.597 44.5993Z" fill="#FD69AA"/>
<g opacity="0.4">
<path d="M93.407 38.6981C92.1401 39.0268 91.2509 39.8246 91.4209 40.4799C91.591 41.1353 92.7559 41.4 94.0228 41.0713C95.2897 40.7426 96.1788 39.9448 96.0088 39.2895C95.8388 38.6342 94.6739 38.3693 93.407 38.6981Z" fill="white"/>
</g>
<path d="M62.5348 49.8776C60.9914 53.3147 58.2046 59.9363 56.6478 66.0928C55.1382 65.5031 53.7465 65.5637 53.0017 65.6648C55.4515 60.6405 58.6292 55.0333 62.5348 49.8776Z" fill="#EF7F25"/>
<path d="M125.697 88.4039C123.905 85.0072 119.679 85.0914 114.799 85.6879C119.453 81.0882 122.914 75.2248 124.299 69.0818C126.428 59.6128 124.211 52.5633 122.816 49.3789C123.187 49.7732 123.544 50.1641 123.874 50.5516C125.104 52.6509 125.933 54.6121 126.324 56.1993C127.992 62.9489 130.401 76.8726 125.697 88.4039Z" fill="#EF7F25"/>
<g opacity="0.15">
<path d="M125.697 88.4039C125.589 88.6701 125.478 88.9397 125.357 89.2059C125.296 89.3407 125.239 89.4721 125.175 89.6069C125.06 89.8596 124.942 90.1124 124.818 90.3651C124.555 90.8975 124.272 91.4266 123.972 91.9455C123.898 92.0736 123.824 92.1983 123.749 92.3263C123.672 92.451 123.598 92.579 123.52 92.7037C123.369 92.9531 123.207 93.2024 123.042 93.4484C122.958 93.5731 122.873 93.6978 122.789 93.8191C122.705 93.9404 122.621 94.0617 122.533 94.183C122.449 94.3043 122.361 94.429 122.267 94.5503C122.179 94.6683 122.092 94.7862 122.001 94.9041C121.893 95.049 121.782 95.1906 121.667 95.3321C121.499 95.5444 121.327 95.7533 121.148 95.9589C120.953 96.188 120.75 96.4172 120.541 96.6429C120.44 96.7575 120.336 96.8687 120.228 96.9799C120.12 97.0979 120.009 97.2124 119.895 97.327C119.79 97.4314 119.686 97.5359 119.578 97.6404C119.467 97.7516 119.355 97.8594 119.241 97.9639C119.13 98.0717 119.015 98.1796 118.897 98.284C118.317 98.8131 117.704 99.3219 117.057 99.8139C117.054 99.8172 117.05 99.8206 117.044 99.824C117.01 99.8509 113.455 102.678 106.87 104.377C100.788 105.94 90.8035 106.833 77.7693 102.196C59.6941 95.7668 53.0961 87.9861 50.744 82.5945C49.0389 78.6889 48.9816 74.6587 50.5789 70.9486C51.2865 69.3042 52.0953 67.525 53.0017 65.6649C53.7464 65.5638 55.1382 65.5031 56.6478 66.0928C55.5324 70.5005 55.0505 74.6722 56.1154 77.2602C59.3032 85.0274 82.4398 95.9825 95.6829 95.0019C102.719 94.4796 109.519 90.8975 114.796 85.6913C114.796 85.6913 114.796 85.6879 114.799 85.6879C119.679 85.0914 123.905 85.0072 125.697 88.4039Z" fill="#000072"/>
</g>
<path d="M70.4882 39.9468C70.6792 38.9944 71.0439 37.3756 71.7095 34.9932C72.7089 31.4163 76.9121 21.6126 78.0866 18.8982C72.8239 23.5869 66.9616 38.6728 64.5164 45.4474C64.4538 45.7004 64.3995 45.9232 64.3555 46.1053C66.2518 43.8903 68.2954 41.807 70.4882 39.9468Z" fill="#EF7F25"/>
<path d="M135.277 39.4785C135.073 38.0844 134.786 36.8991 134.449 36.004C134.322 35.8872 134.186 35.7926 134.036 35.7191C134.168 37.3408 134.35 41.509 133.454 47.2154C132.481 53.4106 129.415 59.7303 128.429 61.6481C128.86 64.1738 129.157 66.6642 129.309 69.0818C135.212 60.9723 136.39 47.0956 135.277 39.4785Z" fill="#EF7F25"/>
<g opacity="0.4">
<path d="M84.4426 20.4411C86.8622 22.8261 88.4124 29.6331 88.8334 31.6785C89.3478 31.6315 89.8654 31.5943 90.3893 31.5754C90.8925 31.5573 91.3873 31.5513 91.8781 31.5506C91.0453 28.8284 87.3103 17.7648 81.5854 17.46C81.5086 17.456 80.8724 17.4797 80.2722 17.5841C79.9154 17.6818 79.5526 17.8463 79.1854 18.0696C79.2275 18.0619 81.6067 17.6457 84.4426 20.4411Z" fill="white"/>
</g>
<g opacity="0.4">
<path d="M134.036 35.7192C133.997 35.2324 133.961 34.9723 133.961 34.9723C133.778 34.6758 133.587 34.4571 133.39 34.326C130.698 32.531 119.417 36.6267 114.382 38.7253C115.22 39.3364 115.992 39.9498 116.693 40.5493C116.753 40.6006 116.808 40.6533 116.867 40.7048C118.392 39.9081 126.42 35.791 129.816 35.6065C132.105 35.482 133.262 35.3401 134.036 35.7192Z" fill="white"/>
</g>
<g opacity="0.4">
<path d="M134.068 35.1591C134.087 35.1936 134.108 35.2331 134.131 35.2775C134.11 35.2371 134.089 35.1974 134.068 35.1591Z" fill="white"/>
</g>
<g opacity="0.3">
<path d="M134.449 36.004C134.347 35.7345 134.241 35.4917 134.131 35.2775C134.108 35.2331 134.087 35.1936 134.068 35.1591C134.033 35.0946 133.997 35.0308 133.961 34.9723C133.961 34.9723 133.997 35.2324 134.036 35.7191C134.186 35.7926 134.322 35.8872 134.449 36.004Z" fill="#040371"/>
</g>
<g opacity="0.4">
<path d="M134.449 36.004C134.347 35.7345 134.241 35.4917 134.131 35.2775C134.108 35.2331 134.087 35.1936 134.068 35.1591C134.033 35.0946 133.997 35.0308 133.961 34.9723C133.961 34.9723 133.997 35.2324 134.036 35.7191C134.186 35.7926 134.322 35.8872 134.449 36.004Z" fill="white"/>
</g>
<g opacity="0.4">
<path d="M80.3407 37.7204C80.9674 39.2784 83.8854 39.8823 87.0547 39.06C90.0191 38.2908 92.1841 36.5379 92.2808 34.9509C103.955 34.9492 116.25 42.4173 122.817 49.3802C122.358 48.3319 121.99 47.7052 121.893 47.5463C120.322 45.4088 118.379 43.2435 116.074 41.2713C111.336 37.2151 103.366 32.4976 91.9435 32.4976C91.443 32.4976 90.9375 32.5065 90.4233 32.5251C79.2024 32.9301 70.1762 40.1316 63.3064 48.8725L63.3062 48.8727C63.3062 48.8727 70.9775 41.7795 80.3407 37.7204Z" fill="white"/>
</g>
<g opacity="0.3">
<path d="M123.875 50.5522C123.302 49.572 122.64 48.5633 121.893 47.5464C121.99 47.7052 122.358 48.332 122.817 49.3803C123.187 49.773 123.542 50.1642 123.875 50.5522Z" fill="#040371"/>
</g>
<g opacity="0.4">
<path d="M123.875 50.5522C123.302 49.572 122.64 48.5633 121.893 47.5464C121.99 47.7052 122.358 48.332 122.817 49.3803C123.187 49.773 123.542 50.1642 123.875 50.5522Z" fill="white"/>
</g>
<g opacity="0.3">
<path d="M80.5733 33.7005C80.5733 33.7005 80.9068 27.0223 79.9257 25.8778C78.9447 24.7332 76.6056 26.8453 76.6056 26.8453C76.6056 26.8453 77.9228 24.2223 79.4148 24.4062C80.9068 24.5902 81.7011 26.0416 82.174 28.0647C82.6468 30.0878 82.821 32.8113 82.821 32.8113L80.5733 33.7005Z" fill="#040371"/>
</g>
<g opacity="0.3">
<path d="M122.662 46.725C122.662 46.725 127.157 41.865 129.193 42.0957C131.228 42.3264 131.658 45.0078 131.658 45.0078C131.658 45.0078 131.477 40.5781 129.193 40.4095C126.909 40.2409 123 42.5096 120.746 44.3337L122.662 46.725Z" fill="#040371"/>
</g>
<g opacity="0.3">
<path d="M80.2017 78.5782C80.2017 78.5782 79.2206 80.1418 80.3856 81.1535C81.5506 82.1652 84.7696 82.2401 84.7696 82.2401C84.7696 82.2401 84.6163 83.2689 83.8806 83.4528C83.1448 83.6367 80.4163 84.0436 79.006 82.8703C77.5958 81.697 76.9585 80.3443 76.9585 80.3443C76.9585 80.3443 74.9592 81.552 73.7329 81.2761C72.5066 81.0002 70.6365 77.076 70.6365 77.076L71.024 76.9227C71.024 76.9227 73.0699 78.6895 74.1372 78.7259C75.2045 78.7622 76.3081 77.6279 76.3081 77.6279C76.3081 77.6279 78.6994 79.314 80.2017 78.5782Z" fill="#040371"/>
</g>
<path d="M78.3724 78.2205C78.168 78.057 76.2577 74.977 76.2468 74.8482C76.1549 73.7547 76.9009 73.8058 76.9009 73.8058C76.9009 73.8058 76.7776 74.9095 77.3093 75.0117C77.841 75.1139 78.6586 74.7868 79.7418 75.1547C80.825 75.5226 82.174 76.3197 82.174 75.9314C82.174 75.5431 82.828 75.8292 82.5419 76.3197C82.2557 76.8102 82.5641 76.9448 81.7803 77.3861C80.9964 77.8274 80.3014 78.1499 80.3014 78.1499L78.3724 78.2205Z" fill="#040371"/>
<path d="M97.1491 107.238C91.6363 107.238 84.9474 106.327 77.2729 103.597C58.6933 96.9869 51.8497 88.8506 49.3806 83.1893C47.5077 78.8951 47.45 74.459 49.2137 70.3608C55.3913 56.0075 68.9522 31.813 90.3695 31.0398C113.553 30.2047 125.76 47.7225 127.768 55.8429C130.767 67.9714 133.527 90.0394 118.311 101.567C118.31 101.568 118.309 101.568 118.308 101.569C118.152 101.686 114.413 104.455 107.452 106.09C104.73 106.73 101.267 107.238 97.1491 107.238ZM91.9418 33.0331C91.4483 33.0331 90.9491 33.0421 90.4426 33.0604C70.1376 33.7933 57.0596 57.2456 51.071 71.1601C49.5336 74.732 49.59 78.612 51.2336 82.3809C53.5433 87.6761 60.0532 95.3245 77.9505 101.692C90.8354 106.276 100.791 105.558 106.874 104.149C113.415 102.633 117.008 100.016 117.093 99.953C131.383 89.1244 128.685 67.9733 125.805 56.3284C124.865 52.5252 121.383 46.5204 115.726 41.6782C111.057 37.6815 103.203 33.0331 91.9418 33.0331Z" fill="#040371"/>
<path d="M62.8951 49.6579C62.7901 49.6579 62.6831 49.6414 62.5781 49.6067C62.0478 49.4318 61.7599 48.8602 61.9348 48.3301C61.9598 48.2538 64.4894 40.615 67.9195 32.9188C72.7102 22.1713 76.7679 16.654 80.3248 16.0517C88.7326 14.6261 93.2988 31.0613 93.489 31.7614C93.6354 32.3002 93.3171 32.8554 92.7785 33.0018C92.2402 33.1486 91.6847 32.8303 91.5377 32.2916C90.374 28.014 86.154 17.1199 80.6623 18.045C75.5261 18.9149 67.7969 37.0116 63.8548 48.9634C63.7145 49.3884 63.3194 49.6579 62.8951 49.6579Z" fill="#040371"/>
<path d="M128.902 71.3974C128.675 71.3974 128.446 71.321 128.257 71.1642C127.828 70.8077 127.768 70.1703 128.125 69.7407C134.523 62.0323 135.859 47.1724 134.747 39.5567C134.307 36.5454 133.581 35.0969 133.093 34.7716C130.87 33.2892 120.484 36.6711 113.818 39.5455C113.305 39.7667 112.71 39.5301 112.489 39.0174C112.268 38.5048 112.504 37.91 113.017 37.6889C115.866 36.4602 130.279 30.4654 134.214 33.0892C135.414 33.8888 136.266 35.9665 136.748 39.2645C137.947 47.4758 136.547 62.7603 129.681 71.0322C129.481 71.273 129.193 71.3974 128.902 71.3974Z" fill="#040371"/>
<path d="M60.2877 62.176C62.0889 59.3913 65.6152 57.0002 69.0261 58.362C70.7422 59.0387 72.1703 60.5707 72.6113 62.3441C73.011 63.813 72.928 65.2418 72.537 66.6593C72.4757 66.8598 72.4193 67.0304 72.3324 67.267C72.1219 67.8398 71.4869 68.1335 70.9142 67.9231C70.3768 67.7289 70.1204 67.1806 70.203 66.6508C70.3931 64.5465 70.0856 62.0619 67.901 61.1901C65.7365 60.3879 63.6036 62.1569 62.043 63.5296C61.0985 64.5176 59.5602 63.3241 60.2877 62.176Z" fill="#040371"/>
<path d="M94.0632 73.0789C95.2266 70.9793 97.1805 69.2596 99.5518 68.6623C102.885 67.8498 105.935 69.4511 107.111 72.6512C107.725 74.2854 107.91 75.9102 107.747 77.6278C107.69 78.1848 107.191 78.5893 106.634 78.5315C106.142 78.4819 105.786 78.0916 105.725 77.6278C105.2 74.9634 104.19 71.2119 100.817 71.4782C99.0048 71.5813 97.4072 72.6624 96.0894 73.8785L95.7419 74.2057C94.9317 75.1339 93.4911 74.1645 94.0632 73.0789Z" fill="#040371"/>
<path d="M78.2287 79.7352C77.8301 79.7352 77.5204 79.6388 77.2732 79.4444C77.1906 79.3796 77.1189 79.3024 77.0603 79.2153C76.6312 78.5802 74.5165 75.311 75.0087 73.3289C75.1566 72.7339 75.5105 72.2724 76.0321 71.9941C78.0414 70.9222 81.5746 72.7941 82.9333 73.9855C84.1827 75.0809 84.2 75.9636 83.9948 76.5111C83.3979 78.1024 80.4046 79.261 79.4029 79.5413C78.9422 79.6703 78.5554 79.7352 78.2287 79.7352ZM77.4324 73.6997C77.229 73.6997 77.0766 73.7285 76.9834 73.778C76.7532 74.1533 77.3661 75.9276 78.482 77.6953C79.4225 77.5409 81.5045 76.5589 82.014 75.936C81.7312 75.5332 80.679 74.6837 79.2035 74.108C78.4519 73.815 77.8397 73.6997 77.4324 73.6997Z" fill="#040371"/>
<path d="M74.2501 82.896C74.1656 82.896 74.0804 82.8935 73.9933 82.888C70.6359 82.6815 69.4447 78.0691 69.3957 77.8729C69.2603 77.3312 69.5897 76.7824 70.1312 76.6469C70.673 76.5115 71.2206 76.8402 71.3567 77.3807C71.3653 77.4145 72.2651 80.756 74.1175 80.87C75.9744 80.9847 76.9351 78.3399 76.9447 78.3133C77.132 77.7886 77.7103 77.5129 78.2339 77.698C78.7593 77.8834 79.036 78.4573 78.8522 78.9832C78.7952 79.1468 77.4474 82.896 74.2501 82.896Z" fill="#040371"/>
<path d="M81.5695 85.1467C81.2739 85.1467 80.9736 85.1251 80.6713 85.0771C79.2086 84.8443 77.2127 83.896 76.0122 80.6996C75.8156 80.177 76.0804 79.5943 76.603 79.3978C77.1243 79.2017 77.7087 79.4657 77.9047 79.9888C78.5249 81.6393 79.4254 82.6486 80.581 82.9887C82.2445 83.4781 84.063 82.5183 84.4168 82.2707C84.7783 81.946 85.3317 81.9204 85.7239 82.2341C86.1597 82.5829 86.2302 83.2192 85.8815 83.655C85.5933 84.0149 83.7124 85.1467 81.5695 85.1467ZM84.3038 82.3905C84.3035 82.3908 84.3031 82.3913 84.3028 82.3918C84.3031 82.3913 84.3035 82.3908 84.3038 82.3905ZM84.3047 82.3895L84.3044 82.3899L84.3047 82.3895Z" fill="#040371"/>
<path d="M81.8092 33.377C82.0536 30.6934 81.8089 21.2031 77.3526 26.0284C76.4103 27.1366 75.6809 28.46 75.0765 29.8197C75.2947 29.1051 75.56 28.4034 75.864 27.7156C76.5308 26.3187 77.2199 24.8699 78.6834 24.0805C79.9885 23.3956 81.4296 24.2777 82.0455 25.4664C83.366 27.9059 83.6317 30.6839 83.8308 33.4099C83.8602 33.9687 83.4309 34.4455 82.8722 34.4749C82.2638 34.5118 81.754 33.9831 81.8092 33.377Z" fill="#040371"/>
<path d="M119.313 43.5566C121.514 42.1212 123.757 40.8396 126.273 40.0601C129.758 38.959 131.644 40.4084 131.843 44.0082C131.929 45.7254 131.703 47.411 131.329 49.0493C131.601 46.8395 131.957 40.9696 128.896 40.7495C127.382 40.7515 125.854 41.5934 124.529 42.3468C123.135 43.1742 121.774 44.1514 120.534 45.168C119.433 46.055 118.156 44.3834 119.313 43.5566Z" fill="#040371"/>
<path d="M209.05 41.8451L209.051 41.8432C209.135 41.627 209.215 41.4111 209.289 41.1958C210.149 38.6734 209.721 36.5771 208.052 35.1335C206.4 33.7051 203.506 32.9032 199.637 32.9032C192.933 32.9032 183.303 35.3102 172.134 41.0368C156.272 49.1689 150.243 58.1249 148.061 62.7397C146.759 65.4921 147.131 68.7259 149.008 70.9783C151.403 73.852 155.064 74.3433 170.433 69.6579C188.903 64.0268 204.963 52.4201 209.05 41.8451ZM164.607 66.8709C164.107 66.9934 163.611 67.1092 163.129 67.21C161.113 67.6313 159.337 67.8399 157.834 67.8399C155.063 67.8399 153.216 67.1312 152.482 65.7401C151.448 63.7811 152.785 60.7614 156.24 57.1639C156.257 57.1416 156.277 57.1211 156.299 57.102C156.61 56.7791 156.933 56.4534 157.278 56.1216C160.225 53.2922 164.166 50.3534 168.682 47.5884C168.686 47.5859 168.69 47.5831 168.694 47.5807C170.442 46.5108 172.273 45.4661 174.17 44.4651C184.362 39.0872 193.878 36.2203 199.396 36.5133C199.5 36.4821 199.612 36.487 199.715 36.5297C201.846 36.6945 203.336 37.3604 203.974 38.5697L203.974 38.5698C205.307 41.0958 202.586 45.3493 197.204 49.9703C197.2 49.9746 197.195 49.9785 197.19 49.9827C193.386 53.2468 188.258 56.6933 182.286 59.8448C176.092 63.1129 169.902 65.5696 164.653 66.8594C164.638 66.8638 164.623 66.8681 164.607 66.8709Z" fill="#FAA327"/>
<path d="M138.714 71.7914C138.344 72.0787 138.021 73.3873 137.895 74.2841L140.174 77.8165L140.668 78.0445C141.36 78.363 142.176 78.288 142.797 77.8477L149.163 73.3356C147.491 71.7174 146.289 68.9283 145.838 67.7698C143.073 69.2713 139.201 71.4125 138.714 71.7914Z" fill="#FAA327"/>
<path d="M39.2125 131.103C39.2242 132.456 40.6008 134.067 41.3872 134.823L139.183 78.0291L137.248 75.0303L39.2125 131.103Z" fill="white"/>
<g opacity="0.7">
<path d="M184.845 40.861C181.907 45.3519 181.943 55.9967 182.012 58.9149C187.816 55.839 192.582 52.6212 196.129 49.6457L184.845 40.861Z" fill="#DFE7F2"/>
</g>
<g opacity="0.7">
<path d="M183.599 41.1256C180.784 42.2511 177.766 43.6401 174.613 45.3041C172.885 46.2156 171.212 47.1628 169.609 48.1322C170.912 49.8597 176.168 56.5568 181.062 58.9451C180.985 56.0983 180.932 46.2232 183.599 41.1256Z" fill="#DFE7F2"/>
</g>
<g opacity="0.7">
<path d="M171.712 70.2483C171.695 70.3241 171.678 70.4 171.66 70.4758C173.165 71.8261 176.934 74.9822 182.957 78.6073C184.914 73.998 186.433 68.94 186.718 63.9734C182.048 66.4558 176.994 68.5731 171.712 70.2483Z" fill="#DFE7F2"/>
</g>
<g opacity="0.7">
<path d="M168.96 48.8503C166.565 53.2184 165.356 63.1182 165.066 65.7796C169.71 64.5715 175.062 62.4658 180.477 59.7124C175.517 57.2058 170.449 50.8212 168.96 48.8503Z" fill="#DFE7F2"/>
</g>
<g opacity="0.7">
<path d="M188.609 100.33C191.003 97.5529 193.374 94.0116 195.477 89.4947C195.93 88.5207 196.35 87.5522 196.742 86.5904C191.525 84.4257 187.074 82.1296 183.394 79.9683C181.034 85.2882 178.168 89.9393 176.035 93.0867C179.382 95.3453 183.742 98.0163 188.609 100.33Z" fill="#DFE7F2"/>
</g>
<g opacity="0.7">
<path d="M203.135 39.0124L203.135 39.0125C202.674 38.1387 201.504 37.6183 199.76 37.4684C197.792 40.3222 197.43 46.1906 197.366 48.5764C202.003 44.4219 204.109 40.8584 203.135 39.0124Z" fill="#DFE7F2"/>
</g>
<g opacity="0.7">
<path d="M157.935 56.8059C157.678 57.0526 157.433 57.2962 157.195 57.5373C157.793 58.5999 160.075 62.3536 164.139 65.5207C164.436 62.7789 165.509 54.1418 167.663 49.3434C163.84 51.7895 160.502 54.3415 157.935 56.8059Z" fill="#DFE7F2"/>
</g>
<g opacity="0.7">
<path d="M198.667 37.4222C198.66 37.4222 198.653 37.4219 198.646 37.4219C195.532 37.4219 191.042 38.3638 185.697 40.3223L196.411 48.6631C196.461 46.383 196.779 40.684 198.667 37.4222Z" fill="#DFE7F2"/>
</g>
<g opacity="0.7">
<path d="M156.51 58.2559C153.697 61.2952 152.538 63.8147 153.321 65.2975C154.225 67.0105 157.728 67.3693 162.935 66.2814C163.099 66.2472 163.267 66.2076 163.432 66.1709C159.548 63.1112 157.3 59.6225 156.51 58.2559Z" fill="#DFE7F2"/>
</g>
<g opacity="0.7">
<path d="M200.885 71.5122C194.436 68.5903 189.455 65.2922 187.664 64.048C187.367 69.1665 185.791 74.3691 183.774 79.094C187.435 81.2494 191.875 83.5451 197.093 85.7102C199.063 80.6662 200.228 75.8369 200.885 71.5122Z" fill="#DFE7F2"/>
</g>
<g opacity="0.7">
<path d="M196.337 89.8948C194.23 94.4208 191.861 97.9705 189.505 100.749C193.594 102.631 198.011 104.232 202.466 105.113C203.498 102.706 204.662 100.423 205.808 98.177C206.749 96.3349 207.637 94.5953 208.449 92.8035C208.674 92.3056 208.901 91.6767 209.125 90.9375C204.956 89.7237 201.121 88.3693 197.62 86.9503C197.222 87.9255 196.797 88.9074 196.337 89.8948Z" fill="#DFE7F2"/>
</g>
<g opacity="0.7">
<path d="M181.307 107.921C179.684 108.921 178.204 109.622 176.959 110.112C179.604 112.314 183.628 115.245 188.652 117.628C192.931 114.692 197.726 111.008 201.724 106.932C201.845 106.621 201.967 106.313 202.093 106.006C197.534 105.083 193.023 103.427 188.859 101.492C186.148 104.535 183.489 106.577 181.307 107.921Z" fill="#DFE7F2"/>
</g>
<g opacity="0.7">
<path d="M197.443 120.762C198.484 118.524 199.257 116.093 199.725 113.715C200.049 112.07 200.48 110.505 200.981 108.998C197.403 112.42 193.356 115.523 189.653 118.089C192.052 119.162 194.66 120.095 197.443 120.762Z" fill="#DFE7F2"/>
</g>
<g opacity="0.7">
<path d="M197.971 86.0703C201.443 87.4772 205.248 88.8207 209.385 90.0255C210.308 86.5956 211.162 81.3245 211.67 75.3636C208.189 74.4792 204.836 73.249 201.782 71.9114C201.108 76.2382 199.932 81.051 197.971 86.0703Z" fill="#DFE7F2"/>
</g>
<g opacity="0.7">
<path d="M201.164 53.9658C199.778 55.237 198.268 56.4921 196.635 57.7161C194.004 59.6881 191.149 61.5256 188.122 63.2107C189.774 64.3642 194.655 67.6211 201.027 70.5345C202.148 62.3672 201.482 56.1523 201.164 53.9658Z" fill="#DFE7F2"/>
</g>
<g opacity="0.7">
<path d="M178.218 125.165C178.645 125.741 179.095 126.283 179.568 126.778C181.644 128.951 183.95 130.1 186.238 130.1C190.884 130.1 194.588 126.41 197.02 121.635C194.05 120.907 191.272 119.886 188.738 118.717C183.787 122.081 179.6 124.415 178.218 125.165Z" fill="#DFE7F2"/>
</g>
<g opacity="0.7">
<path d="M202.001 53.1795C202.237 54.5631 203.259 61.5017 201.926 70.9394C204.953 72.2774 208.286 73.5125 211.748 74.4036C212.566 63.9071 212.289 51.5171 209.452 43.3169C207.965 46.5412 205.415 49.9051 202.001 53.1795Z" fill="#DFE7F2"/>
</g>
<g opacity="0.7">
<path d="M182.578 79.4834C176.878 76.0621 173.147 73.0397 171.396 71.5083C169.804 77.3371 166.606 82.865 165.773 84.2483C165.972 84.4391 166.171 84.6311 166.372 84.8244C167.503 85.9142 168.466 87.0047 169.289 88.1174C169.687 88.4462 171.877 90.2327 175.253 92.5535C177.377 89.4221 180.238 84.7808 182.578 79.4834Z" fill="#DFE7F2"/>
</g>
<g opacity="0.7">
<path d="M170.839 90.5396C171.758 92.2299 172.404 94.0038 172.839 95.9316C173.281 95.3478 173.933 94.465 174.717 93.3344C173.153 92.2595 171.841 91.2984 170.839 90.5396Z" fill="#DFE7F2"/>
</g>
<g opacity="0.7">
<path d="M170.443 70.6458C163.178 72.8526 158.362 73.9936 154.989 74.1133C156.678 75.6645 160.539 79.2336 165.071 83.5746C166.049 81.9299 169.151 76.4471 170.603 70.7962C170.542 70.7389 170.489 70.6894 170.443 70.6458Z" fill="#DFE7F2"/>
</g>
<g opacity="0.7">
<path d="M173.519 108.305C173.511 108.513 173.502 108.72 173.493 108.932C173.474 109.346 173.466 109.762 173.468 110.18C173.836 110.104 174.386 109.971 175.083 109.751C174.429 109.172 173.905 108.68 173.519 108.305Z" fill="#DFE7F2"/>
</g>
<g opacity="0.7">
<path d="M173.567 107.013C173.881 107.338 174.759 108.219 176.116 109.396C179 108.324 183.48 105.997 187.956 101.067C183.136 98.7554 178.823 96.11 175.5 93.8676C174.305 95.5919 173.412 96.7506 173.085 97.1665C173.586 100.031 173.684 103.243 173.567 107.013Z" fill="#DFE7F2"/>
</g>
<g opacity="0.7">
<path d="M175.935 110.488C174.821 110.867 173.976 111.057 173.498 111.145C173.709 115.901 175.252 120.758 177.672 124.382C178.887 123.726 182.912 121.498 187.746 118.244C182.603 115.735 178.533 112.693 175.935 110.488Z" fill="#DFE7F2"/>
</g>
<g opacity="0.15">
<path d="M205.709 48.5764C205.709 48.5764 203.997 55.1979 193.838 62.2503C183.679 69.3027 169.215 74.7103 168.675 76.4127C168.135 78.115 179.571 85.7507 181.595 97.6911C183.618 109.631 180.346 114.216 183.206 118.717C186.066 123.217 194.699 116.892 197.971 108.305C201.243 99.7176 208.275 83.9935 210.201 72.9745C212.126 61.9555 211.67 51.066 211.67 51.066C211.67 51.066 213.363 66.9913 211.838 78.6074C210.312 90.2236 207.937 96.4825 204.309 102.225C200.682 107.969 199.189 117.628 199.189 117.628C199.189 117.628 196.323 130.098 186.238 130.574C176.152 131.05 173.419 114.609 173.419 114.609L173.088 109.56C173.088 109.56 173.322 101.514 173.003 100.33C172.684 99.1464 171.237 92.5011 170.839 91.6012C170.441 90.7012 167.421 86.4582 167.421 86.4582L161.343 80.9685L153.877 73.8516C153.877 73.8516 164.77 71.7062 170.4 69.8823C176.03 68.0583 181.725 65.7796 181.725 65.7796L191.288 60.8779L199.325 55.0438L205.709 48.5764Z" fill="#000072"/>
</g>
<g opacity="0.15">
<path d="M157.793 67.5777C157.793 67.5777 154.499 64.3443 158.257 60.0612C162.016 55.7781 180.997 43.9754 190.14 41.1256C199.283 38.2758 203.568 41.5192 203.568 41.5192C203.568 41.5192 206.302 36.0319 196.47 37.1334C186.637 38.235 173.9 45.1268 171.297 46.3538C168.694 47.5808 160.264 53.8388 155.866 58.2559C151.469 62.673 150.449 66.6075 157.793 67.5777Z" fill="#000072"/>
</g>
<g opacity="0.4">
<path d="M186.389 108.652C186.204 109.208 187.36 113.181 190.14 111.59C192.92 109.999 195.613 104.062 194.634 102.9C193.655 101.737 188.578 102.061 186.389 108.652Z" fill="white"/>
</g>
<g opacity="0.4">
<path d="M190.839 97.4961C192.048 99.6751 197.388 96.1069 199.835 91.0887C202.283 86.0706 208.036 70.1121 207.302 62.5779C206.567 55.0437 194.511 71.2609 192.859 76.2179C191.207 81.1748 188.452 93.1939 190.839 97.4961Z" fill="white"/>
</g>
<g opacity="0.15">
<path d="M40.7023 134.095C40.9474 134.381 41.1865 134.63 41.3872 134.823L139.183 78.0291L137.248 75.0303L136.047 75.717C136.151 76.1708 136.418 77.3733 136.344 77.4725C136.252 77.5949 132.305 80.1957 131.999 80.3487C131.778 80.4589 131.193 79.3189 130.882 78.671L112.16 89.3794C112.19 89.9729 112.206 91.2383 111.834 91.5172C111.345 91.8843 82.0313 109.325 80.073 110.427C78.5588 111.279 77.1917 110.216 76.6492 109.69L56.1307 121.426C56.2695 122.095 56.5215 123.394 56.4917 123.87C56.4509 124.523 42.7122 132.489 42.2838 132.489C41.8554 132.489 39.9191 130.698 39.9191 130.698L39.2125 131.103C39.2201 131.975 39.7957 132.954 40.4143 133.743C40.4958 133.734 40.5966 133.888 40.7023 134.095Z" fill="#000072"/>
</g>
<g opacity="0.35">
<path d="M146.196 71.6281C146.166 71.8117 142.463 74.3513 141.209 74.5349C140.143 74.6909 138.815 72.7756 138.439 72.1947C138.191 72.7282 137.989 73.619 137.895 74.2841L140.174 77.8165L140.668 78.0445C141.36 78.363 142.176 78.288 142.797 77.8477L149.163 73.3356C147.491 71.7174 146.289 68.9283 145.838 67.7698C145.532 67.9361 145.212 68.1105 144.884 68.2893C144.766 68.9589 146.227 71.4445 146.196 71.6281Z" fill="#040371"/>
</g>
<g opacity="0.35">
<path d="M170.433 69.6579C188.903 64.0268 204.963 52.4201 209.05 41.8451L209.051 41.8432C209.135 41.627 209.215 41.4111 209.289 41.1958C210.149 38.6734 209.721 36.5771 208.052 35.1335C208.019 35.1056 207.984 35.0796 207.95 35.0522C208.487 37.0006 208.754 42.1516 200.885 50.0353C190.675 60.2649 173.398 67.4667 160.792 70.1115C151.909 71.9751 148.845 68.2044 147.807 65.8127C147.608 66.3131 147.456 66.7373 147.345 67.0659C147.513 68.4929 148.074 69.8572 149.008 70.9783C151.403 73.852 155.064 74.3433 170.433 69.6579Z" fill="#040371"/>
</g>
<g opacity="0.35">
<path d="M175.989 43.0424C181.014 40.5151 185.453 39.0232 189.182 38.1663C193.251 36.9492 196.775 36.3742 199.396 36.5134C199.5 36.4821 199.612 36.487 199.715 36.5297C199.94 36.5471 200.157 36.5714 200.368 36.6001C198.517 35.9048 195.833 35.5351 191.533 36.4929C185.617 37.8107 173.307 42.1312 162.811 49.8879C154.926 55.7156 153.034 60.3596 152.581 62.3093C153.038 61.1714 153.849 59.9028 155.007 58.5303C156.055 57.1222 161.659 50.2496 175.989 43.0424Z" fill="#040371"/>
</g>
<g opacity="0.4">
<path d="M155.957 54.0646C162.811 47.9041 175.058 39.6341 189.061 35.9133C198.883 33.3035 203.767 33.5001 205.81 33.85C204.2 33.2353 202.121 32.9032 199.637 32.9032C192.933 32.9032 183.303 35.3102 172.134 41.0368C156.272 49.1689 150.243 58.1249 148.061 62.7397C147.758 63.3791 147.55 64.0448 147.426 64.7178C147.504 65.015 147.624 65.3915 147.807 65.8127C148.872 63.1338 151.287 58.2626 155.957 54.0646Z" fill="white"/>
</g>
<g opacity="0.35">
<path d="M147.426 64.7178C147.282 65.4999 147.254 66.2918 147.345 67.0658C147.456 66.7373 147.608 66.3131 147.807 65.8127C147.624 65.3915 147.504 65.015 147.426 64.7178Z" fill="#040371"/>
</g>
<g opacity="0.4">
<path d="M147.426 64.7178C147.282 65.4999 147.254 66.2918 147.345 67.0658C147.456 66.7373 147.608 66.3131 147.807 65.8127C147.624 65.3915 147.504 65.015 147.426 64.7178Z" fill="white"/>
</g>
<g opacity="0.4">
<path d="M197.204 49.9703C197.2 49.9746 197.195 49.9785 197.19 49.9827C193.386 53.2468 188.258 56.6933 182.286 59.8448C176.092 63.1129 169.902 65.5696 164.653 66.8594C164.638 66.8638 164.623 66.8681 164.607 66.8709C164.107 66.9934 163.611 67.1092 163.129 67.21C161.113 67.6313 159.337 67.8399 157.834 67.8399C156.444 67.8399 155.287 67.6614 154.386 67.3082C155.355 68.1051 159.785 70.5688 173.745 65.2024C189.983 58.9603 201.069 49.3969 202.623 44.2301C201.404 45.9972 199.559 47.9486 197.204 49.9703Z" fill="white"/>
</g>
<path d="M41.3237 136.42C41.0852 136.42 40.8485 136.335 40.6603 136.171C40.3308 135.885 37.4517 133.3 37.7486 130.704C37.7854 130.385 37.9718 130.101 38.2513 129.942L136.901 73.5178C137.368 73.2512 137.961 73.3959 138.252 73.8473L140.7 77.6416C140.85 77.8738 140.898 78.1572 140.834 78.4258C140.769 78.6945 140.597 78.925 140.358 79.0638L41.8309 136.283C41.6731 136.375 41.4979 136.42 41.3237 136.42ZM39.7758 131.399C39.9411 132.354 40.8229 133.464 41.4768 134.151L138.427 77.8475L137.073 75.7487L39.7758 131.399Z" fill="#040371"/>
<path d="M141.56 79.7248C141.045 79.7248 140.528 79.6154 140.046 79.3933L139.427 79.1077C139.253 79.0273 139.105 78.8989 139.001 78.7377L136.553 74.9434C136.426 74.7458 136.371 74.5098 136.399 74.2762C136.5 73.4264 136.838 71.3687 137.802 70.6192C138.564 70.0267 144.441 66.8369 145.611 66.2035C145.872 66.0626 146.182 66.0431 146.459 66.1505C146.735 66.258 146.951 66.4816 147.048 66.762C147.454 67.9336 148.875 71.2629 150.552 72.5805C150.803 72.7776 150.946 73.0815 150.938 73.4004C150.93 73.7194 150.772 74.0157 150.512 74.2003L143.656 79.0595C143.035 79.4995 142.299 79.7248 141.56 79.7248ZM140.541 77.3947L140.893 77.5572C141.411 77.7958 142.021 77.7394 142.487 77.4098L148.348 73.2555C147.058 71.7931 146.088 69.7686 145.567 68.5281C142.495 70.2009 139.421 71.9212 139.043 72.2152C138.859 72.4052 138.596 73.2845 138.456 74.1632L140.541 77.3947Z" fill="#040371"/>
<path d="M154.376 74.659C151.263 74.659 149.375 73.7389 147.867 71.9292C145.621 69.2343 145.17 65.3781 146.718 62.1049C149.482 56.2595 156.018 47.6301 171.457 39.715C187.781 31.3461 203.229 29.0002 209.023 34.0101C211.157 35.8556 211.751 38.5779 210.694 41.6755C208.869 47.0254 203.99 52.8745 196.957 58.1457C189.631 63.6362 180.609 68.1083 170.866 71.0785C162.988 73.4804 157.898 74.659 154.376 74.659ZM149.42 70.6349C151.657 73.3194 155.2 73.7408 170.276 69.1445C188.973 63.4447 205.166 51.6177 208.78 41.0225C209.576 38.6916 209.212 36.8467 207.701 35.5396C203.323 31.754 189.784 32.5907 172.379 41.5142C156.659 49.5738 150.699 58.416 148.546 62.9692C147.333 65.5334 147.676 68.5425 149.42 70.6349Z" fill="#040371"/>
<path d="M157.801 68.3761C154.965 68.3764 152.885 67.6547 152.007 65.9907C150.735 63.58 152.429 60.0335 156.907 55.7345C161.032 51.7738 167.074 47.6031 173.92 43.9906C180.766 40.3781 187.619 37.7445 193.217 36.5748C199.293 35.3053 203.176 35.9088 204.448 38.3193C205.721 40.73 204.026 44.2765 199.549 48.5754C195.424 52.5362 189.382 56.707 182.536 60.3194C173.813 64.9222 164.002 68.3756 157.801 68.3761ZM198.638 37.9508C197.326 37.9508 195.672 38.1275 193.631 38.5539C188.212 39.6861 181.547 42.2518 174.863 45.7786C168.18 49.3056 162.3 53.3592 158.307 57.1931C154.071 61.2601 153.199 63.9169 153.795 65.047C154.392 66.1772 157.077 66.9568 162.825 65.7562C168.244 64.6239 174.909 62.0582 181.593 58.5314C188.276 55.0044 194.156 50.9509 198.149 47.1171C202.385 43.05 203.257 40.3932 202.66 39.263V39.2628C202.276 38.534 201.022 37.9508 198.638 37.9508Z" fill="#040371"/>
<path d="M186.238 131.585C183.534 131.585 180.857 130.277 178.494 127.803C174.231 123.34 171.686 115.906 172.009 108.864C172.503 98.1303 171.631 91.9552 165.341 85.8941C158.698 79.4926 153.133 74.4273 153.078 74.3769C152.665 74.0013 152.634 73.3619 153.01 72.9489C153.386 72.5356 154.025 72.5054 154.438 72.8812C154.494 72.9317 160.079 78.0153 166.744 84.4381C173.594 91.0391 174.551 97.6039 174.029 108.957C173.734 115.374 176.116 122.386 179.956 126.407C181.928 128.472 184.1 129.563 186.238 129.563C192.984 129.563 197.685 121.294 199.198 113.611C200.375 107.638 202.894 102.704 205.331 97.9321C206.268 96.0963 207.154 94.3622 207.96 92.5822C210.943 85.9946 214.169 56.665 208.545 42.4036C208.341 41.8842 208.596 41.2971 209.115 41.0923C209.635 40.8876 210.221 41.1426 210.426 41.662C216.336 56.6479 212.971 86.4178 209.802 93.4161C208.976 95.2394 208.038 97.0758 207.132 98.8517C204.758 103.5 202.304 108.306 201.183 114.002C199.514 122.47 194.126 131.585 186.238 131.585Z" fill="#040371"/>
<path d="M209.71 91.6256C209.617 91.6256 209.523 91.6128 209.43 91.586C183.258 84.0745 170.39 71.3621 169.855 70.8246C169.461 70.4292 169.463 69.7897 169.858 69.3957C170.253 69.0015 170.893 69.0028 171.287 69.3979C171.415 69.526 184.36 82.2873 209.988 89.6427C210.525 89.7967 210.835 90.3566 210.681 90.8933C210.554 91.3367 210.149 91.6256 209.71 91.6256Z" fill="#040371"/>
<path d="M173.002 111.755C172.495 111.755 172.058 111.375 171.999 110.86C171.935 110.305 172.333 109.804 172.888 109.74C173.018 109.725 186.308 107.924 194.99 89.2681C203.805 70.3275 200.533 53.3888 200.499 53.2199C200.389 52.6726 200.743 52.1393 201.29 52.029C201.835 51.9188 202.371 52.2727 202.481 52.8199C202.626 53.5361 205.916 70.5841 196.823 90.1212C187.633 109.868 173.706 111.681 173.118 111.749C173.079 111.753 173.04 111.755 173.002 111.755Z" fill="#040371"/>
<path d="M202.753 106.665C202.69 106.665 202.628 106.659 202.564 106.647C185.235 103.378 168.952 89.7766 168.267 89.1993C167.841 88.8394 167.786 88.2017 168.146 87.775C168.506 87.3482 169.143 87.2936 169.571 87.6535C169.734 87.7915 186.141 101.491 202.939 104.66C203.488 104.763 203.849 105.292 203.745 105.841C203.653 106.326 203.229 106.665 202.753 106.665Z" fill="#040371"/>
<path d="M197.709 122.328C197.634 122.328 197.558 122.32 197.482 122.302C182.625 118.889 172.757 108.33 172.344 107.882C171.966 107.472 171.992 106.833 172.402 106.454C172.812 106.076 173.453 106.102 173.83 106.512C173.927 106.617 183.706 117.062 197.934 120.332C198.478 120.457 198.818 120.999 198.693 121.543C198.586 122.011 198.169 122.328 197.709 122.328Z" fill="#040371"/>
<path d="M177.515 126.015C177.15 126.015 176.798 125.817 176.618 125.471C176.36 124.976 176.552 124.365 177.047 124.107C177.192 124.032 191.704 116.412 201.407 106.49C201.797 106.091 202.437 106.084 202.836 106.474C203.235 106.865 203.242 107.505 202.852 107.904C192.92 118.061 178.13 125.823 177.981 125.901C177.832 125.978 177.672 126.015 177.515 126.015Z" fill="#040371"/>
<path d="M172.579 98.0509C172.356 98.0509 172.13 97.9769 171.943 97.8248C171.509 97.4732 171.443 96.8366 171.795 96.4031C171.934 96.2309 185.756 79.0103 186.218 63.1272C186.229 62.7506 186.449 62.4115 186.788 62.2471C187.127 62.0831 187.529 62.1206 187.831 62.3451C187.945 62.4293 199.337 70.8113 212.432 74.0259C212.974 74.1589 213.305 74.7065 213.172 75.2486C213.039 75.7909 212.493 76.1228 211.949 75.9894C201.135 73.3344 191.702 67.4465 188.132 65.0267C186.754 81.0091 173.931 96.9801 173.365 97.6769C173.165 97.9231 172.874 98.0509 172.579 98.0509Z" fill="#040371"/>
<path d="M165.169 85.3375C164.984 85.3375 164.798 85.2869 164.63 85.1811C164.158 84.883 164.017 84.2587 164.315 83.7866C164.36 83.716 168.794 76.6378 170.323 69.6657C170.442 69.1202 170.98 68.7759 171.527 68.8947C172.072 69.0142 172.417 69.5533 172.298 70.0986C170.692 77.4244 166.214 84.566 166.024 84.8665C165.832 85.1708 165.504 85.3375 165.169 85.3375Z" fill="#040371"/>
<path d="M164.525 67.4163C164.314 67.4163 164.106 67.3508 163.93 67.2229C158.421 63.2147 155.817 58.1259 155.709 57.9112C155.457 57.4126 155.658 56.8047 156.156 56.5535C156.655 56.3024 157.262 56.5019 157.514 57.0002C157.536 57.0439 159.567 60.9914 163.716 64.4878C164.187 60.5406 165.521 51.3131 168.075 47.4411C168.258 47.1636 168.566 46.9939 168.898 46.9872C169.239 46.9812 169.546 47.1377 169.74 47.4074C169.799 47.4901 175.257 55.0205 180.508 58.0433C180.457 53.996 180.677 43.8584 183.939 39.5693C184.103 39.3544 184.346 39.2139 184.614 39.179C184.881 39.1434 185.152 39.2176 185.365 39.3837L195.912 47.5943C196.051 44.6149 196.601 39.1538 198.729 36.3542C199.067 35.9098 199.702 35.8233 200.146 36.1615C200.59 36.4993 200.676 37.1336 200.338 37.5781C197.804 40.9113 197.888 49.5274 197.889 49.614C197.894 50.0026 197.676 50.3598 197.328 50.5329C196.98 50.7059 196.564 50.6643 196.257 50.4253L184.992 41.6555C182.021 47.0166 182.566 59.5082 182.572 59.6411C182.588 59.9855 182.428 60.3144 182.146 60.5135C181.865 60.7124 181.502 60.7551 181.182 60.6253C176.303 58.6459 171.148 52.5327 169.056 49.8545C166.612 55.1686 165.543 66.3761 165.531 66.4992C165.498 66.8611 165.272 67.177 164.941 67.3267C164.808 67.3867 164.666 67.4163 164.525 67.4163Z" fill="#040371"/>
<path d="M212.322 61.3958C211.985 61.3958 211.656 61.2274 211.464 60.9203C209.726 58.1386 203.588 55.7563 201.37 55.0731C200.836 54.9088 200.537 54.3432 200.701 53.8095C200.865 53.2762 201.431 52.9765 201.964 53.1406C202.319 53.2497 210.686 55.8586 213.179 59.8492C213.474 60.3226 213.33 60.9463 212.857 61.2421C212.691 61.3462 212.505 61.3958 212.322 61.3958Z" fill="#040371"/>
<path d="M67.7039 125.481C61.2475 128.527 56.0783 120.952 56.0278 120.875C55.9435 120.75 55.8256 120.669 55.6908 120.662H55.6537C55.6268 120.666 55.6032 120.669 55.5796 120.676C55.5661 120.679 55.5493 120.683 55.5358 120.689C55.2628 119.406 54.8282 116.848 54.9663 114.038C55.1415 110.391 56.2805 106.324 59.9771 104.043C66.3426 105.546 69.7089 109.62 70.9928 113.721C70.9962 113.721 70.9962 113.724 70.9962 113.724C71.0534 113.903 71.104 114.081 71.1512 114.26C71.1815 114.378 71.2118 114.496 71.2422 114.614C71.2556 114.674 71.2691 114.732 71.2826 114.789C71.3365 115.025 71.3837 115.261 71.4241 115.497C71.4342 115.554 71.4444 115.615 71.4545 115.675C71.4713 115.79 71.4882 115.901 71.5016 116.012C71.5252 116.187 71.5454 116.363 71.5623 116.538C71.9431 120.619 70.3896 124.214 67.7039 125.481Z" fill="white"/>
<path d="M59.9786 104.044C59.7434 103.989 59.5049 103.936 59.2614 103.888C58.372 103.814 57.4812 103.691 56.574 103.722C56.0838 103.764 55.5874 103.774 55.0982 103.865C54.8531 103.906 54.6054 103.934 54.3609 103.984L53.6294 104.154L53.2615 104.234L52.8993 104.343L52.1722 104.56C51.6922 104.724 51.2193 104.919 50.7367 105.093L50.733 105.094C50.7094 105.102 50.6842 105.088 50.6769 105.061C50.6702 105.036 50.6807 105.01 50.7008 105C51.1576 104.753 51.6121 104.49 52.0813 104.265L52.7941 103.95L53.1518 103.793L53.5175 103.662L54.254 103.413C54.5014 103.336 54.7532 103.281 55.0034 103.214C55.5026 103.068 56.0151 103.005 56.5251 102.91C57.3415 102.81 58.1775 102.721 59.0038 102.804L62.2744 96.8369L60.3797 95.5009C58.6306 95.8755 43.7677 99.271 41.1621 106.854C39.7648 110.921 40.169 115.315 42.2434 118.607C43.8821 121.208 46.259 122.627 48.7664 122.51C54.3095 122.244 55.2894 120.91 55.2984 120.897C55.3548 120.792 55.4381 120.723 55.5359 120.689C54.9064 117.741 53.43 108.084 59.9786 104.044Z" fill="#FAA327"/>
<g opacity="0.4">
<path d="M66.4011 111.319C66.3879 111.657 65.9142 111.914 65.3431 111.891C64.7719 111.869 64.3195 111.577 64.3327 111.239C64.3458 110.901 64.8195 110.645 65.3907 110.667C65.9618 110.689 66.4142 110.981 66.4011 111.319Z" fill="white"/>
</g>
<path d="M55.5358 120.689C55.4381 120.723 55.3572 120.794 55.2999 120.898C55.2898 120.912 54.3092 122.243 48.766 122.509C46.2589 122.627 43.8832 121.208 42.2421 118.607C40.1698 115.315 39.7654 110.92 41.1605 106.853C41.74 105.175 42.9195 103.699 44.4257 102.419C43.6338 104.552 41.6726 110.715 44.2674 113.185C46.5824 115.392 52.0211 114.344 54.9663 114.037C54.8281 116.848 55.2628 119.405 55.5358 120.689Z" fill="#EF7F25"/>
<g opacity="0.15">
<path d="M67.7039 125.481C61.2475 128.527 56.0783 120.952 56.0278 120.875C55.9435 120.75 55.8256 120.669 55.6908 120.662H55.6537C55.6268 120.666 55.6032 120.669 55.5796 120.676C55.5661 120.676 55.5493 120.683 55.5358 120.689C55.2628 119.406 54.8281 116.848 54.9663 114.038C56.0446 113.926 56.7893 113.916 56.9174 114.203C57.3993 115.274 61.0521 121.394 66.5414 119.21C69.9617 117.845 70.6558 115.106 70.6929 113.239C70.7973 113.401 70.8984 113.562 70.9928 113.721C70.9962 113.721 70.9962 113.724 70.9962 113.724C71.0534 113.903 71.104 114.081 71.1512 114.26C71.1815 114.378 71.2118 114.496 71.2421 114.614C71.2556 114.674 71.2691 114.732 71.2826 114.789C71.3365 115.025 71.3837 115.261 71.4241 115.497C71.4342 115.554 71.4443 115.615 71.4544 115.675C71.4713 115.79 71.4882 115.901 71.5016 116.012C71.5252 116.187 71.5454 116.363 71.5623 116.538C71.9431 120.619 70.3896 124.214 67.7039 125.481Z" fill="#000072"/>
</g>
<path d="M50.9317 104.873C51.3113 104.665 51.6911 104.452 52.0813 104.265L52.7941 103.95L53.1519 103.793L53.5175 103.662L54.254 103.413C54.5014 103.336 54.7532 103.281 55.0035 103.214C55.5026 103.068 56.015 103.005 56.525 102.91C57.3415 102.81 58.1775 102.721 59.0038 102.804L61.5237 98.2067C60.2978 98.8085 57.3623 100.247 55.1546 101.311C52.2995 102.686 50.9371 104.865 50.9317 104.873Z" fill="#EF7F25"/>
<g opacity="0.3">
<path d="M44.5648 102.553C44.5648 102.553 57.0062 96.9307 61.1654 96.0549L60.3796 95.5009C59.1054 95.7738 50.8724 97.6506 45.488 101.581C44.9245 102.135 44.5648 102.553 44.5648 102.553Z" fill="white"/>
</g>
<g opacity="0.4">
<path d="M61.2661 105.661C61.1985 105.731 61.1438 105.81 61.1072 105.9C60.7889 106.691 61.8308 107.99 63.4342 108.802C64.9476 109.568 66.419 109.626 66.8474 108.966C68.417 110.302 69.767 111.818 70.6919 113.238C70.6945 113.106 70.6933 112.979 70.6901 112.856C69.1605 108.909 65.6269 105.15 59.2614 103.888C58.372 103.814 57.4812 103.691 56.574 103.722C56.0838 103.764 55.5874 103.774 55.0982 103.865C54.853 103.906 54.6055 103.934 54.3609 103.984L53.6294 104.153L53.2615 104.234L52.8993 104.343L52.1723 104.56C51.8473 104.671 51.5248 104.795 51.2013 104.918C51.0293 105.002 50.9242 105.054 50.9242 105.054C50.9242 105.054 57.0384 104.378 61.2661 105.661Z" fill="white"/>
</g>
<g opacity="0.35">
<path d="M70.9952 113.726C70.9044 113.435 70.8021 113.146 70.6901 112.856C70.6933 112.979 70.6945 113.106 70.6919 113.238C70.7988 113.402 70.8999 113.565 70.9952 113.726Z" fill="#040371"/>
</g>
<g opacity="0.4">
<path d="M70.9952 113.726C70.9044 113.435 70.8021 113.146 70.6901 112.856C70.6933 112.979 70.6945 113.106 70.6919 113.238C70.7988 113.402 70.8999 113.565 70.9952 113.726Z" fill="white"/>
</g>
<path d="M64.5951 127.72C60.6517 127.721 57.302 124.926 55.4748 122.63C54.4425 123.216 52.493 123.852 48.8298 124.028C46.1195 124.161 43.4765 122.783 41.5796 120.256C38.7985 116.551 38.112 111.221 39.787 106.345C42.8226 97.5098 59.5668 94.1131 60.278 93.9729C60.5499 93.9193 60.8307 93.9794 61.0561 94.1386L63.475 95.8444C63.8954 96.1407 64.0261 96.7054 63.7789 97.1563L60.7567 102.671C68.7591 104.746 72.317 110.766 72.9641 115.901C73.5879 120.849 71.715 125.255 68.3038 126.865C67.0309 127.466 65.7853 127.72 64.5951 127.72ZM55.6673 120.172C56.0041 120.172 56.3202 120.34 56.5082 120.622C56.7067 120.918 61.4564 127.857 67.4411 125.036C70.0179 123.821 71.4643 120.168 70.9583 116.154C70.3647 111.444 66.9205 105.871 59.0343 104.354C58.717 104.293 58.448 104.084 58.3103 103.792C58.1729 103.5 58.1835 103.159 58.3388 102.876L61.572 96.9763L60.253 96.0461C57.6901 96.6193 44.1166 99.9661 41.6993 107.002C39.9536 112.083 41.3279 116.553 43.1963 119.042C44.6847 121.025 46.6975 122.099 48.7331 122.009C53.5757 121.776 54.7239 120.727 54.8264 120.622C55.0038 120.357 55.2978 120.188 55.6202 120.173C55.6359 120.173 55.6516 120.172 55.6673 120.172ZM54.7787 120.701C54.7784 120.702 54.7781 120.702 54.7777 120.703C54.7781 120.702 54.7784 120.702 54.7787 120.701ZM54.7797 120.699C54.7793 120.7 54.779 120.7 54.7787 120.701C54.779 120.7 54.7793 120.7 54.7797 120.699ZM54.7806 120.698C54.7803 120.698 54.78 120.699 54.78 120.699C54.78 120.699 54.7803 120.698 54.7806 120.698Z" fill="#040371"/>
<path d="M62.4161 104.363C61.0211 104.425 59.9628 104.441 58.7154 104.365C57.5368 104.182 56.3466 104.032 55.1503 104.205C54.192 104.272 53.1597 104.487 52.2257 104.714C51.7381 104.845 51.2536 105.001 50.7554 105.139C50.6495 105.172 50.5753 105.014 50.6733 104.956C52.4093 103.755 54.3526 102.881 56.4517 102.512C57.5156 102.346 58.6418 102.087 59.7113 102.404C59.9435 102.468 60.2826 102.567 60.5007 102.667C61.2882 102.998 62.0098 103.454 62.516 104.187C62.5676 104.262 62.5065 104.369 62.4161 104.363Z" fill="#040371"/>
<path d="M55.7416 122.571C55.315 122.571 54.9189 122.299 54.7803 121.871C54.7332 121.725 53.6218 118.242 53.6794 114.176C53.7582 108.591 56.0147 104.643 60.2047 102.758C60.7132 102.529 61.3123 102.756 61.5412 103.266C61.7702 103.775 61.5432 104.373 61.034 104.602C52.6669 108.365 56.6628 121.121 56.7041 121.249C56.8751 121.78 56.5837 122.35 56.0525 122.521C55.9494 122.555 55.8447 122.571 55.7416 122.571Z" fill="#040371"/>
<path d="M133.758 92.5924C133.508 92.8417 133.259 93.0776 133.006 93.3067C129.593 96.3799 125.815 97.4819 122.732 97.775C120.066 98.0278 117.92 97.6773 116.966 97.4717C116.781 97.0741 116.602 96.6799 116.437 96.289C116.41 96.2283 116.383 96.1643 116.36 96.1003C116.282 95.9149 116.208 95.7296 116.137 95.5443C116.056 95.3454 115.982 95.15 115.908 94.9512C115.905 94.9377 115.898 94.9242 115.895 94.9107C115.827 94.7187 115.76 94.5266 115.696 94.3379C115.676 94.2907 115.659 94.2435 115.645 94.193C115.585 94.0144 115.527 93.8358 115.473 93.6606C115.409 93.455 115.349 93.2495 115.291 93.0439C115.231 92.8417 115.177 92.6395 115.126 92.4373C115.072 92.2352 115.025 92.033 114.981 91.8342C114.938 91.6387 114.894 91.4467 114.857 91.2579C114.853 91.2445 114.853 91.231 114.85 91.2175C114.816 91.049 114.786 90.8805 114.756 90.7154C114.729 90.5435 114.702 90.3751 114.678 90.2032C114.661 90.1055 114.648 90.0044 114.638 89.9067C114.621 89.7753 114.604 89.6438 114.591 89.5124C114.574 89.3473 114.56 89.1822 114.55 89.0204C114.543 88.9665 114.54 88.9092 114.537 88.8486C114.527 88.7003 114.516 88.5554 114.513 88.4105C114.506 88.2285 114.503 88.0499 114.503 87.8747C114.503 85.9742 114.884 84.3028 115.665 82.9751C115.73 82.8639 115.8 82.7561 115.874 82.6482C115.905 82.5977 115.938 82.5472 115.975 82.5C116.019 82.4359 116.063 82.3719 116.114 82.3113C116.154 82.2574 116.198 82.2001 116.242 82.1495C116.323 82.0484 116.407 81.9507 116.494 81.8564C116.585 81.762 116.676 81.6677 116.771 81.58C116.798 81.5565 116.821 81.5329 116.848 81.5093C116.912 81.4486 116.976 81.3913 117.044 81.3374C117.098 81.2902 117.148 81.2498 117.205 81.2094C117.293 81.1352 117.384 81.0678 117.478 81.0038C117.6 80.9196 117.728 80.8387 117.856 80.7612C117.97 80.6938 118.088 80.6264 118.21 80.5657C118.243 80.5455 118.28 80.5287 118.321 80.5118C118.405 80.468 118.493 80.4242 118.584 80.3905C118.779 80.3029 118.978 80.2254 119.187 80.1546C119.298 80.1142 119.409 80.0805 119.527 80.0502C119.564 80.0367 119.601 80.0266 119.642 80.0165C119.74 79.9895 119.837 79.9659 119.935 79.9457C119.999 79.9289 120.063 79.9154 120.13 79.9019C120.144 79.8985 120.161 79.8952 120.174 79.8952L120.178 79.8918C120.784 79.7705 121.434 79.7098 122.125 79.7098C125.424 79.7098 128.602 81.5935 130.839 84.879C131.857 86.3718 132.629 88.0398 133.151 89.8157C133.165 89.8494 133.175 89.8831 133.181 89.9202C133.262 90.1864 133.333 90.4526 133.394 90.7222C133.431 90.857 133.461 90.9951 133.491 91.1333C133.508 91.1973 133.522 91.2647 133.532 91.3287C133.569 91.4837 133.599 91.6387 133.623 91.7937C133.643 91.8813 133.657 91.969 133.673 92.0599C133.707 92.2352 133.734 92.4138 133.758 92.5924Z" fill="white"/>
<path d="M133.759 92.5924C127.255 99.1247 119.105 97.9317 116.965 97.4723C117.299 98.1853 117.666 98.9035 118.067 99.6243C118.067 99.625 118.068 99.6258 118.068 99.6265L118.068 99.6273C118.069 99.6282 118.069 99.629 118.07 99.6299C118.073 99.636 118.075 99.6427 118.078 99.6489L117.7 100.761C116.895 101.952 114.633 104.301 108.811 105.696C108.722 105.718 108.635 105.711 108.554 105.686C108.24 106.03 107.547 107.269 107.841 111.376C108.216 116.618 111.164 119.046 111.164 119.046C111.219 119.009 111.282 118.981 111.351 118.969C111.514 118.941 127.676 116.018 132.367 104.075C133.848 100.305 134.297 96.3018 133.759 92.5924Z" fill="#FC9B28"/>
<g opacity="0.4">
<path d="M127.799 88.5299C127.88 88.1889 127.669 87.8472 127.328 87.7667C126.987 87.6862 126.645 87.8974 126.565 88.2384C126.484 88.5794 126.695 88.9211 127.036 89.0016C127.377 89.0821 127.719 88.8709 127.799 88.5299Z" fill="white"/>
</g>
<path d="M132.366 104.076C127.675 116.019 111.514 118.94 111.352 118.971C111.298 118.977 111.251 118.994 111.207 119.021C111.19 118.849 111.18 118.701 111.167 118.573C110.722 113.805 109.27 107.992 108.66 105.707C108.71 105.711 108.761 105.707 108.811 105.697C114.634 104.302 116.895 101.954 117.701 100.761L118.078 99.6486C118.075 99.6419 118.071 99.6352 118.068 99.6284V99.6251C117.667 98.9039 117.3 98.1862 116.966 97.4718C117.92 97.6774 120.066 98.0278 122.732 97.7751C125.273 100.72 128.076 102.692 129.431 101.873C131.139 100.842 132.534 97.0573 133.006 93.3068C133.259 93.0777 133.508 92.8418 133.758 92.5924C134.3 96.3025 133.849 100.306 132.366 104.076Z" fill="#EF7F25"/>
<path d="M111.167 118.573C111.18 118.701 111.19 118.849 111.207 119.021C111.19 119.028 111.177 119.035 111.164 119.045C111.164 119.045 110.975 118.89 110.682 118.57C109.832 117.63 108.121 115.284 107.841 111.375C107.548 107.268 108.242 106.031 108.555 105.687C108.589 105.697 108.623 105.704 108.66 105.707C109.27 107.992 110.722 113.805 111.167 118.573Z" fill="#EF7F25"/>
<g opacity="0.15">
<path d="M117.65 88.2117C118.102 91.231 120.296 94.9512 122.732 97.7751C120.066 98.0278 117.92 97.6774 116.966 97.4718C116.777 97.0775 116.602 96.6833 116.437 96.289C116.41 96.2284 116.383 96.1644 116.36 96.1003C116.282 95.915 116.208 95.7296 116.137 95.5443C116.056 95.3455 115.982 95.1501 115.908 94.9512C115.905 94.9378 115.898 94.9243 115.895 94.9108C115.827 94.7187 115.76 94.5266 115.696 94.3379C115.676 94.2908 115.659 94.2436 115.645 94.193C115.585 94.0145 115.527 93.8358 115.473 93.6606C115.409 93.4551 115.349 93.2495 115.291 93.044C115.231 92.8418 115.177 92.6396 115.126 92.4374C115.072 92.2352 115.025 92.033 114.981 91.8342C114.938 91.6388 114.894 91.4467 114.857 91.258C114.853 91.2445 114.853 91.231 114.85 91.2176C114.816 91.0491 114.786 90.8806 114.756 90.7155C114.729 90.5436 114.702 90.3751 114.678 90.2033C114.661 90.1055 114.648 90.0045 114.638 89.9067C114.621 89.7753 114.604 89.6439 114.591 89.5125C114.574 89.3474 114.56 89.1822 114.55 89.0205C114.543 88.9666 114.54 88.9093 114.537 88.8486C114.527 88.7004 114.516 88.5555 114.513 88.4106C114.506 88.2286 114.503 88.05 114.503 87.8748C114.503 85.9742 114.884 84.3029 115.665 82.9752C115.73 82.864 115.8 82.7561 115.874 82.6483C115.905 82.5978 115.938 82.5472 115.975 82.5C116.019 82.436 116.063 82.372 116.114 82.3113C116.154 82.2574 116.198 82.2001 116.242 82.1496C116.323 82.0485 116.407 81.9508 116.494 81.8564C116.585 81.7621 116.676 81.6677 116.771 81.5801C116.798 81.5565 116.821 81.5329 116.848 81.5093C116.912 81.4487 116.976 81.3914 117.044 81.3375C117.098 81.2903 117.148 81.2499 117.205 81.2094C117.293 81.1353 117.384 81.0679 117.478 81.0039C117.6 80.9196 117.728 80.8387 117.856 80.7613C117.97 80.6938 118.088 80.6264 118.21 80.5658C118.243 80.5456 118.28 80.5287 118.321 80.5119C118.405 80.4681 118.493 80.4243 118.584 80.3906C118.779 80.303 118.978 80.2254 119.187 80.1547C119.298 80.1143 119.409 80.0806 119.527 80.0502C119.564 80.0367 119.601 80.0266 119.642 80.0165C119.74 79.9896 119.837 79.966 119.935 79.9458C119.999 79.9289 120.063 79.9154 120.13 79.902C120.147 79.8986 120.161 79.8952 120.178 79.8918L120.174 79.8952C118.998 81.0578 116.983 83.7603 117.65 88.2117Z" fill="#000072"/>
</g>
<path d="M133.006 93.3068C133.154 92.1106 133.212 90.9143 133.151 89.8158V89.8057C133.161 89.8427 133.175 89.8832 133.181 89.9202C133.262 90.1864 133.333 90.4527 133.394 90.7222C133.431 90.857 133.461 90.9952 133.491 91.1333C133.508 91.1974 133.522 91.2648 133.532 91.3288C133.569 91.4838 133.599 91.6388 133.623 91.7938C133.643 91.8814 133.657 91.9691 133.673 92.06C133.707 92.2353 133.734 92.4139 133.758 92.5924C133.508 92.8418 133.259 93.0777 133.006 93.3068Z" fill="#EF7F25"/>
<g opacity="0.4">
<path d="M123.414 81.4777C122.732 82.2436 123.32 83.8797 124.728 85.1323C126.135 86.3848 127.829 86.7793 128.51 86.0134C128.534 85.9867 129.008 86.0468 129.434 86.4074C132.104 88.6665 134.529 93.2117 133.076 89.5552C132.652 88.578 131.278 85.9715 130.685 85.1022C128.481 81.8681 125.354 80.0134 122.105 80.0134C121.95 80.0134 121.798 80.0182 121.647 80.0244C122.104 80.2751 122.84 80.6991 123.685 81.2633C123.583 81.3208 123.491 81.3908 123.414 81.4777Z" fill="white"/>
</g>
<path d="M111.578 120.145C111.096 120.145 110.669 119.798 110.584 119.306C110.488 118.756 110.857 118.233 111.407 118.138C111.564 118.11 127.185 115.276 131.69 103.806C134.192 97.4368 133.637 90.3857 130.242 85.4045C128.108 82.2742 125.218 80.5501 122.105 80.5501C119.343 80.5501 117.36 81.5425 116.209 83.4998C114.163 86.9816 115.072 93.0606 118.582 99.3648C118.728 99.6264 118.75 99.9386 118.643 100.218C118.587 100.364 117.206 103.803 110.864 105.856C109.715 106.227 108.551 106.34 107.36 106.432C106.666 106.485 103.902 106.765 103.874 106.768C103.324 106.822 102.823 106.42 102.767 105.864C102.71 105.309 103.115 104.813 103.67 104.757C103.785 104.745 106.487 104.471 107.206 104.415C108.27 104.334 109.304 104.236 110.241 103.932C114.386 102.591 116.019 100.661 116.546 99.8566C112.861 93.0051 112.079 86.5373 114.466 82.4752C115.984 79.8932 118.625 78.5283 122.105 78.5283C125.852 78.5283 129.427 80.6196 131.912 84.2659C135.679 89.7919 136.315 97.5623 133.572 104.545C128.647 117.084 112.439 120.011 111.751 120.13C111.693 120.14 111.635 120.145 111.578 120.145Z" fill="#040371"/>
<path d="M118.578 99.3579L119.943 103.814L116.82 100.355C115.782 99.0294 117.974 97.787 118.578 99.3579Z" fill="#040371"/>
<path d="M111.642 120.143L104.782 119.558L111.516 118.125C113.053 117.887 113.197 120.187 111.642 120.143Z" fill="#040371"/>
<path d="M120.581 99.2979C118.193 99.2979 116.572 98.8836 116.408 98.84C115.868 98.6959 115.547 98.1423 115.691 97.6027C115.835 97.0632 116.388 96.743 116.928 96.8861C117.321 96.9889 126.199 99.2041 133.25 91.891C133.638 91.4886 134.278 91.4774 134.68 91.8647C135.082 92.2523 135.093 92.8923 134.706 93.2941C129.89 98.2893 124.305 99.2979 120.581 99.2979Z" fill="#040371"/>
</g>
<defs>
<clipPath id="clip0_550_10728">
<rect width="213.344" height="192" fill="white" transform="translate(0.327904)"/>
</clipPath>
</defs>
</svg>
