<svg width="750" height="1104" viewBox="0 0 750 1104" fill="none" xmlns="http://www.w3.org/2000/svg">
<g clip-path="url(#clip0_550_10547)">
<path d="M603.005 610.716C605.858 610.97 608.625 611.478 611.323 612.171C617.585 600.984 645.415 544.123 595.585 494.626C550.105 449.45 506.159 460.385 493.771 464.815C480.523 469.55 474.097 476.254 473.764 479.503C473.146 485.536 476.161 489.56 481.638 496.867C487.651 504.893 496.74 517.019 505.934 539.403C520.381 574.579 506.604 604.267 500.103 615.288C510.156 615.339 522.478 614.202 535.88 612.955C557.029 610.989 580.994 608.761 603.005 610.716Z" fill="#FAA327"/>
<path d="M613.154 614.167L606.158 613.616L584.71 611.942C584.71 611.942 604.272 584.193 604.77 549.929C605.126 526.522 590.21 499.449 580.705 484.622C576.273 477.733 573.033 473.479 573.033 473.479C573.033 473.479 615.699 494.055 625.845 540.014C636.008 585.973 613.154 614.167 613.154 614.167V614.167Z" fill="white"/>
<path d="M663.698 670.687C653.009 650.538 631.835 619.205 602.483 616.597C581.006 614.688 557.324 616.891 536.428 618.834C520.56 620.311 506.157 621.64 494.804 621.027C494.8 621.027 494.796 621.028 494.791 621.028C494.785 621.028 494.779 621.026 494.772 621.026C489.134 620.719 484.237 619.941 480.314 618.445C472.583 615.5 465.811 609.375 460.231 602.575C461.814 628.457 462.578 694.178 432.086 716.835C415.66 729.04 397.942 730.693 383.122 728.653C383.003 728.667 382.886 728.693 382.766 728.693C382.381 728.693 382.004 728.591 381.64 728.438C366.925 726.143 355.286 720.336 351.021 717.975C345.371 721.888 325.963 734.014 302.584 734.016C294.827 734.016 286.64 732.683 278.367 729.271C265.4 723.925 256.669 713.366 253.116 698.737C247.756 676.667 255.232 647.236 270.891 628.762C280.694 617.196 307.55 590.097 345.102 588.233C355 587.744 364.866 589.062 374.667 592.139C374.692 592.145 374.716 592.153 374.74 592.159C391.592 597.464 408.245 608.002 424.506 623.723C425.679 624.855 425.709 626.725 424.575 627.897C423.443 629.067 421.577 629.102 420.401 627.966C408.132 616.103 395.682 607.33 383.14 601.68C423.767 656.177 397.257 708.295 387.964 723.26C400.649 724.288 415.119 722.087 428.565 712.096C461.708 687.469 454.434 602.234 453.584 593.426C447.641 584.253 443.99 575.817 443.215 573.959C440.865 570.69 416.556 537.539 388.993 523.532C381.65 527.409 346.029 545.124 295.479 552.617C243.688 560.287 165.206 558.542 84.2031 507.178C76.4466 518.276 43.322 571.588 65.7094 644.017C78.3064 682.774 87.6518 703.023 104.849 709.646C103.86 708.547 102.965 707.43 102.159 706.321C84.8968 682.573 88.0467 637.201 102.274 614.018C123.506 579.413 170.499 579.926 174.877 581.095C226.266 594.882 238.258 649.531 237.242 679.65C236.446 703.311 225.606 721.434 208.146 730.41C207.704 730.832 207.142 731.114 206.531 731.202C199.802 734.373 192.155 736.242 183.756 736.588C182.845 736.624 181.945 736.643 181.063 736.643C177.307 736.643 173.838 736.291 170.602 735.723C170.579 735.719 170.556 735.721 170.533 735.717C170.516 735.713 170.493 735.706 170.476 735.702C154.08 732.787 144.337 723.75 141.033 720.146C130.469 722.354 122.211 720.961 115.8 717.909C113.269 717.742 110.858 717.427 108.583 716.931C112.346 727.955 122.911 755.164 143.983 784.726C169.072 819.92 214.649 865.768 289.337 884.458C301.245 885.152 313.236 885.594 325.204 885.767C337.305 885.91 349.419 885.825 361.511 884.852C349.533 886.803 337.406 887.876 325.284 888.718C315.707 889.357 306.127 889.779 296.521 890.085C306.151 897.997 327.787 914.167 358.138 927.436C390.51 941.588 438.688 954.786 495.399 945.501C501.629 940.151 547.415 897.542 518.67 824.415C506.17 823.128 496.069 821.866 495.216 821.759C494.217 821.634 493.37 820.998 492.937 820.097C482.885 829.572 471.085 837.042 458.512 842.192C470.272 834.722 481.169 826.218 490.402 816.181C499.603 806.133 507.241 794.767 512.967 782.452C515.959 776.354 518.32 769.955 520.383 763.468C522.496 756.987 524.072 750.333 525.429 743.62C527.978 730.163 529.321 716.392 529.104 702.475C531.759 716.188 531.716 730.399 529.961 744.349C528.535 755.419 525.806 766.374 521.745 776.85C531.399 773.879 554.332 766.349 562.224 759.582C562.845 759.048 563.666 758.791 564.475 758.89C565.289 758.981 566.027 759.406 566.516 760.065C566.638 760.229 570.163 764.943 575.761 771.544C575.475 763.599 576.279 751.477 581.585 737.846C589.77 716.813 610.694 688.306 663.698 670.687V670.687Z" fill="#FAA327"/>
<path d="M473.693 725.736C470.454 762.794 429.301 845.616 306.199 840.294C213 836.253 174.82 775.699 161.755 746.525C157.572 737.163 155.97 731.022 155.97 731.022H155.988C157.02 731.111 188.953 733.799 199.633 731.93C210.49 730.025 229.02 710.392 232.953 697.648C236.745 685.366 238.489 643.323 213.285 609.984C212.324 608.703 211.327 607.439 210.277 606.193C188.971 580.722 162.164 582.466 150.185 584.905C146.234 585.706 143.902 586.578 143.902 586.578C143.902 586.578 143.849 586.222 143.76 585.581C142.763 578.622 137.013 537.469 138.544 532.378C138.651 531.969 138.829 531.791 139.06 531.898C140.662 532.645 147.996 535.422 159.494 538.857C171.652 542.488 188.49 546.849 208.23 550.302C223.217 552.919 241.124 553.293 257.392 552.759C282.881 551.922 304.383 548.896 304.383 548.896L304.65 549.395L326.508 591.295C326.508 591.295 313.515 599.429 312.251 600.195C311.877 600.426 309.278 602.028 305.683 604.271C296.765 609.842 281.76 619.365 279.998 621.269C277.524 623.939 263.996 640.511 258.478 654.039C252.96 667.549 246.285 712.688 279.5 726.537C312.696 740.402 349.505 714.397 349.505 714.397C349.505 714.397 377.896 733.443 412.747 722.015C447.599 710.588 453.58 669.578 453.58 669.578C453.58 669.578 476.915 688.695 473.693 725.736Z" fill="white"/>
<path d="M210.372 722.311C223.086 713.647 230.693 698.726 231.342 679.45C232.299 651.08 221.17 599.652 173.385 586.808C168.271 585.813 126.053 586.553 107.305 617.104C94.3062 638.288 91.2409 681.26 106.934 702.85C110.017 707.092 113.645 710.245 117.785 712.325C117.846 712.352 117.905 712.378 117.963 712.409C123.887 715.331 130.862 716.061 138.844 714.559L136.315 705.766C135.197 701.715 134.235 697.607 133.486 693.472C132.715 689.342 132.198 685.17 131.922 680.998C131.582 676.83 131.668 672.647 131.833 668.505C132.16 672.647 132.565 676.764 133.386 680.812C134.143 684.863 135.129 688.859 136.354 692.776C137.558 696.698 138.957 700.546 140.509 704.343L142.913 710.047L144.137 712.997C144.332 713.559 144.537 714.006 144.723 714.67L144.986 715.692C144.987 715.697 144.987 715.706 144.988 715.711C146.983 718.016 154.861 726.104 168.923 729.357L168.937 729.302C169.178 728.342 169.407 727.377 169.614 726.404C170.037 724.459 170.392 722.491 170.698 720.509C171.314 716.546 171.704 712.529 171.925 708.491C172.349 700.411 172.027 692.246 171.076 684.121C172.995 692.072 174.315 700.214 174.877 708.467C175.149 712.594 175.248 716.747 175.107 720.915C175.038 723 174.918 725.088 174.721 727.18C174.627 728.226 174.51 729.273 174.378 730.32L174.375 730.342C177.215 730.685 180.259 730.823 183.513 730.688C191.023 730.379 197.803 728.753 203.77 726.017C205.016 722.537 206.061 718.763 206.88 715.039C207.784 710.884 208.412 706.661 208.758 702.403C209.149 698.141 209.057 693.852 208.711 689.569C208.365 685.274 207.411 681.056 206.177 676.884C207.87 680.876 209.325 685.034 210.171 689.348C211.018 693.65 211.611 698.047 211.71 702.463C211.852 706.878 211.701 711.315 211.254 715.732C211.019 717.945 210.737 720.124 210.372 722.311V722.311Z" fill="white"/>
<path d="M505.581 943.584C512.842 942.071 520.223 940.204 527.727 937.895H527.728C531.598 936.677 535.547 935.215 539.392 933.674C543.296 932.089 547.175 930.407 550.94 928.504C554.697 926.591 558.432 924.588 561.939 922.227C565.444 919.873 568.82 917.282 571.764 914.181C569.198 917.599 566.097 920.615 562.824 923.409C559.546 926.212 556.004 928.677 552.41 931.063C548.807 933.441 545.072 935.603 541.283 937.678C538.315 939.283 535.319 940.79 532.245 942.24C534.728 948.918 543.062 967.978 559.587 975.628C563.969 977.657 568.638 978.731 573.565 978.876C572.922 978.315 572.309 977.722 571.686 977.148L569.745 975.082C567.244 972.261 565.17 969.08 563.64 965.69C562.11 962.309 561.019 958.74 560.65 955.109C560.334 953.313 560.398 951.487 560.355 949.691C560.358 947.893 560.649 946.104 560.781 944.335C560.894 946.123 560.851 947.902 561.092 949.655C561.378 951.404 561.555 953.153 562.099 954.828C562.924 958.224 564.416 961.401 566.235 964.284C568.055 967.175 570.309 969.757 572.871 971.946L574.833 973.528C575.526 974.003 576.191 974.511 576.896 974.954C578.256 975.843 579.827 976.706 581.109 977.242L581.204 977.282C581.682 977.482 582.069 977.801 582.37 978.18C586.58 977.418 590.945 976.059 595.46 974.071C602.318 971.054 608.162 966.725 612.973 961.148C611.634 960.16 610.541 959.181 609.412 958.107C608.112 956.832 606.896 955.49 605.77 954.086C603.519 951.278 601.617 948.215 600.191 944.964C598.762 941.724 597.66 938.354 597.152 934.902C596.506 931.477 596.514 927.998 596.649 924.592C597.006 927.998 597.491 931.367 598.587 934.556C599.544 937.773 601.048 940.782 602.791 943.567C604.531 946.362 606.661 948.88 609.03 951.089C610.215 952.194 611.461 953.222 612.752 954.166C613.974 955.045 615.367 955.931 616.533 956.51C619.377 952.351 621.764 947.651 623.661 942.394C635.634 909.214 625.242 865.354 618.893 852.654C610.164 835.195 581.828 827.242 559.195 827.242C550.348 827.242 537.276 826.227 525.243 825.07C548.018 886.446 519.69 927.883 505.581 943.584V943.584Z" fill="white"/>
<path d="M715.307 679.583C696.69 671.336 679.625 685.705 676.833 688.236C676.648 688.47 676.435 688.688 676.174 688.864C676.106 688.91 676.036 688.952 675.965 688.992L675.842 689.06L675.833 689.065L675.825 689.069C671.098 691.691 666.335 695.088 661.971 698.69C657.561 702.309 653.42 706.288 649.62 710.586C647.649 712.68 645.931 714.982 644.118 717.221C642.464 719.569 640.687 721.855 639.219 724.34C636.029 729.168 633.534 734.41 631.184 739.732C633.071 734.243 635.135 728.75 637.94 723.603C639.216 720.958 640.811 718.498 642.299 715.96C643.943 713.532 645.507 711.025 647.336 708.716C650.853 703.987 654.763 699.532 659.01 695.397C662.679 691.829 666.483 688.534 670.746 685.472C669.913 683.476 668.459 680.154 666.419 676.006C572.888 706.672 581.136 771.644 582.434 779.147C597.521 795.772 620.283 816.931 636.918 814.885C660.8 811.952 704.674 800.131 730.17 753.923C740.852 734.562 743.938 717.823 739.343 704.174C734.785 690.633 723.755 683.328 715.307 679.583V679.583Z" fill="white"/>
<path d="M356.713 704.774C356.406 706.349 355.966 707.919 355.453 709.5C355.172 710.29 354.889 711.081 354.521 711.88C354.385 712.213 354.201 712.554 354.026 712.894C357.851 715.009 368.259 720.213 381.477 722.45C384.505 717.999 393.33 703.816 397.312 684.391C403.686 653.306 395.249 624.112 372.273 597.603C363.335 594.871 354.366 593.688 345.396 594.129C310.148 595.879 284.701 621.601 275.396 632.579C260.861 649.727 253.904 676.965 258.854 697.344C260.195 702.864 262.419 707.665 265.364 711.761C265.122 709.856 264.965 707.926 264.871 706.003C264.707 701.61 265.071 697.212 265.946 692.957C266.834 688.708 268.085 684.552 269.908 680.67C270.703 678.682 271.81 676.842 272.798 674.963C273.837 673.11 275.072 671.371 276.191 669.584C275.281 671.5 274.267 673.35 273.458 675.293C272.701 677.259 271.834 679.168 271.288 681.194C269.961 685.157 269.238 689.279 268.869 693.37C268.513 697.469 268.657 701.58 269.28 705.599C269.619 707.609 270.001 709.597 270.526 711.579L271.338 714.582C271.481 715.13 271.628 715.597 271.767 716.214L271.969 717.174C272.031 717.516 272.033 718.173 271.984 718.723C274.564 720.764 277.424 722.496 280.617 723.813C289.324 727.402 298.031 728.394 306.18 727.894C305.229 723.815 304.726 719.895 304.468 715.856C304.204 711.27 304.369 706.676 304.946 702.155C305.181 699.888 305.677 697.658 306.12 695.436C306.385 694.332 306.715 693.242 307.008 692.15C307.281 691.052 307.638 689.979 308.048 688.922C309.437 684.617 311.625 680.642 313.899 676.821C312.052 680.886 310.351 684.998 309.465 689.335C309.18 690.399 308.951 691.474 308.806 692.568C308.639 693.655 308.438 694.733 308.3 695.819C308.113 698.009 307.873 700.179 307.889 702.369C307.818 706.733 308.144 711.089 308.868 715.364C309.568 719.44 310.632 723.614 312.014 727.281C329.837 724.632 344.032 715.604 347.961 712.896C347.846 712.056 348.051 711.179 348.668 710.505C348.653 710.566 348.941 710.231 349.096 710.035C349.279 709.779 349.473 709.543 349.65 709.252C350.021 708.708 350.359 708.094 350.697 707.483C351.34 706.226 351.957 704.912 352.464 703.529C353.504 700.78 354.371 697.895 355.033 694.944C355.726 691.999 356.249 688.995 356.691 685.969C357.117 682.939 357.43 679.887 357.702 676.821C357.921 679.887 358.102 682.966 358.164 686.059C358.21 689.151 358.174 692.259 357.953 695.378C357.761 698.5 357.355 701.629 356.713 704.774V704.774Z" fill="white"/>
<path d="M369.512 532.467C369.512 532.467 357.48 578.586 305.683 604.271C309.278 602.028 311.877 600.426 312.251 600.195C313.515 599.429 326.508 591.295 326.508 591.295L304.65 549.395C344.041 543.628 369.512 532.467 369.512 532.467V532.467Z" fill="#EF7F25"/>
<path d="M143.76 585.581C140.556 585.937 138.277 586.204 138.277 586.204C100.934 577.803 77.0823 518.868 77.0823 518.868C76.7797 514.222 83.4545 503.205 83.4545 503.205C92.4433 512.567 112.183 523.283 138.544 532.378C137.014 537.469 142.763 578.622 143.76 585.581V585.581Z" fill="#EF7F25"/>
<g opacity="0.25">
<path d="M326.508 591.295C326.508 591.295 313.515 599.429 312.251 600.195C311.877 600.426 309.278 602.028 305.683 604.271C300.467 606.87 294.843 609.255 288.773 611.355C249.934 624.847 226.225 617.976 213.285 609.984C204.189 604.395 200.398 598.237 200.398 598.237C200.398 598.237 188.205 589.657 184.966 588.892C181.726 588.144 167.825 584.139 163.855 583.908C161.933 583.801 155.917 584.335 150.185 584.905C147.907 585.136 145.664 585.385 143.76 585.581C142.763 578.622 137.013 537.469 138.544 532.378C145.13 534.656 152.143 536.828 159.494 538.857C183.399 545.407 211.006 550.409 240.127 552.207C246.001 552.563 251.768 552.741 257.392 552.759C274.587 552.848 290.517 551.477 304.65 549.395L326.508 591.295V591.295Z" fill="#020772"/>
</g>
<path d="M673.563 731.062C675.713 724.322 674.021 717.763 669.783 716.41C665.545 715.058 660.366 719.425 658.215 726.164C656.065 732.903 657.757 739.463 661.995 740.815C666.233 742.168 671.412 737.801 673.563 731.062Z" fill="#F95089"/>
<path d="M703.802 724.679C705.923 718.032 704.254 711.562 700.074 710.228C695.894 708.895 690.786 713.202 688.665 719.849C686.544 726.496 688.213 732.965 692.393 734.299C696.573 735.633 701.681 731.326 703.802 724.679Z" fill="#F95089"/>
<path d="M672.671 802.57C689.942 799.793 702.534 788.778 700.796 777.968C699.058 767.158 683.648 760.646 666.377 763.423C649.106 766.199 636.514 777.214 638.252 788.024C639.991 798.834 655.4 805.346 672.671 802.57Z" fill="#F95089"/>
<path d="M728.713 748.661C730.999 741.496 729.2 734.522 724.694 733.084C720.188 731.646 714.682 736.289 712.395 743.454C710.109 750.619 711.908 757.593 716.414 759.031C720.92 760.469 726.426 755.826 728.713 748.661Z" fill="#F95089"/>
<g opacity="0.25">
<path d="M254.32 708.468C254.32 708.468 268.065 751.286 301.838 747.731C335.61 744.175 340.435 733.51 350.846 737.319C361.257 741.128 402.901 757.217 432.103 731.017C461.305 704.817 456.744 669.124 456.649 669.584C456.555 670.044 433.521 727.98 400.362 726.458C367.203 724.936 354.084 711.927 347.799 716.116C341.514 720.306 324.755 728.686 302.472 731.923C280.19 735.161 254.32 708.468 254.32 708.468V708.468Z" fill="#020772"/>
</g>
<path d="M610.855 613.616C610.516 614.096 610.178 614.559 609.822 615.004C609.822 615.004 585.437 615.52 576.288 615.004C567.157 614.506 505.196 619.276 500.622 618.92C496.047 618.564 508.115 570.701 508.489 555.34C508.542 553.773 521.198 583.018 534.904 587.593C548.609 592.149 577.569 592.416 584.671 556.354C591.791 520.292 566.818 474.458 552.169 465.95C541.792 459.934 563.935 468.46 585.401 484.622C594.906 499.449 609.822 526.522 609.466 549.929C608.968 584.193 589.406 611.943 589.406 611.943L610.855 613.616V613.616Z" fill="#EF7F25"/>
<g opacity="0.25">
<path d="M610.855 613.616L589.406 611.942C589.406 611.942 608.968 584.193 609.467 549.929C609.823 526.522 594.906 499.449 585.401 484.622C594.248 491.297 603.005 499.253 609.306 508.028C630.47 537.469 627.711 590.263 610.855 613.616V613.616Z" fill="#020772"/>
</g>
<g opacity="0.4">
<path d="M72.2862 561.102C68.7311 562.997 65.3031 575.44 67.3346 584.835C69.366 594.231 74.3526 598.547 77.0648 589.025C79.7771 579.503 77.9107 558.103 72.2862 561.102V561.102Z" fill="white"/>
</g>
<g opacity="0.4">
<path d="M82.4523 594.445C80.5788 594.935 78.7723 598.148 79.8428 600.574C80.9134 603.001 83.5412 604.115 84.9705 601.656C86.3998 599.197 85.4163 593.67 82.4523 594.445Z" fill="white"/>
</g>
<g opacity="0.4">
<path d="M502.932 499.959C503.207 506.544 516.915 538.62 527.771 538.811C538.626 539.001 532.151 513.481 521.486 502.054C510.821 490.628 502.471 488.914 502.932 499.959Z" fill="white"/>
</g>
<g opacity="0.4">
<path d="M543.298 533.623C542.181 535.635 542.536 545.447 548.752 545.633C552.075 545.733 554.998 540.553 552.365 536.301C549.732 532.05 545.015 530.531 543.298 533.623Z" fill="white"/>
</g>
<g opacity="0.25">
<path d="M117.785 712.325C117.845 712.352 117.905 712.378 117.963 712.409C119.388 713.112 120.878 713.681 122.424 714.129C123.675 714.403 124.94 714.673 126.2 714.934C130.086 715.52 134.296 715.415 138.844 714.559L136.315 705.766C135.197 701.715 134.235 697.607 133.486 693.472C132.715 689.342 132.198 685.17 131.922 680.998C131.582 676.83 131.668 672.647 131.832 668.505C132.16 672.647 132.565 676.764 133.386 680.812C134.143 684.863 135.129 688.859 136.354 692.776C137.558 696.698 138.957 700.546 140.509 704.343L142.913 710.047L144.136 712.997C144.332 713.559 144.537 714.006 144.723 714.67L144.985 715.692C144.986 715.697 144.987 715.706 144.988 715.711C146.983 718.016 154.861 726.104 168.923 729.357L168.937 729.302C169.178 728.342 169.407 727.377 169.614 726.404C170.036 724.459 170.391 722.491 170.698 720.509C171.313 716.546 171.704 712.529 171.925 708.491C172.093 705.287 172.112 702.068 172.052 698.845C145.278 690.596 153.687 635.912 117.231 653.015C109.396 656.691 102.499 657.879 96.4579 657.412C95.633 674.287 98.6949 691.515 106.934 702.85C110.017 707.092 113.644 710.245 117.785 712.325V712.325Z" fill="#020772"/>
</g>
<g opacity="0.25">
<path d="M70.7718 675.978C67.6132 668.237 64.5869 659.503 61.4365 649.927C63.476 658.256 66.7105 667.343 70.7718 675.978Z" fill="#020772"/>
</g>
<g opacity="0.25">
<path d="M209.997 688.597C210.05 688.848 210.121 689.096 210.171 689.348C211.018 693.65 211.611 698.047 211.71 702.463C211.852 706.878 211.701 711.315 211.253 715.732C211.019 717.945 210.737 720.124 210.372 722.311C223.086 713.647 230.693 698.726 231.342 679.45C231.601 671.767 230.962 662.388 228.96 652.547C228.914 653.172 227.177 674.649 209.997 688.597V688.597Z" fill="#020772"/>
</g>
<path d="M104.849 709.646C103.861 708.547 102.965 707.43 102.159 706.321C92.9285 693.622 89.5389 674.74 90.5546 656.373C69.7013 650.593 61.0661 624.598 60.6885 623.431C61.8906 630.1 63.5299 636.965 65.7097 644.017C78.3068 682.774 87.6521 703.023 104.849 709.646V709.646Z" fill="#EF7F25"/>
<g opacity="0.25">
<path d="M173.914 699.34C174.323 702.367 174.668 705.406 174.877 708.467C175.149 712.594 175.248 716.747 175.108 720.915C175.038 723 174.918 725.088 174.721 727.18C174.628 728.226 174.51 729.273 174.378 730.32L174.375 730.342C177.215 730.685 180.259 730.823 183.514 730.688C191.023 730.379 197.803 728.753 203.77 726.017C205.016 722.537 206.061 718.763 206.88 715.039C207.784 710.884 208.412 706.661 208.759 702.403C209.147 698.157 209.057 693.885 208.714 689.619C202.588 694.247 194.627 697.915 184.269 699.484C180.34 700.079 176.92 699.985 173.914 699.34V699.34Z" fill="#020772"/>
</g>
<g opacity="0.25">
<path d="M357.81 678.53C357.975 681.031 358.114 683.539 358.165 686.059C358.211 689.151 358.175 692.259 357.953 695.378C357.761 698.5 357.355 701.629 356.713 704.774C356.407 706.349 355.966 707.919 355.453 709.5C355.172 710.29 354.89 711.081 354.522 711.88C354.385 712.213 354.201 712.554 354.026 712.894C357.851 715.009 368.259 720.213 381.477 722.45C384.256 718.366 391.904 706.076 396.224 689.076C383.955 687.44 374.067 681.316 364.812 678.349C362.235 677.523 359.98 677.693 357.81 678.53Z" fill="#020772"/>
</g>
<g opacity="0.25">
<path d="M423.47 684.554C415.533 688.194 408.459 689.522 402.025 689.482C398.204 705.231 391.698 717.248 387.964 723.26C400.649 724.288 415.119 722.087 428.565 712.096C442.857 701.476 449.629 679.586 452.647 657.415C447.511 666.185 438.266 677.768 423.47 684.554V684.554Z" fill="#020772"/>
</g>
<g opacity="0.25">
<path d="M258.855 697.344C260.195 702.864 262.419 707.665 265.364 711.761C265.122 709.856 264.965 707.926 264.871 706.003C264.707 701.61 265.071 697.212 265.946 692.957C266.297 691.277 266.726 689.619 267.203 687.98C262.555 681.317 259.968 674.205 258.611 669.354C256.821 679.057 256.78 688.803 258.855 697.344V697.344Z" fill="#020772"/>
</g>
<g opacity="0.25">
<path d="M308.868 715.364C309.568 719.44 310.632 723.614 312.014 727.281C329.837 724.632 344.032 715.604 347.961 712.896C347.846 712.056 348.051 711.179 348.668 710.505C348.653 710.566 348.941 710.231 349.096 710.035C349.279 709.779 349.473 709.543 349.65 709.252C350.022 708.708 350.359 708.094 350.697 707.483C351.34 706.226 351.957 704.912 352.464 703.529C353.504 700.78 354.371 697.895 355.033 694.944C355.726 691.999 356.249 688.995 356.691 685.969C357.033 683.541 357.291 681.095 357.524 678.643C347.35 682.86 338.867 701.916 307.908 705.26C307.989 708.654 308.304 712.034 308.868 715.364V715.364Z" fill="#020772"/>
</g>
<g opacity="0.25">
<path d="M269.181 690.611C269.06 691.531 268.952 692.451 268.869 693.37C268.513 697.469 268.657 701.58 269.281 705.599C269.619 707.609 270.001 709.597 270.526 711.579L271.338 714.582C271.481 715.13 271.628 715.597 271.767 716.214L271.969 717.174C272.032 717.516 272.033 718.173 271.985 718.723C274.565 720.764 277.424 722.496 280.617 723.813C289.324 727.402 298.031 728.394 306.18 727.894C305.229 723.815 304.726 719.895 304.468 715.856C304.27 712.416 304.313 708.973 304.591 705.558C287.363 706.726 276.27 699.436 269.181 690.611Z" fill="#020772"/>
</g>
<g opacity="0.25">
<path d="M161.152 815.14C160.746 814.702 160.342 814.264 159.942 813.827C160.345 814.265 160.745 814.707 161.152 815.14Z" fill="#020772"/>
</g>
<g opacity="0.25">
<path d="M505.582 943.584C512.843 942.071 520.224 940.204 527.728 937.895H527.728C531.598 936.677 535.548 935.215 539.393 933.674C543.297 932.089 547.175 930.407 550.941 928.504C552.369 927.777 553.789 927.027 555.2 926.26C541.838 931.215 527.114 934.095 512.156 935.49C509.807 938.674 507.553 941.39 505.582 943.584V943.584Z" fill="#020772"/>
</g>
<g opacity="0.25">
<path d="M566.29 964.363C568.101 967.222 570.334 969.778 572.872 971.946L574.834 973.528C575.527 974.003 576.191 974.511 576.896 974.954C578.257 975.843 579.827 976.706 581.11 977.242L581.204 977.282C581.683 977.482 582.07 977.801 582.371 978.18C586.58 977.418 590.945 976.059 595.46 974.071C602.318 971.054 608.162 966.725 612.973 961.148C611.635 960.16 610.542 959.181 609.413 958.107C608.112 956.832 606.897 955.49 605.771 954.086C603.519 951.278 601.618 948.215 600.191 944.964C599.659 943.757 599.192 942.526 598.764 941.285C598.104 942.718 597.412 944.143 596.649 945.541C590.028 957.68 577.491 962.556 566.29 964.363V964.363Z" fill="#020772"/>
</g>
<g opacity="0.25">
<path d="M545.62 964.928C549.415 969.179 554.027 973.054 559.587 975.628C563.969 977.657 568.639 978.731 573.565 978.876C572.922 978.315 572.309 977.722 571.686 977.148L569.745 975.082C567.244 972.26 565.17 969.08 563.64 965.69C563.506 965.394 563.395 965.088 563.268 964.789C555.474 965.705 548.708 965.245 545.62 964.928V964.928Z" fill="#020772"/>
</g>
<g opacity="0.25">
<path d="M156.101 809.548C156.284 809.76 156.476 809.96 156.66 810.171C156.436 809.917 156.205 809.663 155.984 809.409C156.024 809.456 156.06 809.501 156.101 809.548V809.548Z" fill="#020772"/>
</g>
<g opacity="0.25">
<path d="M600.011 938.336C600.816 940.154 601.751 941.905 602.792 943.567C604.532 946.362 606.661 948.88 609.03 951.089C610.215 952.194 611.461 953.222 612.752 954.166C613.974 955.045 615.367 955.931 616.533 956.51C619.377 952.351 621.764 947.651 623.661 942.394C635.634 909.214 625.243 865.354 618.893 852.654C610.164 835.195 581.829 827.242 559.196 827.242C550.349 827.242 537.276 826.227 525.244 825.07C530.994 840.566 533.479 854.786 533.765 867.647C561.833 867.869 586.35 870.893 592.84 876.472C605.962 887.752 609.644 914.672 600.011 938.336V938.336Z" fill="#020772"/>
</g>
<g opacity="0.25">
<path d="M669.527 792.422C641.595 800.294 625.597 782.011 602.744 754.079C592.387 741.421 594.71 729.007 599.228 719.064C578.015 746.6 581.612 774.396 582.434 779.147C597.522 795.772 620.284 816.931 636.918 814.885C660.8 811.952 704.674 800.131 730.171 753.923C733.29 748.27 735.741 742.847 737.563 737.653C736.123 736.19 697.395 784.568 669.527 792.422V792.422Z" fill="#020772"/>
</g>
<path d="M609.113 700.068C594.18 712.92 586.009 726.465 581.577 737.839C576.273 751.474 575.472 763.595 575.757 771.552C570.168 764.948 566.644 760.231 566.519 760.071C566.02 759.412 565.291 758.985 564.472 758.896C563.671 758.789 562.852 759.056 562.229 759.59C554.326 766.354 531.4 773.883 521.753 776.856C525.811 766.372 528.534 755.425 529.958 744.354C531.721 730.399 531.756 716.195 529.104 702.471C529.318 716.391 527.983 730.168 525.437 743.624C524.067 750.335 522.5 756.992 520.382 763.471C518.317 769.95 515.968 776.358 512.96 782.445C507.246 794.762 499.61 806.136 490.408 816.175C481.17 826.214 470.276 834.723 458.511 842.198C471.077 837.036 482.878 829.578 492.935 820.091C493.362 820.999 494.217 821.64 495.214 821.765C496.068 821.871 506.178 823.135 518.674 824.417C524.903 840.294 527.627 854.712 528.018 867.634C494.911 867.83 458.333 871.817 440.996 880.023C407.728 895.775 391.727 913.041 393.756 919.645C395.251 924.486 450.127 939.367 504.487 936.074C500.304 941.093 496.816 944.279 495.392 945.507C438.682 954.781 390.516 941.592 358.139 927.441C327.79 914.162 306.146 898 296.516 890.079C306.128 889.777 315.704 889.35 325.281 888.727C337.402 887.872 349.541 886.804 361.503 884.846C349.417 885.825 337.313 885.914 325.209 885.772C313.23 885.594 301.251 885.149 289.343 884.455C214.656 865.765 169.071 819.913 143.991 784.723C122.917 755.158 112.344 727.96 108.588 716.925C110.866 717.423 113.269 717.743 115.797 717.904C122.205 720.965 130.464 722.354 141.037 720.146C143.208 722.514 148.156 727.231 155.97 731.022C155.97 731.022 157.573 737.163 161.755 746.525C144.703 746.08 136.017 744.425 136.017 744.425C136.017 744.425 182.866 839.902 285.338 854C387.793 868.097 453.313 833.192 482.629 791.025C511.963 748.875 518.816 669.578 518.816 669.578C518.816 669.578 535.459 676.876 538.253 704.305C541.048 731.734 594.874 696.313 606.8 697.826C608.562 698.057 609.185 698.84 609.113 700.068V700.068Z" fill="#EF7F25"/>
<g opacity="0.25">
<path d="M212.235 728.067C212.235 728.067 201.413 746.205 175.39 746.597C170.37 746.668 165.813 746.632 161.755 746.525C157.572 737.163 155.97 731.022 155.97 731.022H155.988C160.046 732.998 164.87 734.706 170.477 735.703C170.495 735.703 170.512 735.721 170.53 735.721H170.602C173.841 736.291 177.312 736.647 181.068 736.647C181.94 736.647 182.848 736.629 183.755 736.593C192.157 736.237 199.793 734.368 206.539 731.2C207.144 731.111 207.696 730.826 208.141 730.417C209.529 729.705 210.864 728.904 212.164 728.085C212.199 728.067 212.235 728.067 212.235 728.067V728.067Z" fill="#020772"/>
</g>
<g opacity="0.25">
<path d="M126.2 714.934C124.94 714.673 123.675 714.403 122.424 714.13C123.643 714.483 124.907 714.739 126.2 714.934Z" fill="#020772"/>
</g>
<g opacity="0.25">
<path d="M126.2 714.934C124.94 714.673 123.675 714.403 122.424 714.13C123.643 714.483 124.907 714.739 126.2 714.934Z" fill="#020772"/>
</g>
<g opacity="0.4">
<path d="M434.833 589.089C445.781 620.331 453.76 647.033 453.918 645.663C455.975 620.628 454.002 597.763 453.584 593.426C447.641 584.253 443.99 575.817 443.215 573.959C440.865 570.69 416.556 537.539 388.993 523.532C387.527 524.306 384.916 525.638 381.302 527.323V527.324C381.302 527.324 423.787 557.566 434.833 589.089V589.089Z" fill="white"/>
</g>
<g opacity="0.4">
<path d="M423.089 630.923C423.316 630.461 423.088 629.704 422.58 628.781C421.8 628.814 421.009 628.553 420.401 627.966C408.133 616.103 395.682 607.33 383.141 601.68C388.557 608.945 392.748 616.164 395.977 623.263C396.022 623.325 396.052 623.369 396.052 623.369C396.052 623.369 421.602 633.949 423.089 630.923Z" fill="white"/>
</g>
<g opacity="0.4">
<path d="M492.538 634.034C514.058 633.082 594.427 624.206 610.996 630.358C625.213 635.637 645.587 666.932 652.532 674.752C656.092 673.345 659.798 671.983 663.698 670.687C653.009 650.538 631.835 619.205 602.482 616.597C581.006 614.688 557.323 616.891 536.427 618.834C520.56 620.311 506.157 621.64 494.804 621.027C494.8 621.027 494.795 621.028 494.791 621.028C494.785 621.028 494.779 621.026 494.772 621.026C489.134 620.719 484.237 619.941 480.314 618.445C472.583 615.5 465.811 609.375 460.231 602.575C460.559 607.941 460.847 615.036 460.833 623.089C461.446 624.382 462.223 625.574 463.209 626.607C463.209 626.607 471.018 634.986 492.538 634.034V634.034Z" fill="white"/>
</g>
<g opacity="0.4">
<path d="M535.88 612.955C537.186 612.833 538.533 612.711 539.859 612.589C524.607 613.295 511.045 614.6 501.136 615.279C510.998 615.253 522.924 614.16 535.88 612.955Z" fill="white"/>
</g>
<path d="M181.067 739.329C158.933 739.329 145.37 728.357 140.116 723.067C118.992 726.926 106.676 717.109 99.9847 707.902C82.1277 683.333 85.3204 636.504 99.9826 612.611C122.019 576.699 171.004 577.276 175.572 578.498L175.573 578.5C221.968 590.947 241.325 638.317 239.929 679.741C238.755 714.555 216.749 737.921 183.865 739.271C182.919 739.31 181.984 739.329 181.067 739.329ZM142.117 711.239C143.847 711.239 145.512 712.035 146.594 713.448C147.074 714.062 159.073 729.016 183.402 728.002C210.342 726.897 227.682 708.258 228.656 679.361C229.585 651.813 218.865 601.92 172.835 589.443C166.995 588.612 127.238 589.76 109.596 618.511C97.0218 639 94.0007 680.485 109.108 701.271C116.399 711.301 127.061 714.708 140.795 711.396C141.234 711.289 141.678 711.239 142.117 711.239V711.239ZM172.668 589.397L172.686 589.402C172.68 589.4 172.674 589.399 172.668 589.397Z" fill="#020772"/>
<path d="M136.694 715.329C136.555 715.792 136.473 716.499 136.619 716.907C136.68 715.568 136.112 714.041 135.84 712.591L134.406 706.417C133.486 702.249 132.711 698.027 132.168 693.795C131.066 685.331 130.904 676.797 131.832 668.505C133.248 680.931 137.094 692.561 142.416 703.697C143.793 706.684 146.129 710.918 147.25 714.013C149.102 718.651 145.686 723.588 140.567 722.301C137.572 721.445 135.838 718.323 136.694 715.329V715.329Z" fill="#020772"/>
<path d="M170.039 738.359C166.986 737.893 164.677 734.289 165.643 731.347C168.185 723.947 169.722 716.312 170.581 708.502C171.454 700.501 171.586 692.325 171.076 684.122C175.755 699.825 178.249 716.717 176.642 733.197L176.618 733.529C176.624 733.536 176.601 733.692 176.63 733.578C177.272 730.873 174.804 727.559 172.112 727.272C179.396 728.866 177.407 739.504 170.039 738.359V738.359Z" fill="#020772"/>
<path d="M200.829 726.278C205.731 714.876 208.445 702.164 208.046 689.669C207.929 685.384 207.202 681.138 206.177 676.884C208.078 680.794 209.761 684.924 210.834 689.248C214.161 702.508 214.14 716.409 211.524 729.864C209.359 737.917 197.702 734.025 200.829 726.278V726.278Z" fill="#020772"/>
<path d="M574.696 987.52C568.118 987.52 561.854 986.15 555.944 983.408C538.184 975.168 528.813 956.768 525.106 947.633C454.042 967.899 393.292 952.219 354.486 935.216C315.966 918.339 291.558 897.416 286.122 892.511C209.465 872.985 162.661 825.791 136.853 789.523C112.847 755.789 102.271 725.676 99.4458 716.698C78.7966 707.242 68.9502 681.78 57.5273 646.632C31.0222 560.883 77.0871 502.128 79.0607 499.667C80.8703 497.414 84.0909 496.89 86.5177 498.46C165.936 549.735 243.058 551.629 293.769 544.185C348.946 536.089 385.789 515.511 386.155 515.304C387.765 514.393 389.722 514.327 391.389 515.132C422.818 530.323 449.317 567.694 450.429 569.278C450.675 569.627 450.88 570.003 451.041 570.399C451.173 570.724 464.61 603.27 483.373 610.418C493.335 614.213 513.878 612.302 535.628 610.279C556.892 608.302 580.993 606.063 603.243 608.04C643.304 611.6 668.412 659.113 676.663 677.462C685.098 671.651 701.066 663.875 718.788 671.727C732.96 678.008 743.151 688.557 747.485 701.433C752.88 717.46 749.586 736.516 737.693 758.073C709.333 809.473 658.503 820.889 637.965 823.412C610.484 826.79 574.533 784.291 562.951 769.538C551.078 776.725 530.264 783.294 522.456 785.622C518.303 795.856 511.02 807.065 505.874 814.373C519.759 815.962 545.313 818.651 559.195 818.651C578.621 818.651 614.674 825.003 626.578 848.811C634.424 864.502 644.349 910.376 631.742 945.31C625.427 962.809 614.384 975.131 598.92 981.935C590.46 985.658 582.365 987.52 574.696 987.52V987.52ZM528.596 935.077C529.518 935.077 530.434 935.303 531.262 935.747C532.589 936.459 533.577 937.673 534.004 939.118C534.077 939.362 541.768 964.434 560.741 973.2C570.461 977.689 581.777 977.157 594.378 971.613C606.905 966.1 615.907 955.963 621.133 941.481C632.828 909.076 622.688 866.253 616.49 853.854C608.271 837.417 581.028 829.93 559.195 829.93C538.887 829.93 496.669 824.652 494.881 824.426C492.865 824.173 491.142 822.854 490.37 820.974C489.597 819.095 489.895 816.945 491.15 815.348C491.312 815.141 507.411 794.539 512.869 779.114C513.478 777.39 514.885 776.069 516.643 775.571C526.133 772.871 552.506 764.373 560.475 757.542C561.663 756.525 563.218 756.04 564.775 756.22C566.329 756.394 567.742 757.206 568.674 758.463C580.428 774.289 615.531 814.824 636.59 812.218C659.965 809.346 702.9 797.787 727.817 752.623C738.119 733.95 741.14 717.938 736.796 705.031C732.549 692.416 722.174 685.565 714.218 682.04C695.736 673.843 679.002 689.854 678.299 690.539C676.937 691.867 674.989 692.425 673.134 692.011C671.277 691.597 669.746 690.282 669.074 688.503C668.827 687.847 643.86 622.974 602.244 619.274C581.017 617.384 557.458 619.578 536.672 621.511C512.577 623.75 491.768 625.688 479.358 620.958C457.42 612.601 443.036 580.424 440.858 575.285C437.804 571.075 414.942 540.338 389.011 526.571C379.359 531.588 345.002 547.995 295.872 555.276C244.108 562.95 165.889 561.287 84.9701 510.836C75.5369 525.172 47.4278 575.767 68.2787 643.224C80.9919 682.34 89.7926 700.942 105.467 707.071C105.851 707.168 106.223 707.305 106.576 707.48C109.716 708.568 113.131 709.185 116.901 709.389C120.011 709.557 122.396 712.214 122.228 715.325C122.06 718.434 119.4 720.869 116.292 720.651C115.046 720.583 113.83 720.478 112.644 720.333C117.331 733.047 127.686 757.273 146.291 783.333C171.139 818.136 216.285 863.491 290.25 881.92C291.196 882.156 292.064 882.632 292.771 883.302C293.016 883.534 318.08 907.028 359.399 925.055C397.307 941.591 457.145 956.802 526.937 935.326C527.48 935.16 528.039 935.077 528.596 935.077V935.077Z" fill="#020772"/>
<path d="M494.786 623.716C493.616 623.716 492.437 623.355 491.427 622.603C488.93 620.748 488.408 617.223 490.257 614.723C491.235 613.394 514.029 581.73 497.986 542.668C489.208 521.296 480.859 510.154 474.763 502.021C468.663 493.88 464.255 488 465.217 478.626C466.04 470.599 476.114 462.001 490.882 456.723C504.465 451.872 552.593 439.815 601.639 488.531C632.611 519.295 635.277 553.079 632.061 576.001C628.604 600.632 617.957 617.889 617.505 618.613C615.855 621.253 612.376 622.055 609.734 620.407C607.093 618.755 606.29 615.276 607.941 612.634C609.535 610.067 646.481 548.969 593.69 496.534C549.828 452.967 507.428 462.964 495.477 467.064C482.506 471.515 476.681 477.876 476.437 479.779C475.95 484.523 477.946 487.459 483.789 495.256C489.884 503.389 499.096 515.682 508.42 538.382C526.938 583.473 500.453 619.912 499.317 621.441C498.21 622.93 496.509 623.716 494.786 623.716V623.716Z" fill="#020772"/>
<path d="M289.015 881.753C313.086 883.934 337.296 885.74 361.511 884.853C349.585 887.248 337.452 888.772 325.32 890.061C313.133 891.323 301.018 892.311 288.759 893.029C285.639 893.206 282.967 890.821 282.79 887.702C282.563 884.264 285.596 881.375 289.015 881.753V881.753Z" fill="#020772"/>
<path d="M529.104 702.475C539.634 743.886 527.15 791.826 495.212 820.9C484.523 830.577 471.908 837.913 458.512 842.192C469.759 833.724 480.126 824.858 488.881 814.688C515.924 783.766 526.407 742.922 529.104 702.475Z" fill="#020772"/>
<path d="M302.541 736.695C294.48 736.695 285.957 735.307 277.342 731.755C263.55 726.068 254.27 714.869 250.505 699.372C244.957 676.531 252.669 646.104 268.841 627.023C278.871 615.191 306.365 587.464 344.969 585.548C372.684 584.187 400.077 596.366 426.373 621.79C428.613 623.956 428.673 627.525 426.508 629.764C424.343 632.004 420.773 632.065 418.534 629.898C394.57 606.731 370.013 595.62 345.528 596.813C311.331 598.511 286.524 623.606 277.445 634.317C263.649 650.593 256.779 677.416 261.465 696.708C264.385 708.727 271.173 717.01 281.642 721.327C314.326 734.807 347.096 710.233 347.423 709.982C349.299 708.551 351.868 708.439 353.862 709.701C355.479 710.715 394.016 734.417 426.962 709.938C460.544 684.987 450.94 593.907 450.839 592.99C450.499 589.894 452.732 587.108 455.828 586.767C458.924 586.411 461.71 588.659 462.05 591.756C462.492 595.762 472.406 690.224 433.689 718.992C400.089 743.956 362.433 727.2 351.14 721.134C343.891 725.905 325.012 736.695 302.541 736.695V736.695Z" fill="#020772"/>
<path d="M382.761 731.382C381.566 731.382 380.362 731.004 379.339 730.222C376.865 728.33 376.394 724.789 378.286 722.316C380.253 719.725 423.945 660.556 369.702 598.714C367.648 596.373 367.881 592.81 370.223 590.757C372.564 588.704 376.128 588.936 378.181 591.277C409.745 627.262 410.556 662.851 405.677 686.37C400.415 711.739 387.78 728.469 387.245 729.169C386.134 730.62 384.457 731.382 382.761 731.382V731.382Z" fill="#020772"/>
<path d="M346.686 708.69C346.649 708.75 346.515 708.881 346.59 708.861C348.367 707.37 349.428 705.104 350.529 702.963C354.358 694.877 356.264 685.664 357.702 676.821C358.601 682.9 359.285 689.397 359.282 695.575C359.174 702.256 358.85 709.627 355.46 715.685C350.748 722.093 341.54 714.787 346.686 708.69V708.69Z" fill="#020772"/>
<path d="M304.06 730.558C300.231 712.31 303.078 692.17 313.899 676.821C312.247 680.998 310.767 685.172 310.11 689.524C307.925 701.978 309.651 715.271 314.695 726.803C318.149 734.583 306.281 738.802 304.06 730.558V730.558Z" fill="#020772"/>
<path d="M263.605 716.984C263.485 717.365 263.471 717.79 263.565 718.18L263.565 718.129L263.576 717.689C263.524 716.85 263.241 713.923 263.144 713.003C261.754 699.648 265.178 685.961 272.497 674.813C273.641 673.001 274.976 671.312 276.191 669.584C275.376 671.559 274.463 673.46 273.759 675.443C270.234 684.981 269.113 695.52 271.288 705.416C272.04 709.268 273.647 713.049 274.597 716.875C276.021 726.205 262.171 726.187 263.605 716.984V716.984Z" fill="#020772"/>
<path d="M496.642 953.953C494.995 953.953 493.362 953.236 492.248 951.853C490.294 949.43 490.674 945.883 493.094 943.928C495.351 942.091 546.258 899.462 515.534 823.777C514.363 820.891 515.753 817.601 518.638 816.43C521.525 815.262 524.814 816.649 525.985 819.534C543.691 863.152 535.821 896.978 526.101 917.676C515.54 940.16 500.8 952.204 500.178 952.704C499.135 953.545 497.884 953.953 496.642 953.953Z" fill="#020772"/>
<path d="M526.642 935.426C542.538 930.96 559.204 925.4 571.764 914.181C564.272 924.922 553.132 932.624 542.144 939.501C538.368 941.792 534.653 943.942 530.55 946.006C527.75 947.415 524.338 946.288 522.929 943.488C521.271 940.299 523.15 936.242 526.642 935.426V935.426Z" fill="#020772"/>
<path d="M579.679 786.151C577.106 786.151 574.786 784.383 574.191 781.77C574.002 780.936 569.658 761.081 579.08 736.87C587.651 714.847 609.734 684.853 666.26 667.019C669.232 666.085 672.397 667.729 673.335 670.7C674.272 673.671 672.623 676.838 669.653 677.775C570.888 708.934 584.563 776.427 585.193 779.286C585.863 782.319 583.953 785.334 580.921 786.012C580.505 786.105 580.089 786.151 579.679 786.151V786.151Z" fill="#020772"/>
<path d="M677.167 691.398C657.157 701.877 640.747 719.232 631.183 739.732C632.86 734.167 634.728 728.558 637.358 723.267C645.176 706.945 656.916 692.426 671.535 681.626C678.378 677.283 684.369 687.638 677.167 691.398V691.398Z" fill="#020772"/>
<path d="M577.375 984.979C564.255 976.273 557.249 959.659 560.782 944.334C561.255 955.366 566.816 966.067 576.266 971.88C578.078 972.978 580.322 974.264 582.277 974.822C591.537 977.48 585.432 990.466 577.375 984.979Z" fill="#020772"/>
<path d="M612.449 964.066C600.686 954.892 594.476 939.251 596.649 924.592C597.167 928.005 597.994 931.308 599.208 934.405C602.733 943.271 609.636 950.8 618.43 954.433C626.148 958.348 619.393 969.249 612.449 964.066V964.066Z" fill="#020772"/>
<path d="M484.114 170.211C488.789 170.877 492.519 172.761 495.201 175.812C514.906 198.231 476.9 282.523 438.888 316.008C440.923 329.091 442.086 342.439 442.368 355.889C505.754 277.684 550.543 178.057 514.387 147.871C479.087 118.394 385.061 160.799 366.342 169.713C377.925 181.648 388.429 194.773 397.76 208.968C410.103 200.207 459.281 166.679 484.114 170.211Z" fill="#FAA327"/>
<path d="M490.443 179.122C488.886 177.35 486.692 176.287 483.729 175.865C461.018 172.633 411.448 206.833 401.104 214.186C406.511 222.828 411.501 231.84 416.03 241.218C426.072 262.007 433.304 284.829 437.639 308.649C474.016 273.783 506.047 196.875 490.443 179.122V179.122Z" fill="#FFF3E9"/>
<path d="M505.973 167.758C467.385 143.991 400.602 191.422 390.701 198.747C393.123 202.09 395.477 205.495 397.76 208.968C410.104 200.207 459.281 166.679 484.114 170.211C488.789 170.877 492.519 172.761 495.201 175.812C514.906 198.231 476.901 282.523 438.888 316.008C440.923 329.091 442.086 342.439 442.368 355.889C461.562 332.207 479.045 306.561 493.098 281.474C512.074 239.871 531.45 183.45 505.973 167.758V167.758Z" fill="#EF7F25"/>
<path d="M490.443 179.122C488.886 177.35 486.692 176.287 483.729 175.865C461.018 172.633 411.448 206.833 401.104 214.186C404.602 219.777 407.905 225.54 411.043 231.439C422.758 221.027 466.234 183.777 476.951 194.542C489.365 207.01 473.427 258.947 473.412 258.997C490.973 225.81 500.392 190.441 490.443 179.122V179.122Z" fill="#F9D3B7"/>
<g opacity="0.4">
<path d="M499.931 148.522C516.945 154.828 524.226 167.585 527.248 178.856C526.777 165.562 522.752 154.855 514.387 147.871C479.087 118.394 385.061 160.799 366.342 169.713C369.493 172.96 372.556 176.303 375.546 179.723C375.552 179.724 375.558 179.727 375.564 179.728C375.564 179.728 465.591 135.793 499.931 148.522Z" fill="white"/>
</g>
<path d="M439.33 370.194C438.052 370.194 436.767 369.762 435.711 368.877C433.323 366.878 433.01 363.32 435.01 360.933C482.637 304.097 528.683 222.211 524.538 175.675C523.538 164.437 519.579 155.858 512.774 150.176C474.76 118.442 365.002 173.242 363.897 173.8C361.116 175.209 357.725 174.088 356.321 171.307C354.918 168.527 356.033 165.136 358.813 163.732C363.591 161.319 476.328 105.056 520.002 141.518C529.191 149.189 534.497 160.346 535.773 174.675C540.396 226.579 491.262 311.364 443.655 368.176C442.54 369.507 440.941 370.194 439.33 370.194V370.194Z" fill="#020772"/>
<path d="M435.661 320.327C434.073 320.327 432.495 319.66 431.379 318.36C429.351 315.996 429.622 312.436 431.986 310.408C459.887 286.462 489.54 230.729 491.851 197.893C492.405 190.026 491.275 184.249 488.585 181.189C478.319 169.507 429.895 196.145 400.399 217.828C397.89 219.671 394.36 219.133 392.515 216.624C390.67 214.115 391.209 210.586 393.718 208.74C407.319 198.739 476.225 150.044 497.057 173.742C501.849 179.195 503.883 187.588 503.102 198.685C500.579 234.544 469.587 293 439.332 318.967C438.268 319.879 436.961 320.327 435.661 320.327Z" fill="#020772"/>
<path d="M116.829 182.682C118.249 177.26 126.211 147.209 136.101 117.476C156.084 57.4106 166.436 49.6088 173.221 49.5225C178.763 49.4518 184.405 51.8013 189.985 56.4993C205.706 69.7322 218.641 100.294 222.095 131.762C224.084 131.315 226.064 130.894 228.019 130.527C240.024 128.279 252.272 127.065 264.619 126.813C260.551 112.544 243.812 56.4508 225.764 33.1099C213.406 17.1289 201.366 9.11107 188.968 8.60339C172.478 7.9272 154.653 20.6971 135.992 46.5592C101.01 95.0382 87.7124 181.403 84.2456 208.925C94.7011 199.555 105.636 190.763 116.829 182.682V182.682Z" fill="#FAA327"/>
<path d="M185.875 60.6587C181.677 57.124 177.64 55.3521 173.883 55.398C172.163 55.4191 162.556 58.6191 142.257 119.638C134.754 142.192 128.368 164.923 125.131 176.847C155.434 156.143 187.148 140.786 215.864 133.279C212.818 102.728 200.648 73.0928 185.875 60.6587V60.6587Z" fill="#FFF3E9"/>
<path d="M185.876 60.6587C181.677 57.124 177.64 55.3521 173.883 55.398C172.163 55.4191 162.557 58.6191 142.257 119.638C141.299 122.517 140.36 125.399 139.443 128.262L139.446 128.252C139.446 128.252 162.693 74.6495 175 74.7735C186.85 74.8925 199.376 117.614 196.715 139.296C203.208 136.942 209.61 134.914 215.864 133.279C212.818 102.728 200.648 73.0928 185.876 60.6587Z" fill="#F9D3B7"/>
<path d="M198.057 48.924C164.509 21.1498 143.556 48.9679 126.245 79.4479C109.037 109.744 86.01 197.005 85.7327 198.055C85.1158 202.27 84.6192 205.957 84.2456 208.925C94.701 199.555 105.636 190.763 116.829 182.682C118.249 177.26 126.211 147.209 136.101 117.476C156.084 57.4106 166.436 49.6088 173.221 49.5224C178.763 49.4518 184.405 51.8013 189.985 56.4992C205.706 69.7321 218.641 100.294 222.095 131.762C224.084 131.315 226.064 130.894 228.019 130.527C230.791 130.008 233.579 129.558 236.375 129.148C234.373 115.383 226.03 72.0817 198.057 48.924V48.924Z" fill="#EF7F25"/>
<g opacity="0.4">
<path d="M141.586 43.1898C141.586 43.1898 178.843 1.14025 205.293 25.71C231.743 50.2794 253.946 127.274 253.946 127.274L254.108 127.286C257.602 127.056 261.105 126.885 264.619 126.813C260.551 112.544 243.811 56.4508 225.764 33.1098C213.406 17.1289 201.366 9.11102 188.968 8.60335C175.096 8.03459 160.277 17.0189 144.814 35.2695C142.781 38.7698 141.638 41.6561 141.586 43.1898V43.1898Z" fill="white"/>
</g>
<path d="M80.0573 222.74C79.8823 222.74 79.7055 222.731 79.5279 222.716C76.4268 222.426 74.1471 219.679 74.4358 216.578C74.8715 211.895 85.606 101.202 128.693 41.4933C148.608 13.8933 167.602 0.323896 186.76 0.0068602C202.893 -0.288195 217.958 8.93218 232.788 28.1087C254.522 56.2174 273.325 125.306 274.114 128.234C274.926 131.24 273.146 134.336 270.139 135.147C267.133 135.955 264.037 134.178 263.225 131.172C263.037 130.475 244.221 61.3345 223.865 35.0096C211.363 18.8392 199.292 11.0719 186.947 11.2839C171.806 11.5348 155.283 23.9191 137.839 48.0924C96.5622 105.295 85.7705 216.507 85.6662 217.624C85.3936 220.547 82.9359 222.74 80.0573 222.74V222.74Z" fill="#020772"/>
<path d="M119.734 190.106C119.269 190.106 118.796 190.048 118.325 189.926C115.308 189.149 113.493 186.075 114.269 183.059C114.355 182.727 122.924 149.552 133.827 116.777C154.273 55.3154 165.345 46.9242 173.48 46.8207C173.562 46.8207 173.646 46.819 173.729 46.819C197.025 46.819 220.902 87.9139 224.911 135.031C225.175 138.134 222.873 140.864 219.77 141.128C216.671 141.393 213.936 139.09 213.673 135.988C209.991 92.7275 188.86 58.0978 173.746 58.0978C173.705 58.0978 173.664 58.0978 173.622 58.0995C172.804 58.3402 163.654 62.3281 143.883 122.289C133.413 154.043 125.273 185.557 125.192 185.87C124.537 188.415 122.246 190.106 119.734 190.106V190.106Z" fill="#020772"/>
<path d="M430.676 244.157C427.018 235.005 422.967 226.416 418.581 218.355C418.4 218.127 418.269 217.877 418.173 217.617C410.09 202.888 400.872 189.955 390.8 178.722C390.385 178.5 390.02 178.173 389.764 177.739C389.704 177.637 389.664 177.529 389.619 177.422C371.762 157.867 351.313 143.539 329.849 133.849C291.021 116.321 248.894 113.929 212.833 123.053C185.022 130.091 151.516 148.635 119.745 174.036C119.689 174.086 119.63 174.129 119.57 174.174C107.846 183.559 96.3649 193.88 85.4912 204.899C85.2269 205.433 84.804 205.868 84.2806 206.132C42.7412 248.604 10.4103 301.252 8.40482 350.918C5.24543 429.088 110.853 478.946 150.609 497.715L153.239 498.958C160.755 502.512 173.709 508.143 180.95 510.995L180.952 510.996L183.314 511.927C221.235 526.89 321.967 566.638 371.008 532.083C432.389 488.837 471.977 347.48 430.676 244.157Z" fill="#FAA327"/>
<path d="M35.5668 258.361C35.5668 258.361 40.2986 253.402 60.2999 265.681C88.5384 283.016 80.0511 317.301 139.173 318.842C173.166 319.728 209.382 302.116 244.727 318.072C280.072 334.027 290.232 380.1 305.813 403.138C322.95 428.478 350.186 439.504 375.143 441.216C400.101 442.927 422.417 427.906 433.743 440.502C433.743 440.502 405.057 559.269 308.935 548.173C212.813 537.077 86.9391 476.513 45.7355 434.325C-7.89358 379.414 3.83377 329.268 35.5668 258.361V258.361Z" fill="white"/>
<g opacity="0.25">
<path d="M181.022 390.19C195.277 397.867 209.865 393.469 209.865 393.469C209.865 393.469 216.102 408.935 235.237 415.311C254.372 421.686 267.472 402.266 267.472 402.266C250.304 410.885 233.166 402.14 229.293 393.249C226.184 386.111 236.171 369.936 236.171 369.936C236.171 369.936 211.052 358.013 210.738 358.921C210.423 359.828 204.294 380.069 192.096 380.106C181.208 380.14 166.835 358.094 166.835 358.094C163.318 361.858 166.768 382.513 181.022 390.19V390.19Z" fill="#020772"/>
</g>
<g opacity="0.25">
<path d="M324.533 520.433C207.834 524.318 71.0147 426.371 43.0284 380.133C15.0426 333.894 61.3966 235.132 61.3966 235.132C59.7674 235.807 58.063 236.877 56.3148 238.228C29.0016 273.66 9.93014 313.149 8.40482 350.918C5.24543 429.088 110.853 478.946 150.609 497.715L153.239 498.958C160.755 502.512 173.709 508.143 180.95 510.995L180.952 510.996L183.314 511.927C221.235 526.89 321.967 566.638 371.008 532.083C394.129 515.794 414.154 485.581 427.932 448.727C407.405 482.185 369.825 518.024 324.533 520.433V520.433Z" fill="#020772"/>
</g>
<g opacity="0.4">
<path d="M255.636 128.782C296.371 130.801 334.762 149.156 364.877 173.78C357.902 180.176 361.502 195.767 373.002 208.75C384.574 221.813 399.751 227.279 406.902 220.959C407.077 220.804 407.215 220.619 407.377 220.453C414.892 231.95 420.537 243.529 423.855 254.536C440.004 308.095 445.779 370.781 445.867 371.745C450.423 328.728 446.468 283.664 430.676 244.157C427.018 235.005 422.967 226.416 418.581 218.355C418.4 218.127 418.269 217.877 418.173 217.617C410.089 202.888 400.871 189.955 390.8 178.722C390.385 178.5 390.019 178.173 389.764 177.739C389.703 177.637 389.664 177.529 389.618 177.422C371.762 157.867 351.313 143.539 329.849 133.849C291.021 116.321 248.894 113.929 212.833 123.053C185.022 130.091 151.515 148.635 119.744 174.036C119.689 174.086 119.629 174.129 119.57 174.174C107.846 183.559 96.3646 193.88 85.4909 204.899C85.2266 205.433 84.8037 205.868 84.2803 206.132C83.4552 206.976 82.6401 207.83 81.8228 208.682C79.3678 211.964 77.305 215.148 75.8691 218.094C75.8691 218.094 175.111 124.79 255.636 128.782V128.782Z" fill="white"/>
</g>
<g opacity="0.4">
<path d="M347.428 200.098C350.65 197.813 350.877 192.596 347.934 188.444C344.99 184.293 339.992 182.78 336.77 185.064C333.547 187.349 333.321 192.566 336.264 196.718C339.207 200.869 344.205 202.382 347.428 200.098Z" fill="white"/>
</g>
<path d="M318.156 554.306C268.002 554.306 210.113 531.466 180.238 519.678L177.874 518.746C170.489 515.836 157.301 510.107 149.651 506.485L147.033 505.249C105.916 485.839 -3.30334 434.277 0.0767205 350.609C1.899 305.492 29.4558 251.795 75.6809 203.285C117.592 159.303 169.372 125.467 210.813 114.981C253.983 104.057 299.911 109.249 340.137 129.599C384.2 151.888 418.185 190.428 438.419 241.047C458.126 290.351 461.407 353.017 447.418 412.973C434.227 469.51 407.453 516.58 375.797 538.885C359.925 550.067 339.755 554.306 318.156 554.306V554.306ZM182.007 508.25L184.378 509.186C221.894 523.986 321.548 563.308 369.3 529.665C429.829 487.017 468.78 347.391 427.945 245.235C384.658 136.942 286.482 107.47 213.58 125.914C174.085 135.91 124.373 168.537 83.8462 211.066C39.4853 257.621 13.0599 308.646 11.3461 351.063C8.26785 427.266 112.579 476.511 151.848 495.049L154.477 496.292C161.945 499.827 174.81 505.415 182.007 508.25V508.25Z" fill="#020772"/>
<path d="M228.433 373.953C224.462 374.095 220.696 372.262 218.246 369.168C210.327 359.168 191.771 333.649 207.078 331.8C226.148 329.496 261.549 347.156 259.993 357.786C258.726 366.442 240.416 373.526 228.433 373.953V373.953Z" fill="#020772"/>
<path d="M198.702 400.426C192.656 400.426 185.935 398.922 179.66 395.941C165.65 389.284 156.959 376.932 155.818 362.049C155.579 358.944 157.903 356.233 161.009 355.996C164.117 355.741 166.825 358.081 167.063 361.188C168.191 375.89 178.472 382.889 184.5 385.752C192.559 389.583 200.956 389.901 205.039 388.092L215.593 366.84C216.979 364.053 220.363 362.915 223.153 364.299C225.942 365.684 227.08 369.068 225.695 371.859L214.381 394.639C213.958 395.488 213.328 396.219 212.548 396.76C209.022 399.21 204.134 400.426 198.702 400.426V400.426Z" fill="#020772"/>
<path d="M244.548 420.84C240.991 420.84 237.184 420.342 233.167 419.138C210.918 412.467 204.594 396.763 204.336 396.099C203.209 393.194 204.649 389.927 207.552 388.799C210.44 387.682 213.687 389.096 214.832 391.97C215.067 392.533 219.777 403.349 236.406 408.334C252.658 413.205 264.401 401.845 264.893 401.358C267.102 399.178 270.667 399.179 272.858 401.377C275.05 403.573 275.066 407.118 272.88 409.32C272.322 409.885 261.221 420.84 244.548 420.84V420.84Z" fill="#020772"/>
<path d="M189.537 196.293C192.86 199.407 196.917 201.623 201.257 203.045C208.195 205.319 219.975 208.225 226.729 204.564C236.731 199.141 226.399 183.521 207.964 177.746C189.528 171.972 184.617 179.31 184.182 185.484C183.899 189.516 186.146 193.114 189.537 196.293Z" fill="white"/>
<path d="M336.34 270.325C339.662 273.439 343.72 275.656 348.06 277.078C354.998 279.351 366.778 282.258 373.532 278.596C383.534 273.174 373.202 257.553 354.766 251.779C336.331 246.004 331.419 253.342 330.985 259.516C330.701 263.548 332.948 267.147 336.34 270.325V270.325Z" fill="white"/>
<path d="M106.533 258.562C106.241 256.946 107.062 255.288 107.629 253.804C113.66 239.232 128.829 228.047 145.125 229.354C169.373 231.276 187.711 251.623 183.296 276.126C182.519 280.661 181.214 285.001 179.206 289.107C177.847 292.738 174.459 295.241 170.617 293.251C166.968 291.291 167.62 287.463 168.028 283.986C168.69 277.575 168.444 270.206 166.286 264.375C162.16 252.232 145.968 243.825 133.717 247.303C130.423 248.145 127.104 249.834 123.891 252.024C120.803 254.08 117.947 256.791 115.348 259.455L115.324 259.402L115.315 259.389C115.588 258.776 115.666 257.782 115.511 257.099C116.334 263.042 107.641 264.456 106.533 258.562V258.562Z" fill="#020772"/>
<path d="M308.614 350.43C318.034 332.726 340.04 319.518 359.195 331.321C376.175 342.953 375.989 366.654 371.691 384.589C369.982 390.544 361.285 389 361.653 382.872C361.674 370.668 361.657 350.968 351.247 343.843C338.773 336.525 325.039 347.242 316.464 356.269C312.477 360.347 305.866 355.367 308.614 350.43V350.43Z" fill="#020772"/>
<path d="M134.761 564.844C173.408 584.51 214.297 593.958 249.891 591.45C284.938 588.978 310.557 575.201 322.031 552.652C345.984 505.577 300.952 434.444 221.644 394.09C185.989 375.948 149.376 367.065 117.704 367.065C78.9297 367.065 47.5578 380.37 34.3741 406.282C10.4205 453.359 55.4526 524.49 134.761 564.844V564.844ZM94.5925 426.496C107.588 400.962 157.895 401.376 209.124 427.441C260.35 453.507 290.3 493.931 277.306 519.468C270.895 532.067 255.397 538.35 235.191 538.35C214.443 538.35 188.729 531.727 162.777 518.522C111.551 492.457 81.5991 452.033 94.5925 426.496Z" fill="white"/>
<path d="M165.456 513.26C212.929 537.42 260.742 538.999 272.044 516.789C283.344 494.58 253.917 456.859 206.444 432.703C181.403 419.962 156.262 413.498 136.438 413.498C118.682 413.498 105.193 418.682 99.8543 429.175C88.554 451.383 117.983 489.105 165.456 513.26V513.26Z" fill="white"/>
<g opacity="0.25">
<path d="M55.294 501.455C55.294 501.455 31.0264 441.901 41.7872 413.498C52.5481 385.096 84.8281 382.411 84.8281 382.411C84.8281 382.411 50.1669 417.835 84.8281 469.255C119.489 520.676 206.014 563.336 259.118 547.338C312.221 531.341 295.843 482.205 295.843 482.205C295.843 482.205 350.127 544.291 298.227 579.333C246.327 614.375 124.03 591.55 55.294 501.455V501.455Z" fill="#020772"/>
</g>
<g opacity="0.25">
<path d="M97.4541 440.61C97.4541 440.61 158.711 447.055 219.283 479.456C279.856 511.856 281.75 530.071 240.359 534.896C198.969 539.72 103.097 497.413 97.4541 440.61Z" fill="#020772"/>
</g>
<path d="M238.466 600.438C204.351 600.438 166.623 590.698 130.863 572.501C90.8433 552.138 57.9325 523.546 38.1934 491.993C17.8978 459.549 13.8222 427.727 26.7163 402.386C39.6113 377.044 67.7357 361.606 105.909 358.914C143.038 356.296 185.523 366.069 225.542 386.434C265.562 406.798 298.472 435.389 318.212 466.943C338.507 499.384 342.583 531.208 329.688 556.549C316.794 581.891 288.669 597.329 250.496 600.021C246.544 600.299 242.531 600.438 238.466 600.438ZM117.552 369.674C79.8762 369.674 49.4963 382.489 36.7687 407.499C13.4873 453.257 57.9922 522.766 135.978 562.45C213.964 602.129 296.352 597.19 319.636 551.436C342.918 505.678 298.413 436.169 220.427 396.485C185.07 378.496 148.8 369.674 117.552 369.674V369.674Z" fill="#020772"/>
<path d="M235.253 540.906C234.553 540.906 233.847 540.899 233.135 540.886C211.42 540.445 186 533.354 161.558 520.916C137.116 508.481 116.42 492.105 103.282 474.811C89.2683 456.363 85.3321 438.77 92.1982 425.277C105.876 398.398 157.771 398.298 210.341 425.047C262.912 451.797 293.378 493.808 279.701 520.685C273.046 533.765 257.305 540.906 235.253 540.906V540.906ZM136.305 416.287C119.67 416.287 107.065 420.932 102.251 430.391C97.5226 439.684 101.172 453.388 112.263 467.988C124.394 483.956 143.717 499.182 166.673 510.865C189.63 522.545 213.314 529.202 233.363 529.609C251.692 529.963 264.921 524.863 269.648 515.571H269.649C280.097 495.037 250.595 458.184 205.226 435.098C180.76 422.649 155.773 416.287 136.305 416.287V416.287Z" fill="#020772"/>
<path d="M162.973 357.96C162.973 357.96 181.446 340.559 202.205 338.845C222.964 337.131 251.15 351.034 258.387 363.984C265.624 376.935 277.241 404.74 264.862 411.025C252.483 417.309 223.344 415.024 214.965 401.502C206.585 387.981 188.373 397.782 178.217 388.616C168.061 379.451 160.688 367.552 162.973 357.96V357.96Z" fill="white"/>
<g opacity="0.25">
<path d="M181.022 390.056C195.277 397.733 209.865 393.335 209.865 393.335C209.865 393.335 216.102 408.801 235.237 415.177C254.372 421.552 267.472 402.132 267.472 402.132C250.304 410.751 233.166 402.006 229.293 393.114C226.184 385.977 236.171 369.802 236.171 369.802C236.171 369.802 211.052 357.879 210.738 358.786C210.423 359.694 204.294 379.935 192.096 379.972C181.208 380.005 166.835 357.96 166.835 357.96C163.318 361.724 166.768 382.379 181.022 390.056V390.056Z" fill="#020772"/>
</g>
<path d="M228.433 373.819C224.462 373.961 220.696 372.127 218.246 369.033C210.327 359.034 191.771 333.515 207.078 331.665C226.148 329.361 261.549 347.021 259.993 357.652C258.726 366.308 240.416 373.391 228.433 373.819Z" fill="#020772"/>
<path d="M198.704 400.292C192.657 400.292 185.935 398.786 179.659 395.804C165.649 389.149 156.959 376.795 155.818 361.913C155.579 358.809 157.903 356.097 161.009 355.86C164.117 355.597 166.825 357.946 167.063 361.052C168.191 375.754 178.471 382.753 184.499 385.617C192.558 389.445 200.955 389.769 205.039 387.958L215.593 366.706C216.979 363.919 220.363 362.78 223.153 364.165C225.942 365.55 227.08 368.934 225.695 371.725L214.381 394.505C213.958 395.354 213.328 396.085 212.548 396.628C209.022 399.076 204.135 400.292 198.704 400.292V400.292Z" fill="#020772"/>
<path d="M244.548 420.706C240.991 420.706 237.184 420.208 233.167 419.004C210.918 412.333 204.594 396.629 204.336 395.965C203.209 393.06 204.649 389.793 207.552 388.665C210.44 387.546 213.687 388.962 214.832 391.836C215.067 392.399 219.777 403.215 236.406 408.2C252.658 413.069 264.401 401.711 264.893 401.224C267.102 399.042 270.667 399.045 272.858 401.243C275.05 403.439 275.066 406.984 272.88 409.186C272.322 409.751 261.221 420.706 244.548 420.706V420.706Z" fill="#020772"/>
<g opacity="0.4">
<path d="M229.856 349.332C227.19 347.618 210.487 338.561 215.438 338.701C220.39 338.842 256.575 350.717 251.623 352.778C246.671 354.839 229.856 349.332 229.856 349.332Z" fill="white"/>
</g>
<g opacity="0.2">
<path d="M413.015 1103.26C594.791 1103.26 742.15 1089.2 742.15 1071.85C742.15 1054.5 594.791 1040.44 413.015 1040.44C231.238 1040.44 83.8794 1054.5 83.8794 1071.85C83.8794 1089.2 231.238 1103.26 413.015 1103.26Z" fill="#020772"/>
</g>
<path d="M580.459 285.71C572.355 272.451 568.359 256.534 570.069 239.882C574.219 199.465 610.347 170.065 650.764 174.214C691.182 178.364 720.582 214.493 716.432 254.91C712.282 295.327 676.154 324.728 635.737 320.578C624.495 319.424 614.109 315.789 605.057 310.282L571.013 317.917L580.459 285.71V285.71Z" fill="white"/>
<g opacity="0.5">
<path d="M649.319 188.289C611.564 184.413 577.56 209.816 569.86 246.125C569.851 243.531 569.963 240.914 570.234 238.276C574.384 197.859 610.512 168.459 650.929 172.609C691.346 176.758 720.747 212.887 716.597 253.304C716.325 255.954 715.908 258.553 715.369 261.101C715.227 223.97 687.087 192.167 649.319 188.289V188.289Z" fill="white"/>
</g>
<path d="M643.4 326.61C640.667 326.61 637.917 326.471 635.161 326.188C624.11 325.052 613.678 321.719 604.117 316.273L572.247 323.419C570.301 323.864 568.264 323.229 566.898 321.775C565.532 320.316 565.04 318.246 565.602 316.33L574.36 286.468C566.181 272.1 562.761 255.849 564.459 239.305C566.62 218.26 576.847 199.316 593.257 185.962C609.667 172.61 630.296 166.446 651.341 168.605C672.387 170.766 691.331 180.992 704.685 197.402C718.039 213.811 724.203 234.439 722.043 255.486C719.882 276.533 709.654 295.477 693.245 308.831C678.984 320.435 661.538 326.61 643.4 326.61V326.61ZM605.057 304.643C606.083 304.643 607.098 304.923 607.988 305.464C616.642 310.728 626.171 313.926 636.313 314.967C654.367 316.819 672.053 311.537 686.126 300.082C700.199 288.63 708.969 272.384 710.823 254.333C712.676 236.284 707.389 218.594 695.937 204.521C684.485 190.448 668.238 181.677 650.189 179.826C632.142 177.976 614.449 183.258 600.376 194.709C586.303 206.163 577.532 222.409 575.679 240.458C574.148 255.367 577.465 269.998 585.272 282.769C586.101 284.127 586.319 285.772 585.871 287.298L579.118 310.32L603.823 304.78C604.232 304.689 604.645 304.643 605.057 304.643V304.643Z" fill="#020772"/>
<g opacity="0.3">
<path d="M580.047 285.004C600.197 302.047 627.956 309.511 655.523 302.65C686.094 295.041 708.619 271.762 716.721 243.508C716.914 247.254 716.827 251.062 716.432 254.91C712.283 295.327 676.154 324.728 635.737 320.578C624.495 319.423 614.11 315.789 605.057 310.282L571.013 317.917L580.459 285.71C580.317 285.478 580.186 285.238 580.047 285.004V285.004Z" fill="#000072"/>
</g>
<path d="M619.727 226.738V226.738C626.094 220.372 636.416 221.512 642.782 227.879L643.773 228.87L644.764 227.879C651.131 221.512 661.453 220.372 667.82 226.738H667.82C674.186 233.105 674.186 243.427 667.82 249.794L666.829 250.784L646.812 270.801C645.134 272.479 642.413 272.479 640.734 270.801L620.718 250.784L619.727 249.794C613.361 243.427 613.361 233.105 619.727 226.738Z" fill="#FF0068"/>
</g>
<defs>
<clipPath id="clip0_550_10547">
<rect width="750" height="1103.26" fill="white"/>
</clipPath>
</defs>
</svg>
