<svg width="540" height="479" viewBox="0 0 540 479" fill="none" xmlns="http://www.w3.org/2000/svg">
<g filter="url(#filter0_i_540_8934)">
<ellipse cx="269.5" cy="367" rx="269.5" ry="112" fill="#00AFE7"/>
</g>
<g clip-path="url(#clip0_540_8934)">
<g opacity="0.15">
<path d="M535.325 374.215C536.803 340.673 439.212 309.124 317.348 303.749C195.484 298.374 95.4951 321.208 94.0166 354.75C92.5381 388.292 190.13 419.841 311.994 425.216C433.858 430.591 533.846 407.757 535.325 374.215Z" fill="#000072"/>
</g>
<path d="M232.919 309.585L234.17 312.711H240.287C241.617 312.711 242.887 312.143 243.766 311.142L340.716 201.135C342.09 199.578 342.596 197.716 342.425 195.939C342.096 192.642 339.404 189.674 335.54 189.674H329.43L326.616 193.014L235.641 300.957L232.919 309.585Z" fill="#FFBC64"/>
<path d="M232.919 309.585L234.17 312.711H240.287C241.617 312.711 242.887 312.143 243.766 311.142L340.716 201.135C342.09 199.578 342.596 197.716 342.425 195.939C338.134 196.885 332.86 196.421 326.616 193.014L235.641 300.957L232.919 309.585Z" fill="#F9A45F"/>
<path d="M240.285 314.481H234.173C233.45 314.481 232.799 314.041 232.53 313.37L231.276 310.244C231.123 309.863 231.107 309.442 231.23 309.051L233.952 300.422C234.022 300.199 234.136 299.993 234.286 299.814L328.075 188.534C328.411 188.135 328.907 187.904 329.429 187.904H335.541C338.995 187.904 342.024 189.86 343.445 193.008C344.865 196.156 344.329 199.72 342.045 202.309L245.095 312.313C243.878 313.691 242.125 314.481 240.285 314.481ZM235.37 310.939H240.285C241.111 310.939 241.896 310.586 242.44 309.969L339.39 199.967C340.761 198.412 341.07 196.355 340.217 194.466C339.364 192.575 337.616 191.446 335.541 191.446H330.252L237.222 301.825L234.798 309.512L235.37 310.939Z" fill="#000072"/>
<path d="M234.174 312.712H234.174C235.506 312.712 236.773 312.14 237.653 311.141L334.604 201.14C338.532 196.684 335.368 189.676 329.429 189.676C327.375 189.676 325.427 190.592 324.117 192.175L230.603 305.114C228.099 308.138 230.249 312.712 234.174 312.712H234.174Z" fill="#D8932E"/>
<path d="M234.174 314.483C231.665 314.483 229.443 313.072 228.376 310.801C227.308 308.53 227.639 305.917 229.24 303.984L322.753 191.045C324.405 189.05 326.839 187.905 329.429 187.905C332.882 187.905 335.909 189.86 337.33 193.008C338.751 196.156 338.215 199.721 335.932 202.311L238.981 312.312C237.764 313.692 236.012 314.483 234.174 314.483ZM329.429 191.447C327.897 191.447 326.458 192.124 325.48 193.304L231.967 306.243C231.24 307.121 231.095 308.261 231.58 309.293C232.065 310.325 233.035 310.941 234.174 310.941C234.997 310.941 235.781 310.587 236.325 309.969L333.276 199.969C334.647 198.413 334.956 196.356 334.103 194.466C333.25 192.575 331.503 191.447 329.429 191.447Z" fill="#000072"/>
<path d="M329.026 200.033C330.286 200.033 331.308 198.53 331.308 196.675C331.308 194.821 330.286 193.318 329.026 193.318C327.765 193.318 326.743 194.821 326.743 196.675C326.743 198.53 327.765 200.033 329.026 200.033Z" fill="#000072"/>
<path d="M298.097 90.07C297.725 91.0103 297.523 92.0239 297.523 93.0558C297.523 94.5091 297.926 96.005 298.799 97.385L376.589 220.251L461.105 362.369L472.294 381.175H482.927C489.33 381.175 493.212 374.111 489.788 368.707L489.061 367.559V367.553L312.527 88.69C311.037 86.3392 308.449 84.9103 305.66 84.9103H295.033L298.097 90.07Z" fill="#FFBC64"/>
<path d="M461.105 362.369L472.294 381.175H482.927C489.33 381.175 493.212 374.11 489.788 368.707L489.061 367.559C489.037 367.864 488.182 376.022 468.662 365.452C465.86 363.932 463.351 362.93 461.105 362.369Z" fill="#F9A45F"/>
<path d="M482.928 383.49H472.293C471.478 383.49 470.723 383.061 470.307 382.36L374.605 221.432L296.848 98.6221C295.779 96.937 295.214 95.0125 295.214 93.0574C295.214 92.1395 295.335 91.2319 295.575 90.347L293.046 86.0943C292.621 85.3797 292.612 84.492 293.023 83.7693C293.434 83.0466 294.201 82.6001 295.032 82.6001H305.662C309.257 82.6001 312.551 84.4151 314.477 87.4548L491.743 367.468C493.808 370.731 493.929 374.699 492.067 378.085C490.204 381.469 486.789 383.49 482.928 383.49ZM473.608 378.866H482.928C485.078 378.866 486.98 377.74 488.017 375.855C489.055 373.969 488.988 371.759 487.837 369.942L310.571 89.929C309.499 88.2354 307.664 87.2242 305.662 87.2242H299.097L300.086 88.8872C300.452 89.5032 300.512 90.254 300.248 90.9202C299.975 91.6109 299.837 92.3301 299.837 93.0574C299.837 94.149 300.145 95.1883 300.752 96.1466L378.544 219.013L473.608 378.866Z" fill="#000072"/>
<path d="M472.295 381.176C478.696 381.176 482.582 374.114 479.158 368.704L301.894 88.6927C300.404 86.3401 297.815 84.9142 295.031 84.9142C288.63 84.9142 284.744 91.9762 288.168 97.3862L465.433 377.397C466.922 379.75 469.512 381.176 472.295 381.176Z" fill="#AF7333"/>
<path d="M472.295 383.488C468.699 383.488 465.404 381.674 463.48 378.634L286.216 98.6232C284.15 95.3596 284.028 91.3905 285.89 88.0066C287.752 84.6226 291.169 82.6022 295.031 82.6022C298.627 82.6022 301.923 84.4169 303.846 87.4558L481.111 367.467C483.177 370.731 483.298 374.699 481.436 378.084C479.574 381.468 476.157 383.488 472.295 383.488ZM295.031 87.2263C292.88 87.2263 290.977 88.3516 289.94 90.2365C288.903 92.1213 288.97 94.3316 290.121 96.1494L467.385 376.16C468.457 377.853 470.292 378.864 472.295 378.864C474.446 378.864 476.349 377.739 477.386 375.854C478.423 373.969 478.356 371.758 477.205 369.94L299.941 89.9297C298.869 88.2368 297.034 87.2263 295.031 87.2263Z" fill="#000072"/>
<path d="M332.122 392.69L463.051 358.477V350.948L324.998 387.021L332.122 392.69Z" fill="#FFBC64"/>
<path d="M324.997 387.019L332.121 392.691L463.052 358.479V350.95L462.075 351.207V354.956L331.144 389.168L327.592 386.341L324.997 387.019Z" fill="#F9A45F"/>
<path d="M332.122 395.002C331.605 395.002 331.096 394.828 330.683 394.499L323.559 388.831C322.874 388.286 322.556 387.4 322.736 386.543C322.917 385.687 323.566 385.006 324.413 384.784L462.467 348.711C463.159 348.531 463.897 348.68 464.464 349.118C465.03 349.556 465.362 350.232 465.362 350.948V358.477C465.362 359.529 464.652 360.449 463.635 360.715L332.706 394.927C332.513 394.976 332.317 395.002 332.122 395.002ZM330.054 388.09L332.656 390.16L460.74 356.692V353.941L330.054 388.09Z" fill="#000072"/>
<path d="M324.998 387.021L463.051 350.948L450.546 346.352L312.492 382.426L324.998 387.021Z" fill="#AF7333"/>
<path d="M324.998 389.333C324.727 389.333 324.457 389.286 324.2 389.191L311.695 384.595C310.747 384.247 310.135 383.323 310.184 382.314C310.233 381.304 310.931 380.444 311.908 380.188L449.961 344.115C450.417 343.997 450.9 344.02 451.342 344.182L463.848 348.778C464.796 349.126 465.408 350.05 465.359 351.059C465.311 352.069 464.612 352.93 463.635 353.185L325.582 389.259C325.39 389.308 325.194 389.333 324.998 389.333ZM320.21 382.798L325.115 384.601L455.333 350.575L450.429 348.772L320.21 382.798Z" fill="#000072"/>
<path d="M246.192 316.369L523.48 298.184C523.48 298.184 537.689 298.452 537.689 288.239C537.689 283.588 533.745 279.912 529.107 280.241L245.059 300.373C240.863 300.671 237.61 304.163 237.61 308.371C237.61 313.022 241.554 316.697 246.192 316.369Z" fill="#FFBC64"/>
<path d="M245.633 318.701C243.033 318.701 240.498 317.711 238.586 315.929C236.497 313.982 235.299 311.227 235.299 308.371C235.299 302.975 239.514 298.448 244.895 298.067L528.944 277.935C531.795 277.728 534.624 278.735 536.713 280.681C538.802 282.628 540 285.383 540 288.239C540 291.333 538.942 293.94 536.855 295.988C532.445 300.317 524.821 300.497 523.594 300.497C523.576 300.497 523.56 300.497 523.545 300.496L246.352 318.676C246.112 318.692 245.872 318.701 245.633 318.701ZM529.687 282.533C529.549 282.533 529.41 282.537 529.271 282.547L245.222 302.679C242.25 302.89 239.921 305.39 239.921 308.371C239.921 309.971 240.566 311.454 241.737 312.546C242.908 313.637 244.43 314.176 246.029 314.063C246.032 314.062 246.037 314.062 246.041 314.062L523.329 295.877C523.394 295.872 523.457 295.871 523.524 295.872C525.407 295.902 530.882 295.383 533.626 292.68C534.804 291.519 535.377 290.066 535.377 288.239C535.377 286.638 534.733 285.155 533.562 284.064C532.493 283.068 531.131 282.533 529.687 282.533Z" fill="#000072"/>
<path d="M238.219 318.495L522.267 298.363C526.464 298.066 529.716 294.574 529.716 290.366C529.716 285.714 525.772 282.039 521.134 282.368L237.086 302.5C232.89 302.798 229.637 306.29 229.637 310.498C229.637 315.149 233.581 318.824 238.219 318.495Z" fill="#D8932E"/>
<path d="M229.64 310.498C229.64 314.955 233.26 318.515 237.637 318.515C237.832 318.515 238.021 318.509 238.216 318.497L522.267 298.365C526.461 298.066 529.714 294.573 529.714 290.366C529.714 288.846 529.293 287.429 528.567 286.226C527.572 289.243 524.837 291.484 521.51 291.716L237.466 311.847C237.27 311.859 237.081 311.866 236.886 311.866C234.005 311.866 231.447 310.327 230.037 308C229.781 308.788 229.64 309.631 229.64 310.498Z" fill="#AF7333"/>
<path d="M237.659 320.827C235.059 320.827 232.526 319.838 230.614 318.056C228.524 316.109 227.326 313.354 227.326 310.498C227.326 305.102 231.541 300.575 236.922 300.194L520.971 280.062C523.819 279.855 526.65 280.86 528.739 282.808C530.829 284.754 532.027 287.509 532.027 290.365C532.027 295.762 527.812 300.288 522.431 300.669L238.382 320.801C238.141 320.819 237.899 320.827 237.659 320.827ZM521.715 284.66C521.577 284.66 521.438 284.665 521.298 284.674L237.249 304.806C234.277 305.018 231.949 307.517 231.949 310.498C231.949 312.099 232.594 313.581 233.765 314.673C234.935 315.764 236.462 316.301 238.055 316.189L522.104 296.057C525.076 295.846 527.405 293.346 527.405 290.365C527.405 288.765 526.76 287.282 525.589 286.191C524.52 285.195 523.158 284.66 521.715 284.66Z" fill="#000072"/>
<path d="M163.601 145.769C163.601 145.769 209.79 237.897 276.904 301.113C284.827 308.581 293.049 315.645 301.515 322.105C332.786 345.962 367.481 361.605 403.489 358.986C406.913 358.736 410.252 358.4 413.518 357.978H413.524C456.637 352.465 485.747 332.901 503.339 316.183C518.117 302.157 524.77 290.134 524.77 290.134L516.133 287.057C481.773 292.992 449.324 279.711 420.751 258.242C417.504 255.806 414.305 253.26 411.162 250.622C350.067 199.441 308.962 114.464 308.962 114.464L235.158 130.358L207.33 136.354L163.601 145.769Z" fill="white"/>
<path d="M207.422 211.36C222.932 240.669 277.703 239.991 277.703 239.991C263.774 264.648 270.336 287.686 276.904 301.113C284.827 308.58 293.049 315.645 301.515 322.105L334.459 313.239L325.51 156.369L244.803 139.028C244.803 139.028 184.733 168.484 207.422 211.36Z" fill="#E8E8E8"/>
<path d="M271.691 254.347C266.368 273.373 271.63 290.336 276.904 301.113C278.991 303.085 281.103 305.027 283.24 306.938C283.63 307.292 284.027 307.64 284.418 307.988C285.101 308.599 285.785 309.203 286.475 309.796C287.195 310.431 287.922 311.053 288.642 311.676C289.618 312.513 290.595 313.337 291.584 314.168C292.268 314.735 292.957 315.309 293.653 315.877C293.726 315.938 293.806 316.005 293.891 316.066C294.728 316.756 295.564 317.434 296.406 318.106C297.218 318.759 298.03 319.4 298.848 320.042C299.733 320.731 300.618 321.421 301.515 322.105L329.618 314.54C307.058 296.674 287.83 275.706 271.691 254.347Z" fill="#E8E8E8"/>
<path d="M207.422 211.36C217.292 230.008 243.063 236.517 260.496 238.789C240.591 209.754 226.265 181.196 216.901 159.862C205.065 172.538 196.294 190.337 207.422 211.36Z" fill="#E8E8E8"/>
<path d="M420.751 258.242C432.196 276.512 459.78 312.024 503.339 316.183C518.117 302.157 524.77 290.134 524.77 290.134L516.133 287.057C481.773 292.992 449.324 279.711 420.751 258.242Z" fill="#FF7212"/>
<path d="M235.158 130.358C250.223 182.515 295.399 287.02 361.097 292.326C383.791 294.158 399.857 275.645 411.162 250.622C350.067 199.441 308.962 114.464 308.962 114.464L235.158 130.358Z" fill="#FF7212"/>
<path d="M163.601 145.769C163.601 145.769 275.176 368.322 403.489 358.986C406.913 358.735 410.252 358.4 413.518 357.978C412.981 357.82 412.438 357.667 411.882 357.508C285.193 321.672 223.268 179.01 207.33 136.354L163.601 145.769Z" fill="#FF8710"/>
<path d="M271.691 254.347C266.368 273.373 271.63 290.336 276.904 301.113C278.991 303.085 281.103 305.027 283.24 306.938C283.63 307.292 284.027 307.64 284.418 307.988C285.101 308.599 285.785 309.203 286.475 309.796C287.195 310.431 287.922 311.053 288.642 311.676C289.618 312.513 290.595 313.337 291.584 314.168C292.268 314.735 292.957 315.309 293.653 315.877C293.726 315.938 293.806 316.005 293.891 316.066C294.728 316.756 295.564 317.434 296.406 318.106C297.218 318.759 298.03 319.4 298.848 320.042C299.733 320.731 300.618 321.421 301.515 322.105C332.786 345.962 367.481 361.605 403.489 358.986C406.913 358.735 410.252 358.4 413.518 357.978C412.981 357.82 412.438 357.667 411.882 357.508C380.611 348.661 353.283 333.304 329.618 314.54C307.058 296.674 287.83 275.706 271.691 254.347Z" fill="#FF7212"/>
<path d="M207.422 211.36C217.292 230.008 243.063 236.517 260.496 238.789C240.591 209.754 226.265 181.196 216.901 159.862C205.065 172.538 196.294 190.337 207.422 211.36Z" fill="#FF7212"/>
<path d="M395.659 361.58C368.27 361.58 339.688 351.488 310.569 331.514C285.164 314.089 259.278 289.13 233.629 257.328C190.043 203.289 161.812 147.362 161.532 146.803C161.212 146.164 161.205 145.412 161.514 144.768C161.823 144.123 162.413 143.657 163.112 143.507L308.474 112.204C309.512 111.982 310.576 112.497 311.04 113.457C311.272 113.936 334.644 161.871 371.58 206.748C405.415 247.859 457.892 294.769 515.738 284.777C516.131 284.708 516.533 284.744 516.907 284.877L525.543 287.954C526.183 288.182 526.69 288.679 526.93 289.315C527.17 289.95 527.119 290.658 526.79 291.252C526.428 291.906 517.707 307.451 498.12 323.962C480.08 339.168 449.048 357.987 403.657 361.29C401.003 361.483 398.336 361.58 395.659 361.58ZM167.038 147.391C173.17 159.102 199.381 207.516 237.275 254.485C277.001 303.726 338.055 361.424 403.322 356.678C447.378 353.473 477.485 335.267 494.982 320.56C509.62 308.256 518.132 296.276 521.308 291.354L515.924 289.436C489.5 293.833 462.076 287.422 434.395 270.375C412.26 256.743 389.907 236.303 367.958 209.622C334.544 169.008 312.138 125.929 307.691 117.103L167.038 147.391Z" fill="#000072"/>
<path d="M321.182 170.883L383.694 210.133L403.111 222.327C403.111 222.327 414.897 200.864 412.23 181.899C411.186 174.425 407.896 167.342 400.754 162.115C379.934 146.868 321.182 170.883 321.182 170.883Z" fill="#FFAD40"/>
<path d="M321.182 170.883L383.694 210.133C399.381 204.033 407.762 192.486 412.23 181.899C411.186 174.425 407.896 167.342 400.754 162.115C379.934 146.868 321.182 170.883 321.182 170.883Z" fill="#EF7F25"/>
<path d="M403.109 224.729C402.662 224.729 402.219 224.604 401.833 224.362L319.904 172.919C319.142 172.44 318.711 171.575 318.789 170.678C318.866 169.78 319.439 169.002 320.272 168.662C322.723 167.661 380.519 144.321 402.17 160.177C413.312 168.337 417.32 181.981 413.759 199.635C411.148 212.587 405.454 223.045 405.213 223.484C404.895 224.063 404.352 224.486 403.712 224.652C403.513 224.704 403.311 224.729 403.109 224.729ZM326.531 171.409L402.149 218.889C406.31 210.164 419.36 178.718 399.334 164.052C383.027 152.111 340.418 166.293 326.531 171.409Z" fill="#000072"/>
<path d="M313.435 227.561C317.508 254.911 321.18 283.912 321.18 283.912C345.503 337.612 392.125 326.015 424.523 313.368C456.92 300.722 464.205 275.34 447.571 248.998C430.937 222.655 386.024 205.987 386.024 205.987C386.024 205.987 372.262 204.147 369.917 203.457C367.571 202.768 313.435 227.561 313.435 227.561Z" fill="#FAA327"/>
<path d="M335.028 223.236C335.028 223.236 371.431 308.351 416.399 283.976C461.367 259.601 438.463 224.497 388.662 207.261L335.028 223.236Z" fill="#FFF3E9"/>
<path d="M315.493 198.947C317.441 212.142 321.591 224.116 327.201 234.472C354.95 231.235 377.785 219.896 387.454 205.859C373.933 199.588 361.591 192.358 351.996 177.502L315.493 198.947Z" fill="#F9D3B7"/>
<g opacity="0.2">
<path d="M315.493 198.947C317.441 212.142 321.591 224.116 327.201 234.472C354.95 231.235 377.785 219.896 387.454 205.859C373.933 199.588 361.591 192.358 351.996 177.502L315.493 198.947Z" fill="#000072"/>
</g>
<path d="M386.303 205.234C397.62 208.464 408.258 213.678 418.273 219.804C433.374 229.053 447.927 241.112 454.745 257.938C459.561 269.125 460.144 282.829 453.723 293.598C444.31 309.823 425.716 316.142 408.804 321.425C378.05 330.814 347.616 328.711 327.852 300.438C324.346 295.347 321.21 289.958 318.899 284.289C318.818 284.17 311.206 227.97 311.142 227.851C310.826 224.833 315.205 224.19 315.721 227.221L323.473 283.622C333.275 303.435 347.56 319.835 373.877 321.376C385.191 322.026 396.535 319.912 407.407 316.712C415.524 314.19 423.771 311.469 431.367 307.57C466.158 289.497 456.441 254.254 430.117 233.214C416.735 222.276 401.075 214.58 385.745 206.739C385.338 206.546 385.169 206.051 385.373 205.649C385.549 205.301 385.941 205.136 386.303 205.234Z" fill="#000072"/>
<path d="M293.025 234.026C298.933 234.93 305.208 235.4 311.721 235.394L303.078 222.327C301.357 224.073 297.346 228.311 293.025 234.026Z" fill="#FF9343"/>
<path d="M307.674 296.222C321.5 329.317 351.934 351.744 418.261 334.342C430.603 331.606 439.655 323.748 445.57 313.435C437.598 305.515 423.065 292.448 423.065 292.448C423.065 292.448 398.203 311.359 373.524 307.695C351.19 304.38 347.1 294.702 347.1 294.702C347.1 294.702 358.154 275.7 352.411 265.527C345.605 253.461 312.246 282.349 312.246 282.349L307.674 296.222Z" fill="#EF7F25"/>
<path d="M312.49 330.031C325.467 338.873 338.963 346.169 352.838 351.268H352.85C364.258 355.463 375.923 358.156 387.771 358.992C392.978 359.358 398.221 359.371 403.489 358.986C413.133 358.284 422.137 356.885 430.518 354.956C437.757 353.283 444.539 351.219 450.862 348.856C460.311 345.339 468.759 341.175 476.255 336.699C479.515 334.763 482.591 332.767 485.497 330.739C485.533 330.715 485.576 330.684 485.613 330.66C486.571 329.988 487.511 329.317 488.433 328.645C488.469 328.608 488.512 328.578 488.549 328.553C513.74 310.058 524.77 290.134 524.77 290.134L516.92 291.887C513.062 292.833 509.272 293.78 505.536 294.72C501.916 295.63 498.352 296.54 494.83 297.437C486.394 299.593 478.208 301.711 470.163 303.775C467.49 304.465 464.828 305.143 462.185 305.815C453.133 308.11 444.215 310.327 435.267 312.427C427.594 314.229 419.897 315.938 412.077 317.55C382.485 323.626 351.129 328.163 312.49 330.031Z" fill="white"/>
<path d="M312.49 330.031C313.693 330.849 314.895 331.655 316.11 332.443C327.97 340.204 340.245 346.639 352.838 351.268H352.85C364.258 355.463 375.923 358.155 387.771 358.992C392.978 359.358 398.221 359.37 403.489 358.986C413.133 358.284 422.137 356.885 430.518 354.956C437.757 353.283 444.539 351.219 450.862 348.856C460.311 345.339 468.759 341.174 476.255 336.699C479.515 334.763 482.591 332.766 485.497 330.739C485.533 330.715 485.576 330.684 485.613 330.66C486.571 329.988 487.511 329.317 488.433 328.645C488.469 328.608 488.512 328.578 488.549 328.553C500.506 319.767 509.284 310.663 515.181 303.525C512.69 306.285 479.045 341.901 401.53 345.473C374.672 346.707 360.022 337.364 405.851 322.777C403.495 321.843 401.194 320.957 398.948 320.115C374.086 324.725 347.491 328.175 316.079 329.848C314.889 329.915 313.693 329.97 312.49 330.031Z" fill="white"/>
<path d="M450.862 348.856C460.311 345.339 468.759 341.175 476.255 336.699C480.119 332.846 483.598 328.682 486.467 324.206C479.539 327.851 471.286 331.515 461.624 334.751C458.944 339.593 455.44 344.411 450.862 348.856Z" fill="#2880EA"/>
<path d="M488.549 328.553C500.543 319.742 509.333 310.614 515.235 303.464C514.491 304.3 509.431 309.759 499.414 316.506C496.893 320.677 493.389 324.804 488.549 328.553Z" fill="#2880EA"/>
<path d="M387.771 358.992C392.978 359.358 398.221 359.37 403.489 358.986C413.133 358.284 422.137 356.885 430.518 354.956C437.714 350.541 444.392 345.076 449.745 338.311C441.078 340.607 431.47 342.53 420.879 343.843C413.75 351.555 403.245 357.746 387.771 358.992Z" fill="#2880EA"/>
<path d="M312.49 330.031C325.467 338.873 338.963 346.169 352.838 351.268H352.85C369.587 354.626 381.966 351.304 391.031 345.382C371.742 343.965 366.486 335.307 405.851 322.777C403.495 321.843 401.188 320.957 398.923 320.121C373.128 324.902 345.458 328.437 312.49 330.031Z" fill="#E8E8E8"/>
<path d="M316.11 332.443C327.97 340.204 340.245 346.639 352.838 351.268H352.85C364.258 355.463 375.923 358.155 387.771 358.992C392.978 359.358 398.221 359.37 403.489 358.986C413.133 358.284 422.137 356.885 430.518 354.956C437.757 353.283 444.539 351.219 450.862 348.856C460.311 345.339 468.759 341.174 476.255 336.699C479.515 334.763 482.591 332.766 485.497 330.739C485.533 330.715 485.576 330.684 485.613 330.66C486.571 329.988 487.511 329.317 488.433 328.645C488.469 328.608 488.512 328.578 488.549 328.553C500.506 319.767 509.284 310.663 515.181 303.525C512.69 306.285 479.045 341.901 401.53 345.473C374.672 346.707 360.022 337.364 405.851 322.777C403.495 321.843 401.194 320.957 398.948 320.115C374.086 324.725 347.491 328.175 316.079 329.848C316.061 330.697 316.067 331.564 316.11 332.443Z" fill="#E8E8E8"/>
<path d="M387.771 358.992C392.978 359.358 398.221 359.37 403.489 358.986C413.133 358.284 422.137 356.885 430.518 354.956C446.828 344.954 460.47 329.536 462.185 305.814C453.133 308.11 444.215 310.327 435.267 312.427C433.185 325.348 424.414 356.049 387.771 358.992Z" fill="#FF8710"/>
<path d="M387.771 358.992C392.978 359.358 398.221 359.37 403.489 358.986C413.133 358.284 422.137 356.885 430.518 354.956C437.714 350.541 444.392 345.076 449.745 338.311C441.078 340.607 431.47 342.53 420.879 343.843C413.75 351.555 403.245 357.746 387.771 358.992Z" fill="#FF7212"/>
<path d="M488.549 328.553C513.74 310.058 524.77 290.134 524.77 290.134L516.92 291.887C513.062 292.833 509.272 293.78 505.536 294.72C505.371 303.684 502.539 317.721 488.549 328.553Z" fill="#FF8710"/>
<path d="M488.549 328.553C500.543 319.742 509.333 310.614 515.235 303.464C514.491 304.3 509.431 309.759 499.414 316.506C496.893 320.677 493.389 324.804 488.549 328.553Z" fill="#FF7212"/>
<path d="M450.862 348.856C460.311 345.339 468.759 341.175 476.255 336.699C486.968 326.019 494.72 312.946 494.83 297.437C486.394 299.592 478.208 301.711 470.163 303.775C469.736 313.294 466.818 333.371 450.862 348.856Z" fill="#FF8710"/>
<path d="M450.862 348.856C460.311 345.339 468.759 341.175 476.255 336.699C480.119 332.846 483.598 328.682 486.467 324.206C479.539 327.851 471.286 331.515 461.624 334.751C458.944 339.593 455.44 344.411 450.862 348.856Z" fill="#FF7212"/>
<path d="M312.49 330.031C325.467 338.873 338.963 346.169 352.838 351.268H352.85C391.824 359.09 407.158 330.697 412.077 317.55C382.485 323.626 351.129 328.163 312.49 330.031Z" fill="#2CA0FF"/>
<path d="M312.49 330.031C325.467 338.873 338.963 346.169 352.838 351.268H352.85C391.824 359.09 407.158 330.697 412.077 317.55C382.485 323.626 351.129 328.163 312.49 330.031Z" fill="#FF8710"/>
<path d="M312.49 330.031C325.467 338.873 338.963 346.169 352.838 351.268H352.85C369.587 354.626 381.966 351.304 391.031 345.382C371.742 343.965 366.486 335.307 405.851 322.777C403.495 321.843 401.188 320.957 398.923 320.121C373.128 324.902 345.458 328.437 312.49 330.031Z" fill="#FF7212"/>
<path d="M395.659 361.58C368.465 361.58 340.094 351.632 311.19 331.94C310.369 331.38 309.997 330.358 310.267 329.401C310.537 328.445 311.388 327.768 312.38 327.719C380.788 324.421 426.668 312.6 479.793 298.912C491.488 295.899 503.581 292.782 516.366 289.639L524.265 287.876C525.152 287.673 526.073 288.019 526.618 288.747C527.163 289.476 527.23 290.456 526.79 291.252C526.428 291.906 517.707 307.451 498.12 323.962C480.08 339.168 449.048 357.987 403.657 361.29C401.004 361.483 398.336 361.58 395.659 361.58ZM319.631 331.966C348.455 350.313 376.582 358.623 403.322 356.678C447.378 353.473 477.485 335.267 494.982 320.56C507.722 309.851 515.822 299.387 519.802 293.609L517.421 294.14C504.71 297.267 492.629 300.379 480.946 303.39C429.413 316.668 384.66 328.197 319.631 331.966Z" fill="#000072"/>
<path d="M398.771 321.019C398.771 323.809 401.408 325.848 404.112 325.146L420.391 320.89L449.672 313.239L522.725 294.152C523.665 293.902 524.459 293.358 525.02 292.632C525.582 291.905 525.911 290.995 525.911 290.024C525.911 287.228 523.268 285.188 520.57 285.897L445.222 305.589L420.806 311.963L401.957 316.891C401.017 317.135 400.217 317.679 399.656 318.411C399.094 319.138 398.771 320.048 398.771 321.019Z" fill="#D8932E"/>
<path d="M398.771 321.018C398.771 323.809 401.408 325.848 404.112 325.146L522.725 294.152C523.665 293.902 524.459 293.358 525.02 292.632C525.582 291.905 525.911 290.995 525.911 290.024C525.911 289.102 525.625 288.266 525.142 287.582C525.057 287.722 524.965 287.857 524.868 287.985C524.306 288.711 523.506 289.261 522.573 289.505L403.959 320.499C402.146 320.976 400.364 320.212 399.381 318.82C398.99 319.468 398.771 320.219 398.771 321.018Z" fill="#AF7333"/>
<path d="M420.391 320.89L449.672 313.239C448.073 310.437 446.504 307.732 445.222 305.589L420.806 311.963C420.483 314.626 420.239 317.758 420.391 320.89Z" fill="#AF7333"/>
<path d="M403.017 327.598C401.583 327.598 400.183 327.126 399.013 326.223C397.389 324.968 396.457 323.07 396.457 321.017C396.457 318.026 398.478 315.409 401.37 314.653L401.371 314.652L519.984 283.659C521.97 283.143 524.041 283.562 525.665 284.818C527.29 286.073 528.221 287.97 528.221 290.023C528.221 293.015 526.2 295.632 523.307 296.387L404.694 327.381C404.138 327.526 403.574 327.598 403.017 327.598ZM402.539 319.127C401.68 319.352 401.08 320.129 401.08 321.017C401.08 321.627 401.357 322.19 401.839 322.563C402.321 322.936 402.937 323.062 403.526 322.907L522.139 291.913C522.999 291.689 523.599 290.912 523.599 290.023C523.599 289.413 523.322 288.85 522.84 288.477C522.358 288.104 521.743 287.979 521.152 288.133L402.539 319.127Z" fill="#000072"/>
<path d="M122.327 348.801L399.616 330.616C399.616 330.616 413.825 330.884 413.825 320.671C413.825 316.02 409.881 312.345 405.243 312.673L121.195 332.806C116.998 333.103 113.746 336.595 113.746 340.803C113.746 345.454 117.689 349.129 122.327 348.801Z" fill="#FFBC64"/>
<path d="M121.74 349.175C119.623 349.175 117.625 348.389 116.057 346.928C114.339 345.328 113.392 343.152 113.392 340.803C113.392 336.43 116.808 332.762 121.17 332.452L405.218 312.32C407.558 312.16 409.796 312.945 411.514 314.546C413.232 316.147 414.178 318.323 414.178 320.671C414.178 323.219 413.317 325.357 411.619 327.023C407.496 331.071 399.931 330.975 399.609 330.97L122.352 349.154C122.148 349.168 121.943 349.175 121.74 349.175ZM405.827 313.006C405.642 313.006 405.456 313.013 405.268 313.027L121.219 333.159C117.227 333.441 114.1 336.8 114.1 340.803C114.1 342.954 114.966 344.945 116.539 346.411C118.112 347.876 120.155 348.592 122.303 348.448L122.304 348.447L399.593 330.263C399.701 330.266 407.216 330.358 411.126 326.516C412.682 324.988 413.471 323.021 413.471 320.671C413.471 318.52 412.605 316.53 411.032 315.064C409.597 313.726 407.766 313.006 405.827 313.006Z" fill="#000072"/>
<path d="M121.767 351.132C119.168 351.132 116.634 350.143 114.722 348.362C112.633 346.414 111.435 343.66 111.435 340.803C111.435 335.407 115.65 330.881 121.031 330.499L405.08 310.367C407.933 310.158 410.76 311.166 412.849 313.114C414.938 315.06 416.136 317.815 416.136 320.671C416.136 323.764 415.077 326.372 412.99 328.421C408.581 332.749 400.957 332.929 399.729 332.929C399.712 332.929 399.696 332.929 399.681 332.928L122.485 351.107C122.245 351.124 122.006 351.132 121.767 351.132ZM405.823 314.965C405.685 314.965 405.546 314.97 405.406 314.98L121.358 335.111C118.386 335.323 116.057 337.823 116.057 340.803C116.057 342.404 116.702 343.886 117.873 344.978C119.044 346.069 120.569 346.606 122.164 346.494C122.168 346.494 122.172 346.494 122.176 346.494L399.465 328.309C399.529 328.304 399.593 328.304 399.659 328.304C401.548 328.331 407.018 327.815 409.761 325.112C410.94 323.95 411.513 322.498 411.513 320.671C411.513 319.07 410.869 317.587 409.698 316.497C408.629 315.5 407.266 314.965 405.823 314.965Z" fill="#000072"/>
<path d="M111.125 341.871C111.125 345.308 113.639 348.129 116.881 348.667C117.247 348.728 117.625 348.758 118.01 348.758C118.156 348.758 118.303 348.758 118.449 348.746L131.225 347.922L270.739 338.952L340.398 334.476L398.38 330.745C402.58 330.477 405.851 326.99 405.851 322.777C405.851 318.332 402.238 314.79 397.873 314.79C397.678 314.79 397.489 314.796 397.293 314.809L349.34 318.271L278.814 323.357L151.24 332.565L128.368 334.22L117.515 335.001C113.914 335.258 111.125 338.256 111.125 341.871Z" fill="#D8932E"/>
<path d="M116.881 348.667C117.247 348.728 117.625 348.758 118.01 348.758C118.156 348.758 118.303 348.758 118.449 348.746L131.225 347.922C136.291 344.032 143.842 338.231 151.24 332.565L128.368 334.22L116.881 348.667Z" fill="#AF7333"/>
<path d="M270.739 338.952L340.398 334.476C342.723 326.667 346.154 321.562 349.34 318.271L278.814 323.357C276.428 327.949 273.681 333.249 270.739 338.952Z" fill="#AF7333"/>
<path d="M118.016 351.069C115.691 351.069 113.422 350.179 111.718 348.58C109.871 346.847 108.812 344.402 108.812 341.87C108.812 337.069 112.561 333.038 117.347 332.693L397.126 312.504C399.967 312.298 402.794 313.295 404.881 315.236C406.967 317.178 408.163 319.926 408.163 322.777C408.163 328.193 403.93 332.708 398.527 333.055L118.599 351.051C118.405 351.063 118.21 351.069 118.016 351.069ZM397.88 317.1C397.74 317.1 397.599 317.105 397.458 317.116L117.68 337.305C115.299 337.477 113.435 339.482 113.435 341.87C113.435 343.147 113.948 344.333 114.88 345.207C115.812 346.082 117.026 346.523 118.303 346.436L398.23 328.44C401.208 328.249 403.54 325.761 403.54 322.777C403.54 321.183 402.898 319.707 401.732 318.621C400.669 317.632 399.314 317.1 397.88 317.1Z" fill="#000072"/>
<path d="M158.205 126.724C157.832 127.665 157.631 128.678 157.631 129.71C157.631 131.164 158.034 132.653 158.907 134.04L236.697 256.905L332.402 417.83H343.035C349.438 417.83 353.32 410.765 349.896 405.355L338.579 387.483L316.018 351.842L172.629 125.345C171.145 122.994 168.557 121.565 165.768 121.565H155.141L158.205 126.724Z" fill="#FFBC64"/>
<g opacity="0.5">
<path d="M239.785 262.077L239.572 261.741L332.402 417.83H332.414L239.785 262.077Z" fill="white"/>
</g>
<g opacity="0.5">
<path d="M158.205 126.724C157.832 127.665 157.631 128.678 157.631 129.71C157.631 131.164 158.034 132.653 158.907 134.04L161.275 137.776C160.897 136.824 160.72 135.847 160.72 134.882C160.72 133.85 160.921 132.837 161.293 131.896L158.229 126.737H168.856C171.646 126.737 174.234 128.166 175.717 130.516L319.107 357.014L341.667 392.655L350.616 406.79C350.433 406.302 350.189 405.825 349.896 405.355L338.579 387.483L316.018 351.842L172.629 125.345C171.145 122.994 168.557 121.565 165.768 121.565H155.141L158.205 126.724Z" fill="white"/>
</g>
<path d="M530.492 308.211C528.611 319.655 507.236 329.027 494.388 326.382C477.093 322.81 470.242 303.931 467.993 295.338C467.307 292.735 467.046 291.08 467.046 291.08L465.497 289.672L459.268 284.013L438.041 264.739C440.537 257.687 458.306 235.322 483.973 241.094C504.379 245.677 512.327 270.56 515.021 282.719C515.926 286.765 516.237 289.403 516.237 289.403C516.237 289.403 522.707 292.013 526.971 297.014C528.293 298.556 529.403 300.331 530.053 302.326C530.64 304.108 530.845 306.068 530.492 308.211Z" fill="#FAA327"/>
<path d="M530.577 308.536C528.696 319.98 507.321 329.352 494.466 326.7C477.171 323.135 470.326 304.25 468.071 295.663H468.078C471.451 296.299 474.64 296.653 477.645 296.773C502.619 297.799 515.099 283.037 515.099 283.037C516.004 287.083 516.315 289.729 516.315 289.729C516.315 289.729 522.693 292.296 526.964 297.226C528.42 298.902 529.629 300.848 530.266 303.061C530.287 303.132 530.308 303.203 530.329 303.281C530.761 304.893 530.888 306.647 530.577 308.536Z" fill="#FFF3E9"/>
<path d="M477.645 296.773C474.64 296.653 471.451 296.3 468.078 295.663C468.05 295.55 468.021 295.444 467.993 295.338C467.307 292.735 467.046 291.08 467.046 291.08L465.497 289.672C467.392 281.991 469.308 275.264 469.308 275.264C469.308 275.264 472.483 286.524 477.645 296.773Z" fill="#EF7F25"/>
<g opacity="0.2">
<path d="M530.492 308.211C528.611 319.655 507.236 329.027 494.388 326.382C477.305 322.852 470.411 304.398 468.078 295.663C471.451 296.3 474.64 296.653 477.645 296.773C481.272 303.974 485.882 310.672 491.058 312.603C503.609 317.278 527.416 312.66 526.964 298.308C526.949 297.926 526.949 297.566 526.964 297.226C526.964 297.155 526.964 297.085 526.971 297.014C528.293 298.556 529.403 300.331 530.053 302.326C530.131 302.566 530.202 302.814 530.266 303.061C530.287 303.132 530.308 303.203 530.329 303.281C530.697 304.801 530.782 306.442 530.492 308.211Z" fill="#000072"/>
</g>
<g opacity="0.5">
<path d="M446.815 254.347C446.815 254.347 469.287 242.566 486.467 250.129C503.648 257.693 510.704 292.827 510.704 292.827L516.318 289.727C516.318 289.727 512.858 255.315 492.375 244.718C471.892 234.12 451.73 247.597 446.815 254.347Z" fill="white"/>
</g>
<path d="M468.491 291.184C472.564 304.894 479.344 321.293 494.875 324.448C506.816 327.27 536.996 315.136 525.953 299.75C524.031 297.186 521.242 295.035 518.412 293.388C517.452 292.826 516.384 292.277 515.458 291.873C514.667 291.551 514.149 290.843 514.031 290.055C513.7 287.786 513.187 285.387 512.634 283.064C508.917 268.084 501.692 250.178 486.089 244.63C472.441 240.094 458.274 245.085 448.139 254.795C444.753 257.948 441.385 261.438 438.931 265.349C438.703 265.795 438.137 265.959 437.709 265.698C437.385 265.502 437.235 265.126 437.31 264.775C437.871 262.15 439.112 259.902 440.445 257.735C444.628 251.292 450.629 246.251 457.431 242.669C464.843 238.742 473.611 237.163 481.953 238.477C503.013 241.412 513.309 263.377 517.336 281.993C517.878 284.487 518.306 286.884 518.613 289.455L517.183 287.583C522.934 290.131 528.376 293.862 531.403 299.568C539.239 315.59 518.83 326.672 505.656 328.909C494.932 331.026 484.584 327.219 477.451 318.993C474.052 315.128 471.475 310.704 469.487 306.104C467.525 301.461 466.153 296.677 465.766 291.616C465.714 290.853 466.29 290.193 467.053 290.141C467.734 290.094 468.329 290.55 468.491 291.184Z" fill="#000072"/>
<path d="M508.02 311.99C512.799 314.332 515.014 320.91 511.178 325.092C509.467 327.006 507.207 328.136 504.838 328.908C504.346 329.061 503.884 329.195 503.283 329.315C501.979 329.581 500.706 328.74 500.439 327.435C500.173 326.131 501.014 324.857 502.318 324.591C502.757 324.525 503.166 324.513 503.677 324.408C505.817 324.015 508.554 323.004 509.46 321.022C510.623 318.49 508.991 315.445 506.801 314C505.618 313.157 506.733 311.33 508.02 311.99Z" fill="#000072"/>
<path d="M521.781 303.069C527.435 305.748 528.944 313.848 525.496 318.801C524.363 320.527 522.983 321.967 521.274 323.135C520.119 324.073 518.372 323.92 517.554 322.624C516.672 321.299 517.365 319.419 518.885 318.97C518.943 318.951 519.139 318.842 519.274 318.764C521.484 317.456 523.509 315.326 523.895 312.735C524.255 309.959 523.253 306.785 520.823 305.227C519.457 304.5 520.343 302.493 521.781 303.069Z" fill="#000072"/>
<path d="M327.024 389.009C326.761 389.314 333.311 388.313 338.579 387.483L316.018 351.842C311.568 356.824 307.558 361.251 307.253 361.367C306.539 361.642 327.457 388.508 327.024 389.009Z" fill="#F9A45F"/>
<path d="M343.036 420.142H332.4C331.585 420.142 330.83 419.713 330.414 419.013L234.712 258.085L156.955 135.274C155.887 133.59 155.321 131.665 155.321 129.71C155.321 128.793 155.442 127.885 155.682 127L153.153 122.746C152.728 122.032 152.72 121.144 153.13 120.422C153.541 119.699 154.308 119.252 155.14 119.252H165.77C169.363 119.252 172.659 121.067 174.583 124.107L351.85 404.121C353.915 407.383 354.037 411.352 352.174 414.738C350.312 418.122 346.896 420.142 343.036 420.142H343.036ZM333.715 415.519H343.036C345.185 415.519 347.087 414.393 348.124 412.508C349.162 410.622 349.095 408.411 347.945 406.594L170.679 126.582C169.606 124.888 167.771 123.876 165.77 123.876H159.204L160.193 125.54C160.559 126.156 160.619 126.906 160.356 127.572C160.082 128.264 159.944 128.983 159.944 129.71C159.944 130.802 160.252 131.841 160.859 132.799L238.651 255.666L333.715 415.519H333.715Z" fill="#000072"/>
<path d="M147.004 129.71C147.004 131.164 147.401 132.66 148.274 134.04L210.132 231.748L223.585 253.003L282.532 346.114L317.605 401.508L325.541 414.05C327.03 416.401 329.618 417.83 332.402 417.83C338.805 417.83 342.687 410.765 339.263 405.355L328.391 388.185L297.792 339.843L236.196 242.538L219.776 216.605L162.002 125.345C160.512 122.994 157.924 121.565 155.141 121.565C150.373 121.565 147.004 125.479 147.004 129.71H147.004Z" fill="#D8932E"/>
<path d="M147.004 129.71C147.004 131.164 147.401 132.66 148.274 134.04L210.132 231.748L223.585 253.003L282.532 346.114L317.605 401.508L325.541 414.05C327.03 416.401 329.618 417.83 332.402 417.83C338.805 417.83 342.687 410.765 339.263 405.355L328.391 388.185L297.792 339.843L236.196 242.538L219.776 216.605L162.002 125.345C160.512 122.994 157.924 121.565 155.141 121.565C150.373 121.565 147.004 125.479 147.004 129.71H147.004Z" fill="#D8932E"/>
<g opacity="0.5">
<path d="M147.004 129.71C147.004 131.164 147.401 132.66 148.274 134.04L210.132 231.748L223.585 253.003L282.532 346.114L317.605 401.508L325.541 414.05C325.687 414.282 325.846 414.508 326.017 414.722L322.647 409.391L287.226 353.448L227.693 259.409L214.106 237.946L151.637 139.266C150.752 137.874 150.355 136.36 150.355 134.894C150.355 130.62 153.755 126.67 158.571 126.67C160.769 126.67 162.838 127.549 164.364 129.075L162.002 125.345C160.512 122.994 157.924 121.565 155.141 121.565C150.373 121.565 147.004 125.479 147.004 129.71Z" fill="white"/>
</g>
<path d="M210.132 231.748L223.585 253.003L236.196 242.538L219.776 216.605C216.883 221.136 213.489 226.454 210.132 231.748Z" fill="#AF7333"/>
<path d="M282.532 346.114L317.605 401.508C322.562 397.735 326.005 392.996 328.391 388.185L297.792 339.843C293.134 341.767 287.891 343.916 282.532 346.114Z" fill="#AF7333"/>
<path d="M332.402 420.141C328.807 420.141 325.511 418.326 323.587 415.287L146.323 135.276C144.257 132.012 144.135 128.043 145.997 124.659C147.86 121.275 151.276 119.255 155.138 119.255C158.734 119.255 162.03 121.07 163.953 124.109L341.218 404.119C343.284 407.383 343.405 411.352 341.543 414.736C339.681 418.12 336.264 420.141 332.402 420.141H332.402ZM155.138 123.879C152.987 123.879 151.084 125.004 150.047 126.889C149.01 128.774 149.077 130.984 150.228 132.802L327.492 412.813C328.564 414.506 330.4 415.517 332.402 415.517C334.553 415.517 336.456 414.392 337.494 412.507C338.531 410.621 338.463 408.41 337.312 406.593L160.048 126.582C158.977 124.889 157.141 123.879 155.138 123.879Z" fill="#000072"/>
<path d="M117.137 342.237L118.388 345.363H124.505C125.835 345.363 127.105 344.795 127.984 343.794L224.934 233.788C226.307 232.231 226.814 230.368 226.643 228.591C226.314 225.294 223.622 222.327 219.758 222.327H213.648L210.834 225.667L119.859 333.609L117.137 342.237Z" fill="#FFBC64"/>
<path d="M117.137 342.237L118.388 345.363H124.505C125.835 345.363 127.105 344.795 127.984 343.794L224.934 233.788C226.307 232.231 226.814 230.368 226.643 228.591C222.352 229.538 217.078 229.074 210.834 225.667L119.859 333.609L117.137 342.237Z" fill="#F9A45F"/>
<path d="M124.503 347.134H118.391C117.668 347.134 117.017 346.694 116.748 346.023L115.494 342.897C115.341 342.516 115.325 342.095 115.448 341.704L118.17 333.074C118.24 332.851 118.354 332.645 118.504 332.466L212.293 221.186C212.629 220.787 213.125 220.557 213.647 220.557H219.759C223.213 220.557 226.242 222.512 227.663 225.661C229.083 228.808 228.547 232.372 226.263 234.962L129.313 344.965C128.096 346.344 126.343 347.134 124.503 347.134ZM119.588 343.592H124.503C125.329 343.592 126.114 343.238 126.658 342.622L223.608 232.619C224.979 231.064 225.288 229.008 224.435 227.118C223.582 225.227 221.834 224.099 219.759 224.099H214.47L121.44 334.478L119.016 342.165L119.588 343.592Z" fill="#000072"/>
<path d="M118.392 345.364C119.724 345.364 120.991 344.792 121.871 343.793L218.822 233.793C222.749 229.336 219.586 222.328 213.647 222.328H213.647C211.593 222.328 209.645 223.244 208.335 224.827L114.821 337.766C112.317 340.79 114.467 345.364 118.392 345.364Z" fill="#D8932E"/>
<path d="M118.392 347.135C115.883 347.135 113.661 345.724 112.593 343.453C111.526 341.181 111.857 338.569 113.458 336.636L206.971 223.698C208.623 221.702 211.057 220.557 213.647 220.557C217.1 220.557 220.127 222.513 221.548 225.661C222.969 228.808 222.433 232.373 220.15 234.964L123.199 344.964C121.983 346.344 120.231 347.135 118.392 347.135ZM213.647 224.099C212.115 224.099 210.676 224.776 209.698 225.957L116.185 338.895C115.457 339.773 115.313 340.913 115.798 341.945C116.283 342.977 117.253 343.593 118.392 343.593C119.215 343.593 119.999 343.239 120.543 342.622L217.494 232.621C218.865 231.066 219.174 229.008 218.321 227.118C217.468 225.228 215.721 224.099 213.647 224.099Z" fill="#000072"/>
<path d="M213.244 232.685C214.504 232.685 215.526 231.182 215.526 229.328C215.526 227.474 214.504 225.97 213.244 225.97C211.983 225.97 210.961 227.474 210.961 229.328C210.961 231.182 211.983 232.685 213.244 232.685Z" fill="#000072"/>
<path d="M281.651 334.171C283.439 334.171 284.889 332.039 284.889 329.408C284.889 326.777 283.439 324.645 281.651 324.645C279.862 324.645 278.413 326.777 278.413 329.408C278.413 332.039 279.862 334.171 281.651 334.171Z" fill="#512717"/>
<path d="M398.206 325.479C399.296 325.479 400.18 324.179 400.18 322.574C400.18 320.97 399.296 319.669 398.206 319.669C397.115 319.669 396.231 320.97 396.231 322.574C396.231 324.179 397.115 325.479 398.206 325.479Z" fill="#000072"/>
<path d="M420.116 294.161L425.952 302.899C425.952 302.899 425.805 304.572 425.836 307.264C425.94 316.143 428.015 336.122 443.928 343.772C455.758 349.457 478.764 345.543 483.36 334.894C484.221 332.904 484.496 330.95 484.361 329.075C483.751 320.215 474.082 313.193 474.082 313.193C474.082 313.193 474.418 310.556 474.522 306.409C474.851 293.965 473.167 267.899 454.476 258.508C430.969 246.686 408.311 264.082 404.185 270.317L420.116 294.161Z" fill="#FAA327"/>
<path d="M409.049 265.639C409.049 265.639 393.889 277.69 392.188 288.364C390.487 299.039 420.751 287.212 420.751 287.212L409.049 265.639Z" fill="#FAA327"/>
<path d="M425.952 303.232C425.952 303.232 425.805 304.905 425.836 307.597C425.94 316.476 428.015 336.455 443.928 344.105C455.758 349.79 478.764 345.876 483.36 335.227C484.221 333.237 484.496 331.283 484.361 329.408C484.361 329.408 472.41 342.756 454.11 339.733C441.883 337.712 434.491 330.177 433.417 320.267C432.703 313.679 437.446 304.55 433.844 294.604C430.884 286.409 420.116 294.494 420.116 294.494L425.952 303.232Z" fill="#FF9343"/>
<path d="M425.952 303.232C425.952 303.232 425.805 304.905 425.836 307.597C425.94 316.476 428.015 336.455 443.928 344.105C455.758 349.79 478.764 345.876 483.36 335.227C484.221 333.237 484.496 331.283 484.361 329.408C484.361 329.408 472.41 342.756 454.11 339.734C441.883 337.712 434.491 330.178 433.417 320.267C432.703 313.679 437.888 304.379 433.844 294.604C430.185 285.755 420.116 294.494 420.116 294.494L425.952 303.232Z" fill="#EF7F25"/>
<path d="M425.836 307.597C425.94 316.476 428.015 336.455 443.928 344.105C455.758 349.79 478.764 345.876 483.36 335.227C484.221 333.237 484.496 331.283 484.361 329.408C484.361 329.408 472.41 342.756 454.11 339.733C441.883 337.712 434.491 330.178 433.417 320.267C433.124 317.55 433.832 314.369 434.479 310.882C431.702 310.046 428.821 308.965 425.836 307.597Z" fill="#FF9343"/>
<path d="M425.836 307.598C425.94 316.476 428.015 336.455 443.928 344.106C455.758 349.79 478.764 345.876 483.36 335.227C488.274 323.827 474.082 313.527 474.082 313.527C474.082 313.527 474.418 310.889 474.522 306.743C474.522 306.743 454.83 320.921 425.836 307.598Z" fill="#FFF3E9"/>
<g opacity="0.2">
<path d="M425.836 307.597C425.94 316.476 428.015 336.455 443.928 344.105C455.758 349.79 478.764 345.876 483.36 335.227C484.221 333.237 484.496 331.283 484.361 329.408C484.361 329.408 472.41 342.756 454.11 339.733C441.883 337.712 434.491 330.178 433.417 320.267C433.124 317.55 433.832 314.369 434.479 310.882C431.702 310.046 428.821 308.965 425.836 307.597Z" fill="#000072"/>
</g>
<g opacity="0.5">
<path d="M404.822 271.271C404.822 271.271 431.063 256.129 448.327 263.718C465.591 271.307 469.372 294.501 469.246 313.913L474.082 313.526C474.082 313.526 477.611 286.866 468.073 271.271C458.534 255.676 426.215 244.889 404.822 271.271Z" fill="white"/>
</g>
<path d="M427.326 303.352C427.959 317.64 430.566 335.194 444.871 342.018C455.773 347.649 487.992 343.189 481.004 325.585C479.76 322.632 477.574 319.869 475.227 317.585C474.432 316.807 473.529 316.016 472.728 315.4C472.039 314.895 471.707 314.083 471.783 313.29C472.209 308.645 472.223 303.727 471.952 299.03C471.024 285.597 467.553 270.242 455.673 262.448C443.529 254.741 428.576 256.151 416.391 263.115C412.342 265.354 408.23 267.924 404.902 271.125C404.574 271.502 403.983 271.524 403.632 271.167C403.364 270.898 403.311 270.497 403.468 270.175C404.648 267.764 406.396 265.884 408.215 264.104C413.833 258.867 420.876 255.429 428.342 253.602C436.484 251.588 445.374 252.18 453.149 255.476C472.872 263.426 477.542 287.232 476.943 306.269C476.864 308.82 476.699 311.249 476.375 313.818L475.44 311.656C480.404 315.521 484.78 320.46 486.336 326.729C490.059 344.173 467.574 349.98 454.251 348.958C443.334 348.415 434.215 342.213 429.287 332.504C426.925 327.93 425.496 323.014 424.68 318.069C423.901 313.089 423.728 308.115 424.578 303.111C424.712 302.358 425.431 301.857 426.184 301.992C426.856 302.111 427.322 302.697 427.326 303.352Z" fill="#000072"/>
<path d="M284.888 287.954C296.431 301.119 322.251 295.593 327.567 278.85C328.068 277.275 328.397 275.712 328.587 274.179C330.296 260.532 320.871 249.218 320.871 249.218L303.078 222.327C299.251 226.222 284.021 242.477 279.37 259.952C276.824 269.532 277.459 279.479 284.888 287.954Z" fill="#FAA327"/>
<path d="M293.025 234.026C298.933 234.93 305.208 235.4 311.721 235.394L303.078 222.327C301.357 224.073 297.346 228.311 293.025 234.026Z" fill="#EF7F25"/>
<path d="M284.888 287.954C296.431 301.119 322.251 295.593 327.567 278.85C328.068 277.275 328.397 275.712 328.587 274.179C321.42 275.761 308.443 271.218 308.15 271.218C307.674 277.614 277.551 292.448 279.37 259.976V259.952C276.824 269.532 277.459 279.479 284.888 287.954Z" fill="#FF9343"/>
<path d="M307.076 273.459L312.618 277.47L312.881 277.66C315.744 278.997 320.975 280.383 326.877 280.694C327.14 280.096 327.366 279.479 327.567 278.85C328.068 277.275 328.397 275.712 328.587 274.179C321.42 275.761 308.443 271.218 308.15 271.218C308.101 271.895 307.717 272.659 307.076 273.459Z" fill="#FF9343"/>
<path d="M302.429 297.676C294.749 297.676 287.684 294.785 283.084 289.536C260.895 264.22 294.42 227.706 301.366 220.644C302.296 219.698 303.816 219.687 304.76 220.616C305.705 221.546 305.718 223.067 304.788 224.012C298.365 230.543 267.303 264.246 286.694 286.37C291.431 291.775 299.574 294.045 307.948 292.294C316.426 290.521 323.066 285.091 325.278 278.125C329.772 263.971 319.134 250.884 319.026 250.754C318.182 249.733 318.322 248.22 319.341 247.374C320.36 246.529 321.871 246.665 322.718 247.683C323.228 248.296 335.154 262.884 329.854 279.579C327.119 288.193 319.101 294.867 308.93 296.995C306.743 297.453 304.562 297.675 302.429 297.676Z" fill="#000072"/>
<path d="M278.723 79.8652L321.098 77.7719L378.445 74.9329C382.299 56.6186 369.764 13.7353 353.284 4.27516C348.31 1.42233 342.979 1.61543 337.628 6.44877C324.16 18.6166 311.522 56.4848 278.723 79.8652Z" fill="#FAA327"/>
<g opacity="0.5">
<path d="M278.723 79.8652L286.336 79.4913C315.412 56 327.416 21.4455 340.167 9.92796C345.519 5.09467 350.849 4.90154 355.824 7.7544C358.421 9.24636 360.924 11.5759 363.284 14.5013C360.219 9.92272 356.846 6.3205 353.284 4.27516C348.31 1.42233 342.979 1.61543 337.628 6.44877C324.16 18.6166 311.522 56.4848 278.723 79.8652Z" fill="white"/>
</g>
<path d="M321.098 77.7719L378.445 74.9329C382.299 56.6186 369.764 13.7353 353.284 4.27515C350.748 4.48043 348.167 5.9179 346.13 9.73338C340.913 19.4896 336.698 60.6399 321.098 77.7719Z" fill="#EF7F25"/>
<path d="M278.726 82.2691C277.976 82.2691 277.238 81.9188 276.769 81.2614C276 80.1814 276.251 78.6819 277.331 77.9122C297.813 63.3096 310.239 43.0152 320.224 26.7081C325.936 17.3782 330.87 9.32034 336.021 4.66643C341.81 -0.564148 348.198 -1.41602 354.493 2.20418C362.514 6.81666 370.269 18.9668 375.77 35.5392C380.836 50.7989 382.762 66.0839 380.797 75.4285C380.524 76.7265 379.25 77.5577 377.954 77.2842C376.656 77.0111 375.826 75.7377 376.099 74.4401C377.872 66.0084 375.954 51.3331 371.214 37.0531C366.155 21.8124 359.009 10.3414 352.1 6.36808C347.659 3.81421 343.452 4.4232 339.239 8.23048C334.602 12.42 329.836 20.2037 324.318 29.2167C314.106 45.8955 301.396 66.6525 280.117 81.823C279.695 82.1241 279.208 82.2691 278.726 82.2691Z" fill="#000072"/>
<path d="M329.594 45.5533L374.342 65.5999C374.188 64.9888 372.791 55.648 369.864 45.6195C368.583 41.2123 367.003 36.6768 365.104 32.691C360.252 22.5102 355.37 16.2198 352.111 13.9625C351.187 13.3252 350.396 13.0108 349.772 13.0215C344.837 13.1034 341.046 25.7327 329.594 45.5533Z" fill="#FFF3E9"/>
<path d="M329.594 45.5533L374.342 65.5999C374.188 64.9888 372.791 55.648 369.864 45.6195C368.005 45.5746 365.627 45.1521 362.967 43.8344C359.094 41.9241 351.459 36.968 349.216 30.0508C348.026 26.389 349.663 19.645 352.111 13.9625C351.187 13.3252 350.396 13.0108 349.772 13.0215C344.837 13.1034 341.046 25.7327 329.594 45.5533Z" fill="#F9D3B7"/>
<path d="M374.368 68.0091C374.026 68.0091 373.682 67.9375 373.359 67.7929L328.614 47.7449C327.994 47.4669 327.521 46.939 327.311 46.2924C327.102 45.6455 327.177 44.9404 327.517 44.3517C331.472 37.5059 334.539 31.4599 337.003 26.6021C342.374 16.0139 345.07 10.6994 349.73 10.6218C349.752 10.6215 349.775 10.6215 349.796 10.6215C355.297 10.6215 362.64 21.9352 367.271 31.6575C371.013 39.5132 374.126 50.4584 376.523 64.1895C376.6 64.6321 376.651 64.9284 376.678 65.054C376.903 65.9466 376.594 66.8687 375.889 67.4605C375.455 67.8248 374.915 68.0091 374.368 68.0091ZM332.993 44.4444L371.16 61.5447C368.4 47.0885 365.205 38.4848 362.937 33.7235C356.549 20.3129 351.038 15.6155 349.754 15.4217C348.042 15.4533 344.606 22.2258 341.284 28.7755C339.073 33.1342 336.382 38.4395 332.993 44.4444Z" fill="#000072"/>
<path d="M346.438 55.5027C346.106 55.5027 345.772 55.4339 345.457 55.2928L328.613 47.7449C327.993 47.4669 327.519 46.9394 327.31 46.2925C327.101 45.6459 327.176 44.9408 327.515 44.3525C330.594 39.0194 333.067 34.2837 334.66 31.1855C334.815 30.8822 335.034 30.6158 335.301 30.4035C338.758 27.6541 341.839 26.7955 344.457 27.8496C346.615 28.7166 347.538 30.1925 347.933 31.2781C348.436 32.6639 348.356 34.1276 348.045 35.4508C349.861 35.3448 351.761 35.6295 353.273 36.752C354.476 37.6456 355.886 39.4224 355.77 42.8134C355.655 46.0713 353.146 50.0032 348.098 54.8361C347.643 55.2728 347.045 55.5027 346.438 55.5027ZM332.991 44.4441L345.923 50.2387C350.503 45.5855 350.95 43.2753 350.972 42.6466C350.996 41.926 350.919 40.9857 350.411 40.6084C349.72 40.0959 347.781 39.9994 345.008 40.9447C344.852 40.9976 344.751 41.0257 344.716 41.0345C343.795 41.2679 342.813 40.9324 342.228 40.1826C341.251 38.9306 341.921 37.6776 342.208 37.1426C343.56 34.6154 343.614 33.4508 343.42 32.9187C343.381 32.8103 343.289 32.5558 342.666 32.3059C341.876 31.9872 340.408 32.5656 338.685 33.8569C337.312 36.521 335.366 40.2325 332.991 44.4441Z" fill="#000072"/>
<path d="M229.059 134.212L244.726 111.303L279.359 60.6677C252.911 38.0174 219.502 32.9402 210.518 39.6801C209.263 40.6187 208.26 42.1948 207.544 44.3763C203.459 56.7577 208.515 88.6315 229.059 134.212Z" fill="#FAA327"/>
<g opacity="0.5">
<path d="M205.609 55.2592C205.828 53.1918 206.185 51.4059 206.682 49.9068C207.397 47.7253 208.401 46.1492 209.656 45.2106C218.469 38.5988 250.781 43.3595 276.965 64.9178L278.723 62.3485C252.275 39.6981 218.866 34.621 209.882 41.3608C208.627 42.2994 207.624 43.8755 206.909 46.057C206.127 48.4247 205.679 51.5055 205.609 55.2592Z" fill="white"/>
</g>
<path d="M229.059 134.212L244.726 111.303C245.109 101.671 244.282 87.5119 237.982 75.56C228.501 57.5836 217.565 38.9234 207.544 44.3763C203.459 56.7577 208.515 88.6315 229.059 134.212Z" fill="#EF7F25"/>
<path d="M229.059 136.612C228.144 136.612 227.27 136.086 226.869 135.197C212.75 103.877 207.305 82.227 205.223 69.5805C202.489 52.9733 203.858 41.6715 209.078 37.7572C219.215 30.1552 253.847 35.6596 280.918 58.8413C281.925 59.7037 282.043 61.2197 281.181 62.2271C280.319 63.2351 278.803 63.3513 277.796 62.4896C252.092 40.4788 219.717 35.781 211.958 41.5999C209.298 43.5939 207.18 51.914 209.96 68.7999C211.996 81.1634 217.341 102.376 231.246 133.223C231.791 134.432 231.253 135.854 230.044 136.399C229.724 136.544 229.389 136.612 229.059 136.612Z" fill="#000072"/>
<path d="M425.454 139.603C425.643 141.604 425.695 143.605 425.609 145.599C424.601 171.177 401.7 195.677 358.172 213.679L331.172 222.306C286.32 233.59 247.397 232.272 230.295 204.424C227.127 199.265 224.211 192.871 221.844 185.609C212.861 158.198 211.528 118.496 232.739 86.9267C255.193 53.5059 297.352 44.7245 306.504 42.7432C361.587 30.8023 384.95 65.5048 408.195 108.173C408.2 108.187 409.693 109.301 411.802 111.429C412.686 112.318 413.676 113.393 414.71 114.637C419.149 119.97 424.415 128.472 425.454 139.603Z" fill="#FAA327"/>
<path d="M425.454 139.603C428.048 167.317 405.088 194.274 358.172 213.679L331.172 222.306C286.32 233.59 247.397 232.272 230.295 204.424C227.127 199.265 224.211 192.871 221.844 185.609C227.233 180.178 236.407 173.024 252.141 166.964C282.319 155.341 291.665 170.442 304.575 163.914C317.22 157.52 315.003 141.032 338.919 136.274C354.27 133.22 360.606 142.402 366.92 141.819C383.16 140.32 387.402 116.564 411.802 111.429C416.465 116.154 424.174 125.872 425.454 139.603Z" fill="#FFF3E9"/>
<g opacity="0.2">
<path d="M221.842 185.61C224.21 192.869 227.13 199.265 230.296 204.423C247.399 232.27 286.319 233.593 331.171 222.306L358.172 213.678C397.01 197.613 419.429 176.379 424.523 153.823C414.797 172.49 393.149 189.747 360.109 203.416L331.962 212.407C285.196 224.172 244.619 222.798 226.788 193.767C225.206 191.193 223.684 188.322 222.261 185.188C222.116 185.332 221.977 185.474 221.842 185.61Z" fill="#000072"/>
</g>
<path d="M425.454 139.603C425.643 141.604 425.695 143.605 425.609 145.599C423.182 147.181 420.438 148.548 417.442 149.611C403.694 154.489 389.928 151.072 386.704 141.981C383.481 132.891 392.017 121.56 405.765 116.681C408.782 115.61 411.804 114.939 414.71 114.637C419.149 119.97 424.415 128.472 425.454 139.603Z" fill="#FF8080"/>
<path d="M274.847 200.045C288.6 195.165 297.135 183.838 293.911 174.746C290.687 165.655 276.925 162.24 263.172 167.121C249.419 172.001 240.884 183.328 244.108 192.419C247.332 201.511 261.095 204.925 274.847 200.045Z" fill="#FF8080"/>
<path d="M224.164 105.708C213.734 135.301 216.225 179.847 234.197 205.976C250.029 227.894 280.365 228.351 304.893 225.365C313.579 224.353 322.234 222.872 330.935 221.362C331.467 221.27 331.973 221.625 332.066 222.157C332.15 222.64 331.862 223.103 331.41 223.253C314.442 228.811 296.566 231.834 278.623 231.09C254.213 230.102 233.267 220.522 223.724 196.758C222.523 194.186 221.707 191.452 220.438 188.94C216.865 178.846 214.596 168.286 213.737 157.626C213.034 148.65 213.352 139.598 214.679 130.696C216.038 121.81 218.459 113.075 222.097 104.894C222.697 103.673 224.584 104.314 224.164 105.708Z" fill="#000072"/>
<path d="M357.75 212.651C378.695 202.201 400.343 190.789 414.101 171.304C427.299 152.469 426.361 129.351 409.805 112.909C408.965 112.056 407.998 111.195 407.079 110.426L406.882 110.267L406.783 110.188L406.733 110.149C406.83 110.225 406.486 109.974 406.272 109.687C406.053 109.409 405.895 109.076 405.813 108.77C390.566 80.3925 368.914 43.9376 330.142 42.7652C323.155 42.4584 316.072 43.2482 309.106 44.6069C302.097 45.9886 295.084 47.4706 288.269 49.6515C281.434 51.7976 274.758 54.4282 268.273 57.4882C267.685 57.7785 266.969 57.5291 266.687 56.9364C266.42 56.3762 266.636 55.709 267.164 55.4036C273.491 51.7032 280.168 48.6093 287.058 46.0987C316.211 35.2729 346.268 32.9554 371.568 53.954C388.764 68.0405 400.141 87.8086 410.362 107.024L410.575 107.578C410.511 107.287 410.371 106.969 410.171 106.705C409.975 106.433 409.649 106.197 409.764 106.287C414.64 110.25 418.69 115.176 421.834 120.611C429.982 134.266 429.899 151.902 422.682 165.933C415.741 179.766 403.932 190.467 391.182 198.892C381.045 205.545 370.035 210.781 358.599 214.705C357.296 215.081 356.51 213.314 357.75 212.651Z" fill="#000072"/>
<path d="M293.198 165.33C302.863 165.33 310.698 157.493 310.698 147.824C310.698 138.156 302.863 130.319 293.198 130.319C283.533 130.319 275.698 138.156 275.698 147.824C275.698 157.493 283.533 165.33 293.198 165.33Z" fill="#512717"/>
<path d="M296.173 159.101C299.477 157.053 300.412 152.581 298.263 149.115C296.114 145.648 291.695 144.498 288.392 146.547C285.088 148.596 284.153 153.067 286.302 156.534C288.451 160.001 292.87 161.15 296.173 159.101Z" fill="white"/>
<path d="M294.802 143.08C296.707 141.899 297.246 139.321 296.007 137.322C294.768 135.323 292.22 134.661 290.316 135.842C288.411 137.023 287.872 139.601 289.111 141.6C290.35 143.598 292.898 144.261 294.802 143.08Z" fill="white"/>
<path d="M381.273 135.167C387.544 128.893 387.544 118.721 381.273 112.448C375.001 106.174 364.833 106.174 358.561 112.448C352.289 118.721 352.289 128.893 358.561 135.167C364.833 141.44 375.001 141.44 381.273 135.167Z" fill="#512717"/>
<path d="M372.648 134.156C375.679 132.276 376.537 128.173 374.565 124.991C372.593 121.81 368.538 120.755 365.506 122.635C362.475 124.515 361.616 128.618 363.588 131.8C365.56 134.981 369.616 136.036 372.648 134.156Z" fill="white"/>
<path d="M371.39 119.453C373.137 118.369 373.632 116.003 372.495 114.169C371.358 112.335 369.02 111.727 367.272 112.811C365.524 113.895 365.03 116.261 366.167 118.095C367.304 119.929 369.642 120.537 371.39 119.453Z" fill="white"/>
<path d="M284.686 120.215C282.765 116.834 290.38 100.981 298.424 101.557C306.468 102.132 308.032 110.294 304.543 114.004C299.476 119.394 286.608 123.595 284.686 120.215Z" fill="#FFF3E9"/>
<path d="M364.303 95.4496C363.739 91.6019 349.102 83.625 343.632 88.9532C338.162 94.2814 341.742 101.708 346.398 102.542C353.162 103.753 364.867 99.2972 364.303 95.4496Z" fill="#FFF3E9"/>
<path d="M223.444 93.1216C224.546 95.2511 225.74 97.1597 227.025 98.757C240.73 75.5073 254.625 75.5761 251.42 65.2957C247.945 54.1679 226.192 44.3665 214.989 47.1957C214.293 47.3714 213.901 48.8384 213.785 51.202C213.388 59.8372 216.813 80.3942 223.444 93.1216Z" fill="#FFF3E9"/>
<path d="M223.444 93.1216C224.546 95.2511 225.74 97.1597 227.025 98.757C240.73 75.5073 254.625 75.5761 251.42 65.2957C247.945 54.1679 226.192 44.3665 214.989 47.1957C214.293 47.3714 213.901 48.8384 213.785 51.202C219.724 51.5165 229.725 53.4619 233.201 62.645C237.77 74.7286 227.07 81.5627 223.444 93.1216Z" fill="#F9D3B7"/>
<path d="M227.023 101.12C226.311 101.12 225.633 100.798 225.183 100.237C214.473 86.891 209.774 54.0488 211.986 47.4503C212.572 45.7045 213.629 45.1022 214.413 44.9042C226.532 41.8445 249.7 51.8708 253.671 64.5928C255.792 71.3885 251.731 74.9234 246.59 79.3986C241.898 83.4836 235.47 89.0785 229.057 99.9584C228.663 100.627 227.967 101.059 227.193 101.114C227.136 101.118 227.08 101.12 227.023 101.12ZM216.338 49.3163C215.084 54.2573 218.514 80.9318 226.894 94.4698C233.04 84.9339 239.015 79.7321 243.491 75.836C248.828 71.1905 250.315 69.6872 249.164 66.0003C246.122 56.252 226.394 47.47 216.338 49.3163Z" fill="#000072"/>
<path d="M237.702 74.8816C238.685 77.9059 243.329 75.5518 243.787 78.7088C249.662 73.5566 253.21 71.0442 251.42 65.2958C250.657 62.8545 249.012 60.4777 246.796 58.2791C243.704 57.8051 240.297 57.9871 237.997 60.1338C235.392 62.5722 236.637 64.6202 238.1 65.6695C240.262 67.2263 243.796 67.3058 243.796 67.3058C243.796 67.3058 236.507 71.1986 237.702 74.8816Z" fill="#F9D3B7"/>
<path d="M240.015 74.1295C240.032 74.1316 240.034 74.1351 240.025 74.1484C240.019 74.1558 240.019 74.1052 239.99 74.1059C239.966 74.0996 239.974 74.0656 239.945 74.0708C240.072 74.1644 240.514 74.2521 241.176 74.3457C241.814 74.4597 242.635 74.4934 243.792 75.0347C244.417 75.3464 245.036 75.8824 245.428 76.4741C245.808 77.0717 246.008 77.694 246.123 78.3699L242.231 76.9329C243.818 75.5385 245.418 74.1942 246.81 72.8423C247.972 71.6663 249.161 70.4039 249.442 68.8683C249.928 65.7236 247.459 62.2437 245.133 59.9558L246.438 60.6132C243.705 60.4789 240.811 60.515 239.13 62.6749C239.015 62.9046 238.917 62.9356 238.927 63.0719C238.945 63.2471 239.233 63.6585 239.685 64.0217C240.681 64.8925 242.712 65.5329 244.238 66.3758C244.804 66.7178 244.986 67.4535 244.645 68.0196C244.029 68.7265 243.163 69.2446 242.507 69.9495C241.514 70.9058 240.341 72.1726 239.985 73.3973C239.891 73.7316 239.933 73.9249 240.015 74.1295ZM235.388 75.6335C234.105 70.7463 239.536 67.8079 243.24 66.2639L243.77 68.4868C241.577 68.9871 239.529 68.8786 237.402 67.8923C230.944 64.3835 234.718 57.1448 240.744 55.8706C243.016 55.3394 245.173 55.509 247.151 55.9449C247.667 56.0165 248.118 56.2562 248.458 56.6027C252.777 60.6432 256.554 68.011 252.462 73.5023C250.471 76.2783 247.744 78.3244 245.343 80.4847L241.451 79.0476C241.43 79.041 241.425 79.0354 241.433 79.0234C241.433 79.0234 241.441 79.1105 241.482 79.1305C241.507 79.1765 241.544 79.2488 241.604 79.2712C241.604 79.3077 241.669 79.327 241.658 79.326C240.742 79.0295 239.318 79.133 237.947 78.487C236.739 77.9533 235.806 76.8807 235.388 75.6335Z" fill="#000072"/>
<path d="M220.496 355.231C225.27 373.414 246.988 396.068 279.706 391.024C337.437 382.115 307.998 325.287 348.351 318.265C348.351 318.265 347.668 315.065 345.867 310.516C345.574 309.79 345.257 309.026 344.909 308.239C340.502 298.255 331.217 283.973 313.418 280.761C291.34 276.774 263.786 285.689 263.786 315.212C263.786 354.278 230.452 326.38 221.791 339.392C221.247 340.21 220.802 341.107 220.454 342.072C219.141 345.705 219.196 350.303 220.496 355.231Z" fill="#FAA327"/>
<g opacity="0.5">
<path d="M220.576 341.773C231.887 329.939 269.472 356.829 268.596 319.51C267.828 286.798 302.522 279.546 326.548 285.958C326.707 286 326.865 286.043 327.024 286.092C323.166 283.613 318.661 281.708 313.418 280.761C291.34 276.774 263.786 285.689 263.786 315.212C263.786 354.278 230.452 326.38 221.79 339.392C221.302 340.124 220.893 340.924 220.576 341.773Z" fill="white"/>
</g>
<path d="M279.706 391.024C337.437 382.116 307.998 325.287 348.351 318.265C348.351 318.265 347.43 313.96 344.909 308.239C336.508 298.305 324.364 294.268 315.493 308.196C301.138 330.737 307.674 366.687 273.565 375.149C242.635 382.821 226.198 359.419 220.454 342.072C214.307 359.096 238.119 397.436 279.706 391.024Z" fill="#FFF3E9"/>
<g opacity="0.2">
<path d="M220.496 355.231C225.27 373.414 246.988 396.068 279.706 391.024C337.437 382.115 307.998 325.287 348.351 318.265C348.351 318.265 347.668 315.065 345.867 310.516C340.892 306.26 333.757 302.737 326.67 308.232C311.91 319.669 321.784 363.275 287.889 379.673C258.487 393.896 229.637 375.039 220.496 355.231Z" fill="#000072"/>
</g>
<path d="M270.572 394.139C248.363 394.139 232.17 381.609 223.935 368.703C216.638 357.268 215.012 345.239 219.793 338.058C223.876 331.924 231.687 332.952 239.24 333.947C245.748 334.805 252.479 335.69 256.546 332.122C259.757 329.305 261.385 323.617 261.385 315.215C261.385 303.524 265.603 293.82 273.583 287.15C283.306 279.022 298.735 275.666 313.845 278.398C343.099 283.682 350.405 316.376 350.701 317.765C350.838 318.404 350.708 319.07 350.343 319.611C349.978 320.152 349.408 320.521 348.765 320.633C331.894 323.566 328.304 335.914 324.147 350.211C318.955 368.067 313.07 388.305 280.069 393.397C276.794 393.902 273.625 394.139 270.572 394.139ZM230.713 337.999C227.434 337.999 225.146 338.681 223.789 340.72C220.119 346.232 221.804 356.439 227.982 366.119C236.534 379.522 254.516 392.479 279.337 388.65C309.315 384.025 314.512 366.153 319.537 348.869C323.568 335.005 327.729 320.69 345.372 316.433C343.173 309.137 334.787 287.06 312.992 283.124C299.242 280.641 285.322 283.595 276.661 290.835C269.71 296.645 266.186 304.848 266.186 315.215C266.186 325.2 264.068 331.911 259.712 335.733C254.009 340.736 245.83 339.659 238.614 338.709C235.528 338.303 232.9 337.999 230.713 337.999Z" fill="#000072"/>
<g opacity="0.15">
<path d="M312.299 189.21C312.299 192.35 323.138 194.899 336.506 194.899C349.875 194.899 360.714 192.35 360.714 189.21C360.714 188.963 360.649 188.721 360.518 188.488C360.514 188.478 360.509 188.469 360.504 188.46C360.411 188.334 360.346 188.236 360.304 188.175C360.29 188.152 360.276 188.138 360.267 188.124C360.262 188.11 360.253 188.101 360.239 188.087C358.022 185.487 348.24 183.525 336.506 183.525C324.773 183.525 314.991 185.487 312.774 188.087C312.76 188.101 312.751 188.11 312.746 188.124C312.732 188.143 312.718 188.157 312.709 188.175C312.667 188.236 312.601 188.334 312.508 188.46C312.504 188.469 312.499 188.478 312.494 188.488C312.364 188.721 312.299 188.963 312.299 189.21Z" fill="#32BCF9"/>
</g>
<g opacity="0.15">
<path d="M344.048 279.81L343.959 279.74C341.07 277.459 339.385 273.98 339.385 270.299V251.669C339.385 246.276 342.654 241.451 347.625 239.364C357.606 235.174 366.187 229.421 368.567 221.081C372.62 206.855 362.372 191.162 360.518 188.488C360.649 188.721 360.714 188.963 360.714 189.21C360.714 192.35 349.875 194.899 336.506 194.899C323.138 194.899 312.299 192.35 312.299 189.21C312.299 188.963 312.364 188.721 312.494 188.488C310.641 191.162 300.398 206.855 304.45 221.081C306.826 229.421 315.406 235.174 325.388 239.364C330.359 241.451 333.628 246.276 333.628 251.669V270.267C333.628 273.995 331.909 277.517 328.97 279.81H344.048Z" fill="#32BCF9"/>
</g>
<path d="M307.585 220.186C309.341 226.342 315.755 231.784 326.65 236.355C331.746 238.498 341.267 238.498 346.363 236.355C357.258 231.784 363.676 226.342 365.432 220.186C366.467 216.547 366.42 212.74 365.791 209.111C365.791 211.552 352.679 213.537 336.506 213.537C320.357 213.537 307.254 211.557 307.222 209.12C306.593 212.75 306.551 216.552 307.585 220.186Z" fill="#FFC31A"/>
<path d="M332.735 225.891L337.777 227.564L342.459 213.447C340.64 213.502 338.76 213.532 336.831 213.538L332.735 225.891Z" fill="#FF7B85"/>
<path d="M307.221 209.111V209.12C307.254 211.557 320.357 213.537 336.506 213.537C352.679 213.537 365.791 211.552 365.791 209.111V209.101C365.777 209.022 365.763 208.943 365.745 208.864C364.901 206.534 352.129 204.684 336.506 204.684C320.911 204.684 308.162 206.525 307.273 208.85C307.254 208.938 307.24 209.022 307.221 209.111Z" fill="#FFE75C"/>
<path d="M348.581 173.751C348.581 173.648 348.563 173.544 348.52 173.44C348.545 173.544 348.563 173.648 348.581 173.751Z" fill="#E0252C"/>
<path d="M307.221 209.111C307.24 209.022 307.254 208.938 307.273 208.85C307.24 208.938 307.221 209.022 307.221 209.111Z" fill="#E0252C"/>
<path d="M343.499 280.505C339.601 278.499 337.154 273.808 337.588 269.388L337.613 267.691L337.615 254.116C337.614 253.487 337.615 252.152 337.618 251.558C337.712 244.355 342.397 239.17 348.931 236.862C356.453 233.363 364.834 228.483 366.993 220.013C367.799 216.923 367.851 213.72 367.52 210.557C366.506 202.999 363.286 195.786 359.063 189.497L362.063 187.622C363.907 191.185 359.396 193.415 356.758 194.196C350.166 196.215 343.309 196.599 336.512 196.67C331.652 196.683 307.282 196.044 310.949 187.622L313.949 189.497C311.5 193.082 309.466 197.058 307.897 201.125C305.68 207.087 304.417 213.745 306.024 220.01C308.179 228.482 316.558 233.361 324.079 236.861C330.612 239.162 335.303 244.365 335.394 251.553C335.398 252.208 335.399 253.47 335.398 254.112L335.4 267.685C335.46 270.104 335.615 272.735 334.53 274.978C333.5 277.353 331.71 279.365 329.514 280.508C329.073 280.737 328.53 280.565 328.3 280.125C328.123 279.784 328.185 279.383 328.425 279.111C330.841 276.286 331.844 272.956 331.831 269.382C331.88 268.821 331.847 255.069 331.857 254.112C331.865 252.079 331.955 249.906 331.238 247.976C329.916 243.88 326.558 241.544 322.622 240.089C316.208 237.118 309.981 233.559 305.676 227.593C297.401 215.609 303.627 198.436 311.039 187.479L314.039 189.353C314.048 189.35 314.07 189.261 314.075 189.186C314.051 189.092 314.059 189.074 314.062 189.109C314.806 189.965 316.162 190.398 317.371 190.835C319.324 191.471 321.435 191.894 323.554 192.224C332.065 193.445 340.958 193.445 349.469 192.222C352.623 191.677 356.749 190.972 358.938 189.189C358.943 189.264 358.967 189.352 358.974 189.353C358.975 189.354 361.974 187.474 361.974 187.48C366.211 193.803 369.458 200.857 370.759 208.377C371.321 211.572 371.423 215.006 370.965 218.217C369.935 226.822 363.626 232.835 356.588 236.903C353.725 238.644 350.351 240.084 347.389 241.436C344.78 242.796 342.704 245.187 341.774 247.979C341.06 249.904 341.146 252.093 341.155 254.116C341.169 254.734 341.136 269.471 341.182 269.389C341.19 270.858 341.347 272.374 341.724 273.808C342.234 275.694 343.201 277.472 344.596 279.114C345.237 279.804 344.37 280.99 343.499 280.505Z" fill="#512717"/>
<path d="M336.506 196.67C326.858 196.67 310.528 195.099 310.528 189.21C310.528 188.664 310.666 188.139 310.936 187.647C310.98 187.564 311.034 187.475 311.086 187.406C311.143 187.328 311.187 187.264 311.219 187.217H311.219C311.264 187.145 311.308 187.088 311.344 187.043C311.37 187.006 311.399 186.971 311.427 186.937H311.427C314.481 183.357 326.223 181.754 336.506 181.754C346.789 181.754 358.532 183.357 361.586 186.937L361.585 186.938C361.617 186.974 361.647 187.012 361.676 187.052C361.709 187.094 361.743 187.141 361.779 187.196C361.836 187.278 361.876 187.337 361.927 187.406C361.987 187.487 362.04 187.574 362.086 187.664C362.35 188.151 362.484 188.671 362.484 189.21C362.484 195.099 346.155 196.67 336.506 196.67ZM314.134 189.227C315.24 190.698 323.242 193.128 336.506 193.128C349.77 193.128 357.772 190.698 358.878 189.227C358.877 189.225 358.875 189.222 358.873 189.22C358.87 189.215 358.865 189.208 358.86 189.2C357.415 187.612 349.388 185.296 336.506 185.296C323.625 185.296 315.6 187.611 314.153 189.2C314.147 189.209 314.141 189.218 314.134 189.227Z" fill="#000072"/>
<path d="M312.507 190.231C312.175 190.231 311.841 190.138 311.543 189.944C310.751 189.429 310.503 188.383 310.979 187.568C311.111 187.34 311.254 187.141 311.413 186.958C312.036 186.245 313.11 186.149 313.85 186.74C314.59 187.33 314.735 188.398 314.179 189.164L313.944 189.496C313.599 189.974 313.057 190.231 312.507 190.231Z" fill="#512717"/>
<path d="M328.384 153.018L326.711 158.06L342.111 163.172C347.799 165.061 350.88 171.204 348.992 176.894L332.737 225.888L337.777 227.561L354.541 177.034C357.072 169.406 352.942 161.171 345.317 158.64L328.384 153.018Z" fill="white"/>
<path d="M332.735 225.891C333.756 227.35 335.554 228.052 337.294 227.67L337.777 227.564L342.459 213.447C340.64 213.502 338.76 213.532 336.831 213.538L332.735 225.891Z" fill="#FFCD52"/>
<path d="M336.453 228.938C334.649 228.938 332.902 228.093 331.793 226.596C331.563 226.287 331.496 225.881 331.617 225.516L347.872 176.522C348.686 174.07 348.496 171.447 347.337 169.137C346.179 166.827 344.191 165.107 341.739 164.293L326.339 159.18C325.721 158.975 325.386 158.307 325.591 157.688L327.264 152.646C327.363 152.349 327.575 152.103 327.855 151.962C328.135 151.822 328.459 151.799 328.756 151.897L345.689 157.519C353.92 160.251 358.393 169.173 355.661 177.406L338.898 227.934C338.777 228.298 338.486 228.581 338.119 228.692C337.569 228.857 337.009 228.938 336.453 228.938ZM334.07 225.619C334.822 226.336 335.853 226.678 336.869 226.551L353.421 176.662C355.743 169.664 351.941 162.082 344.945 159.76L329.132 154.51L328.203 157.311L342.483 162.052C345.533 163.065 348.006 165.205 349.448 168.078C350.889 170.952 351.125 174.215 350.112 177.266L334.07 225.619Z" fill="#000072"/>
<path d="M355.194 175.248C355.177 175.248 355.16 175.248 355.143 175.246L349.474 174.763C349.15 174.735 348.909 174.449 348.936 174.124C348.964 173.799 349.249 173.556 349.575 173.586L355.243 174.07C355.568 174.097 355.809 174.383 355.781 174.708C355.755 175.016 355.497 175.248 355.194 175.248Z" fill="#000072"/>
<path d="M349.088 171.297C348.801 171.297 348.549 171.087 348.505 170.794C348.457 170.472 348.68 170.171 349.002 170.123L354.958 169.237C355.279 169.189 355.58 169.412 355.629 169.734C355.676 170.057 355.454 170.357 355.132 170.405L349.176 171.291C349.147 171.295 349.117 171.297 349.088 171.297Z" fill="#000072"/>
<path d="M347.808 168.174C347.575 168.174 347.355 168.035 347.261 167.807C347.138 167.505 347.282 167.16 347.584 167.037L353.177 164.747C353.479 164.624 353.823 164.769 353.947 165.07C354.07 165.372 353.926 165.717 353.624 165.84L348.031 168.13C347.958 168.16 347.882 168.174 347.808 168.174Z" fill="#000072"/>
<path d="M345.455 165.572C345.289 165.572 345.123 165.502 345.006 165.365C344.794 165.118 344.823 164.745 345.071 164.533L349.531 160.709C349.779 160.497 350.151 160.526 350.363 160.773C350.576 161.021 350.547 161.394 350.299 161.606L345.838 165.429C345.727 165.525 345.591 165.572 345.455 165.572Z" fill="#000072"/>
<path d="M359.251 151.723C359.251 151.723 362.565 156.398 358.648 160.263C353.772 165.076 346.554 161.658 344.575 159.872C344.114 159.457 343.144 159.782 343.123 160.402C343.008 163.777 340.554 171.266 332.402 171.331C329.199 171.356 325.322 168.918 325.389 164.966C325.389 164.966 319.171 149.427 333.839 142.996C348.508 136.565 359.251 151.723 359.251 151.723Z" fill="#FFF3E9"/>
<path d="M326.599 168.564C327.989 170.338 330.341 171.348 332.404 171.329C340.55 171.265 343.009 163.78 343.123 160.398C343.144 159.78 344.111 159.457 344.577 159.874C346.552 161.661 353.773 165.076 358.645 160.266C360.423 158.517 360.714 156.6 360.5 155.027C354.009 159.182 346.306 156.944 344.308 152.553C343.958 151.784 336.293 151.489 336.624 152.267C339.855 159.87 337.757 168.481 326.63 168.565C326.623 168.567 326.607 168.562 326.599 168.564Z" fill="#F9D3B7"/>
<path d="M326.569 164.986C327.089 167.771 330.137 169.42 332.761 169.001C333.408 168.926 334.114 168.781 334.72 168.591C337.247 167.815 339.216 165.821 340.115 163.31C340.545 162.184 340.688 161.063 340.772 159.928C341.02 158.389 342.445 157.337 343.902 157.286C344.552 157.235 345.475 157.476 346.057 157.969C346.11 158.026 346.244 158.112 346.301 158.16C348.475 159.753 351.907 160.678 354.411 160.037C358.326 158.923 359.657 155.948 358.218 152.182C358.023 151.561 358.368 150.901 358.988 150.706C360.509 150.216 361.835 153.43 362.148 154.576C363.135 157.785 361.356 161.425 358.66 163.218C354.015 166.606 347.452 165.271 343.199 161.871L342.975 161.68C343.631 162.21 344.447 162.326 345.145 161.522C345.345 161.311 345.542 160.703 345.512 160.518C345.147 166.783 340.632 173.267 333.974 173.582L332.97 173.6C331.15 173.677 329.32 173.071 327.848 172.156C325.468 170.701 323.705 167.756 324.208 164.946C324.316 164.296 324.93 163.858 325.579 163.965C326.114 164.053 326.493 164.481 326.569 164.986Z" fill="#000072"/>
<path d="M350.723 138.696C352.134 142.602 349.027 147.625 346.431 150.909C344.633 153.183 341.697 154.244 338.861 153.645C334.766 152.778 329.167 150.9 327.757 146.995C325.466 140.651 348.432 132.352 350.723 138.696Z" fill="#000072"/>
<g opacity="0.35">
<path d="M344.78 139.29C345.041 140.013 343.661 141.233 342.562 142.064C341.801 142.64 340.715 143.032 339.762 143.076C338.385 143.14 336.544 143.083 336.283 142.361C335.86 141.187 344.357 138.117 344.78 139.29Z" fill="white"/>
</g>
<path d="M345.384 161.078L340.861 159.727L340.838 159.809C340.846 159.776 341.537 156.375 337.927 148.299C337.395 147.108 337.928 145.711 339.119 145.179C340.309 144.646 341.705 145.18 342.237 146.371C346.538 155.994 345.613 160.31 345.384 161.078Z" fill="#000072"/>
<g opacity="0.15">
<path d="M317.683 282.03C317.683 285.303 326.106 287.953 336.508 287.953C346.903 287.953 355.332 285.303 355.332 282.03C355.332 279.239 349.216 276.907 340.976 276.278C341.733 277.597 342.74 278.775 343.961 279.74L344.046 279.807H328.969C330.227 278.83 331.258 277.627 332.021 276.278C323.787 276.907 317.683 279.245 317.683 282.03Z" fill="#32BCF9"/>
</g>
<path d="M336.507 289.722C326.587 289.722 315.91 287.314 315.91 282.029C315.91 276.744 326.587 274.336 336.507 274.336C346.428 274.336 357.105 276.744 357.105 282.029C357.105 287.314 346.428 289.722 336.507 289.722ZM336.507 277.878C325.428 277.878 319.451 280.825 319.451 282.029C319.451 283.234 325.428 286.18 336.507 286.18C347.587 286.18 353.563 283.234 353.563 282.029C353.563 280.825 347.586 277.878 336.507 277.878Z" fill="#000072"/>
<g opacity="0.7">
<path d="M323.802 199.139C323.802 199.139 316.616 198.636 312.627 196.05C312.627 196.05 301.248 224.928 329.362 234.149C329.362 234.149 316.867 225.144 323.802 199.139Z" fill="white"/>
</g>
<path d="M291.157 261.937L312.618 277.47L312.881 277.66C318.912 280.474 335.454 283.509 346.6 276.28C356.726 269.71 357.782 245.792 349.145 239.668C337.767 231.596 319.937 233.397 314.852 236.108C312.905 237.146 309.524 239.094 305.635 242.532C301.002 246.598 295.649 252.759 291.157 261.937Z" fill="#FAA327"/>
<path d="M307.076 273.459L312.618 277.47L312.881 277.66C315.744 278.997 320.975 280.383 326.877 280.694C327.14 280.096 327.366 279.479 327.567 278.85C328.068 277.275 328.397 275.712 328.587 274.179C321.42 275.761 308.443 271.218 308.15 271.218C308.101 271.895 307.717 272.659 307.076 273.459Z" fill="#FF9343"/>
<path d="M460.641 333.116C464.71 336.546 465.267 343.465 460.533 346.593C458.409 348.035 455.943 348.584 453.457 348.759C452.943 348.789 452.462 348.807 451.85 348.777C450.521 348.72 449.489 347.595 449.546 346.264C449.604 344.934 450.728 343.903 452.058 343.96C452.499 344.002 452.899 344.09 453.42 344.112C455.592 344.249 458.492 343.931 459.851 342.228C461.593 340.053 460.746 336.702 458.971 334.77C458.028 333.666 459.553 332.164 460.641 333.116Z" fill="#000072"/>
<path d="M476.152 327.794C480.99 331.763 480.492 339.988 475.948 343.958C474.43 345.359 472.742 346.421 470.802 347.14C469.454 347.771 467.796 347.199 467.316 345.743C466.782 344.244 467.909 342.587 469.492 342.52C469.553 342.516 469.77 342.457 469.919 342.415C472.381 341.681 474.861 340.105 475.863 337.684C476.884 335.079 476.68 331.757 474.7 329.656C473.551 328.619 474.896 326.888 476.152 327.794Z" fill="#000072"/>
<path d="M314.118 178.342C307.345 183.634 300.672 187.214 294.373 189.452C292.836 189.992 291.328 190.457 289.843 190.848C284.896 192.149 280.23 192.625 275.988 192.468C273.075 192.366 270.357 191.961 267.885 191.327C265.397 190.692 263.156 189.814 261.212 188.767C247.379 181.311 233.848 153.783 234.531 147.143C235.637 136.432 256.873 125.87 274.731 121.046C279.23 119.835 283.518 118.982 287.207 118.585C289.258 118.362 291.193 118.212 293.019 118.117C296.812 117.918 300.13 117.969 303.011 118.176C307.504 118.505 310.929 119.206 313.435 119.949C317.354 121.105 319.033 122.345 319.033 122.345C319.033 122.345 338.94 158.951 314.118 178.342Z" fill="#000072"/>
<g opacity="0.7">
<path d="M293.019 118.117L275.988 192.467C273.075 192.366 270.357 191.961 267.885 191.327L274.731 121.046C279.23 119.835 283.518 118.982 287.207 118.585C289.259 118.362 291.193 118.212 293.019 118.117Z" fill="white"/>
</g>
<g opacity="0.7">
<path d="M313.435 119.949L294.373 189.452C292.836 189.992 291.328 190.457 289.843 190.848L303.011 118.176C307.504 118.505 310.929 119.206 313.435 119.949Z" fill="white"/>
</g>
<path d="M416.837 134.112C413.57 143.044 403.156 153.296 384.049 155.015C382.826 155.128 381.568 155.204 380.272 155.237C379.655 155.259 379.025 155.265 378.386 155.268C374.729 155.272 371.447 154.626 368.5 153.494C366.193 152.612 364.09 151.43 362.173 150.035C347.194 139.076 343.82 114.737 343.82 114.737C343.82 114.737 346.804 105.242 365.249 95.6112C366.927 94.7378 368.811 93.8951 370.839 93.1132C376.356 90.9737 382.923 89.26 389.267 88.4067C391.477 88.1102 393.668 87.9147 395.77 87.846C400.065 87.7029 404.012 88.0712 407.162 89.1124C409.516 89.8908 411.423 91.0457 412.689 92.6419C416.126 96.9833 421.184 122.194 416.837 134.112Z" fill="#000072"/>
<g opacity="0.7">
<path d="M389.267 88.4067L368.5 153.494C366.193 152.612 364.09 151.43 362.173 150.035L370.839 93.1132C376.356 90.9737 382.923 89.2601 389.267 88.4067Z" fill="white"/>
</g>
<g opacity="0.7">
<path d="M407.162 89.1124L384.049 155.015C382.826 155.128 381.568 155.204 380.272 155.237L395.77 87.846C400.065 87.7029 404.012 88.0712 407.162 89.1124Z" fill="white"/>
</g>
<path d="M277.564 194.812C270.57 194.813 264.582 193.209 260.117 190.803C245.802 183.089 231.415 154.846 232.231 146.908C233.83 131.39 268.576 118.261 286.962 116.283C310.887 113.711 320.026 120.201 320.404 120.479C320.677 120.68 320.903 120.939 321.065 121.237C321.276 121.625 326.251 130.871 328.165 142.7C330.759 158.729 326.394 171.683 315.541 180.161C301.754 190.932 288.443 194.812 277.564 194.812ZM297.588 120.307C294.596 120.307 291.229 120.475 287.456 120.881C269.21 122.843 237.998 136.041 236.829 147.382V147.383C236.236 153.133 249.529 179.845 262.309 186.732C272.495 192.221 291.803 192.84 312.696 176.517C334.119 159.781 319.49 128.396 317.272 123.967C315.766 123.121 309.832 120.307 297.588 120.307Z" fill="#000072"/>
<path d="M378.366 157.577C365.604 157.577 355.166 150.129 348.178 136.035C343.045 125.682 341.587 115.482 341.527 115.053C341.48 114.714 341.509 114.368 341.612 114.041C341.746 113.616 345.105 103.525 364.18 93.5646C377.196 86.7696 406.188 80.7131 414.501 91.208C418.674 96.4751 423.534 122.491 419.005 134.903C415.191 145.352 402.266 157.56 378.39 157.577H378.366ZM346.202 115.009C347.037 119.875 353.64 152.953 378.366 152.953H378.386C399.878 152.938 411.36 142.366 414.663 133.317C418.696 122.263 413.896 97.8889 410.879 94.0799C404.896 86.5296 379.253 90.9104 366.319 97.6636C351.374 105.467 347.078 113.114 346.202 115.009Z" fill="#000072"/>
<path d="M319.035 122.341C319.035 122.341 331.059 111.927 343.817 114.735C343.817 114.735 344.28 119.104 346.678 126.263C346.678 126.263 329.344 126.716 324.275 135.826C324.275 135.826 321.173 125.863 319.035 122.341Z" fill="#000072"/>
<path d="M324.276 138.138C324.197 138.138 324.117 138.134 324.037 138.126C323.118 138.031 322.343 137.396 322.068 136.514C321.228 133.817 318.691 126.23 317.059 123.541C316.474 122.577 316.669 121.332 317.522 120.593C318.049 120.137 330.58 109.456 344.313 112.477C345.285 112.691 346.01 113.502 346.115 114.492C346.119 114.53 346.596 118.744 348.87 125.528C349.102 126.223 348.992 126.988 348.572 127.589C348.151 128.189 347.471 128.555 346.738 128.574C342.281 128.698 329.916 130.443 326.294 136.951C325.884 137.688 325.108 138.138 324.276 138.138ZM321.98 122.986C323.094 125.347 324.273 128.559 325.146 131.09C330.449 126.232 339.044 124.674 343.593 124.178C342.596 120.838 342.059 118.285 341.782 116.725C333.282 115.618 325.178 120.671 321.98 122.986Z" fill="#000072"/>
<path d="M235.066 151.145C235.066 151.145 215.398 161.728 211.809 164.899C208.22 168.069 212.541 185.075 219.244 183.402C223.632 182.307 221.323 174.036 221.323 174.036L239.908 163.036C239.908 163.036 236.147 156.492 235.066 151.145Z" fill="#000072"/>
<path d="M218.313 185.832C215.496 185.832 212.857 183.817 210.907 180.105C208.341 175.222 206.641 166.38 210.279 163.166C213.962 159.912 231.934 150.205 233.971 149.109C234.615 148.762 235.386 148.741 236.048 149.052C236.711 149.363 237.186 149.969 237.331 150.687C238.323 155.594 241.876 161.822 241.912 161.884C242.542 162.981 242.173 164.382 241.085 165.026L223.937 175.175C224.301 177.257 224.588 180.689 223.194 183.085C222.431 184.397 221.258 185.283 219.803 185.646C219.302 185.771 218.805 185.832 218.313 185.832ZM233.595 154.574C227.108 158.121 215.753 164.499 213.339 166.632C212.373 167.574 212.613 173.682 215.163 178.258C215.719 179.256 217.174 181.534 218.684 181.159C218.893 181.107 219.044 181.025 219.198 180.761C219.931 179.506 219.571 176.375 219.096 174.654C218.819 173.648 219.248 172.578 220.146 172.046L236.824 162.175C235.887 160.344 234.54 157.493 233.595 154.574Z" fill="#000072"/>
<path d="M311.983 200.414C321.308 200.414 328.867 192.853 328.867 183.525C328.867 174.198 321.308 166.636 311.983 166.636C302.659 166.636 295.1 174.198 295.1 183.525C295.1 192.853 302.659 200.414 311.983 200.414Z" fill="#FFC31A"/>
<path d="M311.983 197.017C319.432 197.017 325.471 190.976 325.471 183.525C325.471 176.074 319.432 170.033 311.983 170.033C304.535 170.033 298.496 176.074 298.496 183.525C298.496 190.976 304.535 197.017 311.983 197.017Z" fill="#FFF4C5"/>
<path d="M311.983 202.185C301.698 202.185 293.329 193.814 293.329 183.525C293.329 173.236 301.698 164.865 311.983 164.865C322.269 164.865 330.637 173.236 330.637 183.525C330.637 193.814 322.269 202.185 311.983 202.185ZM311.983 168.407C303.65 168.407 296.87 175.189 296.87 183.525C296.87 191.861 303.65 198.643 311.983 198.643C320.317 198.643 327.096 191.861 327.096 183.525C327.096 175.189 320.317 168.407 311.983 168.407Z" fill="#000072"/>
<path d="M313.664 171.574C315.704 171.861 317.578 172.665 319.15 173.85C319.749 174.301 319.818 175.174 319.288 175.704L312.394 182.6C312.34 182.654 312.247 182.616 312.247 182.539V172.785C312.247 172.032 312.918 171.469 313.664 171.574Z" fill="#FFBF1F"/>
<path d="M311.72 172.785V182.539C311.72 182.616 311.627 182.654 311.573 182.6L304.678 175.704C304.149 175.174 304.218 174.301 304.816 173.85C306.389 172.665 308.263 171.861 310.303 171.574C311.048 171.469 311.72 172.032 311.72 172.785Z" fill="#FFBF1F"/>
<path d="M312.828 183.647H322.579C323.331 183.647 323.895 184.319 323.79 185.065C323.502 187.106 322.698 188.98 321.514 190.553C321.063 191.152 320.191 191.221 319.661 190.691L312.767 183.795C312.712 183.74 312.751 183.647 312.828 183.647Z" fill="#FFBF1F"/>
<path d="M312.767 182.973L319.661 176.076C320.191 175.547 321.063 175.616 321.514 176.214C322.698 177.787 323.502 179.662 323.79 181.703C323.895 182.448 323.331 183.12 322.579 183.12H312.828C312.751 183.12 312.713 183.027 312.767 182.973Z" fill="#FFBF1F"/>
<path d="M311.72 184.229V193.983C311.72 194.736 311.048 195.299 310.303 195.194C308.263 194.906 306.389 194.102 304.816 192.918C304.218 192.467 304.149 191.594 304.678 191.064L311.573 184.168C311.627 184.113 311.72 184.152 311.72 184.229Z" fill="#FFBF1F"/>
<path d="M311.139 183.12H301.388C300.635 183.12 300.072 182.448 300.177 181.703C300.465 179.662 301.269 177.787 302.453 176.214C302.903 175.616 303.776 175.547 304.306 176.076L311.2 182.973C311.254 183.027 311.216 183.12 311.139 183.12Z" fill="#FFBF1F"/>
<path d="M311.2 183.795L304.306 190.691C303.776 191.221 302.903 191.152 302.453 190.553C301.269 188.98 300.465 187.106 300.177 185.065C300.072 184.319 300.635 183.647 301.388 183.647H311.139C311.216 183.647 311.254 183.74 311.2 183.795Z" fill="#FFBF1F"/>
<path d="M312.394 184.168L319.288 191.064C319.818 191.594 319.749 192.467 319.15 192.918C317.578 194.102 315.704 194.906 313.664 195.194C312.919 195.299 312.247 194.736 312.247 193.983V184.229C312.247 184.152 312.34 184.113 312.394 184.168Z" fill="#FFBF1F"/>
<path d="M343.499 280.505C339.6 278.499 337.154 273.807 337.588 269.387L337.613 267.69L337.615 254.114V252.417C337.436 247.954 339.255 243.454 342.61 240.489C344.335 238.811 346.859 237.742 348.936 236.861C354.735 234.219 360.776 230.719 364.449 225.559C371.763 214.725 365.618 199.336 359.064 189.497L362.063 187.622C362.335 188.098 362.516 188.731 362.479 189.354C361.91 196.081 342.171 196.61 336.89 196.669C332.455 196.679 328.016 196.444 323.583 195.811C320.186 195.279 316.751 194.677 313.571 193.095C312.157 192.367 310.526 191.088 310.528 189.21L310.591 189.676C310.809 190.336 311.082 190.464 311.2 190.579C311.615 190.88 311.984 190.912 312.479 190.823L313.556 190.077C308.939 197.232 305.297 205.69 305.287 214.268C305.118 223.619 310.705 229.582 318.516 234.03C320.394 235.12 322.359 236.09 324.362 236.99C326.584 237.898 328.892 238.983 330.633 240.694C333.897 243.713 335.604 248.182 335.398 252.608C335.392 252.906 335.404 266.902 335.4 267.776L335.424 269.462C335.836 273.861 333.406 278.514 329.514 280.508C328.647 280.948 327.766 279.849 328.425 279.111C330.815 276.303 331.831 273.009 331.831 269.462L331.855 267.776L331.857 254.294C331.851 253.345 331.876 251.95 331.832 251.023C331.629 246.578 328.619 242.531 324.496 240.909L322.918 240.224C314.558 236.426 305.421 230.916 302.709 221.416C300.78 214.508 301.964 207.046 304.355 200.5C305.955 196.128 308.056 192.005 310.607 188.116C310.867 187.721 311.254 187.47 311.684 187.371C312.318 187.256 312.789 187.377 313.319 187.742C313.471 187.883 313.776 188.042 314.007 188.743L314.069 189.21C314.076 189.124 314.034 189.062 314.056 189.097C314.998 190.134 316.552 190.542 317.947 191.018C324.041 192.735 330.526 193.099 336.878 193.127C341.163 193.107 345.457 192.844 349.649 192.196C351.736 191.865 353.814 191.439 355.735 190.806C356.91 190.372 358.257 189.929 358.953 189.105C358.976 189.063 358.948 189.104 358.942 189.191C358.939 189.267 358.969 189.352 358.974 189.353L361.973 187.479C368.347 197.164 373.257 209.141 370.442 220.891C368.74 228.085 362.607 233.417 356.596 236.908C354.577 238.088 352.501 239.139 350.392 240.089C348.329 241.006 346.561 241.629 344.982 243.118C342.355 245.432 340.993 248.943 341.155 252.417L341.155 254.114L341.157 267.69C341.167 269.685 341.185 271.865 341.724 273.808C342.233 275.694 343.201 277.472 344.596 279.115C345.235 279.804 344.372 280.99 343.499 280.505Z" fill="#000072"/>
<path d="M308.15 271.218C309.353 273.501 310.83 275.62 312.618 277.47L312.881 277.66C318.912 280.474 335.454 283.509 346.6 276.28C355.695 270.375 357.471 250.476 351.477 242.049V242.043C350.799 241.091 350.024 240.291 349.145 239.668C337.767 231.596 319.937 233.397 314.852 236.108C312.905 237.146 309.524 239.094 305.635 242.532C303.096 250.353 303.371 262.101 308.15 271.218Z" fill="#FFF3E9"/>
<g opacity="0.2">
<path d="M308.15 271.218C309.353 273.501 310.83 275.62 312.618 277.47L312.881 277.66C318.912 280.474 335.454 283.509 346.6 276.28C355.695 270.375 357.471 250.476 351.477 242.049C351.55 242.477 354.785 262.84 341.497 270.625C330.992 276.774 314.737 273.104 308.15 271.218Z" fill="#000072"/>
</g>
<path d="M313.38 276.59L322.075 277.823C327.744 278.654 333.722 278.591 339.189 276.93C344.891 275.176 348.413 272.475 350.484 266.601C353.051 259.757 353.664 246.659 347.491 241.754C339.509 236.116 325.494 234.879 316.376 238.136C308.657 241.975 302.58 248.282 297.431 255.108C295.61 257.476 293.971 259.99 292.196 262.485C291.434 263.584 289.654 262.694 290.097 261.416C293.601 250.893 301.222 241.798 310.538 235.774C311.936 234.901 313.426 233.963 314.953 233.327C325.89 229.334 344.192 230.85 352.718 239.333C360.551 248.493 358.691 269.204 349.733 277.096C341.843 283.363 330.891 284.011 321.325 282.45C318.132 281.822 314.999 280.79 312.382 278.73C311.862 278.304 311.785 277.537 312.211 277.017C312.504 276.657 312.954 276.513 313.38 276.59Z" fill="#000072"/>
<path d="M347.407 244.151C349.387 244.671 351.503 245.521 353.057 247.003C354.69 248.499 355.792 250.476 356.571 252.507C356.937 253.418 356.495 254.453 355.585 254.819C354.569 255.24 353.389 254.599 353.179 253.522C352.509 249.849 350.311 247.145 346.788 245.81C345.804 245.35 346.366 243.852 347.407 244.151Z" fill="#000072"/>
<path d="M345.337 261.592C348.632 262.31 351.443 264.658 352.318 268.023C352.708 269.709 353.884 272.755 351.394 273.205C350.297 273.353 349.32 272.419 349.4 271.32C349.67 267.526 348.429 264.669 344.718 263.252C343.735 262.79 344.296 261.296 345.337 261.592Z" fill="#000072"/>
</g>
<defs>
<filter id="filter0_i_540_8934" x="0" y="255" width="539" height="228" filterUnits="userSpaceOnUse" color-interpolation-filters="sRGB">
<feFlood flood-opacity="0" result="BackgroundImageFix"/>
<feBlend mode="normal" in="SourceGraphic" in2="BackgroundImageFix" result="shape"/>
<feColorMatrix in="SourceAlpha" type="matrix" values="0 0 0 0 0 0 0 0 0 0 0 0 0 0 0 0 0 0 127 0" result="hardAlpha"/>
<feOffset dy="4"/>
<feGaussianBlur stdDeviation="2"/>
<feComposite in2="hardAlpha" operator="arithmetic" k2="-1" k3="1"/>
<feColorMatrix type="matrix" values="0 0 0 0 0 0 0 0 0 0 0 0 0 0 0 0 0 0 0.25 0"/>
<feBlend mode="normal" in2="shape" result="effect1_innerShadow_540_8934"/>
</filter>
<clipPath id="clip0_540_8934">
<rect width="446" height="426" fill="white" transform="translate(94)"/>
</clipPath>
</defs>
</svg>
