<svg width="179" height="251" viewBox="0 0 179 251" fill="none" xmlns="http://www.w3.org/2000/svg">
<g clip-path="url(#clip0_165_1960)">
<g opacity="0.2">
<path d="M81.4591 219.799C39.6882 219.799 5.82617 224.696 5.82617 230.737C5.82617 236.778 39.6882 241.675 81.4591 241.675C85.2543 241.675 83.2012 241.753 86.8463 241.675C93.1657 241.539 95.0672 249.782 100.996 250.744C113.636 252.795 123.661 242.035 130.767 235.901C133.92 233.179 170.666 233.918 170.666 231.301C170.666 225.261 123.23 219.799 81.4591 219.799Z" fill="#16044E"/>
</g>
<path d="M24.2307 197.144C21.7627 192.51 15.1813 188.39 6.95457 194.364C-1.27214 200.337 2.22423 220.524 5.10359 225.88C7.98294 231.235 15.2864 235.138 27.5214 232.265C31.4258 231.349 34.4481 230.703 36.8511 230.255C37.9605 222.522 42.1216 215.568 46.4219 208.93L34.3084 194.775L24.2307 197.144Z" fill="#FEFFFE"/>
<path d="M36.8511 230.255C41.9784 229.298 44.2766 229.241 46.2371 229.381C49.1165 229.587 58.3715 232.059 63.9245 229.381L46.4218 208.93C42.1215 215.568 37.9604 222.522 36.8511 230.255Z" fill="#F9A528"/>
<g opacity="0.4">
<path d="M5.7206 196.425C1.40158 200.546 2.32707 211.049 4.52935 217.653C4.18243 215.958 3.76674 202.809 8.6756 198.792C13.5846 194.775 17.5465 196.629 21.8655 198.792C21.8655 198.792 22.174 196.217 22.5245 195.393C16.7049 189.317 10.0396 192.304 5.7206 196.425Z" fill="#FBFBFB"/>
</g>
<path d="M9.79893 212.015C7.33845 212.661 5.99176 216.093 6.79092 219.682C7.5902 223.271 10.2328 225.657 12.6933 225.011C15.1538 224.365 16.5005 220.932 15.7013 217.343C14.902 213.754 12.2594 211.369 9.79893 212.015Z" fill="#FF8AA3"/>
<g opacity="0.2">
<path d="M17.855 212.306C15.399 220.266 7.20162 221.417 5.29565 214.688C5.37906 218.456 6.26896 224.932 9.76529 228.839C13.2617 232.746 18.7279 232.193 18.7279 232.193C18.7279 232.193 15.7297 219.743 17.855 212.306Z" fill="#16044E"/>
</g>
<path d="M9.0676 201.144C7.94297 201.231 7.16135 202.849 7.32194 204.757C7.48252 206.665 8.52439 208.141 9.64908 208.053C10.7738 207.965 11.5553 206.348 11.3947 204.44C11.2342 202.532 10.1923 201.056 9.0676 201.144Z" fill="#FF8AA3"/>
<path d="M15.9401 203.087C14.8166 202.911 13.7622 204.304 13.585 206.199C13.4078 208.093 14.175 209.772 15.2985 209.948C16.4221 210.123 17.4765 208.73 17.6537 206.836C17.8308 204.941 17.0637 203.263 15.9401 203.087Z" fill="#FF8AA3"/>
<path d="M2.24166 203.622C1.82234 206.239 1.76129 209.077 1.93896 211.852C2.05795 211.872 2.1779 211.882 2.29917 211.873C3.65785 211.767 4.60206 209.813 4.40807 207.508C4.2454 205.575 3.3331 204.014 2.24166 203.622Z" fill="#FF6C6C"/>
<g opacity="0.6">
<path d="M2.24166 203.622C1.82234 206.239 1.76129 209.077 1.93896 211.852C2.05795 211.872 2.1779 211.882 2.29917 211.873C3.65785 211.767 4.60206 209.813 4.40807 207.508C4.2454 205.575 3.3331 204.014 2.24166 203.622Z" fill="white"/>
</g>
<path d="M25.1117 195.033C23.321 192.423 20.6172 190.521 17.6525 189.835C15.0171 189.225 10.8331 189.257 5.86813 192.862C-3.53836 199.693 0.475996 221.183 3.47383 226.759C6.38995 232.183 12.2337 235.08 19.7658 235.08C22.3143 235.08 25.057 234.748 27.9437 234.07C40.422 231.14 43.6546 231.057 46.1052 231.231C46.6354 231.269 47.5221 231.413 48.5491 231.579C52.7695 232.265 59.8327 233.413 64.7275 231.052L66.8967 230.006L34.9811 192.713L25.1117 195.033ZM49.1418 227.919C47.9812 227.731 47.0646 227.582 46.3691 227.532C42.9888 227.291 38.9174 227.685 27.0989 230.46C17.4082 232.736 9.79449 230.695 6.73316 225.001C4.0989 220.101 0.899361 201.05 8.04087 195.865C10.4463 194.118 12.7733 193.239 14.984 193.239C15.6054 193.239 16.218 193.309 16.8202 193.448C19.2082 194 21.3679 195.708 22.5973 198.017L23.2674 199.275L33.6355 196.838L60.7109 228.475C56.9722 229.192 52.2165 228.419 49.1418 227.919Z" fill="#16044E"/>
<path d="M171.362 176.131C170.701 175.125 169.99 174.193 169.227 173.353C161.034 164.327 148.926 162.109 138.101 168.243C135.339 169.808 132.659 171.909 130.15 174.589C117.81 187.772 126.486 201.218 132.001 204.732C137.516 208.245 146.192 206.517 146.603 203.221C147.015 199.925 142.284 201.367 143.313 197.144C144.341 192.922 151.539 193.746 151.539 199.925C151.539 206.105 148.043 214.402 134.469 212.313L130.609 219.916L132.688 221.3C132.688 221.3 145.716 228.337 158.646 219.799C171.852 211.08 174.898 196.055 172.956 183.691C172.512 180.862 171.955 178.342 171.362 176.131Z" fill="#F9A528"/>
<path d="M172.956 183.691C174.898 196.055 171.852 211.08 158.646 219.799C145.716 228.337 132.688 221.3 132.688 221.3L130.609 219.916L130.141 220.838L127.476 226.086C137.142 232.883 153.596 234.119 167.17 223.202C179.737 213.094 179.61 188.687 171.362 176.131C171.955 178.342 172.512 180.862 172.956 183.691Z" fill="#FEFFFE"/>
<g opacity="0.4">
<path d="M163.673 169.027C152.17 162.966 139.002 166.222 131.319 173.392L133.173 177.223C139.953 171.774 144.478 168.066 156.406 169.851C168.335 171.636 175.681 188.466 175.161 201.405C177.11 192.784 175.177 175.088 163.673 169.027Z" fill="#FBFBFB"/>
</g>
<g opacity="0.2">
<path d="M156.269 219.799C144.752 221.959 140.09 217.091 139.816 213.671L137.134 212.599C137.134 212.599 131.863 223.133 129.8 226.614C131.234 229.967 146.397 233.149 158.874 226.614C171.352 220.078 174.135 207.9 173.408 198.039C171.832 206.105 167.787 217.64 156.269 219.799Z" fill="#16044E"/>
</g>
<path d="M150.917 162.924C150.852 162.923 150.789 162.923 150.724 162.923C142.86 162.923 135.08 166.611 128.799 173.321C122.302 180.262 121.605 187.014 122.165 191.456C123.031 198.333 127.356 203.969 131.007 206.296C135.512 209.166 141.644 208.97 145.128 207.328C147.065 206.415 148.242 205.038 148.44 203.451C148.784 200.697 146.888 199.625 145.869 199.049C145.216 198.679 144.963 198.191 145.111 197.584C145.434 196.256 146.829 196.355 147.105 196.389C148.297 196.532 149.688 197.544 149.688 199.925C149.688 201.586 149.358 205.732 146.298 208.362C143.747 210.555 139.861 211.267 134.75 210.481L133.426 210.277L125.098 226.679L126.412 227.603C131.203 230.972 137.771 233.179 144.959 233.179C152.514 233.179 160.754 230.74 168.329 224.647C174.335 219.817 178.072 211.665 178.852 201.694C179.749 190.233 176.508 178.619 170.596 172.106C165.273 166.241 158.284 162.981 150.917 162.924ZM175.162 201.405C174.462 210.345 171.213 217.573 166.011 221.756C153.375 231.92 138.788 230.849 129.879 225.443L135.525 214.323C141.118 214.949 145.549 213.892 148.709 211.176C152.782 207.675 153.39 202.624 153.39 199.925C153.39 195.449 150.361 193.046 147.547 192.708C144.653 192.358 142.172 194.003 141.514 196.705C140.628 200.342 142.938 201.649 144.049 202.277C144.308 202.424 144.701 202.646 144.77 202.735C144.77 202.735 144.789 202.807 144.767 202.991C144.753 203.104 144.499 203.527 143.551 203.974C140.983 205.184 136.217 205.221 132.994 203.168C130.537 201.602 126.603 197.067 125.837 190.993C125.168 185.678 127.073 180.586 131.5 175.857C137.118 169.855 144.006 166.587 150.889 166.632C157.211 166.68 163.237 169.51 167.857 174.6C173.034 180.304 175.97 191.076 175.162 201.405Z" fill="#16044E"/>
<path d="M21.3686 202.207L21.3685 202.207C18.7551 212.263 14.9128 224.907 18.4721 229.999C22.7546 236.127 37.9545 236.783 46.0307 221.332C44.1693 218.733 38.5935 210.796 35.3881 204.591C28.6887 201.567 21.3686 202.207 21.3686 202.207Z" fill="#FEFFFE"/>
<path d="M30.1267 126.307L28.55 150.282C28.182 154.521 27.7036 159.403 27.1597 164.438C27.8148 167.06 30.912 176.481 42.4608 181.566C57.4284 188.157 85.0998 176.983 94.4665 170.439C102.619 164.743 110.221 156.2 113.275 148.437C111.371 144.641 110.059 140.395 109.994 135.657L30.1267 126.307Z" fill="#FEFFFE"/>
<path d="M113.275 148.437C110.22 156.2 102.619 164.743 94.4663 170.439C85.0996 176.983 57.4282 188.157 42.4606 181.566C30.9118 176.481 27.8145 167.06 27.1595 164.438C25.8797 176.286 24.2344 188.99 22.7911 196.217C22.4293 198.029 21.9262 200.06 21.3684 202.207L21.3685 202.207C21.3685 202.207 28.6886 201.567 35.388 204.591C38.5934 210.796 44.1691 218.733 46.0305 221.332C46.0995 221.2 46.1693 221.07 46.2372 220.936C50.5668 225.502 57.3433 230.823 69.2225 231.441L138.445 197.041C137.348 183.858 131.872 173.559 127.412 167.173C124.357 162.8 117.414 156.686 113.275 148.437Z" fill="#F9A528"/>
<g opacity="0.4">
<path d="M119.052 157.202C116.918 154.745 111.023 147.398 111.023 147.398L109.05 153.419C111.434 157.492 118.492 163.98 123.858 170.675C129.224 177.37 137.077 190.217 136.143 205.466C138.034 200.749 136.825 184.949 134.482 180.284C132.138 175.619 121.186 159.659 119.052 157.202Z" fill="#FBFBFB"/>
</g>
<g opacity="0.4">
<path d="M25.5675 181.566C25.1562 185.351 23.3052 199.925 21.7626 204.051C20.2201 208.177 17.7521 220.318 18.8682 226.614C19.4703 217.77 24.0742 208.577 26.0817 199.41C27.4218 193.291 29.5557 178.881 31.5319 163.132L28.5497 159.412C28.5497 159.412 25.9788 177.781 25.5675 181.566Z" fill="#FBFBFB"/>
</g>
<g opacity="0.2">
<path d="M31.1009 185.545L30.6334 189.538H29.2323C29.8395 193.126 33.8613 208.989 32.1997 218.601C30.5379 228.214 21.5956 230.781 18.8684 226.614C20.2545 232.883 29.2076 235.125 36.708 231.301C44.2084 227.478 47.1089 229.48 47.1089 229.48H58.6459L61.4835 212.306C59.3314 214.207 36.485 210.594 31.1009 185.545Z" fill="#16044E"/>
</g>
<path d="M128.929 166.11C127.846 164.56 126.375 162.888 124.672 160.951C119.322 154.867 111.994 146.533 111.845 135.632L111.823 134.005L28.4075 124.239L26.7057 150.122C25.4368 164.736 22.9975 185.73 20.976 195.854C20.4705 198.386 19.6779 201.378 18.839 204.546C16.0807 214.961 13.2286 225.73 16.9556 231.063C19.082 234.105 23.1479 235.901 27.7662 235.901C28.1907 235.901 28.6207 235.886 29.0532 235.855C36.0731 235.355 42.3846 231.069 46.6654 223.984C51.0177 228.094 57.8488 232.706 69.1264 233.293L69.6106 233.318L140.394 198.143L140.29 196.887C139.156 183.271 133.486 172.635 128.929 166.11ZM68.8394 229.562C57.525 228.838 51.2949 223.578 47.5795 219.66L45.7718 217.753L44.5859 220.098C39.409 230.335 31.8154 231.941 28.7907 232.157C25.001 232.428 21.5442 231.163 19.9884 228.936C17.2481 225.015 20.1142 214.193 22.4172 205.496C23.2713 202.272 24.0781 199.226 24.6061 196.581C26.6538 186.327 29.1164 165.156 30.3967 150.404L31.8456 128.375L108.212 137.315C109.011 148.751 116.419 157.175 121.894 163.402C123.523 165.255 124.931 166.855 125.895 168.236C130.051 174.185 135.187 183.752 136.482 195.947L68.8394 229.562Z" fill="#16044E"/>
<path d="M30.4004 173.044C30.4004 173.044 27.7271 185.545 30.4684 196.101C33.3572 205.666 38.3455 214.19 45.4019 221.589L47.4839 219.597C35.7074 207.249 29.9595 191.586 30.4004 173.044Z" fill="#16044E"/>
<path d="M23.6771 222.078C23.6771 222.078 17.101 228.578 22.7542 234.581L24.5887 232.359C21.802 230.051 22.9857 224.156 23.6771 222.078Z" fill="#16044E"/>
<path d="M29.6646 234.387L32.2342 233.086C31.143 230.923 31.3627 225.765 32.3083 223.06C32.3083 223.06 27.1102 227.596 29.6646 234.387Z" fill="#16044E"/>
<path d="M110.611 138.129L85.1084 141.15C80.1724 144.171 63.719 148.291 51.9273 145.956C40.1357 143.622 34.5141 132.224 34.5141 132.224L29.9894 130.713C26.9729 132.361 26.4244 136.344 27.5214 139.227C24.6421 141.287 24.2307 144.171 24.2307 148.428C24.2307 152.685 28.4811 158.178 31.6348 162.023C34.7883 165.869 42.6037 175.893 45.8944 180.7C49.1851 185.506 49.8706 183.309 50.6933 182.348C51.516 181.386 57.5489 176.443 63.1705 175.481C68.792 174.52 78.527 173.01 86.3424 168.89C94.1578 164.77 101.562 159.964 107.595 152.273C113.628 144.583 113.353 140.189 110.611 138.129Z" fill="#FF1A1A"/>
<g opacity="0.2">
<path d="M85.5513 150.624L83.0516 151.106C83.0516 151.106 78.9897 152.651 77.1387 156.05C79.1953 158.007 91.3297 151.57 94.4662 148.789C92.101 150.385 87.6792 151.879 86.0338 152.136C84.3885 152.394 83.8229 151.621 85.5513 150.624Z" fill="#16044E"/>
</g>
<g opacity="0.4">
<path d="M77.7837 145.892C76.9845 145.441 76.5045 144.652 76.5045 144.652C76.5045 144.652 47.0717 151.069 40.1758 139.621L38.2847 140.379L36.1375 139.876C37.5991 142.455 41.036 146.828 49.7552 149.327C58.4744 151.827 74.9674 149.889 83.4828 145.76C82.691 145.485 81.0509 144.935 77.7837 145.892Z" fill="white"/>
</g>
<g opacity="0.4">
<path d="M28.9736 137.59L27.5212 139.227C27.5212 139.227 25.4645 142.197 25.6702 146.368C25.8759 150.54 28.0668 152.865 28.8547 153.93C27.8897 151.197 27.5212 145.853 28.9562 144.099C28.9562 144.099 32.9714 146.677 36.9814 149.327C31.8392 143.429 31.5318 138.691 31.5318 138.691L28.9736 137.59Z" fill="white"/>
</g>
<path d="M52.2038 158.806C49.2622 157.797 46.1492 159.65 45.9013 162.505C45.6533 165.36 47.5457 166.883 51.1454 166.775C52.8883 166.723 54.4152 167.608 54.9829 167.717C55.5505 167.826 58.061 167.577 57.3226 164.761C56.5842 161.945 55.1453 159.814 52.2038 158.806Z" fill="white"/>
<g opacity="0.2">
<path d="M40.9473 161.263C40.9473 161.263 42.6913 165.208 43.3127 167.605C49.5083 173.027 58.2949 169.597 65.5637 166.198C66.8277 165.349 68.4566 164.44 70.6057 163.074C49.7959 170.029 44.5231 164.907 40.9473 161.263Z" fill="#16044E"/>
</g>
<g opacity="0.2">
<path d="M76.1959 168.89C74.527 169.231 72.7737 169.538 71.1016 169.773C70.0254 169.925 68.9832 170.047 68.0187 170.129C62.2349 171.275 56.8889 174.847 51.7901 176.443C44.498 178.665 41.6445 166.559 37.8154 162.898C36.4997 161.641 35.2313 160.39 34.1026 159.412C31.0861 156.801 25.7388 151.175 26.0844 147.875L24.53 144.099C20.5129 149.217 27.9325 157.217 31.0149 161.263C34.0972 165.309 48.9571 181.566 48.9571 181.566C48.9571 181.566 52.2014 179.738 57.4574 176.717C62.7134 173.696 74.0022 173.147 79.9548 170.246C85.9076 167.345 100.876 158.453 105.388 149.763C99.2837 158.776 82.9144 167.517 76.1959 168.89Z" fill="#16044E"/>
</g>
<path d="M57.9474 154.494C56.8659 154.173 55.6681 154.998 55.2721 156.337C54.876 157.677 55.4315 159.022 56.5131 159.343C57.5946 159.664 58.7924 158.839 59.1884 157.499C59.5845 156.16 59.0289 154.814 57.9474 154.494Z" fill="white"/>
<path d="M51.3483 151.467C50.2399 151.676 49.5509 152.959 49.8094 154.331C50.0679 155.704 51.176 156.647 52.2844 156.437C53.3929 156.228 54.0818 154.945 53.8233 153.573C53.5648 152.2 52.4567 151.258 51.3483 151.467Z" fill="white"/>
<path d="M44.4723 151.717C43.4856 152.265 43.2333 153.699 43.9088 154.921C44.5843 156.143 45.9318 156.69 46.9186 156.142C47.9055 155.595 48.1578 154.161 47.4822 152.939C46.8067 151.717 45.4591 151.17 44.4723 151.717Z" fill="white"/>
<path d="M111.722 136.646L111.129 136.201L84.4886 139.356L84.143 139.568C79.5328 142.39 63.5393 146.366 52.2862 144.138C41.6001 142.022 36.2588 131.573 36.1728 131.401L35.8318 130.71L29.8103 128.699L29.103 129.086C25.5763 131.012 24.6244 135.152 25.3987 138.58C22.6301 141.207 22.3796 144.737 22.3796 148.428C22.3796 153.026 26.1403 158.245 30.2044 163.2C33.3287 167.01 41.0791 176.945 44.3676 181.748C46.175 184.388 47.5845 185.523 49.0813 185.545H49.1244C50.6418 185.545 51.4886 184.382 51.8976 183.82C51.966 183.726 52.0309 183.633 52.0984 183.554C52.7439 182.806 58.3881 178.18 63.4818 177.309L64.325 177.166C70.0029 176.202 79.5062 174.588 87.2044 170.53C94.3055 166.787 102.454 161.827 109.05 153.419C112.939 148.462 114.692 144.287 114.263 141.01C114.029 139.228 113.15 137.719 111.722 136.646ZM106.139 151.128C99.973 158.988 92.2355 163.688 85.4803 167.249C78.305 171.032 69.1665 172.583 63.7063 173.51L62.8588 173.654C56.654 174.715 50.2024 180.072 49.2878 181.141C49.1775 181.27 49.0678 181.415 48.9572 181.566C48.6473 181.272 48.1457 180.71 47.4208 179.651C44.0759 174.766 36.2253 164.7 33.0649 160.847C30.9753 158.299 26.0816 152.332 26.0816 148.428C26.0816 144.436 26.458 142.266 28.5972 140.736L29.7596 139.905L29.251 138.568C28.5129 136.627 28.7385 134.087 30.2699 132.761L33.232 133.75C34.7311 136.408 40.6356 145.61 51.5683 147.775C63.605 150.158 80.147 146.085 85.7096 142.945L109.991 140.069C110.323 140.462 110.518 140.927 110.592 141.493C110.758 142.76 110.401 145.696 106.139 151.128Z" fill="#16044E"/>
<path d="M40.9473 161.263C40.9473 161.263 42.4023 171.956 49.4592 171.705C59.1255 171.362 70.6057 163.074 70.6057 163.074C64.3751 166.257 53.9428 168.821 49.4592 168.821C45.9131 168.821 43.6011 165.545 40.9473 161.263Z" fill="#16044E"/>
<path d="M78.552 155.316C79.0684 154.25 81.6838 151.877 85.5513 150.624C85.5513 150.624 78.5269 149.664 75.8721 154.294C75.2384 155.399 75.5983 156.36 75.868 156.901C76.083 157.331 76.5592 157.887 77.6074 158.09C77.8898 158.144 78.213 158.172 78.5751 158.172C83.5095 158.171 95.5604 153.082 107.316 142.641L105.405 140.483C92.6991 151.769 81.3914 155.409 78.552 155.316Z" fill="#16044E"/>
<path d="M29.2692 138.692L26.5959 139.763C27.8193 142.826 31.832 148.627 37.6932 153.755C42.7407 158.172 52.6346 156.883 52.6346 156.883C38.8808 155.352 30.9598 142.925 29.2692 138.692Z" fill="#16044E"/>
<path d="M63.9244 210.074L63.5024 209.861C63.0093 213.714 62.3393 217.454 61.4564 220.936C58.1657 233.913 59.194 240.917 74.8248 239.681C88.8615 238.571 96.2627 218.029 98.0733 211.761C97.4073 211.845 96.7279 211.94 96.0208 212.057C70.1079 216.355 63.9244 210.074 63.9244 210.074Z" fill="#FEFFFE"/>
<path d="M64.2483 182.437C67.6748 181.765 71.1135 180.836 74.4137 179.76L63.9329 178.472C64.0553 179.761 64.1598 181.086 64.2483 182.437Z" fill="#FEFFFE"/>
<g opacity="0.2">
<path d="M27.7749 158.528V163.726C27.7749 163.726 34.2165 170.202 36.1374 172.454C38.0582 174.706 44.5233 187.375 48.7397 187.093C52.9561 186.812 53.449 184.485 59.3162 181.566C65.1835 178.647 72.0428 178.682 79.7162 176.131C87.3897 173.58 104.297 165.345 112.928 149.763C112.17 148.824 111.423 146.835 111.423 146.835C111.423 146.835 102.006 162.034 89.3573 167.737C76.7082 173.439 54.5347 174.94 49.1074 183.691C43.6801 177.662 27.7749 158.528 27.7749 158.528Z" fill="#16044E"/>
</g>
<path d="M74.4137 179.76C71.1135 180.836 67.6747 181.765 64.2483 182.436C64.8123 191.043 64.6648 200.776 63.5024 209.861L63.9245 210.074C63.9245 210.074 70.108 216.355 96.0209 212.057C96.7279 211.94 97.4073 211.845 98.0734 211.761C98.279 211.05 98.4138 210.519 98.4767 210.225C99.0937 207.341 99.9168 192.754 99.7111 182.867L74.4137 179.76Z" fill="#F9A528"/>
<g opacity="0.4">
<path d="M65.467 187.051L62.1721 217.846L59.9333 232.33C59.9333 232.33 60.8394 235.252 63.1783 235.484C61.918 233.039 62.7933 228.763 64.3767 223.06C65.96 217.357 67.5236 210.637 68.9661 200.337C70.4086 190.038 66.5981 181.592 63.9329 178.472L65.467 187.051Z" fill="#FBFBFB"/>
</g>
<g opacity="0.2">
<path d="M99.7113 182.867C99.5903 188.112 92.375 210.748 86.3489 220.861C80.3228 230.973 70.8647 239.321 63.1785 235.484C66.1287 239.226 71.6242 242.993 81.8217 237.352C92.0192 231.71 99.9165 204.182 100.465 198.689C101.013 193.196 100.465 191.389 100.465 191.389L99.7113 182.867Z" fill="#16044E"/>
</g>
<path d="M96.6667 209.836C96.6096 210.103 89.7395 236.642 74.6793 237.833C68.6701 238.309 64.9083 237.54 63.1784 235.484C61.2924 233.244 61.3138 229.029 63.2504 221.392C64.819 215.207 66.0198 208.866 66.8175 202.721C68.8605 188.802 63.9329 178.472 63.9329 178.472C65.2161 191.967 62.5682 209.02 59.6625 220.48C57.9842 227.098 56.9059 233.785 60.3478 237.874C62.5083 240.441 66.0991 241.675 71.5166 241.675C72.5945 241.675 73.7449 241.626 74.9705 241.529C92.8763 240.113 100.224 210.907 100.287 210.613C104.063 196.727 99.7112 182.867 99.7112 182.867C99.9096 192.412 97.3187 206.789 96.6667 209.836Z" fill="#16044E"/>
<path d="M67.7018 228.579C67.7018 228.579 61.7651 234.047 67.1786 240.738L68.9662 238.477C66.9109 236.847 66.6533 232.043 67.7018 228.579Z" fill="#16044E"/>
<path d="M77.1628 228.992C77.1969 228.754 77.2278 228.537 77.2525 228.349C77.2525 228.349 72.8711 233.237 75.025 238.532C75.3805 239.406 76.1892 240.009 77.1165 240.455L78.3606 237.854C76.0549 236.748 76.8597 231.113 77.1628 228.992Z" fill="#16044E"/>
<path d="M109.849 211.252L96.3847 205.466L94.9833 204.627C92.5621 204.686 87.7127 205.756 84.1486 212.696C79.2126 222.309 81.1321 238.926 91.1413 245.792C101.151 252.658 112.531 246.616 115.547 242.084C115.863 241.61 116.17 241.166 116.474 240.739L116.473 240.738C121.945 224.142 109.849 211.252 109.849 211.252Z" fill="#FEFFFE"/>
<path d="M117.483 195.659C99.6587 190.303 96.4885 204.732 96.4885 204.732C96.4885 204.732 95.9152 204.605 94.9832 204.627L96.3845 205.466L109.849 211.252C109.849 211.252 121.945 224.142 116.473 240.738L116.473 240.739C119.071 237.082 121.218 235.095 122.814 234.047C124.596 232.876 128.607 230.102 133.543 219.906C138.479 209.71 137.087 199.775 136.482 195.947L117.483 195.659Z" fill="#F9A528"/>
<g opacity="0.4">
<path d="M97.166 204.183C91.2785 205.83 79.6015 210.258 81.9436 229.673L84.5849 232.87C83.9454 230.176 83.7373 213.218 93.7465 210.074C103.756 206.929 111.183 219.799 111.183 219.799V215.621L102.522 206.978C104.03 201.436 107.217 193.452 117.483 195.659C106.772 192.784 101.682 193.883 97.166 204.183Z" fill="#FBFBFB"/>
</g>
<path d="M136.509 196.181C137.124 200.073 136.41 209.735 131.878 219.097C127.067 229.035 123.24 231.55 121.799 232.497C119.329 234.12 116.707 236.999 114.007 241.056C112.577 243.204 108.742 245.842 104.179 246.727C101.191 247.304 96.6848 247.348 92.1874 244.262C83.1071 238.034 81.2658 222.365 85.7948 213.544C89.9676 205.418 97.8831 206.941 97.8831 206.941L98.2932 205.145C98.3064 205.087 99.6923 199.242 104.722 196.309C108.09 194.345 112.384 194.126 117.483 195.659C117.483 195.659 110.042 189.214 102.859 193.105C98.1043 195.68 96.0175 200.387 95.1592 202.769C92.3176 202.774 86.5938 203.881 82.5025 211.849C77.1879 222.198 79.3469 239.948 90.0954 247.321C93.9356 249.956 97.7746 250.744 100.996 250.744C102.432 250.744 103.747 250.587 104.882 250.367C110.732 249.233 115.227 245.906 117.087 243.112C120.104 238.58 122.419 236.523 123.83 235.597C125.504 234.497 129.952 231.574 135.209 220.715C140.145 210.518 140.878 200.11 140.166 195.602L136.509 196.181Z" fill="#16044E"/>
<path d="M97.1399 203.324L97.2454 206.81C98.6348 207.064 101.488 207.792 104.324 209.76C109.612 213.432 112.212 219.48 112.051 227.738C112.051 227.738 115.033 221.3 112.816 215.803C108.349 204.726 97.2858 203.336 97.1399 203.324Z" fill="#16044E"/>
<path d="M96.186 226.993C93.3003 227.779 91.7622 231.368 92.7507 235.011C93.7392 238.653 96.8799 240.969 99.7657 240.183C102.651 239.398 104.189 235.808 103.201 232.166C102.212 228.524 99.0717 226.208 96.186 226.993Z" fill="#FF8AA3"/>
<g opacity="0.2">
<path d="M113.636 220.524L111.183 219.799C112.441 227.864 106.772 240.738 97.14 238.788C90.0643 237.356 87.1651 233.237 84.9509 226.614C85.4791 241.218 95.2547 247.714 104.179 246.727C109.591 246.128 113.261 241.988 115.821 237.14C118.382 232.292 121.799 232.497 126.516 226.004C131.233 219.511 134.888 211.127 134.743 200.337C127.202 225.742 115.05 223.91 113.636 220.524Z" fill="#16044E"/>
</g>
<path d="M95.1794 215.876C93.8576 216.022 92.96 217.721 93.1745 219.67C93.3891 221.62 94.6346 223.082 95.9564 222.936C97.2783 222.79 98.1759 221.091 97.9614 219.142C97.7468 217.192 96.5013 215.73 95.1794 215.876Z" fill="#FF8AA3"/>
<path d="M103.29 217.526C101.966 217.402 100.745 218.884 100.562 220.837C100.379 222.79 101.304 224.474 102.628 224.598C103.952 224.722 105.174 223.24 105.356 221.287C105.539 219.335 104.614 217.651 103.29 217.526Z" fill="#FF8AA3"/>
<path d="M88.6692 219.253C87.3473 219.399 86.4497 221.097 86.6643 223.047C86.8788 224.996 88.1243 226.459 89.4462 226.313C90.768 226.167 91.6656 224.468 91.4511 222.518C91.2365 220.569 89.991 219.107 88.6692 219.253Z" fill="#FF8AA3"/>
<path d="M41.7809 4.09956C30.2635 -1.94285 24.5048 4.5115 21.8997 19.3426C19.2946 34.1737 22.1739 48.4555 24.5048 58.2056L64.9529 25.3849C64.9529 25.3849 53.2983 10.1418 41.7809 4.09956Z" fill="#F9A528"/>
<g opacity="0.4">
<path d="M41.7809 4.09957C35.748 3.00089 29.8179 0.25515 25.0307 9.18049C20.2436 18.106 20.8252 29.2974 20.8252 29.2974L22.7283 31.3395C22.7283 31.3395 25.3618 6.19371 33.1772 6.81165C40.9925 7.42964 48.9108 14.9482 55.9034 24.2177L62.4261 23.0879C62.4261 23.0879 47.8139 5.1982 41.7809 4.09957Z" fill="#FBFBFB"/>
</g>
<path d="M42.6398 2.45739C37.4882 -0.245824 33.0604 -0.720895 29.4806 1.04247C24.8796 3.3087 21.8037 9.18983 20.0768 19.0217C17.5081 33.6456 20.1318 47.8749 22.7047 58.6373L23.3885 61.4974L67.5175 25.6898L66.4226 24.2575C65.9364 23.6218 54.3843 8.61851 42.6398 2.45739ZM25.6388 54.8993C23.4002 44.8977 21.4915 32.3671 23.7229 19.6638C25.2096 11.199 27.6965 6.05288 31.1143 4.36966C32.0261 3.92064 33.0326 3.6953 34.1433 3.6953C36.0732 3.6953 38.3175 4.37566 40.9221 5.7419C49.9241 10.4643 59.2052 21.2413 62.359 25.1036L25.6388 54.8993Z" fill="#16044E"/>
<path d="M28.481 16.3215C25.0533 24.8356 26.6986 40.3534 28.481 47.769L49.185 32.2512C46.5798 27.0328 44.3861 22.3637 41.6438 18.9307C38.9016 15.4975 31.9089 7.80734 28.481 16.3215Z" fill="#FF8AA3"/>
<g opacity="0.2">
<path d="M36.5192 14.9482C32.5944 12.3391 31.3121 11.2327 28.481 16.3214C25.65 21.4101 26.5615 28.2688 26.5615 28.2688L27.9158 27.4448C28.1664 24.4329 30.2635 19.7433 33.1429 19.7489C36.0222 19.7546 39.0503 26.6371 40.7584 30.7487L46.4768 27.5821C46.4768 27.5821 40.4439 17.5574 36.5192 14.9482Z" fill="#16044E"/>
</g>
<path d="M49.6553 29.9628C47.3262 25.2705 45.3148 21.2183 42.768 18.03C38.7161 12.9567 35.1085 10.6148 32.0506 11.063C29.9315 11.3744 28.2813 12.9619 27.1459 15.7822C23.5722 24.6586 25.2098 40.3201 27.0814 48.1066L27.5932 50.2357L51.0104 32.6837L50.4725 31.6062C50.1959 31.0519 49.9238 30.5039 49.6553 29.9628ZM29.4102 45.2719C27.7741 36.9982 26.936 24.0148 29.8164 16.8604C30.5416 15.0589 31.434 14.0683 32.4688 13.9163C32.5774 13.9002 32.6896 13.8921 32.8052 13.8921C34.6988 13.8921 37.4803 16.0264 40.5197 19.8316C42.8737 22.7785 44.8215 26.7027 47.077 31.2465C47.171 31.4361 47.2654 31.6264 47.3604 31.8175L29.4102 45.2719Z" fill="#16044E"/>
<path d="M133.646 19.8919C122.54 20.8532 109.926 24.561 98.6826 30.7406L127.75 78.1178C141.736 67.2692 146.26 42.5506 146.26 32.6631C146.26 22.7757 144.752 18.9307 133.646 19.8919Z" fill="#F9A528"/>
<g opacity="0.4">
<path d="M143.721 21.7906C139.093 18.0242 112.398 21.3466 101.29 30.026L109.165 32.4118C117.33 28.4061 135.002 23.0504 140.357 26.3462C145.712 29.642 143.522 44.6059 141.621 50.6076C145.164 42.1386 148.349 25.5571 143.721 21.7906Z" fill="#FBFBFB"/>
</g>
<path d="M133.487 18.0448C121.582 19.0752 108.906 23.0067 97.7921 29.1151L96.0876 30.0521L127.253 80.8482L128.884 79.5833C143.412 68.3139 148.112 43.1058 148.112 32.6631C148.112 26.7358 147.584 22.8192 144.886 20.3405C142.628 18.2657 139.113 17.5576 133.487 18.0448ZM128.206 75.3183L101.29 31.4482C111.431 26.1762 123.174 22.659 133.806 21.739C138.249 21.3548 140.974 21.7784 142.383 23.0731C144.071 24.6229 144.41 27.8917 144.41 32.6631C144.41 41.733 140.287 64.3712 128.206 75.3183Z" fill="#16044E"/>
<path d="M132.823 31.7019C127.339 33.2124 119.661 36.7829 112.805 41.1773L126.83 71.5261C135.154 63.012 138.445 52.3007 140.364 41.1773C142.284 30.054 138.308 30.1912 132.823 31.7019Z" fill="#FF8AA3"/>
<g opacity="0.2">
<path d="M130.311 32.4844C126.668 33.1297 114.643 39.7568 114.643 39.7568L120.38 47.3912C120.38 47.3912 124.288 43.2715 127.412 41.0056C130.535 38.7397 136.011 35.959 136.933 38.0188C137.855 40.0787 137.521 47.8981 136.933 50.154L137.554 53.9829C138.479 51.408 141.359 34.517 139.997 32.4118C138.636 30.3065 133.955 31.8392 130.311 32.4844Z" fill="#16044E"/>
</g>
<path d="M132.442 30.3116C126.649 31.9068 118.827 35.6049 112.029 39.9628L110.971 40.6411L126.399 74.0273L127.858 72.535C137.014 63.1715 140.035 51.5529 141.783 41.4229C142.761 35.7546 142.353 32.4592 140.46 30.7389C138.406 28.8724 135.244 29.54 132.442 30.3116ZM138.946 40.932C137.37 50.0647 134.731 60.4421 127.235 68.9705L114.643 41.7218C120.951 37.804 127.968 34.5343 133.205 33.0924C135.421 32.4817 137.599 32.0332 138.525 32.8748C139.239 33.5237 139.892 35.4484 138.946 40.932Z" fill="#16044E"/>
<path d="M101.29 102.378C90.1057 100.447 84.5924 96.2168 79.7165 90.6353C75.7835 86.1333 61.0148 80.738 52.6349 86.3497C44.2549 91.9613 35.3801 87.5529 26.0818 84.7476C18.1743 82.3619 11.4796 85.262 9.65272 86.1833C9.28286 87.3881 8.97073 88.511 8.7371 89.5157C6.40621 99.5405 5.30936 112.037 14.7701 122.062C24.2308 132.087 39.6671 135.485 50.2247 137.545L69.4856 140.208C79.5138 141.65 105.47 144.514 115.136 137.305C122.017 132.173 128.48 124.742 130.595 109.593C122.349 100.395 111.857 104.204 101.29 102.378Z" fill="#FEFFFE"/>
<path d="M63.0436 101.725C59.822 103.198 55.4421 105.362 51.6734 102.624L51.6687 102.629C51.6687 102.629 53.3939 104.934 53.8778 108.359C54.3617 111.784 55.4878 117.14 60.1597 118.119C65.0291 119.139 67.4457 114.6 69.1958 111.925C70.946 109.251 72.7995 107.265 74.0995 106.49C71.6547 108.203 64.5654 105.201 63.0436 101.725Z" fill="#16044E"/>
<path d="M73.2955 105.549C72.8234 105.793 71.772 105.898 70.1754 105.45C67.4671 104.688 64.8823 102.876 64.1632 101.233L63.6648 100.095L62.2065 100.762C59.1992 102.142 55.456 103.86 52.3911 101.633L51.504 100.997L50.0818 102.551L50.6904 103.364C50.7058 103.384 52.2322 105.453 52.667 108.531C53.0361 111.143 54.0163 118.082 59.9091 119.318C60.4759 119.436 61.0143 119.491 61.5269 119.491C65.8116 119.491 68.2614 115.656 69.7902 113.262C69.9378 113.031 70.0803 112.808 70.2184 112.596C71.9881 109.892 73.6224 108.273 74.5626 107.645C74.6448 107.598 74.7238 107.547 74.8002 107.494L73.4746 105.438C73.4155 105.473 73.3558 105.51 73.2955 105.549ZM68.1732 111.254C68.0302 111.472 67.8828 111.703 67.7302 111.942C65.7233 115.085 63.7872 117.628 60.41 116.92C56.6761 116.138 55.6046 111.842 55.0885 108.188C54.9203 106.998 54.6152 105.932 54.2764 105.031C57.2424 105.541 60.2318 104.344 62.5425 103.3C64.0825 105.477 67.0794 107.123 69.5147 107.808C69.8767 107.91 70.2295 107.992 70.5715 108.055C69.7704 108.976 68.9531 110.062 68.1732 111.254Z" fill="#16044E"/>
<path d="M61.7571 109.849C57.6676 106.719 54.4415 111.301 54.4365 111.308C55.1867 114.271 56.7012 117.394 60.1597 118.119C64.0555 118.935 66.3806 116.193 68.0512 113.694C67.3468 111.313 65.3715 109.009 61.7571 109.849Z" fill="#FF7189"/>
<g opacity="0.2">
<path d="M55.5947 113.826C55.5947 113.826 58.5605 109.532 61.2396 112.629C65.4648 111.081 65.5387 115.233 65.3964 116.007C65.2539 116.782 68.0512 113.694 68.0512 113.694C68.0512 113.694 66.7405 109.182 61.7571 109.849C56.9526 108.058 54.4365 110.588 54.4365 110.588L55.5947 113.826Z" fill="#16044E"/>
</g>
<path d="M61.9981 108.724C60.7348 107.877 59.4141 107.553 58.066 107.759C55.3853 108.17 53.6481 110.596 53.5754 110.7L53.2957 111.097L53.4148 111.568C54.5175 115.923 56.714 118.475 59.9438 119.152C60.4962 119.268 61.021 119.321 61.52 119.321C65.5577 119.32 67.8724 115.859 68.9271 114.282L69.2025 113.87L69.0619 113.394C68.2847 110.767 65.9807 108.041 61.9981 108.724ZM60.3756 117.086C58.0843 116.605 56.517 114.795 55.5947 111.556C56.0776 111.015 57.1077 110.038 58.3942 109.845C59.307 109.707 60.197 109.984 61.1171 110.688L61.5118 110.99L61.9954 110.877C65.0827 110.162 66.3814 112.217 66.8846 113.533C65.2969 115.813 63.3789 117.715 60.3756 117.086Z" fill="#16044E"/>
<path d="M60.8137 114.224L62.5827 110.022L60.9315 109.676L60.8137 114.224Z" fill="#16044E"/>
<path d="M109.171 34.723C99.0938 26.8955 74.6193 18.656 53.0242 25.8656C31.429 33.0751 25.876 48.5929 23.4021 53.3516C21.1763 57.6334 12.9732 75.3681 9.65259 86.1833C11.4795 85.262 18.1742 82.3619 26.0817 84.7476C35.38 87.5529 44.2548 91.9613 52.6347 86.3497C61.0147 80.738 75.7833 86.1333 79.7163 90.6353C84.5923 96.2168 90.1056 100.447 101.289 102.378C111.857 104.204 122.349 100.395 130.595 109.593C131.451 103.461 131.596 96.0661 130.767 87.0439C127.887 55.7338 119.249 42.5505 109.171 34.723Z" fill="#F9A528"/>
<path d="M43.8451 62.9805C39.1134 62.0748 34.3366 66.2718 33.1758 72.3548C32.015 78.4378 34.9098 84.1032 39.6415 85.009C44.3731 85.9147 49.1501 81.7178 50.3109 75.6348C51.4716 69.5518 48.5767 63.8862 43.8451 62.9805Z" fill="#16044E"/>
<path d="M43.3014 65.5229C41.7369 65.935 40.9133 67.9629 41.462 70.0522C42.0106 72.1415 43.7237 73.5011 45.2883 73.0889C46.8528 72.6769 47.6764 70.649 47.1277 68.5597C46.579 66.4704 44.866 65.1107 43.3014 65.5229Z" fill="white"/>
<path d="M37.1184 78.2335C36.3609 78.6347 36.18 79.7799 36.7141 80.7913C37.2481 81.8027 38.2951 82.2974 39.0524 81.8962C39.8098 81.4951 39.9908 80.3498 39.4567 79.3385C38.9227 78.3271 37.8756 77.8324 37.1184 78.2335Z" fill="#B199C5"/>
<path d="M101.542 61.8418C97.4031 60.8379 93.6761 61.5605 93.2178 63.4559C92.7596 65.3513 95.7436 67.7016 99.8828 68.7055C104.022 69.7094 107.749 68.9868 108.207 67.0914C108.666 65.1961 105.682 62.8458 101.542 61.8418Z" fill="white"/>
<path d="M46.7292 50.591C42.5514 49.7625 38.8581 50.6416 38.4799 52.5547C38.1017 54.4676 41.1819 56.6901 45.3596 57.5186C49.5374 58.3471 53.2307 57.4679 53.6089 55.5549C53.9871 53.6419 50.9069 51.4195 46.7292 50.591Z" fill="white"/>
<g opacity="0.4">
<path d="M79.8907 23.0923C56.4124 22.9527 41.4403 26.0452 29.6851 42.6612C17.9298 59.2771 7.58471 91.0178 7.12964 101.401L8.97826 103.218C8.98935 100.337 11.1712 87.3529 17.0325 77.3624C22.8938 67.3721 27.3719 50.2981 37.8328 40.7597C45.5626 33.7116 54.1272 29.4111 65.9836 28.8036C68.1984 30.2726 73.5699 31.8531 79.9589 32.7761C86.2293 33.6821 91.7361 33.7023 94.3389 32.9633C105.293 36.7624 112.448 42.8847 117.705 51.7806C124.985 64.1015 129.249 94.4008 129.248 108.359C130.311 88.4858 130.538 67.5545 124.071 55.3616C117.604 43.1685 103.369 23.2319 79.8907 23.0923Z" fill="#FBFBFB"/>
</g>
<path d="M110.306 33.2582C99.6614 24.9901 74.6701 16.6858 52.4389 24.1066C32.1264 30.8881 25.396 44.9403 22.5221 50.9413C22.2305 51.55 21.9786 52.0759 21.7605 52.4954C19.0991 57.615 9.27398 79.0334 6.93431 89.0953C4.74285 98.5197 3.03148 112.322 13.4247 123.335C16.8082 126.92 20.7267 129.913 24.8505 132.198C37.2849 139.09 50.2246 137.545 50.2246 137.545C44.9642 136.519 26.9578 132.277 16.1152 120.788C7.04883 111.181 8.37315 99.2543 10.5399 89.9362C12.8065 80.188 22.4329 59.2304 25.044 54.2078C25.2902 53.7343 25.5543 53.1831 25.8598 52.545C28.757 46.4957 34.7857 33.9087 53.6095 27.6245C74.3181 20.7106 98.329 28.6476 108.037 36.1879C116.157 42.4947 125.868 53.9938 128.923 87.2141C131.767 118.134 122.991 129.135 114.03 135.818C105.455 142.213 80.7869 141.832 69.4855 140.208C69.4855 140.208 83.6688 146.059 104.262 143.411C109.082 142.791 113.276 141.003 116.241 138.792C126.025 131.495 135.621 119.62 132.61 86.8738C129.424 52.2324 119.017 40.024 110.306 33.2582Z" fill="#16044E"/>
<g opacity="0.2">
<path d="M70.5746 103.454C66.5202 102.173 65.9128 98.9912 66.1061 96.78C66.1061 96.78 63.0334 95.9013 61.7571 95.8327C60.7882 100.306 56.5206 101.401 53.3842 100.536C50.7117 99.7991 50.4302 96.1063 51.4179 94.443L48.9109 97.1144C48.9109 97.1144 48.6366 98.3732 50.4191 101.401C52.2016 104.429 57.8917 103.523 63.0436 101.725C65.0284 106.258 74.2766 107.162 75.8534 105.171C77.4302 103.18 77.5673 101.326 76.4255 99.1195C76.7182 102.23 74.6289 104.735 70.5746 103.454Z" fill="#16044E"/>
</g>
<g opacity="0.2">
<path d="M60.3286 129.843C30.1266 126.307 16.2783 116.206 10.7938 99.0502C10.1912 110.681 15.5561 121.642 25.7207 128.375L27.3844 136.618C32.3204 140.051 36.9987 139.281 43.0234 142.001C49.048 144.72 70.0858 148.326 76.6171 146.237C83.1486 144.148 84.3201 146.227 85.0057 147.192C85.6913 148.158 89.0784 150.797 96.0877 149.327C100.796 148.34 103.893 143.21 109.926 148.291C112.12 147.055 111.434 139.914 111.434 139.914L98.8375 140.483C106.075 139.182 123.431 138.417 127.412 106.407C119.283 119.59 99.3964 134.416 60.3286 129.843Z" fill="#16044E"/>
</g>
<path d="M66.7354 84.7094C57.686 83.3362 52.3438 88.289 47.9731 91.3524L82.8195 97.1144C80.6258 93.4973 75.7848 86.0827 66.7354 84.7094Z" fill="white"/>
<path d="M66.9202 83.4875C52.742 81.5211 47.9731 91.3524 47.9731 91.3524C52.8632 87.9246 58.3263 84.6844 66.5505 85.9311C74.2631 87.1019 80.1351 92.6873 82.8195 97.1144C82.8195 97.1144 80.5838 85.3823 66.9202 83.4875Z" fill="#16044E"/>
<path d="M65.5701 86.5289C57.5491 85.396 56.9321 89.9278 57.6519 91.8865C58.3718 93.8454 61.2574 96.5702 63.3817 97.2299C64.7421 97.6523 70.0948 95.5924 71.6373 92.8355C73.1798 90.0785 70.308 87.1981 65.5701 86.5289Z" fill="#16044E"/>
<g opacity="0.6">
<path d="M65.3741 88.2531C60.5303 87.4003 60.0449 88.1933 60.4342 88.6151C60.8236 89.0368 62.5096 89.7744 63.7837 90.067C64.5996 90.2545 67.9007 90.3001 68.9049 89.9111C69.9091 89.5222 68.2353 88.7568 65.3741 88.2531Z" fill="white"/>
</g>
<path d="M76.4255 99.1196C76.9187 100.62 76.8514 101.941 76.2252 103.046C75.2133 104.832 73.0191 105.665 72.2589 105.836C71.0877 106.097 67.847 105.412 63.9566 100.934L63.8325 100.79L63.0251 100.294L62.4023 100.624C57.1654 103.403 53.8941 102.877 52.8956 102.211C52.2474 101.778 50.4986 100.21 50.1954 98.1794C50.0076 96.9229 50.4189 95.6661 51.4179 94.443C51.4179 94.443 47.1628 94.6477 47.7544 98.5451C48.1808 101.353 50.3231 103.464 51.5266 104.267C53.4153 105.529 57.3094 105.875 62.7092 103.241C66.2144 107.018 69.4743 108.359 71.7339 108.359C72.1187 108.359 72.475 108.32 72.7982 108.248C74.2095 107.931 76.9242 106.709 78.3716 104.266C80.0696 101.401 76.4255 99.1196 76.4255 99.1196Z" fill="#16044E"/>
<path d="M61.7571 101.55L64.2027 101.883C64.2073 101.848 64.6824 98.3697 65.0291 96.7285L62.6145 96.2168C62.2495 97.9452 61.7772 101.403 61.7571 101.55Z" fill="#16044E"/>
<path d="M97.7013 74.3614C102.442 75.2183 105.395 80.8538 104.297 86.9483C103.198 93.043 98.4648 97.2889 93.724 96.432C88.9834 95.575 86.0304 89.9397 87.1287 83.845C88.227 77.7504 92.9606 73.5044 97.7013 74.3614Z" fill="#16044E"/>
<path d="M97.2967 76.9297C98.6091 77.8771 98.6504 80.066 97.389 81.8184C96.1277 83.571 94.0414 84.2235 92.729 83.276C91.4167 82.3286 91.3753 80.1397 92.6367 78.3873C93.898 76.6348 95.9843 75.9821 97.2967 76.9297Z" fill="white"/>
<path d="M98.5086 91.0164C99.0716 91.6633 98.8298 92.7971 97.9686 93.5489C97.1074 94.3007 95.9529 94.3857 95.39 93.7388C94.827 93.092 95.0688 91.9581 95.93 91.2064C96.791 90.4546 97.9457 90.3696 98.5086 91.0164Z" fill="#B199C5"/>
</g>
<defs>
<clipPath id="clip0_165_1960">
<rect width="179" height="251" fill="white"/>
</clipPath>
</defs>
</svg>
