<svg width="256" height="408" viewBox="0 0 256 408" fill="none" xmlns="http://www.w3.org/2000/svg">
<path d="M97.7011 326.851C117.472 314.565 128.48 281.56 129.26 279.156C122.914 256.376 126.831 226.374 127.506 221.684C108.947 219.457 96.1029 207.351 93.9005 205.143C89.806 207.46 81.4905 212.652 72.8244 220.907C61.6387 231.561 47.5644 249.646 44.0403 275.295C44.0224 275.421 42.4039 286.8 42.1766 291.943C46.3874 289.704 64.0145 281.19 84.0926 283.647C87.1545 273.923 91.968 254.58 89.7005 234.501C89.6628 234.165 89.9044 233.862 90.2404 233.823C90.5818 233.786 90.8789 234.028 90.9178 234.363C93.2371 254.904 88.2317 274.669 85.1429 284.382C85.1426 284.386 85.1444 284.39 85.1438 284.395C85.1333 284.474 85.1061 284.547 85.0696 284.613C84.2681 287.116 83.6038 288.924 83.2421 289.87C85.9653 290.39 89.3435 293.088 90.5522 294.118C90.6613 294.167 90.7516 294.245 90.8162 294.346C90.8392 294.366 90.87 294.393 90.8891 294.409C91.8392 294.645 96.418 295.985 96.8856 299.956C97.4871 305.058 94.5453 314.001 84.0914 316.274C74.0483 318.458 65.198 315.297 63.4725 314.618C50.8553 322.057 38.2908 326.152 36.741 326.643C23.5039 340.977 31.2295 366.495 33.8388 373.81C34.625 370.904 36.8774 365.553 43.281 360.251C49.0335 355.489 60.4524 348.842 73.6746 341.146C81.6298 336.515 89.8559 331.727 97.7011 326.851Z" fill="white"/>
<path d="M81.9584 289.795C82.2341 289.091 82.8867 287.369 83.7115 284.838C81.2394 284.546 78.8053 284.418 76.4313 284.43L77.7372 291.184C78.5793 290.617 80.0302 289.893 81.9584 289.795Z" fill="#001364"/>
<path d="M78.5234 339.738C77.107 340.564 75.6938 341.388 74.2905 342.204C69.5368 344.972 65.0232 347.6 60.9209 350.053C63.8043 351.387 71.7237 355.366 76.8077 360.944L78.5234 339.738Z" fill="#000072"/>
<path d="M63.3792 313.326L63.3834 313.326L63.3852 313.326C63.4755 313.32 63.5613 313.339 63.6414 313.37C63.648 313.373 63.6551 313.371 63.6614 313.374C63.7559 313.414 73.2591 317.377 83.8314 315.077C94.7122 312.711 96.0658 303.463 95.6694 300.099C95.3289 297.208 91.9743 295.997 90.8455 295.669C90.794 296.239 90.7313 296.804 90.6493 297.37C90.519 298.247 90.3516 299.118 90.1429 299.978C89.9262 300.837 89.6658 301.683 89.3495 302.506C89.0182 303.325 88.6266 304.116 88.1489 304.849C88.933 303.281 89.319 301.574 89.5411 299.866C89.6452 299.009 89.7082 298.148 89.7345 297.288C89.7561 296.526 89.748 295.752 89.7064 295.005C88.0428 293.593 84.5429 290.998 82.382 290.998C80.6182 290.998 79.2744 291.65 78.501 292.151C78.6032 293.02 78.6265 293.855 78.602 294.708C78.5676 295.694 78.4502 296.676 78.2484 297.637C78.0585 298.601 77.7306 299.534 77.3339 300.422C76.9416 301.317 76.3826 302.122 75.7859 302.873C76.3016 302.059 76.7616 301.217 77.0496 300.308C77.3422 299.406 77.5608 298.482 77.6439 297.541C77.7383 296.603 77.7506 295.66 77.6836 294.724C77.6379 294.109 77.5584 293.484 77.4472 292.882C77.4454 292.882 77.4439 292.883 77.4421 292.884C77.4265 292.887 77.411 292.886 77.3954 292.888C77.382 292.89 77.3691 292.891 77.3557 292.892C77.3458 292.893 77.3353 292.895 77.3255 292.895C77.3138 292.895 77.3034 292.89 77.2917 292.889C77.2699 292.888 77.2484 292.89 77.2268 292.886C77.2143 292.884 77.205 292.875 77.1927 292.872C77.1204 292.855 77.0537 292.828 76.9928 292.787C76.9808 292.779 76.9673 292.775 76.956 292.767C76.8881 292.715 76.8331 292.649 76.7915 292.572C76.7883 292.566 76.7817 292.563 76.7784 292.556C76.7228 292.453 75.2854 289.873 69.7356 291.296C64.0674 292.749 63.2483 299.862 63.2405 299.934C63.2046 300.27 62.8949 300.518 62.5678 300.479C62.2318 300.443 61.9879 300.143 62.0231 299.806C62.0566 299.479 62.9314 291.776 69.4319 290.109C72.9682 289.201 75.1171 289.781 76.364 290.531L75.1891 284.452C64.1448 284.727 54.4996 287.845 48.464 290.354C46.6027 298.296 47.3325 304.327 50.6419 308.278C55.1917 313.708 63.201 313.334 63.3792 313.326Z" fill="white"/>
<path d="M111.138 383.589C108.853 384.195 106.703 384.803 104.623 385.391C96.4904 387.69 89.4667 389.675 80.4203 389.866C79.9115 389.876 79.3991 389.881 78.8879 389.881C69.7858 389.881 60.3995 388.267 57.6605 387.756C57.882 390.207 58.5738 392.135 59.7439 393.469C61.7403 394.161 84.9955 401.696 110.858 388.314C111.031 388.224 111.238 388.223 111.412 388.31C111.588 388.398 111.71 388.564 111.742 388.757L112.451 393.012C120.071 393.37 131.59 393.466 133.401 392.295C134.876 391.34 135.04 387.402 134.596 382.265C132.183 382.001 120.949 380.982 111.138 383.589Z" fill="#898786"/>
<path d="M119.2 367.795C112.991 369.488 104.701 368.684 93.111 365.262C84.2131 362.636 77.8418 366.721 77.3518 367.049C76.994 367.381 74.5536 369.489 69.7302 370.025C65.436 370.502 60.0542 372.14 58.8016 377.229C57.9248 380.793 57.526 383.897 57.589 386.497C59.9317 386.944 70.5822 388.853 80.394 388.641C89.2843 388.454 96.238 386.488 104.29 384.212C106.374 383.623 108.53 383.014 110.823 382.405C120.524 379.828 131.548 380.717 134.48 381.021C134.093 377.175 133.416 372.775 132.714 368.492C131.239 368.006 125.056 366.195 119.2 367.795Z" fill="#606060"/>
<path d="M142.357 339.275C135.814 340.862 134.312 356.211 133.97 363.809C135.955 361.855 140.359 358.218 146.088 357.67C149.851 357.31 153.518 358.36 157.014 360.791C152.535 347.507 143.819 340.394 142.357 339.275Z" fill="#000072"/>
<path d="M147.324 208.311C145.781 208.311 144.223 208.295 142.656 208.271C133.477 211.377 130.024 218.186 129.084 220.517C134.711 220.318 165.754 218.66 182.828 206.066C172.118 207.493 160.161 208.31 147.324 208.311Z" fill="white"/>
<path d="M114.235 206.567C107.815 205.897 101.853 204.98 96.3493 203.824C96.1122 203.943 95.6584 204.175 95.0156 204.524C97.6937 207.15 109.916 218.228 127.348 220.43C126.21 218.161 121.441 211.321 116.989 206.836C116.072 206.748 115.157 206.663 114.235 206.567Z" fill="white"/>
<path d="M139.532 208.211C132.826 208.042 125.916 207.651 118.848 207.014C122.127 210.564 126.568 216.362 128.186 219.459C129.333 216.843 132.439 211.508 139.532 208.211Z" fill="#FC8026"/>
<path d="M192.597 369.797C191.12 363.655 188.783 356.058 185.168 348.826C181.397 341.282 172.841 333.281 163.783 324.809C153.57 315.258 141.994 304.433 134.471 291.806C132.573 288.619 131.061 285.023 129.862 281.187C127.268 288.566 116.438 316.65 98.3469 327.892C92.2921 331.655 86.0168 335.362 79.8134 338.985L77.9091 362.513V362.516L77.6729 365.433C79.9659 364.199 85.7746 361.82 93.4578 364.087C104.82 367.442 112.897 368.244 118.878 366.613C124.639 365.04 130.513 366.521 132.646 367.181C132.677 362.364 133.306 339.69 142.39 338.015C142.553 337.986 142.719 338.023 142.854 338.117C142.991 338.213 156.475 347.931 160.038 367.628C161.843 368.531 173.403 373.729 192.597 369.797ZM147.055 336.182C142.543 337.033 137.896 337.269 133.311 336.82C131.021 336.583 128.74 336.23 126.504 335.678C124.272 335.121 122.069 334.441 119.938 333.582C115.679 331.881 111.612 329.623 108.136 326.661C110.012 327.955 111.987 329.081 114.026 330.067C116.054 331.073 118.148 331.935 120.273 332.69C124.529 334.181 128.947 335.197 133.428 335.602C134.546 335.729 135.67 335.775 136.793 335.835C137.917 335.844 139.043 335.884 140.167 335.828C142.42 335.801 144.661 335.539 146.896 335.239C151.354 334.549 155.755 333.397 160.04 331.841C155.942 333.835 151.568 335.32 147.055 336.182Z" fill="#898786"/>
<path d="M179.761 397.185C184.868 396.268 189.153 393.926 193.69 391.447C200.548 387.698 207.647 383.84 218.215 384.588C218.014 383.396 217.706 382.169 217.261 380.933C216.431 381.377 215.564 381.75 214.644 382.017C210.358 383.262 206.221 383.618 202.888 383.618C198.574 383.618 195.603 383.021 195.389 382.977C195.126 382.923 194.929 382.704 194.903 382.437C194.894 382.347 194.412 377.662 192.878 370.989C187.542 372.087 182.792 372.508 178.673 372.508C172.318 372.508 167.45 371.522 164.165 370.535C164.019 372.064 163.393 375.39 160.734 378.36C160.625 378.481 160.507 378.599 160.396 378.72C164.024 377.364 170.26 376.341 177.5 380.704C177.79 380.878 177.883 381.254 177.708 381.544C177.593 381.735 177.391 381.841 177.183 381.841C177.076 381.841 176.967 381.813 176.868 381.753C166.427 375.461 158.314 381.015 157.793 381.387C155.165 384.026 152.586 386.821 152.036 390.838C151.875 392.011 151.782 393.168 151.734 394.264C154.314 395.102 168.084 399.282 179.761 397.185Z" fill="#606060"/>
<path d="M227.905 369.694C227.888 369.718 227.871 369.742 227.854 369.765C229.928 369.797 234.496 369.701 238.18 368.441C243.147 366.745 246.866 362.298 247.449 357.478C244.186 357.531 240.14 358.113 236.58 360.148C233.33 362.006 230.695 365.74 227.905 369.694Z" fill="#000072"/>
<path d="M163.546 274.375C163.932 274.891 164.348 275.399 164.771 275.863C165.998 276.224 173.839 278.197 179.419 271.798C179.55 263.393 178.063 250.643 169.4 241.429C168.514 241.087 162.222 238.912 151.774 241.507C140.784 244.237 134.169 253.397 132.674 260.753C131.981 264.16 132.428 266.908 133.967 268.7C135.316 270.269 137.518 271.076 140.348 271.053C140.222 269.928 140.166 268.82 140.165 267.699C140.165 266.344 140.264 264.988 140.491 263.652C140.731 262.32 141.096 260.996 141.723 259.791C142.328 258.581 143.252 257.522 144.398 256.837C143.307 257.611 142.495 258.708 142 259.922C141.484 261.13 141.231 262.432 141.098 263.734C140.978 265.041 140.983 266.357 141.083 267.666C141.18 268.934 141.355 270.22 141.617 271.438C142.045 272.166 145.865 278.268 154.068 279.227C161.377 280.082 163.32 277.313 163.739 276.459C163.389 275.936 163.072 275.413 162.773 274.871C162.417 274.218 162.089 273.552 161.807 272.866C161.247 271.499 160.836 270.038 160.87 268.573C161.043 270.027 161.637 271.361 162.355 272.594C162.718 273.211 163.121 273.803 163.546 274.375Z" fill="white"/>
<path d="M235.973 359.085C242.09 355.588 249.329 356.099 252.43 356.54C245.873 348.031 227.397 333.064 227.202 332.907C227.198 332.904 227.196 332.899 227.192 332.896C227.189 332.893 227.184 332.892 227.18 332.888C227.177 332.885 227.172 332.881 227.169 332.878C224.262 330.07 221.426 327.209 218.618 324.314C215.813 321.418 213.047 318.484 210.35 315.487C207.653 312.492 204.994 309.459 202.469 306.315C199.947 303.174 197.492 299.966 195.354 296.55C197.578 299.911 200.108 303.049 202.705 306.12C205.303 309.192 208.033 312.151 210.799 315.071C213.565 317.992 216.399 320.848 219.269 323.667C221.67 326.019 224.103 328.342 226.56 330.63C221.353 307.392 214.418 286.072 213.111 282.123C209.28 283.797 204.663 284.384 200.081 284.385C189.84 284.385 179.776 281.463 179.064 281.252C178.759 281.162 178.575 280.854 178.637 280.543C178.654 280.463 179.18 277.754 179.364 273.63C173.865 278.869 166.757 277.614 164.769 277.126C164.163 278.239 162.216 280.612 156.647 280.612C155.822 280.612 154.918 280.56 153.926 280.444C145.63 279.473 141.601 273.754 140.693 272.282C137.337 272.38 134.687 271.416 133.039 269.498C131.245 267.408 130.703 264.301 131.474 260.509C133.044 252.788 139.973 243.176 151.479 240.318C161.441 237.844 167.683 239.525 169.476 240.15C170.124 239.193 172.044 237.39 177.381 237.163L169.253 225.295C169.062 225.015 169.133 224.634 169.412 224.443C169.692 224.252 170.072 224.324 170.263 224.602L178.837 237.121C180.845 236.981 182.811 236.989 184.791 237.081C186.892 237.178 188.986 237.384 191.06 237.703C192.1 237.84 193.128 238.057 194.158 238.244C195.18 238.48 196.209 238.679 197.216 238.968C199.248 239.475 201.224 240.176 203.175 240.913C201.188 240.272 199.189 239.671 197.145 239.266C196.132 239.028 195.1 238.88 194.077 238.696C193.046 238.56 192.02 238.396 190.984 238.31C188.918 238.095 186.842 237.993 184.77 237.999C182.705 238.003 180.612 238.101 178.602 238.359L178.578 238.362C178.568 238.364 178.56 238.36 178.551 238.36C178.543 238.361 178.535 238.364 178.527 238.364C172.786 238.364 170.993 240.111 170.503 240.813C179.27 250.319 180.771 263.304 180.635 271.863C180.663 271.975 180.668 272.09 180.631 272.201C180.549 276.11 180.132 279.048 179.937 280.225C183.932 281.31 209.453 287.727 218.103 276.962C227.995 264.653 222.282 239.799 217.996 226.079C213.688 212.287 196.818 205.078 194.557 204.167C191.582 204.741 188.474 205.264 185.244 205.73C167.892 220.078 133.387 221.613 128.732 221.754C127.993 226.844 122.368 269.099 135.523 291.179C142.958 303.657 154.466 314.419 164.619 323.915C174.157 332.834 182.394 340.537 186.264 348.278C190.036 355.826 192.435 363.765 193.922 370.078C193.929 370.1 193.944 370.118 193.949 370.142C193.954 370.161 193.948 370.179 193.95 370.198C195.318 376.034 195.905 380.461 196.07 381.856C197.986 382.176 205.96 383.263 214.302 380.841C219.63 379.293 223.328 374.054 226.904 368.987C229.775 364.919 232.487 361.078 235.973 359.085Z" fill="white"/>
<path d="M194.276 392.522C189.65 395.05 185.28 397.438 179.978 398.391C177.614 398.816 175.168 398.99 172.747 398.99C163.388 398.99 154.374 396.384 151.699 395.539C151.66 398.289 151.883 400.499 151.986 401.35C154.45 402.099 168.738 406.216 179.61 404.376C187.558 403.034 193.564 400.891 197.95 399.327C200.243 398.508 202.055 397.862 203.45 397.583C206.942 396.884 215.835 395.305 217.78 394.961C218.074 393.845 218.886 390.197 218.391 385.827C208.022 385.022 201.035 388.828 194.276 392.522Z" fill="#898786"/>
<path d="M238.576 369.6C235.064 370.801 230.919 371 228.556 371C227.865 371 227.327 370.983 227.001 370.969C226.087 372.255 225.155 373.53 224.181 374.741C227.843 374.912 239.094 375.045 244.668 370.673C250.285 366.267 252.484 359.869 253.055 357.884C252.234 357.745 250.659 357.527 248.679 357.481C248.1 362.885 244.114 367.708 238.576 369.6Z" fill="white"/>
<g opacity="0.25">
<path d="M56.8249 304.849C51.4924 299.988 52.2252 288.901 52.2252 288.901C50.8541 289.392 49.5955 289.883 48.464 290.354C46.6027 298.296 47.3325 304.327 50.6419 308.278C55.1917 313.708 63.201 313.335 63.3792 313.326L63.3834 313.326L63.3852 313.326C63.4755 313.32 63.5613 313.339 63.6414 313.37C63.648 313.373 63.6551 313.371 63.6614 313.374C63.7463 313.41 71.4172 316.605 80.6355 315.593C84.1396 314.256 88.9976 311.372 94.1262 307.677C94.7669 306.432 95.1788 305.175 95.4222 304.015C93.6852 305.581 88.5268 309.785 82.382 310.618C74.7978 311.645 62.1577 309.709 56.8249 304.849Z" fill="#001364"/>
</g>
<g opacity="0.25">
<path d="M129.862 281.187C129.854 281.21 129.844 281.239 129.835 281.262L129.893 281.281C129.883 281.25 129.872 281.218 129.862 281.187Z" fill="#001364"/>
</g>
<g opacity="0.25">
<path d="M133.022 259.327C132.886 259.808 132.769 260.284 132.674 260.753C131.981 264.16 132.428 266.908 133.967 268.7C135.316 270.269 137.518 271.076 140.348 271.053C140.222 269.928 140.166 268.82 140.165 267.699C140.165 266.683 140.221 265.666 140.344 264.658C137.923 265.537 134.995 262.795 133.022 259.327Z" fill="#001364"/>
</g>
<g opacity="0.25">
<path d="M163.546 274.376C163.932 274.891 164.348 275.4 164.771 275.863C165.998 276.224 173.839 278.197 179.419 271.799C179.463 269 179.325 265.72 178.805 262.25C177.974 264.166 175.993 267.516 171.891 269.048C165.966 271.261 160.04 267.704 160.04 267.704C160.04 267.704 157.512 270.865 150.639 270.549C145.513 270.313 142.31 267.155 141.011 265.563C141.005 266.264 141.029 266.966 141.083 267.666C141.18 268.934 141.355 270.22 141.617 271.438C142.045 272.166 145.865 278.268 154.068 279.227C161.378 280.083 163.32 277.313 163.739 276.459C163.389 275.936 163.072 275.413 162.773 274.871C162.417 274.218 162.089 273.552 161.807 272.866C161.247 271.499 160.836 270.038 160.87 268.573C161.043 270.027 161.637 271.361 162.355 272.594C162.718 273.211 163.121 273.803 163.546 274.376Z" fill="#000072"/>
</g>
<g opacity="0.25">
<path d="M199.541 379.216C199.541 379.216 207.204 379.611 210.68 378.189C224.825 373.205 220.081 365.939 228.456 359.775C236.83 353.61 245.283 352.583 245.283 352.583C245.283 352.583 234.934 349.738 226.698 351.951C218.461 354.163 207.994 361.197 205.94 361.039C203.886 360.881 197.25 343.968 188.955 331.559C180.66 319.149 145.109 287.066 153.641 287.303C162.173 287.541 168.691 285.407 168.691 285.407C168.691 285.407 177.46 288.845 193.695 288.689C207.163 288.561 212.743 286.388 214.256 285.651C213.733 284.014 213.336 282.804 213.111 282.123C209.279 283.797 204.663 284.384 200.081 284.385C189.84 284.385 179.776 281.463 179.064 281.252C178.759 281.162 178.575 280.854 178.637 280.543C178.654 280.463 179.18 277.754 179.364 273.63C173.865 278.869 166.757 277.614 164.769 277.126C164.163 278.239 162.216 280.612 156.647 280.612C155.822 280.612 154.918 280.56 153.926 280.444C145.63 279.473 141.601 273.754 140.693 272.282C137.337 272.38 134.687 271.416 133.039 269.498C131.245 267.408 130.703 264.301 131.474 260.509C131.655 259.618 131.911 258.702 132.233 257.774C130.669 253.986 128.342 238.996 127.497 233.313C126.396 247.675 126.056 271.738 133.756 287.864C134.556 289.287 135.426 290.852 136.301 292.431C143.491 303.97 154.055 314.029 163.61 322.97C166.751 325.704 170.961 329.58 175.382 334.261C178.23 337.167 180.754 339.984 182.813 342.767C182.828 342.787 182.844 342.806 182.86 342.825C194.224 357.014 199.541 379.216 199.541 379.216Z" fill="#000072"/>
</g>
<g opacity="0.25">
<path d="M77.6729 325.475C74.86 329.111 44.0266 347.288 39.0496 346.221C34.0726 345.154 32.295 334.603 32.295 334.603C32.0056 334.708 31.712 335.008 31.4241 335.463C26.1673 349.714 31.7072 367.834 33.8388 373.81C34.625 370.904 36.8774 365.553 43.281 360.251C49.0335 355.489 60.4524 348.842 73.6747 341.146C81.6299 336.516 89.8559 331.727 97.7011 326.852C117.472 314.565 128.48 281.56 129.26 279.156C126.496 269.236 125.679 257.947 125.693 247.974C125.505 255.501 124.322 274.864 117.275 285.407C112.722 292.218 104.219 300.134 96.0461 306.265C94.5107 310.495 90.8915 314.796 84.0915 316.274C74.0483 318.458 65.1981 315.297 63.4725 314.619C63.1101 314.832 62.7481 315.042 62.3861 315.25L62.3155 315.794C64.6856 321.602 80.4858 321.84 77.6729 325.475Z" fill="#000072"/>
</g>
<g opacity="0.25">
<path d="M83.8314 315.077C89.4422 313.857 92.5157 310.807 94.1262 307.677C88.9976 311.372 84.1396 314.256 80.6355 315.593C81.6843 315.478 82.7515 315.312 83.8314 315.077Z" fill="#001364"/>
</g>
<g opacity="0.25">
<path d="M83.8314 315.077C89.4422 313.857 92.5157 310.807 94.1262 307.677C88.9976 311.372 84.1396 314.256 80.6355 315.593C81.6843 315.478 82.7515 315.312 83.8314 315.077Z" fill="#001364"/>
</g>
<g opacity="0.25">
<path d="M105.714 385.083C105.349 385.186 104.983 385.289 104.623 385.391C103.814 385.62 103.019 385.844 102.229 386.065L102.226 386.066C102.226 386.066 100.394 388.226 95.6542 391.15C90.9142 394.074 74.6436 396.094 74.6436 396.094C81.3946 396.475 89.9417 395.967 99.2694 393.072C102.226 390.319 104.717 386.642 105.714 385.083Z" fill="#001364"/>
</g>
<g opacity="0.25">
<path d="M132.052 382.043C127.592 381.735 118.919 381.521 111.138 383.589L106.536 390.213L105.93 390.63C107.559 389.938 109.203 389.17 110.858 388.314C111.031 388.224 111.238 388.223 111.412 388.31C111.588 388.398 111.71 388.564 111.742 388.757L112.451 393.012C118.486 393.296 126.962 393.414 131.128 392.87C132.512 390.694 132.053 382.046 132.052 382.043Z" fill="#001364"/>
</g>
<g opacity="0.25">
<path d="M215.707 385.73C208.851 385.716 203.509 387.746 198.611 390.219C198.567 390.317 194.873 398.672 191.83 401.41C194.145 400.682 196.182 399.957 197.95 399.326C200.243 398.508 202.055 397.862 203.45 397.583C206.024 397.068 211.531 396.074 215.029 395.45C215.914 392.964 215.781 387.563 215.707 385.73Z" fill="#001364"/>
</g>
<g opacity="0.25">
<path d="M191.034 394.266C190.113 394.748 189.188 395.205 188.255 395.64C184.806 401.063 178.133 404.112 176.682 404.726C177.677 404.65 178.657 404.537 179.61 404.376C181.426 404.069 183.135 403.72 184.752 403.346C188.024 401.057 190.269 396.137 191.034 394.266Z" fill="#001364"/>
</g>
<g opacity="0.25">
<path d="M133.311 336.82C131.021 336.583 128.74 336.23 126.504 335.679C124.272 335.121 122.069 334.441 119.938 333.582C115.679 331.881 111.612 329.623 108.136 326.661C110.012 327.955 111.987 329.081 114.026 330.067C116.054 331.073 118.148 331.935 120.273 332.69C124.529 334.181 128.947 335.197 133.428 335.602C134.546 335.729 135.67 335.775 136.793 335.835C137.917 335.844 139.043 335.884 140.167 335.828C142.42 335.801 144.661 335.539 146.896 335.239C150.722 334.647 154.503 333.712 158.207 332.477C150.146 333.41 124.651 332.017 120.105 326.218C115.484 320.322 128.519 301.41 131.745 301.648C134.972 301.885 143.095 310.42 151.734 317.533C155.433 320.578 161.711 326.166 167.684 331.561L167.682 331.559C167.682 331.559 173.361 335.057 178.093 338.961C174.031 334.397 168.993 329.682 163.783 324.809C153.57 315.258 141.994 304.433 134.471 291.806C132.689 288.814 131.251 285.458 130.089 281.884C130.088 281.884 130.085 281.882 130.084 281.882C129.645 281.965 129.735 281.548 129.735 281.548L129.733 281.549C126.934 289.423 116.165 316.819 98.3469 327.892C92.2921 331.655 86.0167 335.362 79.8134 338.985L79.5826 341.838C88.3961 338.286 98.0243 332.667 101.579 331.852C105.134 331.037 115.484 336.382 116.432 337.804C117.38 339.227 117.696 355.902 111.612 358.905C105.529 361.908 98.7747 359.083 93.0867 359.498C87.3985 359.913 83.437 363.466 83.437 363.466L83.4349 363.469C86.1524 362.984 89.5626 362.938 93.4577 364.087C104.82 367.442 112.897 368.245 118.878 366.613C124.639 365.04 130.513 366.521 132.646 367.181C132.673 362.927 133.171 344.76 139.541 339.412C140.409 338.235 141.186 337.372 141.647 336.895C138.874 337.108 136.081 337.092 133.311 336.82Z" fill="#000072"/>
</g>
<g opacity="0.25">
<path d="M106.833 372.656C103.752 375.857 90.2425 380.362 79.2397 380.481C68.2369 380.599 62.3944 378.11 62.3944 378.11C60.3406 381.034 60.9209 387.076 60.9209 387.076L60.9212 387.076C65.3906 387.79 73.121 388.798 80.394 388.641C89.2843 388.453 96.238 386.488 104.289 384.212C106.374 383.623 108.53 383.014 110.823 382.405C120.261 379.898 130.948 380.671 134.222 380.995L134.426 380.516C134.031 376.792 133.385 372.591 132.714 368.492C131.239 368.006 125.056 366.195 119.2 367.795C116.484 368.535 113.369 368.798 109.754 368.573C109.754 368.573 109.914 369.456 106.833 372.656Z" fill="#000072"/>
</g>
<g opacity="0.25">
<path d="M135.523 291.179C135.774 291.6 136.041 292.014 136.301 292.431C135.426 290.852 134.556 289.287 133.756 287.864C134.304 289.011 134.892 290.119 135.523 291.179Z" fill="#001364"/>
</g>
<g opacity="0.25">
<path d="M135.523 291.179C135.774 291.6 136.041 292.014 136.301 292.431C135.426 290.852 134.556 289.287 133.756 287.864C134.304 289.011 134.892 290.119 135.523 291.179Z" fill="#001364"/>
</g>
<g opacity="0.25">
<path d="M205.236 382.317C204.247 382.349 203.502 382.372 203.4 382.374C203.989 382.368 204.604 382.349 205.236 382.317Z" fill="#001364"/>
</g>
<g opacity="0.25">
<path d="M168.908 370.368C174.473 371.404 182.471 371.872 192.597 369.797C191.12 363.655 188.783 356.058 185.168 348.826C184.588 347.664 183.881 346.49 183.089 345.306V345.628C183.089 345.628 175.66 338.766 167.684 331.561C175.956 339.779 184.136 360.012 179.08 363.489C174.024 366.966 160.646 367.914 160.645 367.914L160.646 367.914L164.523 369.323C164.523 369.323 166.558 369.802 168.908 370.368Z" fill="#000072"/>
</g>
<g opacity="0.25">
<path d="M176.394 388.621C169.126 391.387 156.288 389.016 156.288 389.016C155.063 390.913 154.945 394.548 154.945 394.548C154.93 394.743 155.238 395.063 155.835 395.439C161.394 396.862 171.145 398.732 179.761 397.185C184.868 396.268 189.153 393.926 193.69 391.447C199.966 388.016 206.453 384.505 215.607 384.505L215.291 381.808C215.078 381.883 214.862 381.954 214.644 382.017C210.358 383.262 206.221 383.618 202.888 383.618C198.574 383.618 195.603 383.021 195.388 382.977C195.126 382.923 194.929 382.704 194.903 382.437C194.894 382.347 194.412 377.662 192.878 370.989C188.408 371.908 184.356 372.349 180.735 372.469C179.497 374.385 176.154 379.948 176.154 379.948C176.599 380.179 177.047 380.431 177.5 380.704C177.767 380.864 177.856 381.194 177.734 381.471C179.449 383.413 181.332 386.741 176.394 388.621Z" fill="#001364"/>
</g>
<g opacity="0.25">
<path d="M167.684 331.561C175.66 338.766 183.089 345.628 183.089 345.628V345.306C181.696 343.225 180.007 341.11 178.093 338.961C173.361 335.057 167.682 331.559 167.682 331.559L167.684 331.561Z" fill="#001364"/>
</g>
<g opacity="0.25">
<path d="M167.684 331.561C175.66 338.766 183.089 345.628 183.089 345.628V345.306C181.696 343.225 180.007 341.11 178.093 338.961C173.361 335.057 167.682 331.559 167.682 331.559L167.684 331.561Z" fill="#001364"/>
</g>
<g opacity="0.25">
<path d="M190.851 270.826C187.533 268.81 183.475 257.904 183.475 257.904C186.524 274.012 183.481 281.077 183.475 281.09C188.16 282.132 196.165 283.527 203.585 282.986C207.561 282.62 210.611 281.827 212.95 280.839C214.982 279.91 216.75 278.646 218.103 276.962C224.833 268.587 224.338 254.407 221.985 241.876C221.976 242.03 221.158 256.516 215.618 262.883C210.048 269.285 194.169 272.841 190.851 270.826Z" fill="#000072"/>
</g>
<g opacity="0.25">
<path d="M115.168 213.705C109.089 211.071 102.744 206.133 100.418 204.619C99.0357 204.367 97.6784 204.103 96.3493 203.824C96.1122 203.943 95.6584 204.175 95.0156 204.524C97.6937 207.15 109.916 218.228 127.348 220.43C126.96 219.657 126.145 218.348 125.072 216.789C125.049 216.79 122.482 216.873 115.168 213.705Z" fill="#000072"/>
</g>
<g opacity="0.25">
<path d="M180.229 209.267C180.223 209.27 180.218 209.273 180.214 209.276C180.216 209.275 180.227 209.27 180.227 209.27L180.229 209.267Z" fill="#001364"/>
</g>
<g opacity="0.25">
<path d="M150.205 213.705C140.487 216.212 131.745 216.532 131.745 216.532C131.745 216.532 131.127 217.144 130.464 217.809C129.868 218.788 129.458 219.635 129.195 220.254C129.235 220.341 129.274 220.426 129.313 220.509C135.395 220.279 164.948 218.56 181.962 206.686L182.338 206.127C177.134 206.809 171.645 207.35 165.902 207.721C163.259 209.074 157.342 211.863 150.205 213.705Z" fill="#000072"/>
</g>
<g opacity="0.25">
<path d="M65.9496 278.175C54.9289 280.428 44.2637 277.583 44.2637 277.583C44.035 277.625 43.8335 277.818 43.6544 278.112C43.156 281.85 42.3339 288.387 42.1767 291.943C46.3776 289.709 63.9338 281.232 83.9542 283.633C84.0732 283.355 84.2362 282.981 84.4374 282.533C87.4993 272.497 91.8846 253.843 89.7005 234.501C89.7005 234.501 87.8727 240.359 85.5025 251.028C83.1324 261.698 76.9703 275.923 65.9496 278.175Z" fill="#001364"/>
</g>
<g opacity="0.4">
<path d="M63.6981 394.39C63.6981 394.39 62.7886 389.399 62.9871 389.026C63.1855 388.654 62.0785 388.068 61.407 388.028C60.7355 387.989 58.247 388.028 58.247 388.028C58.247 388.028 57.8413 389.121 57.8706 389.269C57.8999 389.417 58.9913 392.812 59.5128 393.19C60.0343 393.567 63.6981 394.39 63.6981 394.39Z" fill="white"/>
</g>
<g opacity="0.4">
<path d="M59.432 379.453C59.432 379.453 61.9205 375.462 65.8706 374.04C69.8207 372.617 74.9809 372.617 78.5234 370.681C82.0659 368.745 83.1719 367.852 87.754 367.429C92.3361 367.006 97.7872 367.148 97.7872 367.148C97.7872 367.148 92.9759 364.191 87.9159 363.781C85.6245 363.595 83.3546 363.939 81.5356 364.386C79.3378 364.926 77.7979 365.615 77.6729 365.702C77.4443 365.86 77.1167 367.746 71.6714 369.075C66.2261 370.404 63.1208 370.602 60.9209 372.143C58.721 373.684 59.432 379.453 59.432 379.453Z" fill="white"/>
</g>
<g opacity="0.4">
<path d="M81.8811 363.809C82.0659 363.588 83.4287 346.517 82.2437 344.62C81.0586 342.724 79.6202 342.319 79.242 342.724C78.8638 343.129 78.0071 365.259 78.0071 365.259L81.8811 363.809Z" fill="white"/>
</g>
<g opacity="0.4">
<path d="M155.597 402.53L154.944 396.473L151.903 396.205C151.903 396.205 151.965 401.047 152.329 401.453C152.693 401.859 155.597 402.53 155.597 402.53Z" fill="white"/>
</g>
<g opacity="0.4">
<path d="M153.009 392.533C153.009 392.533 155.458 385.908 161.028 382.997C166.597 380.085 175.643 381.228 175.643 381.228C175.643 381.228 173.704 377.637 166.438 377.557C166.438 377.557 167.98 372.092 167.941 371.88C167.901 371.669 163.99 370.093 163.911 370.367C163.832 370.641 163.624 374.48 161.971 376.749C160.317 379.018 156.999 381.867 156.762 382.043C156.525 382.219 151.074 388.593 153.009 392.533Z" fill="white"/>
</g>
<g opacity="0.4">
<path d="M163.61 368.619C163.61 368.619 162.884 361.75 160.396 354.717C157.907 347.683 146.215 336.457 146.215 336.457L142.66 337.043C142.66 337.043 150.263 342.806 154.2 351.542C158.136 360.277 160.038 367.628 160.038 367.628L161.265 368.619H163.61Z" fill="white"/>
</g>
<path d="M199.995 285.848C189.503 285.848 179.364 282.906 178.638 282.691C177.588 282.38 176.95 281.318 177.168 280.244C177.215 280.012 181.736 256.621 168.225 242.366C167.704 241.816 167.517 241.03 167.735 240.305C167.93 239.653 169.096 236.824 174.711 235.919L168.015 226.143C167.356 225.18 167.602 223.865 168.564 223.206C169.526 222.546 170.84 222.791 171.5 223.754L180.269 236.557C180.712 237.204 180.761 238.043 180.395 238.737C180.03 239.43 179.311 239.865 178.527 239.865C175.275 239.865 173.528 240.44 172.621 240.946C183.957 254.358 182.486 273.031 181.632 279.117C188.001 280.716 209.506 285.266 216.934 276.022C226.743 263.817 219.943 237.343 216.565 226.527C212.195 212.539 193.964 205.542 193.78 205.473C192.689 205.063 192.136 203.846 192.545 202.753C192.954 201.661 194.17 201.107 195.262 201.516C196.09 201.826 215.606 209.29 220.596 225.267C225.044 239.504 230.91 265.375 220.226 278.669C215.761 284.227 207.78 285.847 199.995 285.848Z" fill="#000072"/>
<path d="M178.267 235.655C186.839 235.563 195.397 237.355 203.175 240.913C197.178 239.284 190.928 238.731 184.744 239.124C182.779 239.254 180.657 239.471 178.771 239.851C175.775 240.346 175.229 235.891 178.267 235.655Z" fill="#000072"/>
<path d="M156.601 282.108C155.729 282.108 154.781 282.054 153.752 281.933C145.848 281.01 141.499 276.055 139.895 273.785C135.6 273.697 133.19 271.976 131.901 270.475C129.794 268.021 129.138 264.472 130.004 260.209C131.665 252.041 138.98 241.877 151.118 238.862C163.294 235.839 170.319 238.851 170.612 238.98C171.679 239.452 172.161 240.7 171.689 241.767C171.219 242.83 169.978 243.312 168.915 242.85C168.798 242.801 162.733 240.331 152.136 242.963C141.075 245.71 135.316 255.286 134.144 261.052C133.727 263.099 133.556 265.918 135.105 267.721C136.544 269.397 139.07 269.637 140.932 269.546C141.735 269.505 142.508 269.936 142.895 270.653C143.029 270.895 146.385 276.818 154.242 277.736C159.738 278.379 161.966 276.758 162.404 275.771C162.527 275.196 162.867 274.783 163.379 274.482C163.903 274.175 164.51 274.201 165.086 274.391C165.406 274.494 173.169 276.894 178.437 270.646C179.189 269.755 180.521 269.641 181.414 270.394C182.305 271.146 182.418 272.479 181.666 273.371C176.134 279.932 168.677 279.432 165.405 278.807C164.184 280.281 161.652 282.108 156.601 282.108Z" fill="#000072"/>
<path d="M162.799 277.746C161.451 274.919 160.363 271.714 160.87 268.573C161.755 271.317 163.845 273.37 166.051 275.049C167.09 275.697 167.407 277.065 166.76 278.104C165.805 279.658 163.477 279.403 162.799 277.746Z" fill="#000072"/>
<path d="M138.963 272.062C138.793 266.973 139.36 259.464 144.398 256.837C143.374 257.719 142.7 258.864 142.339 260.082C141.306 263.722 142.015 267.714 143.109 271.249C144.032 274.38 139.296 275.315 138.963 272.062Z" fill="#000072"/>
<path d="M41.5385 295.106C41.1777 295.106 40.8166 295.014 40.4921 294.828C39.8334 294.452 39.4263 293.753 39.4263 292.994C39.4263 288.392 41.265 275.462 41.3432 274.913C44.9755 248.476 59.4635 229.861 70.9776 218.903C83.4283 207.053 94.8844 201.501 95.3659 201.27C96.4182 200.767 97.6791 201.212 98.1828 202.264C98.6863 203.316 98.2417 204.578 97.1894 205.082C97.0183 205.164 85.7289 210.666 73.7846 222.064C62.8027 232.544 48.9857 250.321 45.5264 275.5C45.5103 275.613 44.3391 283.849 43.8555 289.397C50.6068 286.142 66.5802 279.819 84.8124 282.219C85.969 282.372 86.783 283.433 86.631 284.59C86.4787 285.747 85.4146 286.563 84.2612 286.409C62.0886 283.486 42.8058 294.698 42.614 294.812C42.2825 295.008 41.9108 295.106 41.5385 295.106Z" fill="#000072"/>
<path d="M202.889 385.115C198.402 385.115 195.307 384.493 195.084 384.447C194.179 384.259 193.501 383.504 193.41 382.585C193.393 382.411 191.606 365.061 183.827 349.497C180.176 342.194 171.716 334.281 162.758 325.905C152.473 316.286 140.815 305.384 133.183 292.574C118.736 268.327 125.809 222.75 126.117 220.822C126.279 219.808 127.147 219.057 128.173 219.043C128.549 219.037 166.006 218.336 183.71 203.466C184.603 202.716 185.936 202.831 186.686 203.725C187.436 204.619 187.32 205.952 186.426 206.702C169.672 220.775 138.024 222.9 130.043 223.215C128.902 231.778 124.668 270.029 136.811 290.411C144.137 302.706 155.562 313.391 165.643 322.818C175.287 331.837 183.615 339.625 187.605 347.608C194.412 361.227 196.783 375.725 197.419 380.537C200.296 380.908 206.968 381.409 213.884 379.4C218.708 377.999 222.252 372.978 225.679 368.122C228.648 363.914 231.454 359.94 235.229 357.782C239.894 355.115 245.151 354.63 248.964 354.748C241.307 346.264 226.434 334.215 226.26 334.074C225.886 333.772 225.626 333.351 225.524 332.882C219.771 306.598 211.555 282.195 211.473 281.952C211.099 280.846 211.692 279.647 212.796 279.273C213.901 278.897 215.1 279.492 215.474 280.597C215.556 280.841 223.696 305.013 229.491 331.256C232.949 334.08 250.24 348.378 255.562 356.216C256.05 356.934 256.049 357.876 255.56 358.593C255.072 359.31 254.193 359.655 253.35 359.464C253.263 359.446 244.236 357.5 237.325 361.451C234.363 363.144 231.821 366.746 229.129 370.559C225.283 376.01 221.305 381.644 215.062 383.459C210.63 384.745 206.346 385.115 202.889 385.115Z" fill="#000072"/>
<path d="M128.203 223.268C127.991 223.268 127.775 223.236 127.562 223.168C126.71 222.897 126.148 222.134 126.094 221.289C125.398 219.603 120.27 212.224 115.784 207.751C114.958 206.927 114.955 205.589 115.779 204.763C116.602 203.937 117.939 203.935 118.765 204.758C121.081 207.066 123.958 210.525 126.462 214.012C127.109 214.912 127.653 215.7 128.109 216.389C130.2 212.933 134.291 208.209 141.828 205.673C142.933 205.302 144.131 205.896 144.503 207.002C144.875 208.108 144.28 209.306 143.174 209.679C133.618 212.894 130.758 220.169 130.3 221.527C130.27 221.647 130.231 221.757 130.192 221.866C129.884 222.727 129.073 223.268 128.203 223.268Z" fill="#000072"/>
<path d="M128.205 223.268C128.13 223.268 128.054 223.264 127.978 223.256C106.738 220.985 93.0313 206.43 92.4581 205.812C91.6653 204.956 91.716 203.62 92.5715 202.826C93.4264 202.034 94.7616 202.084 95.5545 202.938C95.6848 203.078 108.804 216.956 128.427 219.054C129.587 219.178 130.427 220.219 130.303 221.379C130.187 222.463 129.271 223.268 128.205 223.268Z" fill="#000072"/>
<path d="M34.0323 378.168C33.194 378.168 32.4197 377.668 32.0861 376.874C31.5032 375.486 18.0031 342.686 34.8611 324.664C35.1133 324.394 35.4319 324.196 35.7849 324.087C35.917 324.047 49.1485 319.948 62.3443 312.12C62.9227 311.776 63.6303 311.729 64.2498 311.993C64.3377 312.03 73.4393 315.801 83.5132 313.612C93.3022 311.483 94.5323 303.263 94.18 300.275C93.9038 297.93 90.1883 297.043 90.1508 297.035C89.7926 296.955 89.4517 296.782 89.1796 296.535C87.3801 294.908 83.9739 292.499 82.3818 292.499C80.1949 292.499 78.8321 293.764 78.8192 293.777C78.3116 294.284 77.6251 294.6 76.9234 294.449C76.2389 294.301 75.7155 293.919 75.4557 293.276C75.2537 293.019 74.0259 291.742 70.1083 292.749C65.4717 293.938 64.7383 300.035 64.7316 300.096C64.6021 301.253 63.5595 302.088 62.4052 301.966C61.2486 301.842 60.4104 300.808 60.5311 299.651C60.5694 299.281 61.5594 290.579 69.0592 288.655C73.4135 287.539 76.0562 288.472 77.5499 289.535C78.6731 288.903 80.3111 288.273 82.3818 288.273C85.7787 288.273 90.0808 291.719 91.6082 293.043C94.1372 293.741 97.9049 295.787 98.3752 299.781C99.038 305.406 95.8333 315.256 84.4106 317.74C74.9488 319.799 66.486 317.296 63.6163 316.272C51.6784 323.215 40.2364 327.096 37.5794 327.952C27.0028 339.795 31.0226 359.562 33.9596 369.362C35.4334 366.372 37.9683 362.702 42.3246 359.095C48.1723 354.255 59.641 347.579 72.9206 339.849C80.8665 335.224 89.0827 330.441 96.9097 325.577C116.868 313.174 127.764 278.916 127.872 278.572C128.22 277.458 129.406 276.837 130.518 277.186C131.632 277.534 132.252 278.719 131.904 279.833C131.445 281.301 120.417 315.944 99.1385 329.167C91.26 334.063 83.0168 338.861 75.0448 343.501C62.4726 350.819 50.5974 357.732 45.018 362.351C36.6559 369.273 36.1454 376.116 36.1413 376.184C36.0813 377.164 35.3546 377.974 34.387 378.138C34.2683 378.158 34.1494 378.168 34.0323 378.168Z" fill="#000072"/>
<path d="M62.8791 316.061C60.616 316.061 53.2383 315.611 48.5613 310.037C44.6334 305.356 43.724 298.453 45.8585 289.519C46.1295 288.384 47.2708 287.685 48.4037 287.955C49.5383 288.227 50.2383 289.367 49.9671 290.502C48.1644 298.046 48.7736 303.697 51.7777 307.297C55.8488 312.177 63.2273 311.831 63.2997 311.827C64.4607 311.772 65.46 312.653 65.527 313.815C65.5941 314.978 64.7111 315.975 63.5492 316.046C63.4939 316.049 63.2581 316.061 62.8791 316.061Z" fill="#000072"/>
<path d="M77.3235 294.395C76.3318 294.395 75.4473 293.693 75.2522 292.683L73.7125 284.715C73.4911 283.569 74.24 282.461 75.3852 282.24C76.528 282.016 77.6383 282.768 77.8597 283.913L79.3994 291.881C79.6208 293.027 78.8719 294.135 77.7268 294.357C77.5915 294.383 77.4564 294.395 77.3235 294.395Z" fill="#001364"/>
<path d="M79.9116 291.386C80.0442 295.52 78.8574 299.995 75.7861 302.873C77.4181 299.58 77.1621 295.626 75.7909 292.315C75.1511 291.275 75.4751 289.913 76.5149 289.273C78.1142 288.307 79.9878 289.575 79.9116 291.386Z" fill="#001364"/>
<path d="M92.4196 294.67C91.7037 298.322 90.5537 301.982 88.1491 304.848C89.1847 301.561 88.8772 298.033 88.1964 294.76C87.9051 293.599 88.6094 292.422 89.7696 292.131C91.2785 291.714 92.7623 293.156 92.4196 294.67Z" fill="#001364"/>
<path d="M82.3813 292.499C82.1121 292.499 81.8385 292.447 81.5744 292.337C80.4969 291.892 79.9846 290.656 80.4304 289.577C80.5402 289.312 91.3745 262.687 88.2105 234.669C88.0796 233.51 88.9131 232.464 90.072 232.333C91.2316 232.205 92.2769 233.035 92.4081 234.195C95.698 263.327 84.7987 290.07 84.333 291.194C83.9962 292.008 83.2101 292.499 82.3813 292.499Z" fill="#001364"/>
<path d="M178.723 374.001C165.907 374.001 158.834 370.09 158.444 369.868C157.896 369.557 157.516 369.016 157.407 368.395C154.611 352.408 144.916 343.329 142.07 340.966C137.276 343.294 135.258 357.822 135.371 368.007C135.379 368.705 135.042 369.36 134.472 369.761C133.901 370.161 133.171 370.254 132.518 370.01C132.455 369.987 125.778 367.554 119.594 369.242C113.105 371.012 104.555 370.205 92.6863 366.701C84.1295 364.173 78.2478 368.253 78.1895 368.294C77.5203 368.769 76.6364 368.815 75.9229 368.407C75.2095 368.001 74.7956 367.219 74.8618 366.4L77.1234 338.447C77.2177 337.284 78.232 336.419 79.3991 336.512C80.5616 336.606 81.4279 337.625 81.3339 338.789L79.3719 363.036C82.5666 361.843 87.6684 360.813 93.8819 362.648C104.814 365.875 112.861 366.699 118.483 365.165C123.319 363.846 128.218 364.539 131.185 365.236C131.265 362.511 131.506 358.15 132.208 353.659C133.842 343.21 137.177 337.451 142.118 336.54C142.677 336.437 143.254 336.564 143.719 336.892C144.289 337.294 157.506 346.822 161.37 366.596C164.388 367.933 175.445 371.934 192.91 368.204C194.053 367.962 195.173 368.687 195.416 369.828C195.66 370.969 194.933 372.092 193.792 372.336C188.127 373.546 183.091 374.001 178.723 374.001Z" fill="#000072"/>
<path d="M78.5694 399.009C66.9856 399.009 59.2207 396.186 58.6514 395.974C58.3409 395.857 58.0624 395.67 57.838 395.425C54.5302 391.828 53.9647 385.486 56.1566 376.577C57.4265 371.416 62.1402 368.127 69.4294 367.316C73.5201 366.862 75.4256 365.12 75.505 365.046C76.3496 364.258 77.6817 364.285 78.4812 365.119C79.2808 365.953 79.2723 367.266 78.4487 368.077C78.157 368.364 75.4402 370.9 69.896 371.517C66.0762 371.941 61.3037 373.339 60.2581 377.587C58.5655 384.467 58.7026 389.614 60.6309 392.184C64.1687 393.323 86.0065 399.483 110.168 386.981C110.768 386.671 111.481 386.665 112.084 386.968C112.688 387.271 113.111 387.844 113.222 388.51L113.731 391.567C121.943 391.905 131.064 391.8 132.623 391.013C132.618 391.009 133.499 390.244 133.271 385.003C133.113 381.36 132.466 376.232 131.175 368.374C130.986 367.223 131.765 366.136 132.916 365.946C134.065 365.761 135.154 366.537 135.343 367.689C138.37 386.111 138.262 392.394 134.88 394.583C131.94 396.487 117.777 396.005 111.824 395.71C110.832 395.661 110.008 394.927 109.845 393.947L109.523 392.012C98.015 397.433 87.2264 399.009 78.5694 399.009Z" fill="#000072"/>
<path d="M78.8508 391.382C67.9864 391.382 57.0472 389.172 56.5648 389.074C55.422 388.84 54.6851 387.724 54.9186 386.581C55.1523 385.438 56.2685 384.703 57.4104 384.933C57.5296 384.958 69.4874 387.371 80.3624 387.141C89.0616 386.957 95.9303 385.016 103.883 382.768C105.973 382.177 108.134 381.567 110.438 380.955C121.968 377.892 134.887 379.547 135.432 379.619C136.588 379.771 137.401 380.833 137.249 381.989C137.096 383.146 136.036 383.96 134.879 383.808C134.754 383.791 122.227 382.194 111.523 385.039C109.25 385.642 107.106 386.248 105.032 386.835C96.8001 389.161 89.6907 391.171 80.4514 391.366C79.9196 391.377 79.3845 391.382 78.8508 391.382Z" fill="#000072"/>
<path d="M173.445 407.574C162.501 407.574 151.342 404.011 150.779 403.829C150.016 403.582 149.459 402.924 149.34 402.131C149.306 401.902 148.515 396.468 149.336 390.468C150.049 385.269 153.424 381.899 156.402 378.925C157.22 378.108 157.992 377.337 158.704 376.542C161.47 373.453 161.485 369.758 161.485 369.721C161.48 368.559 162.413 367.604 163.574 367.591H163.597C164.748 367.591 165.689 368.507 165.709 369.66C165.712 369.877 165.756 375.001 161.85 379.361C161.06 380.244 160.209 381.093 159.386 381.916C156.637 384.66 154.04 387.253 153.521 391.041C153.008 394.791 153.202 398.349 153.371 400.194C157.361 401.336 169.787 404.512 179.36 402.897C187.179 401.576 193.114 399.459 197.447 397.913C199.797 397.075 201.653 396.413 203.156 396.112C206.289 395.485 213.523 394.192 216.546 393.655C217.025 391.35 217.728 386.068 215.629 380.829C215.195 379.746 215.721 378.516 216.804 378.082C217.885 377.648 219.116 378.174 219.55 379.257C222.91 387.646 220.386 395.795 220.277 396.137C220.039 396.886 219.405 397.441 218.631 397.577C218.524 397.596 207.866 399.479 203.985 400.256C202.783 400.496 201.054 401.112 198.866 401.893C194.385 403.492 188.249 405.681 180.064 407.063C177.929 407.424 175.691 407.574 173.445 407.574Z" fill="#000072"/>
<path d="M172.644 400.502C161.423 400.502 150.942 396.882 150.406 396.694C149.305 396.308 148.726 395.103 149.111 394.002C149.497 392.902 150.702 392.32 151.802 392.706C151.953 392.759 167.023 397.953 179.496 395.709C184.362 394.835 188.543 392.549 192.97 390.13C199.859 386.364 207.668 382.097 219.138 383.144C220.3 383.25 221.156 384.279 221.049 385.441C220.943 386.602 219.916 387.456 218.754 387.353C208.568 386.425 201.667 390.192 194.995 393.838C190.467 396.313 185.785 398.872 180.243 399.868C177.743 400.317 175.174 400.502 172.644 400.502Z" fill="#000072"/>
<path d="M177.182 383.341C176.811 383.341 176.435 383.243 176.094 383.038C166.306 377.139 158.965 382.387 158.657 382.613C157.721 383.303 156.4 383.107 155.707 382.176C155.013 381.243 155.198 379.929 156.127 379.23C156.523 378.932 165.975 372.008 178.274 379.418C179.273 380.02 179.595 381.319 178.993 382.319C178.596 382.977 177.898 383.341 177.182 383.341Z" fill="#000072"/>
<path d="M108.136 326.661C120.052 332.6 133.44 335.467 146.699 334.073C151.103 333.639 155.506 332.804 160.04 331.841C144.472 342.241 121.145 340.417 108.136 326.661Z" fill="#001364"/>
<path d="M226.145 333.975C220.491 328.137 215.053 322.18 209.8 315.997C204.603 309.823 199.48 303.498 195.354 296.55C197.683 299.843 200.306 302.896 202.993 305.881C208.392 311.829 214.173 317.422 220.067 322.874C223.021 325.593 226.019 328.294 229.039 330.896C231.173 332.869 228.263 335.992 226.145 333.975Z" fill="#000072"/>
<path d="M227.001 377.538C224.606 377.538 222.961 377.401 222.758 377.383C221.596 377.282 220.737 376.257 220.839 375.095C220.94 373.933 221.968 373.08 223.126 373.174C223.268 373.187 237.534 374.362 243.743 369.493C249.98 364.6 251.736 357.022 251.753 356.946C252.007 355.809 253.136 355.09 254.271 355.343C255.408 355.595 256.127 356.717 255.878 357.855C255.797 358.224 253.813 366.964 246.349 372.818C241.177 376.875 232.272 377.538 227.001 377.538Z" fill="#000072"/>
<path d="M228.526 372.499C227.39 372.499 226.653 372.454 226.563 372.449C225.399 372.375 224.515 371.37 224.59 370.206C224.663 369.042 225.674 368.173 226.83 368.231C226.891 368.237 233.079 368.599 237.696 367.022C242.329 365.438 245.751 361.205 246.02 356.726C246.09 355.561 247.092 354.668 248.255 354.743C249.419 354.813 250.306 355.814 250.236 356.979C249.862 363.221 245.371 368.864 239.061 371.021C235.348 372.29 230.994 372.499 228.526 372.499Z" fill="#000072"/>
<path d="M77.3015 364.563C76.6859 364.563 76.0755 364.295 75.6581 363.778C70.1189 356.926 58.8895 352.127 58.7767 352.08C57.7027 351.626 57.1992 350.387 57.6526 349.312C58.106 348.238 59.3437 347.735 60.4183 348.186C60.918 348.397 72.7302 353.436 78.9425 361.122C79.6762 362.029 79.5353 363.359 78.6282 364.093C78.2375 364.409 77.7681 364.563 77.3015 364.563Z" fill="#000072"/>
<path d="M133.293 367.536C132.819 367.536 132.342 367.377 131.948 367.052C131.052 366.309 130.923 364.981 131.664 364.082C131.903 363.792 137.609 356.974 145.945 356.176C150.684 355.725 155.256 357.285 159.532 360.821C160.431 361.564 160.558 362.896 159.815 363.796C159.072 364.695 157.74 364.823 156.841 364.078C145.313 354.547 135.34 366.27 134.92 366.773C134.503 367.276 133.9 367.536 133.293 367.536Z" fill="#000072"/>
<path d="M31.9533 291.422C32.0233 292.714 32.6271 296.115 36.7731 299.533C41.6114 299.466 121.52 298.345 129.732 297.995L128.748 289.261C115.923 289.538 39.5118 291.253 31.9533 291.422Z" fill="#528CFF"/>
<path d="M135.362 287.36C126.706 263.87 112.377 226.884 109.951 225.476C107.458 224.59 47.3758 225.015 7.43414 225.521C5.48973 227.558 2.62753 231.086 2.72499 232.455C3.04786 234.388 20.1696 267.917 31.7129 290.202C39.2681 290.033 129.953 287.998 130.571 287.998C130.773 287.984 132.544 287.747 135.362 287.36ZM59.9433 255.082C52.9848 255.082 47.3232 251.298 47.3232 246.645C47.3232 241.993 52.9848 238.209 59.9433 238.209C66.9018 238.209 72.564 241.993 72.564 246.645C72.564 251.298 66.9024 255.082 59.9433 255.082ZM112.351 248.225L109.377 240.48L107.857 236.626L107.068 234.719C106.931 234.406 106.8 234.085 106.656 233.782C106.519 233.474 106.365 233.163 106.229 232.919C106.223 232.915 106.22 232.907 106.216 232.9L106.193 232.896C106.067 232.872 105.889 232.855 105.73 232.84C105.399 232.811 105.058 232.791 104.718 232.773C104.035 232.737 103.346 232.718 102.658 232.697L98.5185 232.625L90.2261 232.584C79.1659 232.5 68.1012 232.577 57.0369 232.557L40.4395 232.534L23.8399 232.42C29.3703 232.214 34.9019 232.094 40.4335 231.937L57.0297 231.619C62.5622 231.503 68.0953 231.482 73.6283 231.431L90.2305 231.361C92.998 231.378 95.7657 231.407 98.5352 231.454L102.693 231.555C103.387 231.58 104.08 231.605 104.779 231.646C105.129 231.666 105.478 231.689 105.836 231.723C106.021 231.743 106.188 231.757 106.402 231.797L106.561 231.829C106.641 231.847 106.789 231.91 106.884 231.973C107.006 232.086 107.084 232.202 107.172 232.327C107.375 232.686 107.52 232.999 107.664 233.323C107.815 233.646 107.942 233.967 108.081 234.289L108.866 236.222L110.366 240.101C111.354 242.689 112.302 245.29 113.234 247.897C115.105 253.108 116.947 258.328 118.772 263.554C120.557 268.794 122.369 274.024 124.093 279.285L112.351 248.225Z" fill="#528CFF"/>
<path d="M59.9433 239.434C53.6599 239.434 48.5477 242.669 48.5477 246.645C48.5477 250.622 53.6599 253.857 59.9433 253.857C66.2268 253.857 71.3395 250.622 71.3395 246.645C71.3395 242.669 66.2274 239.434 59.9433 239.434Z" fill="white"/>
<path d="M130.571 289.223C130.538 289.223 130.328 289.227 129.978 289.234L130.953 297.894C139.159 296.99 179.896 291.949 183.37 290.372C183.31 289.035 182.173 284.919 181.333 282.177C171.817 283.515 131.201 289.223 130.571 289.223Z" fill="#528CFF"/>
<g opacity="0.25">
<path d="M82.7629 273.63C59.7735 280.506 33.6239 282.177 33.6239 282.177C33.6239 282.177 35.046 285.722 34.8879 286.354C34.73 286.986 120.684 283.667 120.684 283.667L107.659 249.684C107.659 249.684 105.752 266.754 82.7629 273.63Z" fill="#000072"/>
</g>
<g opacity="0.25">
<path d="M37.3369 294.968C37.3369 294.968 40.2045 299.485 40.4164 299.482H40.4206C57.0964 299.246 122.353 298.309 129.732 297.995L129.237 293.603H126.49L37.3369 294.968Z" fill="#000072"/>
</g>
<g opacity="0.25">
<path d="M130.452 293.446L130.953 297.894C135.165 297.43 147.948 295.876 159.864 294.26C170.384 292.656 179.887 291.212 180.119 291.176C180.124 291.176 180.128 291.175 180.132 291.174L179.698 286.788L130.452 293.446Z" fill="#001364"/>
</g>
<g opacity="0.4">
<path d="M102.513 238.209C107.411 238.935 116.884 260.217 116.884 260.217L116.881 260.208L112.351 248.225L109.377 240.48L107.857 236.626L107.068 234.719C106.931 234.406 106.8 234.085 106.656 233.782C106.519 233.474 106.365 233.163 106.229 232.919C106.223 232.915 106.22 232.907 106.216 232.9L106.193 232.896C106.067 232.872 105.889 232.855 105.73 232.84C105.399 232.811 105.058 232.791 104.718 232.773C104.035 232.737 103.346 232.718 102.658 232.697L98.5185 232.625L90.2261 232.584C79.1659 232.5 68.1012 232.577 57.0369 232.557L40.4395 232.534L23.8399 232.42C29.3703 232.214 34.9019 232.094 40.4335 231.937L57.0297 231.619C62.5622 231.503 68.0953 231.482 73.6283 231.431L90.2305 231.361C92.998 231.378 95.7657 231.407 98.5352 231.454L102.693 231.555C103.387 231.58 104.08 231.605 104.779 231.646C105.129 231.666 105.478 231.689 105.836 231.723C106.021 231.743 106.188 231.757 106.402 231.797L106.561 231.829C106.641 231.847 106.789 231.91 106.884 231.973C107.006 232.086 107.084 232.202 107.172 232.327C107.375 232.686 107.52 232.999 107.664 233.323C107.815 233.646 107.942 233.967 108.081 234.289L108.302 234.833L110.018 234.035L132.144 287.797C132.952 287.69 134.04 287.542 135.362 287.36C126.706 263.87 112.377 226.884 109.951 225.476C107.458 224.59 47.3758 225.015 7.43414 225.521C5.48973 227.558 2.62753 231.086 2.72499 232.455C2.80061 232.908 3.79913 235.097 5.43232 238.47C5.43232 238.47 97.6151 237.482 102.513 238.209Z" fill="white"/>
</g>
<path d="M36.559 302.262C36.0772 302.262 35.6097 302.097 35.234 301.795C28.7302 296.553 29.2196 290.853 29.2437 290.613C29.3497 289.551 30.231 288.735 31.2976 288.711C41.219 288.488 126.93 286.565 130.462 286.499C132.446 286.287 167.871 281.319 181.47 279.405C182.491 279.266 183.471 279.881 183.78 280.868C184.713 283.855 186.252 289.127 186.078 290.875C185.888 292.77 184.701 293.223 176.306 294.607C172.005 295.316 166.027 296.184 158.541 297.185C145.754 298.896 132.3 300.494 130.634 300.669C127.623 300.986 45.8972 302.132 36.5883 302.262C36.5786 302.262 36.5689 302.262 36.559 302.262ZM33.7441 292.883C34.1509 294.202 35.1022 296.079 37.3155 298.025C63.0452 297.666 127.625 296.719 130.193 296.467C135.882 295.868 174.07 291.176 181.703 289.307C181.431 288.002 180.873 285.897 180.267 283.842C131.336 290.724 130.762 290.724 130.571 290.724C129.471 290.736 48.6723 292.548 33.7441 292.883Z" fill="#000072"/>
<path d="M31.3468 292.936C30.583 292.936 29.8458 292.521 29.4701 291.795C29.3971 291.655 22.1152 277.598 14.9074 263.45C0.13703 234.46 0.0623403 233.414 0.00757648 232.649C-0.188362 229.903 3.46182 225.7 5.65493 223.44C6.04622 223.037 6.58219 222.806 7.14394 222.799C37.2417 222.417 107.606 221.667 110.94 222.937C112.254 223.438 113.889 224.061 126.406 256.092C132.432 271.513 138.125 286.978 138.182 287.133C138.585 288.228 138.024 289.442 136.929 289.845C135.834 290.248 134.62 289.687 134.218 288.592C124.136 261.188 112.144 230.79 109.2 226.873C102.891 226.123 46.1907 226.534 8.09142 227.013C6.20174 229.066 4.51094 231.385 4.25085 232.3C5.67397 236.247 22.2127 268.606 33.2201 289.851C33.757 290.887 33.3525 292.162 32.3169 292.699C32.0064 292.86 31.674 292.936 31.3468 292.936Z" fill="#000072"/>
<path d="M23.8399 232.42C48.7012 230.298 73.6182 229.64 98.5569 229.953C100.932 230.068 104.341 230.016 106.674 230.37C107.206 230.456 107.788 230.735 108.118 231.179C109.086 232.506 109.526 234.249 110.163 235.702C115.449 250.021 120.072 264.549 124.093 279.285C117.561 264.79 110.887 247.47 105.213 233.927C105.418 234.093 105.689 234.273 105.933 234.32C105.719 234.305 104.872 234.245 104.638 234.236C77.7242 233.858 50.7282 234.21 23.8399 232.42Z" fill="#000072"/>
<path d="M130.41 300.681C129.35 300.681 128.435 299.884 128.314 298.805L127.195 288.873C127.065 287.713 127.898 286.667 129.057 286.537C130.216 286.41 131.262 287.241 131.393 288.4L132.512 298.331C132.642 299.491 131.808 300.537 130.649 300.668C130.569 300.676 130.489 300.681 130.41 300.681Z" fill="#000072"/>
<path d="M59.9436 256.582C52.0258 256.582 45.8234 252.217 45.8234 246.645C45.8234 241.073 52.0258 236.708 59.9436 236.708C67.8613 236.708 74.0637 241.073 74.0637 246.645C74.0637 252.217 67.8613 256.582 59.9436 256.582ZM59.9436 240.934C54.6717 240.934 50.0474 243.603 50.0474 246.645C50.0474 249.687 54.6717 252.356 59.9436 252.356C65.2155 252.356 69.8398 249.687 69.8398 246.645C69.8398 243.603 65.2154 240.934 59.9436 240.934Z" fill="#000072"/>
<path d="M184.446 47.3826C186.283 43.1104 197.312 18.5995 208.415 19.0715C210.305 19.1487 212.11 20.3097 213.782 22.5227C222.082 33.5098 225.78 69.3806 222.835 82.2594C223.267 83.0318 223.691 83.8108 224.101 84.601C226.646 89.5076 228.843 94.2513 230.75 98.8232C237.714 68.4267 230.624 30.9843 219.793 13.1817C216.262 7.37924 212.434 3.84848 208.723 2.97221C193.497 -0.634301 168.106 35.3819 164.14 41.1706C165.035 41.3351 165.93 41.5105 166.823 41.7012C173.018 43.0235 178.908 44.9337 184.446 47.3826Z" fill="#FAA327"/>
<path d="M231.391 187.853C236.941 181.492 240.426 169.945 241.044 156.293C232.809 141.765 221.777 134.697 207.325 134.697C207.26 134.697 207.195 134.697 207.13 134.697C194.895 134.751 182.991 139.889 174.298 143.641C170.415 145.318 167.347 146.641 165.149 147.125C157.535 148.801 149.725 145.68 140.682 142.066C136.438 140.37 132.074 138.634 127.392 137.241C127.455 137.584 127.463 137.984 127.373 138.464C126.562 142.792 118.607 150.408 114.476 150.812C114.175 150.841 113.862 150.855 113.539 150.855C113.261 150.855 112.973 150.842 112.681 150.821L113.458 160.439C114.097 160.885 114.8 161.315 115.513 161.682C116.305 162.112 117.125 162.488 117.96 162.827C119.638 163.48 121.387 163.957 123.173 164.159C123.62 164.192 124.067 164.291 124.517 164.28L125.868 164.295C126.317 164.272 126.764 164.213 127.216 164.18C127.441 164.156 127.669 164.151 127.891 164.111L128.556 163.971C130.362 163.686 132.044 162.931 133.733 162.158C132.206 163.193 130.551 164.153 128.712 164.617L128.03 164.82C127.801 164.88 127.566 164.906 127.333 164.951C126.866 165.028 126.398 165.123 125.926 165.172L124.501 165.24C124.025 165.277 123.552 165.21 123.075 165.194C121.179 165.044 119.299 164.628 117.527 163.94C115.892 163.311 114.355 162.516 112.899 161.492C111.906 162.278 110.838 162.997 109.615 163.395C108.274 163.897 106.817 164.096 105.408 163.97C103.999 163.856 102.629 163.491 101.363 162.93C100.098 162.368 98.9071 161.65 97.876 160.753C99.0351 161.471 100.279 162.024 101.548 162.443C102.823 162.851 104.138 163.095 105.445 163.106C105.771 163.094 106.099 163.115 106.421 163.078L107.384 162.947C107.703 162.895 108.008 162.779 108.321 162.706C108.475 162.663 108.634 162.632 108.785 162.578L109.23 162.388C110.352 161.985 111.309 161.253 112.235 160.503L111.44 150.673C106.839 149.938 101.23 146.981 98.8401 142.926C98.2297 141.891 98.1316 140.851 98.5484 139.834C98.7253 139.403 98.9935 138.998 99.3238 138.618C95.8291 140.317 92.9887 142.324 90.7145 143.934C83.3106 149.173 74.8693 147.048 68.3425 144.611C61.4249 142.034 54.4981 149.151 53.4921 150.24C52.143 160.765 51.8712 167.771 51.867 167.888C51.867 167.894 51.8664 167.901 51.8664 167.908C51.0778 179.308 63.3529 200.022 114.362 205.349C170.153 211.174 219.915 201.006 231.391 187.853Z" fill="white"/>
<path d="M68.7706 145.987C78.1709 149.495 84.522 149.339 90.0078 145.457C93.8302 142.752 99.2058 138.954 106.567 137.25C106.688 137.215 106.772 134.669 106.807 134.66C111.573 133.232 121.735 135.957 126.108 138.117C131.472 139.592 136.376 141.549 141.136 143.451C149.992 146.99 157.641 150.046 164.886 148.452C166.97 147.994 170.141 146.625 173.813 145.04C190.614 137.788 221.62 124.409 241.119 156.528C241.144 155.383 241.151 151.705 241.135 150.536C240.947 136.29 237.65 113.384 223.014 85.1657C214.532 68.8136 201.215 56.308 184.599 48.792C184.575 48.7853 184.55 48.7876 184.526 48.7777C184.489 48.7625 184.463 48.735 184.431 48.7138C178.83 46.1952 172.857 44.2418 166.568 42.8993C160.032 41.5039 153.425 40.8208 146.882 40.8208C141.443 40.8208 136.049 41.2964 130.776 42.2234C130.744 42.2436 130.718 42.2705 130.682 42.285C130.561 42.3333 130.436 42.3294 130.318 42.3018C116.415 44.8188 103.378 50.504 92.638 59.0459C73.0702 74.6087 63.027 103.346 58.0482 124.714C56.0488 133.296 54.685 143.926 53.7585 150.752C56.357 148.302 62.4184 143.614 68.7706 145.987Z" fill="#FAA327"/>
<path d="M88.3313 25.749C88.3067 25.7484 88.2822 25.7478 88.2577 25.7478C80.1482 25.7478 78.4603 59.8856 77.8236 72.7615C77.8122 72.9886 77.8014 73.2101 77.7904 73.4288C81.8361 67.619 86.4975 62.3643 91.8763 58.0864C96.9044 54.0878 102.428 50.7062 108.304 47.9725C108.257 47.9261 108.212 47.8765 108.181 47.8141C108.073 47.5958 97.218 25.9739 88.3313 25.749Z" fill="#F85189"/>
<path d="M76.4651 75.3852C76.5079 74.5751 76.5524 73.6767 76.6002 72.7004C77.8385 47.6692 80.1106 24.5227 88.2523 24.5227C88.2894 24.5227 88.3253 24.5233 88.3623 24.5239C97.9815 24.7674 108.82 46.3498 109.277 47.2685C109.316 47.3457 109.335 47.4271 109.34 47.5081C115.736 44.6347 122.532 42.5168 129.554 41.2019C126.329 34.4866 112.508 18.4052 100.515 12.407C94.9902 9.6436 90.7492 9.07897 87.1677 10.6329C81.5701 13.0607 76.9721 20.8891 72.6989 35.2688C66.2662 56.9115 65.8686 86.3004 65.9188 95.6333C68.81 88.6302 72.2911 81.7167 76.4651 75.3852Z" fill="#FAA327"/>
<path d="M125.678 136.748C125.003 136.563 124.323 136.384 123.634 136.216C117.049 134.616 111.441 134.843 106.685 135.969C104.68 136.57 100.545 138.19 99.6808 140.3C99.4142 140.951 99.4841 141.607 99.8949 142.304C102.582 146.862 110.007 150.014 114.358 149.593C117.953 149.242 125.46 142.026 126.17 138.238C126.349 137.279 126.014 136.932 125.678 136.748Z" fill="#000072"/>
<path d="M208.364 20.2952C208.278 20.2916 208.189 20.2898 208.102 20.2898C197.987 20.2898 187.285 43.9309 185.565 47.8887C200.853 54.9125 213.361 66.1208 221.91 80.6438C224.3 66.9869 220.672 33.6755 212.805 23.2613C211.365 21.3545 209.871 20.3568 208.364 20.2952Z" fill="#F85189"/>
<g opacity="0.25">
<path d="M108.181 47.8141C108.073 47.5958 97.218 25.9739 88.3313 25.749C88.3067 25.7484 88.2822 25.7478 88.2577 25.7478C83.9396 25.7478 81.4424 35.427 79.9551 46.4213C79.9551 46.4205 79.9557 46.4193 79.9557 46.4185C79.9557 46.4185 83.3716 32.2225 89.2945 31.7781C93.6536 31.451 102.465 47.603 103.855 50.2047C105.314 49.4189 106.797 48.6737 108.304 47.9725C108.257 47.9261 108.212 47.8765 108.181 47.8141Z" fill="#001364"/>
</g>
<path d="M97.0383 23.4207C88.8206 16.6636 81.8882 19.5086 78.57 27.5105C75.2519 35.5123 69.0056 59.8142 69.9069 86.8427L69.9467 86.7809C71.906 82.8537 74.0678 79.0219 76.4651 75.3854C76.5079 74.5752 76.5524 73.6769 76.6002 72.7006C77.8385 47.6694 80.1106 24.5229 88.2523 24.5229C88.2894 24.5229 88.3253 24.5235 88.3623 24.5241C97.9815 24.7675 108.82 46.3499 109.277 47.2686C109.312 47.338 109.327 47.411 109.333 47.4839L109.536 47.4238C110.963 46.7871 112.41 46.1895 113.874 45.6284C112.395 43.046 104.454 29.5185 97.0383 23.4207Z" fill="#EF7F25"/>
<g opacity="0.25">
<path d="M209.416 28.6366C214.851 31.6654 219.824 43.123 219.994 43.5185C218.32 34.9569 215.891 27.3458 212.805 23.2613C211.365 21.3545 209.871 20.3568 208.364 20.2952C208.278 20.2916 208.189 20.2898 208.102 20.2898C197.987 20.2898 187.285 43.9309 185.565 47.8887C188.854 49.4 192.006 51.1166 195.027 53.0067C196.46 48.7274 204.4 25.8409 209.416 28.6366Z" fill="#001364"/>
</g>
<path d="M230.431 77.3588C229.664 57.9507 227.271 39.3846 222.637 28.0042C218.002 16.6238 211.154 10.2224 200.41 17.4141C189.666 24.6059 177.534 44.6713 177.534 44.6713L177.563 44.6864C179.912 45.4965 182.209 46.3932 184.446 47.3824C186.283 43.1102 197.312 18.5993 208.415 19.0713C210.305 19.1485 212.11 20.3095 213.782 22.5225C221.757 33.0789 225.482 66.6025 223.15 80.6377L223.15 80.6437C223.15 80.6437 223.032 81.6463 222.943 82.4596C223.337 83.167 223.726 83.8782 224.101 84.6008C226.46 89.149 228.509 93.5505 230.316 97.8117C230.592 95.9512 230.963 90.8476 230.431 77.3588Z" fill="#EF7F25"/>
<g opacity="0.25">
<path d="M212.655 189.385C190.157 196.611 129.818 201.119 95.6936 193.178C52.902 183.22 53.7585 154.004 53.7585 154.004C53.2362 155.977 52.8093 157.811 52.4658 159.537C51.9908 164.697 51.8697 167.81 51.867 167.888C51.867 167.894 51.8664 167.901 51.8664 167.908C51.0778 179.308 63.3529 200.022 114.362 205.349C170.153 211.175 219.915 201.006 231.391 187.853C234.67 184.095 237.22 178.519 238.892 171.778C236.712 175.369 229.984 183.818 212.655 189.385Z" fill="#000072"/>
</g>
<g opacity="0.25">
<path d="M107.662 158.978C106.258 161.554 98.7819 161.178 98.5983 161.168C99.5463 161.687 100.538 162.11 101.548 162.444C102.823 162.851 104.138 163.096 105.445 163.106C105.771 163.094 106.099 163.115 106.421 163.078L107.384 162.947C107.703 162.895 108.008 162.78 108.321 162.707C108.475 162.663 108.634 162.632 108.785 162.578L109.23 162.389C110.352 161.985 111.309 161.253 112.235 160.503L111.44 150.673C110.49 150.521 109.496 150.27 108.497 149.938C108.618 151.992 108.775 156.937 107.662 158.978Z" fill="#001364"/>
</g>
<g opacity="0.25">
<path d="M118.742 158.978C116.807 156.712 116.564 152.005 116.545 150.181C115.795 150.528 115.093 150.752 114.476 150.812C114.175 150.841 113.862 150.855 113.539 150.855C113.261 150.855 112.973 150.842 112.681 150.821L113.458 160.439C114.097 160.885 114.8 161.315 115.513 161.682C116.305 162.112 117.125 162.488 117.96 162.827C119.638 163.48 121.387 163.957 123.173 164.159C123.62 164.192 124.067 164.291 124.517 164.28L125.868 164.295C126.317 164.272 126.764 164.213 127.216 164.18C127.441 164.156 127.669 164.151 127.891 164.111L128.556 163.971C129.233 163.864 129.893 163.691 130.542 163.476C130.542 163.476 121.172 161.823 118.742 158.978Z" fill="#001364"/>
</g>
<g opacity="0.4">
<path d="M205.427 7.06134C215.478 5.85054 224.394 22.663 224.723 23.29C223.206 19.4819 221.55 16.0699 219.793 13.1817C216.262 7.37924 212.434 3.84848 208.723 2.97221C193.497 -0.634301 168.106 35.3819 164.14 41.1706C165.035 41.3351 165.93 41.5105 166.823 41.7012C167.583 41.8634 168.338 42.035 169.089 42.2148L169.091 42.2147C169.091 42.2147 195.185 8.2951 205.427 7.06134Z" fill="white"/>
</g>
<g opacity="0.4">
<path d="M164.603 38.3464L164.602 38.3473C164.603 38.3462 164.604 38.3449 164.605 38.3438L164.603 38.3464Z" fill="white"/>
</g>
<g opacity="0.4">
<path d="M207.441 62.5344C203.986 58.9221 199.875 55.8615 195.441 53.2673C199.799 56.0308 203.86 59.1815 207.59 62.6942C207.54 62.6412 207.492 62.5873 207.441 62.5344Z" fill="white"/>
</g>
<g opacity="0.4">
<path d="M150.904 39.6913C150.898 39.6906 150.892 39.6898 150.887 39.6891C148.664 39.4247 145.877 39.4387 142.734 39.6959C145.445 39.5774 148.171 39.576 150.904 39.6913Z" fill="white"/>
</g>
<g opacity="0.4">
<path d="M95.3382 14.1739C103.175 15.9032 115.835 29.6228 124.423 42.3169C126.118 41.8976 127.829 41.5249 129.554 41.2019C126.329 34.4866 112.508 18.4052 100.516 12.407C94.9902 9.6436 90.7492 9.07897 87.1677 10.6329C84.3689 11.8468 81.82 14.4108 79.4367 18.4687V18.4689C79.4367 18.4689 87.2801 12.3957 95.3382 14.1739Z" fill="white"/>
</g>
<g opacity="0.4">
<path d="M102.332 60.1212C104.809 62.3119 110.312 62.7858 116.121 61.0396C123.304 58.8807 128.231 54.1484 127.126 50.4697C127.005 50.0683 126.807 49.7016 126.559 49.3597C160.24 41.6855 206.177 59.0852 226.34 91.9044C225.3 89.6928 224.198 87.4486 223.014 85.1657C214.532 68.8136 201.215 56.308 184.599 48.792C184.575 48.7853 184.55 48.7876 184.526 48.7777C184.489 48.7625 184.463 48.735 184.431 48.7138C178.83 46.1952 172.857 44.2418 166.568 42.8993C160.032 41.5039 153.425 40.8208 146.882 40.8208C141.443 40.8208 136.049 41.2964 130.776 42.2234C130.744 42.2436 130.718 42.2705 130.682 42.285C130.561 42.3333 130.436 42.3294 130.318 42.3018C116.415 44.8188 103.378 50.504 92.638 59.0459C79.0759 69.8322 70.0917 86.9469 64.1954 103.551C64.4704 103.005 77.9408 76.436 102.332 60.1212Z" fill="white"/>
</g>
<g opacity="0.4">
<path d="M137.59 67.9411C140.321 67.5794 142.332 65.7603 142.082 63.8781C141.833 61.9959 139.418 60.7633 136.688 61.125C133.958 61.4867 131.947 63.3058 132.196 65.1881C132.445 67.0703 134.86 68.3029 137.59 67.9411Z" fill="white"/>
</g>
<g opacity="0.4">
<path d="M112.655 139.662C119.368 138.99 124.715 137.489 124.597 136.31C124.479 135.131 118.941 134.721 112.227 135.394C105.514 136.066 100.167 137.567 100.285 138.746C100.403 139.924 105.941 140.335 112.655 139.662Z" fill="white"/>
</g>
<path d="M147.085 209.797C136.58 209.798 125.515 209.254 114.079 208.06C48.9453 201.258 48.9119 171.328 49.1459 167.754C49.1845 166.79 50.0351 147.108 55.3901 124.117C62.7742 92.4129 74.7362 69.802 90.9428 56.9125C111.391 40.6498 139.873 34.415 167.136 40.2338C192.982 45.7511 213.685 61.2622 225.432 83.9107C252.665 136.414 244.799 176.629 233.444 189.645C223.892 200.594 190.298 209.796 147.085 209.797ZM146.876 42.3204C127.254 42.3204 108.232 48.5605 93.5717 60.2204C56.6223 89.6067 53.3941 167.162 53.366 167.942C53.3651 167.965 53.3637 167.989 53.3622 168.012C53.2562 169.546 53.1941 177.624 62.4266 185.974C72.7483 195.308 90.2744 201.325 114.518 203.857C140.764 206.598 167.578 205.997 190.022 202.167C209.807 198.789 224.85 193.07 230.262 186.866C241.671 173.788 246.552 133.804 221.683 85.8567C210.528 64.3501 190.843 49.6153 166.254 44.3664C159.82 42.9932 153.314 42.3204 146.876 42.3204Z" fill="#000072"/>
<path d="M65.3443 100.737C64.2056 100.737 63.2669 99.8301 63.2344 98.6839C63.1907 97.1507 62.2597 60.8302 70.0872 34.4921C74.6697 19.0727 79.6033 10.9431 86.0839 8.13244C90.4604 6.23503 95.4335 6.81838 101.734 9.96948C114.717 16.463 129.81 34.4198 132.415 40.9309C132.848 42.0144 132.322 43.2441 131.239 43.6777C130.155 44.1104 128.926 43.5845 128.493 42.5013C126.055 36.408 111.575 19.6159 99.8446 13.749C94.6767 11.1643 90.9516 10.6275 87.7638 12.0096C82.6747 14.2167 78.217 21.9648 74.136 35.6963C66.5038 61.3778 67.4463 98.1955 67.4566 98.5644C67.4897 99.7307 66.5712 100.703 65.4052 100.736C65.385 100.737 65.3645 100.737 65.3443 100.737Z" fill="#000072"/>
<path d="M230.915 102.931C230.745 102.931 230.572 102.91 230.4 102.867C229.268 102.583 228.581 101.436 228.864 100.304C236.461 69.9692 229.405 31.8671 218.512 13.9619C215.195 8.50961 211.691 5.21435 208.378 4.43178C195.56 1.40723 172.62 31.0865 164.861 42.7792C164.216 43.751 162.905 44.0165 161.934 43.371C160.962 42.7258 160.696 41.4147 161.341 40.4426C161.414 40.333 168.71 29.3758 178.015 19.0657C190.923 4.76373 201.467 -1.54552 209.349 0.319368C213.85 1.38233 218.146 5.2331 222.12 11.7647C233.455 30.3962 240.824 69.9373 232.962 101.331C232.722 102.29 231.861 102.931 230.915 102.931Z" fill="#000072"/>
<path d="M222.189 84.4629C222.025 84.4629 221.86 84.4438 221.694 84.404C220.559 84.1315 219.861 82.9906 220.133 81.8561C223 69.9177 219.422 34.509 211.608 24.1655C210.813 23.1128 209.594 21.8471 208.303 21.7944C208.239 21.7917 208.172 21.7906 208.107 21.7906C200.751 21.7906 191.104 38.4286 186.711 49.0213C186.264 50.0986 185.028 50.6105 183.951 50.1637C182.874 49.7166 182.362 48.481 182.809 47.4031C184.096 44.2948 195.738 17.0409 208.475 17.5724C210.835 17.6688 213.023 19.0297 214.978 21.618C223.815 33.3153 227.361 69.8494 224.241 82.8429C224.008 83.8118 223.143 84.4629 222.189 84.4629Z" fill="#000072"/>
<path d="M77.0736 77.62C77.0361 77.62 76.9987 77.6191 76.9606 77.6171C75.7958 77.5556 74.9013 76.5611 74.9628 75.3959C75.0068 74.5641 75.0525 73.6353 75.1025 72.6251C76.5754 42.8579 79.3801 23.0222 88.248 23.0222C88.2983 23.0222 88.349 23.0231 88.4003 23.0243C98.7349 23.2859 109.434 44.2151 110.62 46.6006C111.139 47.6451 110.714 48.9132 109.67 49.4329C108.625 49.9518 107.358 49.527 106.838 48.4825C102.792 40.352 94.1794 27.3977 88.2934 27.2486C88.2866 27.2483 88.2799 27.2483 88.2729 27.2483C87.5855 27.2483 84.3078 28.1009 81.8549 43.5626C80.2778 53.5031 79.6791 65.6039 79.3215 72.834C79.2711 73.8492 79.2251 74.7827 79.1809 75.6186C79.1215 76.746 78.1892 77.62 77.0736 77.62Z" fill="#000072"/>
<path d="M113.543 152.356C108.195 152.356 100.616 148.893 97.5479 143.688C96.6988 142.248 96.5647 140.718 97.1604 139.265C98.7226 135.456 105.053 133.576 106.399 133.216C111.496 131.699 122.126 131.896 126.855 134.286C128.472 135.103 129.216 136.769 128.847 138.741C127.913 143.725 119.404 151.839 114.622 152.305C114.275 152.339 113.914 152.356 113.543 152.356ZM107.518 137.29C105.17 137.919 101.623 139.512 101.068 140.87C101.02 140.987 100.954 141.148 101.186 141.542C103.537 145.529 110.313 148.481 114.212 148.099C115.861 147.939 119.806 145.123 122.618 141.596C124.148 139.676 124.613 138.449 124.702 137.939C121.103 136.314 112.018 135.939 107.582 137.272C107.561 137.279 107.539 137.285 107.518 137.29Z" fill="#000072"/>
<path d="M97.8759 160.753C101.28 161.996 105.002 162.721 108.382 161.336L108.753 161.144C109.767 160.708 110.623 159.956 111.481 159.223C112.222 158.59 113.27 158.551 114.046 159.06C117.161 161.14 120.814 162.608 124.535 163.091C127.697 163.501 130.573 163.021 133.733 162.158C127.974 168.36 117.867 167.297 111.599 162.382L114.259 162.283C109.325 166.683 101.951 165.802 97.8759 160.753Z" fill="#000072"/>
<path d="M112.867 162.866C111.778 162.866 110.854 162.028 110.764 160.923L109.907 150.323C109.813 149.16 110.679 148.141 111.842 148.047C113.004 147.95 114.023 148.819 114.117 149.982L114.975 160.582C115.069 161.745 114.203 162.764 113.04 162.859C112.982 162.863 112.924 162.866 112.867 162.866Z" fill="#000072"/>
<path d="M108.136 182.565C114.083 182.248 118.998 183.456 124.885 184.146C120.789 189.323 111.578 187.763 108.136 182.565Z" fill="#000072"/>
<path d="M86.9711 133.25C91.2252 133.25 94.6738 128.261 94.6738 122.107C94.6738 115.953 91.2252 110.964 86.9711 110.964C82.7171 110.964 79.2685 115.953 79.2685 122.107C79.2685 128.261 82.7171 133.25 86.9711 133.25Z" fill="#001364"/>
<path d="M89.8081 123.134C90.9861 123.134 91.9411 121.507 91.9411 119.499C91.9411 117.491 90.9861 115.864 89.8081 115.864C88.63 115.864 87.675 117.491 87.675 119.499C87.675 121.507 88.63 123.134 89.8081 123.134Z" fill="white"/>
<path d="M152.068 131.986C156.835 131.986 160.7 126.395 160.7 119.499C160.7 112.603 156.835 107.012 152.068 107.012C147.301 107.012 143.437 112.603 143.437 119.499C143.437 126.395 147.301 131.986 152.068 131.986Z" fill="#001364"/>
<path d="M149.674 120.65C150.994 120.65 152.064 118.826 152.064 116.576C152.064 114.327 150.994 112.503 149.674 112.503C148.354 112.503 147.284 114.327 147.284 116.576C147.284 118.826 148.354 120.65 149.674 120.65Z" fill="white"/>
<path d="M101.447 95.7993C101.801 92.9683 97.8317 90.1408 92.5819 89.484C87.3321 88.8271 82.7894 90.5896 82.4354 93.4206C82.0815 96.2516 86.0504 99.0791 91.3002 99.736C96.55 100.393 101.093 98.6303 101.447 95.7993Z" fill="white"/>
<path d="M93.5447 101.64C92.7496 101.64 91.9266 101.589 91.0816 101.483C84.6672 100.681 80.1993 97.1206 80.689 93.2021C81.1793 89.2843 86.3876 86.9351 92.8002 87.7367C95.6236 88.09 98.2291 89.0329 100.137 90.3921C102.363 91.978 103.449 93.9762 103.193 96.0178C102.768 99.42 98.7853 101.64 93.5447 101.64ZM90.3948 91.1055C86.7402 91.1055 84.3292 92.462 84.1819 93.6393C84.0097 95.0169 86.7821 97.3963 91.5186 97.9887C96.2533 98.5806 99.5277 96.9583 99.7002 95.5806C99.7849 94.9041 99.1848 94.0369 98.0947 93.2604C96.6745 92.2487 94.5856 91.509 92.3635 91.2309C91.675 91.1448 91.0166 91.1055 90.3948 91.1055Z" fill="#000072"/>
<path d="M144.915 98.4154C150.22 97.5795 154.139 94.4762 153.668 91.484C153.197 88.4918 148.514 86.7438 143.209 87.5797C137.904 88.4156 133.985 91.5189 134.457 94.5111C134.928 97.5033 139.61 99.2513 144.915 98.4154Z" fill="white"/>
<path d="M142.292 100.385C140.469 100.385 138.742 100.102 137.258 99.5483C134.661 98.5791 133.049 96.8874 132.718 94.7852C132.387 92.683 133.401 90.5773 135.574 88.8562C137.461 87.3623 140.075 86.2911 142.935 85.8405C145.795 85.3896 148.612 85.6052 150.867 86.4467C153.463 87.4159 155.075 89.1076 155.406 91.2101C155.738 93.3123 154.723 95.4177 152.55 97.1388C150.663 98.633 148.049 99.7039 145.189 100.155C144.212 100.309 143.239 100.385 142.292 100.385ZM145.822 89.1337C145.059 89.1337 144.27 89.1949 143.483 89.3189C141.244 89.6716 139.158 90.5093 137.759 91.6174C136.642 92.5019 136.072 93.4568 136.195 94.2373C136.318 95.0178 137.154 95.7509 138.488 96.2492C140.16 96.8733 142.404 97.0286 144.642 96.6761C146.88 96.3234 148.966 95.4857 150.365 94.3776C151.482 93.4934 152.052 92.5385 151.929 91.758C151.806 90.9775 150.97 90.2441 149.636 89.7457C148.552 89.3414 147.229 89.1337 145.822 89.1337Z" fill="#000072"/>
<path d="M89.6803 134.395C97.2654 129.781 100.879 119.448 100.428 112.068C100.135 107.275 98.2496 103.857 95.1189 102.442C85.9159 98.285 57.3596 99.5321 55.0242 99.6433C52.0639 101.423 50.0388 104.58 49.1641 108.783C47.573 116.426 49.9682 125.559 53.2035 129.972C58.1584 136.732 78.0521 141.468 89.6803 134.395Z" fill="#000072"/>
<path d="M101.665 114.337C104.499 112.758 113.406 108.635 122.46 113.19C122.184 111.417 122.106 109.613 122.245 107.792C110.593 102.684 102.831 108.038 101.292 109.256C101.47 110.117 101.592 111.03 101.65 111.993C101.697 112.748 101.701 113.532 101.665 114.337Z" fill="#898786"/>
<path d="M123.897 114.209C124.905 118.932 127.453 123.383 131.419 127.185C139.652 135.078 152.495 138.537 164.938 136.213C192.525 131.061 194.145 113.367 193.984 108.067C193.858 103.888 192.616 100.786 190.187 98.5846C185.881 94.68 177.36 93.2176 164.144 94.1178C142.789 95.5706 125.796 105.359 123.588 106.682C123.258 109.219 123.372 111.733 123.89 114.177C123.893 114.187 123.895 114.198 123.897 114.209Z" fill="#000072"/>
<path d="M212.664 102.22C218.251 102.001 224.195 102.63 226.072 108.94C226.487 110.331 226.78 111.683 227.039 112.875C227.884 116.77 228.398 118.622 230.868 118.346C231.639 118.257 232.249 117.013 232.459 115.098C233.079 109.456 230.29 100.021 223.627 97.721C215.152 94.7942 196.721 97.9534 192.1 98.8189C193.387 100.339 194.263 102.169 194.75 104.333C197.237 103.951 207.388 102.427 212.664 102.22Z" fill="#898786"/>
<g opacity="0.25">
<path d="M89.6803 134.395C94.5303 131.445 97.7482 126.156 99.3264 120.797C93.0143 130.695 74.3295 133.862 63.9922 131.499C52.9321 128.97 49.614 117.431 49.614 117.431C49.3377 117.639 49.1294 117.906 48.9655 118.208C49.6166 122.937 51.2537 127.313 53.2035 129.972C58.1584 136.732 78.0521 141.468 89.6803 134.395Z" fill="#001364"/>
</g>
<g opacity="0.25">
<path d="M158.801 136.881C160.843 136.805 162.895 136.595 164.938 136.213C185.584 132.357 191.686 121.477 193.382 114.025C190.327 117.979 178.549 131.336 158.698 131.499C135.398 131.69 124.844 117.432 124.844 117.431C126.161 120.952 128.368 124.261 131.419 127.186C136.007 131.583 142.027 134.6 148.611 136.011C151.744 136.606 155.15 136.916 158.801 136.881Z" fill="#001364"/>
</g>
<g opacity="0.25">
<path d="M228.75 108.659C227.683 105.636 225.076 101.368 219.092 100.064C213.603 98.8684 196.711 101.41 193.949 101.84C194.281 102.617 194.55 103.446 194.75 104.333C197.237 103.951 207.388 102.427 212.664 102.22C218.251 102.001 224.195 102.63 226.072 108.94C226.487 110.331 226.78 111.683 227.039 112.875C227.884 116.77 228.398 118.622 230.868 118.346C231.639 118.257 232.249 117.013 232.459 115.098C232.625 113.591 232.544 111.812 232.215 109.972C231.303 110.39 229.526 110.859 228.75 108.659Z" fill="#001364"/>
</g>
<g opacity="0.4">
<path d="M56.6846 104.615C57.3934 104.31 59.8278 104.091 63.1388 103.97L56.4478 123.359C56.4478 123.359 61.4248 127.271 68.2978 127.508L75.3813 103.927C76.8907 103.962 78.4001 104.011 79.8713 104.075L83.5846 104.615L77.778 127.508H81.0961L88.6145 104.719C90.68 104.964 92.3237 105.264 93.3019 105.623C96.985 106.975 99.0371 108.399 100.031 109.238C99.2831 105.93 97.5916 103.559 95.1189 102.442C85.9159 98.285 57.3596 99.5321 55.0242 99.6433C52.0639 101.423 50.0388 104.58 49.1641 108.783C48.7419 110.811 48.6071 112.943 48.6875 115.065C48.7769 114.908 53.9823 105.777 56.6846 104.615Z" fill="white"/>
</g>
<g opacity="0.4">
<path d="M135.339 121.587C135.339 121.587 141.189 125.864 149.269 126.124L158.43 99.4107C159.925 99.1474 161.419 98.925 162.902 98.7641C162.909 98.7634 162.915 98.7629 162.922 98.7622C165.655 98.7613 167.669 98.7349 167.796 98.6599C167.878 98.6114 168.241 98.4733 168.766 98.2844C168.98 98.2725 169.197 98.2592 169.408 98.2487L160.413 126.124H164.313L174.93 98.1271C184.017 98.1812 189.695 99.5251 191.486 100.021C191.095 99.509 190.672 99.0236 190.187 98.5846C185.881 94.68 177.36 93.2176 164.144 94.1178C142.789 95.5706 125.796 105.359 123.588 106.682C123.361 108.426 123.349 110.159 123.529 111.866C123.532 111.864 131.426 107.622 141.899 103.907L135.339 121.587Z" fill="white"/>
</g>
<path d="M75.2961 140.568C65.2219 140.568 54.9476 136.96 51.0068 131.584C47.4193 126.69 44.7515 116.616 46.4968 108.228C47.5456 103.188 50.0638 99.3789 53.7793 97.2129C54.0704 97.0432 54.3978 96.9457 54.7344 96.9284C56.0096 96.8625 86.0938 95.3744 96.2399 99.9582C100.336 101.809 102.79 106.05 103.147 111.902C103.647 120.077 99.5934 131.555 91.096 136.723C86.6972 139.4 81.029 140.568 75.2961 140.568ZM55.4856 101.124C53.0304 102.729 51.3987 105.406 50.6323 109.09C49.1468 116.228 51.4383 125.027 54.4131 129.085C58.9577 135.285 78.0838 139.692 88.9011 133.113C95.7273 128.96 99.3614 119.199 98.9311 112.16C98.7821 109.721 98.0083 105.394 94.5013 103.809C85.965 99.9523 59.5827 100.944 55.4856 101.124Z" fill="#000072"/>
<path d="M157.267 139.648C146.722 139.648 136.578 135.905 129.534 129.153C122.877 122.772 119.741 114.337 120.93 106.011C121.018 105.396 121.372 104.851 121.897 104.52C122.645 104.051 140.472 92.9968 163.959 91.3982C178.15 90.434 187.065 92.0747 192.018 96.5657C195.023 99.2908 196.557 103.026 196.707 107.984C196.885 113.832 195.153 133.343 165.437 138.892C162.718 139.4 159.979 139.648 157.267 139.648ZM124.994 107.596C124.354 114.315 126.98 120.852 132.457 126.102C140.347 133.666 152.688 136.975 164.662 134.738C174.886 132.829 182.472 128.99 187.21 123.328C191.785 117.859 192.604 112.035 192.485 108.112C192.37 104.31 191.32 101.636 189.181 99.6966C185.191 96.0793 177.036 94.7445 164.245 95.6144C144.648 96.948 128.766 105.429 124.994 107.596Z" fill="#000072"/>
<path d="M100.615 111.132C100.031 111.132 99.4492 110.892 99.0328 110.42C98.2637 109.549 98.3377 108.223 99.2044 107.449C99.6027 107.093 109.125 98.8114 123.769 105.482C124.831 105.965 125.3 107.218 124.816 108.28C124.333 109.342 123.08 109.81 122.019 109.328C109.965 103.838 102.329 110.33 102.01 110.608C101.608 110.959 101.111 111.132 100.615 111.132Z" fill="#000072"/>
<path d="M101.081 117.513C100.405 117.513 99.7404 117.189 99.3318 116.587C98.6763 115.622 98.9271 114.308 99.8921 113.652C100.391 113.313 112.266 105.419 124.372 112.52C125.378 113.111 125.715 114.405 125.125 115.412C124.535 116.419 123.241 116.756 122.235 116.166C112.406 110.399 102.366 117.079 102.266 117.147C101.902 117.394 101.489 117.513 101.081 117.513Z" fill="#000072"/>
<path d="M230.339 121.103C226.035 121.104 225.12 116.883 224.376 113.453C224.116 112.252 223.847 111.01 223.462 109.718C222.362 106.023 219.362 104.682 212.771 104.943C206.921 105.173 194.737 107.093 194.615 107.112C193.463 107.295 192.381 106.509 192.199 105.356C192.016 104.203 192.803 103.121 193.955 102.939C194.464 102.858 206.507 100.96 212.605 100.721C218.398 100.496 225.325 101.174 227.51 108.512C227.94 109.957 228.24 111.338 228.505 112.557C229.378 116.586 229.738 116.927 230.462 116.878C230.914 116.187 231.476 113.405 230.532 109.272C229.357 104.12 226.592 100.332 223.138 99.1388C213.846 95.9302 191.56 100.448 191.336 100.495C190.194 100.729 189.076 99.9934 188.842 98.8502C188.607 97.7072 189.343 96.5904 190.485 96.3554C191.447 96.1579 214.135 91.5591 224.516 95.1447C232.609 97.9399 235.902 108.701 235.167 115.395C234.646 120.15 232.203 120.936 231.177 121.054C230.884 121.087 230.604 121.103 230.339 121.103Z" fill="#000072"/>
<path d="M64.4504 313.672C64.3841 313.648 64.3228 313.626 64.2645 313.605C64.3228 313.626 64.3841 313.648 64.4504 313.672Z" fill="white"/>
<path d="M64.1996 313.581C64.15 313.563 64.1027 313.545 64.0597 313.529C64.103 313.546 64.1497 313.563 64.1996 313.581Z" fill="white"/>
<path d="M63.9997 313.507C63.9621 313.492 63.9254 313.478 63.8938 313.466C63.9257 313.479 63.9615 313.492 63.9997 313.507Z" fill="white"/>
<path d="M63.8379 313.444C63.8148 313.435 63.7906 313.426 63.7724 313.419C63.7909 313.426 63.8142 313.435 63.8379 313.444Z" fill="white"/>
<path d="M63.7281 313.401C63.7163 313.396 63.7005 313.39 63.692 313.386C63.7011 313.39 63.7148 313.396 63.7281 313.401Z" fill="white"/>
<path d="M82.3818 310.618C88.5265 309.785 93.685 305.581 95.4219 304.015C95.3651 304.287 95.2967 304.565 95.2204 304.846C95.7382 302.933 95.7989 301.2 95.6692 300.099C95.3287 297.208 91.9741 295.997 90.8452 295.669C90.7938 296.239 90.731 296.804 90.6491 297.37C90.5188 298.247 90.3514 299.118 90.1427 299.978C89.9259 300.836 89.6655 301.683 89.3493 302.506C89.018 303.324 88.6264 304.116 88.1486 304.848C88.9328 303.281 89.3188 301.574 89.5409 299.865C89.6449 299.008 89.708 298.148 89.7343 297.288C89.7558 296.526 89.7478 295.752 89.7062 295.005C88.0425 293.592 84.5426 290.998 82.3818 290.998C80.618 290.998 79.2741 291.65 78.5008 292.151C78.603 293.02 78.6263 293.855 78.6018 294.708C78.5674 295.694 78.4499 296.676 78.2481 297.637C78.0583 298.601 77.7303 299.534 77.3336 300.422C76.9414 301.317 76.3823 302.122 75.7856 302.873C76.3013 302.059 76.7614 301.217 77.0493 300.308C77.342 299.405 77.5605 298.481 77.6436 297.54C77.7381 296.603 77.7504 295.659 77.6834 294.724C77.6377 294.109 77.5581 293.484 77.4469 292.881C77.4451 292.882 77.4436 292.883 77.4418 292.883C77.4263 292.887 77.4107 292.886 77.3952 292.888C77.3818 292.89 77.3689 292.891 77.3554 292.892C77.3456 292.892 77.3351 292.895 77.3253 292.895C77.3136 292.895 77.3031 292.89 77.2915 292.889C77.2696 292.888 77.2481 292.89 77.2266 292.886C77.214 292.884 77.2048 292.874 77.1925 292.872C77.1202 292.855 77.0535 292.828 76.9925 292.787C76.9806 292.779 76.9671 292.775 76.9557 292.766C76.8879 292.715 76.8329 292.649 76.7913 292.572C76.788 292.566 76.7815 292.563 76.7782 292.556C76.7226 292.453 75.2852 289.873 69.7354 291.295C64.0672 292.749 63.248 299.862 63.2402 299.934C63.2044 300.27 62.8947 300.517 62.5676 300.479C62.2316 300.443 61.9876 300.142 62.0229 299.806C62.0349 299.692 62.15 298.679 62.5697 297.338C61.399 299.205 59.8369 302.173 58.6205 306.209C64.6211 310.063 75.551 311.543 82.3818 310.618Z" fill="white"/>
<path d="M64.7369 313.771C64.6513 313.742 64.5724 313.715 64.4965 313.688C64.5724 313.715 64.6513 313.742 64.7369 313.771Z" fill="white"/>
<path d="M95.1942 304.943C94.9463 305.831 94.5998 306.757 94.1269 307.676C94.5998 306.756 94.9472 305.832 95.1942 304.943Z" fill="white"/>
<path d="M64.7575 313.779C67.5536 314.735 75.3456 316.922 83.8312 315.077C89.442 313.857 92.5155 310.807 94.126 307.677C88.9974 311.372 84.1394 314.256 80.6353 315.593C73.4472 316.382 67.2008 314.613 64.7575 313.779Z" fill="white"/>
<g opacity="0.25">
<path d="M64.7582 313.779C64.7514 313.776 64.7437 313.774 64.7368 313.771C64.7437 313.774 64.7511 313.776 64.7582 313.779Z" fill="#001364"/>
</g>
<g opacity="0.25">
<path d="M64.2645 313.605C64.2424 313.597 64.2205 313.589 64.1996 313.581C64.2208 313.589 64.2421 313.597 64.2645 313.605Z" fill="#001364"/>
</g>
<g opacity="0.25">
<path d="M63.8938 313.466C63.8734 313.458 63.8555 313.451 63.8379 313.444C63.8561 313.452 63.8725 313.458 63.8938 313.466Z" fill="#001364"/>
</g>
<g opacity="0.25">
<path d="M64.4972 313.688C64.4817 313.683 64.4656 313.677 64.4504 313.672C64.4656 313.677 64.4814 313.683 64.4972 313.688Z" fill="#001364"/>
</g>
<g opacity="0.25">
<path d="M64.0597 313.529C64.0385 313.521 64.0184 313.514 63.999 313.506C64.0187 313.514 64.0379 313.521 64.0597 313.529Z" fill="#001364"/>
</g>
<g opacity="0.25">
<path d="M63.7731 313.419C63.7549 313.412 63.7415 313.406 63.7276 313.401C63.7418 313.407 63.7543 313.412 63.7731 313.419Z" fill="#001364"/>
</g>
<g opacity="0.25">
<path d="M95.2206 304.846C95.2119 304.879 95.2032 304.911 95.1942 304.944C95.2032 304.911 95.2119 304.879 95.2206 304.846Z" fill="#001364"/>
</g>
<g opacity="0.25">
<path d="M94.1275 307.676L94.126 307.678V307.678L94.1275 307.676Z" fill="#001364"/>
</g>
<g opacity="0.25">
<path d="M63.6925 313.387C63.6767 313.38 63.6639 313.375 63.6612 313.374C63.6639 313.375 63.6746 313.379 63.6925 313.387Z" fill="#001364"/>
</g>
<path d="M95.1942 304.943C95.2031 304.911 95.2118 304.879 95.2205 304.846C95.2967 304.565 95.3652 304.287 95.422 304.015C93.685 305.581 88.5265 309.785 82.3818 310.618C75.551 311.543 64.6211 310.063 58.6205 306.209C58.06 308.068 57.5733 310.154 57.2321 312.463C60.4588 313.461 63.2743 313.331 63.379 313.326L63.3832 313.326L63.385 313.326C63.4752 313.32 63.561 313.339 63.6412 313.37C63.6477 313.373 63.6549 313.371 63.6612 313.374C63.6639 313.375 63.6764 313.38 63.692 313.386C63.7004 313.39 63.7159 313.396 63.7276 313.401C63.7413 313.406 63.7545 313.412 63.7724 313.419C63.7906 313.426 63.8149 313.435 63.8379 313.444C63.8555 313.451 63.8735 313.458 63.8938 313.466C63.9252 313.478 63.9616 313.492 63.999 313.506C64.0184 313.514 64.0385 313.521 64.0597 313.529C64.1028 313.546 64.15 313.563 64.1996 313.581C64.2205 313.589 64.2424 313.597 64.2645 313.605C64.3228 313.626 64.3841 313.648 64.4504 313.672C64.4654 313.677 64.4812 313.683 64.4965 313.688C64.5724 313.715 64.6513 313.742 64.7368 313.772C64.7434 313.774 64.7509 313.776 64.7575 313.779C67.2008 314.613 73.4472 316.382 80.6353 315.593C84.1394 314.256 88.9974 311.372 94.126 307.677L94.1269 307.676C94.5998 306.756 94.9463 305.831 95.1942 304.943Z" fill="white"/>
<g opacity="0.25">
<path d="M95.1942 304.943C95.2031 304.911 95.2118 304.879 95.2205 304.846C95.2967 304.565 95.3652 304.287 95.422 304.015C93.685 305.581 88.5265 309.785 82.3818 310.618C75.551 311.543 64.6211 310.063 58.6205 306.209C58.06 308.068 57.5733 310.154 57.2321 312.463C60.4588 313.461 63.2743 313.331 63.379 313.326L63.3832 313.326L63.385 313.326C63.4752 313.32 63.561 313.339 63.6412 313.37C63.6477 313.373 63.6549 313.371 63.6612 313.374C63.6639 313.375 63.6764 313.38 63.692 313.386C63.7004 313.39 63.7159 313.396 63.7276 313.401C63.7413 313.406 63.7545 313.412 63.7724 313.419C63.7906 313.426 63.8149 313.435 63.8379 313.444C63.8555 313.451 63.8735 313.458 63.8938 313.466C63.9252 313.478 63.9616 313.492 63.999 313.506C64.0184 313.514 64.0385 313.521 64.0597 313.529C64.1028 313.546 64.15 313.563 64.1996 313.581C64.2205 313.589 64.2424 313.597 64.2645 313.605C64.3228 313.626 64.3841 313.648 64.4504 313.672C64.4654 313.677 64.4812 313.683 64.4965 313.688C64.5724 313.715 64.6513 313.742 64.7368 313.772C64.7434 313.774 64.7509 313.776 64.7575 313.779C67.2008 314.613 73.4472 316.382 80.6353 315.593C84.1394 314.256 88.9974 311.372 94.126 307.677L94.1269 307.676C94.5998 306.756 94.9463 305.831 95.1942 304.943Z" fill="#001364"/>
</g>
<g opacity="0.25">
<path d="M83.8312 315.077C89.4421 313.857 92.5156 310.807 94.1261 307.677C88.9975 311.372 84.1395 314.256 80.6354 315.593C81.6841 315.478 82.7514 315.312 83.8312 315.077Z" fill="#001364"/>
</g>
<g opacity="0.25">
<path d="M83.8312 315.077C89.4421 313.857 92.5156 310.807 94.1261 307.677C88.9975 311.372 84.1395 314.256 80.6354 315.593C81.6841 315.478 82.7514 315.312 83.8312 315.077Z" fill="#001364"/>
</g>
<path d="M76.8976 318.529C68.9218 318.529 62.9166 316.019 62.5935 315.881C61.5204 315.423 61.0213 314.182 61.4785 313.109C61.9357 312.037 63.1743 311.538 64.2466 311.992C64.3374 312.031 73.4407 315.801 83.5132 313.611C93.3016 311.483 94.532 303.262 94.18 300.275C93.9041 297.934 90.1971 297.045 90.1599 297.036C89.7947 296.959 89.4564 296.786 89.1799 296.535C87.3801 294.908 83.9739 292.499 82.3818 292.499C80.1914 292.499 78.8561 293.742 78.8002 293.795C78.2865 294.283 77.597 294.592 76.9067 294.432C76.2339 294.278 75.7123 293.91 75.456 293.277C75.2545 293.02 74.0247 291.743 70.108 292.749C65.4717 293.938 64.738 300.035 64.7313 300.096C64.721 300.187 64.7041 300.286 64.6821 300.375L64.0108 303.101C63.7317 304.234 62.5874 304.924 61.4548 304.648C60.3222 304.369 59.6305 303.224 59.9093 302.091L60.5504 299.486C60.7191 298.216 62.03 290.458 69.0589 288.655C73.4144 287.54 76.0567 288.473 77.5502 289.535C78.6731 288.902 80.3111 288.273 82.3818 288.273C85.7784 288.273 90.0808 291.719 91.6082 293.043C94.1369 293.741 97.9046 295.787 98.3752 299.781C99.0377 305.406 95.8324 315.256 84.4106 317.74C81.7984 318.309 79.2609 318.529 76.8976 318.529Z" fill="#000072"/>
<path d="M62.8976 316.062C61.2516 316.062 56.7957 315.822 52.6959 313.47C51.684 312.889 51.3343 311.598 51.9148 310.586C52.4947 309.574 53.7848 309.224 54.7976 309.804C58.7137 312.051 63.2537 311.83 63.3 311.828C64.4575 311.778 65.46 312.653 65.5271 313.816C65.5941 314.979 64.7111 315.976 63.5489 316.046C63.5053 316.049 63.2751 316.062 62.8976 316.062Z" fill="#000072"/>
<path d="M79.9114 291.386C80.0442 295.52 78.8572 299.995 75.786 302.873C77.4182 299.58 77.1619 295.626 75.7908 292.315C75.1509 291.275 75.475 289.913 76.5147 289.273C78.1141 288.307 79.9877 289.575 79.9114 291.386Z" fill="#000072"/>
<path d="M92.4194 294.671C91.7035 298.322 90.5536 301.983 88.149 304.849C89.1846 301.562 88.877 298.033 88.1963 294.76C87.9051 293.599 88.6093 292.422 89.7694 292.131C91.2784 291.714 92.7621 293.156 92.4194 294.671Z" fill="#000072"/>
</svg>
