<svg width="222" height="192" viewBox="0 0 222 192" fill="none" xmlns="http://www.w3.org/2000/svg">
<g clip-path="url(#clip0_550_10221)">
<g opacity="0.2">
<path d="M110.75 192C147.476 192 177.248 190.578 177.248 188.824C177.248 187.07 147.476 185.649 110.75 185.649C74.0242 185.649 44.2521 187.07 44.2521 188.824C44.2521 190.578 74.0242 192 110.75 192Z" fill="#000072"/>
</g>
<path d="M120.342 148.294L76.1514 157.169L65.5371 154.436L59.5518 152.897C57.4886 152.777 55.9134 151.007 56.0332 148.944L60.8319 146.6L64.0115 145.046L120.342 148.294Z" fill="#5AC4FF"/>
<path d="M96.7548 149.83L65.5371 154.436L59.5518 152.897C57.4886 152.777 55.9134 151.007 56.0332 148.944L60.8319 146.6L96.7548 149.83Z" fill="white"/>
<path d="M76.1512 158.379C76.0499 158.379 75.9489 158.367 75.8502 158.341L59.3562 154.097C58.0854 153.992 56.9227 153.412 56.0714 152.455C55.1918 151.467 54.7494 150.195 54.8253 148.874C54.8504 148.437 55.1094 148.047 55.5026 147.855L63.4818 143.959C63.6679 143.868 63.8754 143.826 64.0816 143.838L120.412 147.086C121.019 147.121 121.506 147.602 121.549 148.21C121.592 148.818 121.177 149.363 120.58 149.483L76.3891 158.356C76.3106 158.372 76.2307 158.379 76.1512 158.379ZM57.2888 149.678C57.3781 150.107 57.5781 150.508 57.8775 150.844C58.3268 151.349 58.9461 151.648 59.6204 151.687C59.6986 151.692 59.7761 151.704 59.852 151.723L76.1845 155.927L110.87 148.962L64.2582 146.275L57.2888 149.678Z" fill="#000072"/>
<path d="M78.8368 159.966L26.2987 157.437C23.2097 157.288 20.8122 154.683 20.9157 151.589L77.2457 154.837L82.8684 159.438L78.8368 159.966Z" fill="#5AC4FF"/>
<path d="M82.8672 159.437L78.8371 159.966L26.3001 157.435C23.211 157.289 20.8117 154.685 20.9169 151.589L20.9841 151.592C21.8872 153.304 23.6465 154.506 25.7156 154.606L78.2526 157.137L79.8074 156.932L82.8672 159.437Z" fill="#3B98ED"/>
<path d="M78.8366 161.177C78.8174 161.177 78.7978 161.176 78.7786 161.175L26.2408 158.646C22.5129 158.466 19.5819 155.282 19.7067 151.548C19.7178 151.222 19.8595 150.914 20.1003 150.694C20.3407 150.474 20.6629 150.361 20.9851 150.379L77.3152 153.628C77.57 153.642 77.8137 153.737 78.0114 153.899L83.634 158.5C84.0077 158.806 84.164 159.304 84.0318 159.769C83.8995 160.234 83.504 160.576 83.0254 160.638L78.9936 161.166C78.9415 161.173 78.8891 161.177 78.8366 161.177ZM22.2615 152.879C22.7368 154.721 24.3725 156.131 26.3568 156.227L78.7868 158.751L79.9342 158.601L76.7846 156.023L22.2615 152.879Z" fill="#000072"/>
<path d="M204.541 124.818C181.608 135.387 161.78 122.234 161.78 122.234L163.591 115.946L163.685 115.624C171.28 116.683 177.283 116.046 181.795 114.448C185.218 113.237 187.784 111.472 189.537 109.479L189.543 109.474C191.744 106.978 192.67 104.122 192.416 101.538C191.977 97.0903 188.903 94.9191 186.81 94.8255C182.623 94.6411 182.509 100.177 178.94 100.315C177.497 100.368 175.772 98.5885 174.559 95.8759C173.87 94.3339 173.347 92.4875 173.133 90.5036C172.537 84.9674 174.372 78.3632 181.819 74.3486C197.176 66.0648 211.637 75.0391 217.701 87.9755C223.619 100.593 221.553 116.982 204.541 124.818Z" fill="#FAA327"/>
<path d="M189.543 109.474C191.744 106.978 192.67 104.122 192.416 101.538C191.977 97.0903 188.903 94.9191 186.81 94.8255C182.623 94.6411 182.509 100.177 178.94 100.315C177.497 100.368 175.772 98.5885 174.559 95.876C176.216 97.3215 178.68 98.6206 180.594 96.0223C183.277 92.388 183.362 88.6221 188.09 88.2183C193.661 87.7414 199.33 99.3346 189.543 109.474Z" fill="#EF7F25"/>
<path d="M204.541 124.818C181.608 135.387 161.78 122.234 161.78 122.234L163.591 115.946L163.685 115.624C171.28 116.683 177.283 116.046 181.795 114.448C184.949 116.935 190.674 119.337 200.742 118.24C216.164 116.555 220.65 99.2878 217.701 87.9755C223.619 100.593 221.553 116.982 204.541 124.818Z" fill="#EF7F25"/>
<path d="M220.702 101.029C220.702 107.422 218.496 113.769 213.379 118.828C213.148 119.059 212.908 119.285 212.665 119.51C210.465 121.532 207.773 123.329 204.541 124.818C181.608 135.387 161.78 122.234 161.78 122.234L163.591 115.946C169.194 120.531 185.329 123.542 196.861 118.501C198.077 118.474 199.368 118.389 200.742 118.24C216.164 116.555 220.65 99.2907 217.701 87.9784C217.824 88.233 217.941 88.4905 218.052 88.748C218.107 88.8767 218.163 89.0084 218.218 89.1371C218.332 89.3976 218.437 89.6609 218.54 89.9242C218.589 90.0559 218.642 90.1876 218.692 90.3193C218.782 90.5621 218.87 90.805 218.958 91.0479C218.975 91.0918 218.99 91.1386 219.004 91.1825C219.089 91.4283 219.168 91.6741 219.247 91.9199C219.291 92.0545 219.332 92.1891 219.373 92.3237C219.416 92.4583 219.457 92.5958 219.495 92.7304C219.533 92.865 219.571 92.9996 219.609 93.1371C219.647 93.2717 219.682 93.4092 219.72 93.5439C219.828 93.9535 219.928 94.3661 220.015 94.7787C220.103 95.1883 220.185 95.6009 220.258 96.0135C220.287 96.1773 220.316 96.3441 220.34 96.508C220.375 96.7304 220.41 96.9528 220.439 97.1781C220.463 97.3449 220.486 97.5146 220.503 97.6843C220.527 97.8745 220.547 98.0647 220.565 98.2549C220.582 98.4217 220.597 98.5885 220.609 98.7552C220.62 98.8898 220.629 99.0274 220.638 99.162C220.65 99.2995 220.658 99.4341 220.664 99.5687C220.667 99.6389 220.673 99.7091 220.673 99.7765C220.682 99.9637 220.688 100.151 220.693 100.338C220.699 100.567 220.702 100.798 220.702 101.029Z" fill="#F9D3B7"/>
<path d="M174.682 93.3355C174.682 93.3355 174.685 93.3269 174.688 93.3098C174.694 93.3269 174.694 93.3355 174.682 93.3355Z" fill="#FFF3E9"/>
<path d="M204.541 124.819C181.61 135.388 161.778 122.234 161.778 122.234L163.592 115.946C170.964 121.98 196.574 125.287 205.941 111.107C215.768 96.2337 207.671 76.4342 190.772 76.8757C177.301 77.2269 173.529 90.0497 173.332 90.7554C173.319 90.7152 173.252 90.6316 173.132 90.5045C172.537 84.966 174.371 78.364 181.82 74.3473C212.15 57.9893 238.993 108.946 204.541 124.819Z" fill="white"/>
<path d="M220.702 101.029C220.702 107.422 218.496 113.769 213.379 118.828C213.148 119.059 212.908 119.285 212.665 119.51C210.465 121.532 207.773 123.329 204.541 124.818C181.608 135.387 161.78 122.234 161.78 122.234L163.591 115.946C169.194 120.531 185.329 123.542 196.861 118.501C198.077 118.474 199.368 118.389 200.742 118.24C216.164 116.555 220.65 99.2907 217.701 87.9784C217.824 88.233 217.941 88.4905 218.052 88.748C218.107 88.8767 218.163 89.0084 218.218 89.1371C218.332 89.3976 218.437 89.6609 218.54 89.9242C218.589 90.0559 218.642 90.1876 218.692 90.3193C218.785 90.5621 218.873 90.805 218.958 91.0479C218.975 91.0918 218.99 91.1386 219.004 91.1825C219.089 91.4283 219.168 91.6741 219.247 91.9199C219.291 92.0545 219.332 92.1891 219.373 92.3237C219.416 92.4583 219.457 92.5958 219.495 92.7304C219.533 92.865 219.571 92.9996 219.609 93.1371C219.647 93.2717 219.682 93.4092 219.72 93.5439C219.828 93.9535 219.928 94.3661 220.015 94.7787C220.106 95.1883 220.188 95.6009 220.258 96.0135C220.287 96.1773 220.316 96.3441 220.34 96.508C220.378 96.7304 220.41 96.9528 220.439 97.1781C220.463 97.3449 220.486 97.5146 220.503 97.6843C220.527 97.8745 220.547 98.0647 220.565 98.2549C220.582 98.4217 220.597 98.5885 220.609 98.7552C220.62 98.8928 220.632 99.0274 220.638 99.162C220.65 99.2995 220.658 99.4341 220.664 99.5687C220.667 99.6389 220.673 99.7091 220.673 99.7765C220.682 99.9637 220.688 100.151 220.693 100.338C220.699 100.567 220.702 100.798 220.702 101.029Z" fill="#C3CEE2"/>
<path d="M185.951 130.1C181.468 130.1 177.489 129.45 174.272 128.641C166.342 126.647 161.333 123.363 161.123 123.224C160.578 122.862 160.429 122.126 160.79 121.58C161.152 121.035 161.887 120.885 162.431 121.246C162.479 121.278 167.373 124.476 174.935 126.362C181.87 128.092 192.549 129.042 204.046 123.744C213.326 119.467 218.798 112.06 219.452 102.887C220.18 92.6846 214.665 81.659 206.041 76.0751C198.735 71.3459 190.332 71.1032 182.381 75.3925C172.364 80.7952 174.06 90.2949 174.819 93.0779C175.847 96.8525 177.858 99.1296 178.87 99.1296C178.878 99.1296 178.887 99.1293 178.895 99.1289C179.951 99.0881 180.58 98.2867 181.519 96.983C182.631 95.4388 184.011 93.5127 186.863 93.6419C189.352 93.7512 193.086 96.2373 193.595 101.423C193.93 104.833 192.448 108.396 189.531 111.201C186.948 113.684 181.361 117.338 170.875 117.338C168.651 117.338 166.207 117.174 163.523 116.799C162.875 116.708 162.423 116.109 162.513 115.461C162.604 114.812 163.209 114.36 163.85 114.45C178.194 116.454 185.069 112.203 187.891 109.49C190.281 107.192 191.501 104.336 191.238 101.655C190.872 97.9227 188.349 96.0811 186.76 96.0113C185.266 95.9447 184.524 96.8646 183.44 98.3699C182.465 99.7249 181.25 101.411 178.987 101.499C176.45 101.589 173.811 98.3905 172.534 93.7022C170.731 87.0884 172.077 78.2567 181.258 73.3046C190.005 68.5864 199.263 68.8633 207.327 74.0836C216.792 80.2115 222.614 91.8547 221.815 103.056C221.096 113.131 215.137 121.243 205.036 125.898C198.218 129.04 191.675 130.1 185.951 130.1Z" fill="#000072"/>
<path d="M106.174 125.122C104.204 135.25 97.6169 138.954 92.7422 140.303C89.583 141.178 87.1428 141.061 87.1428 141.061C87.1428 141.061 86.8944 150.252 78.7407 150.205C71.8174 150.167 69.3362 144.719 69.3479 136.367C69.3596 128.209 75.526 125.927 78.3667 125.31C79.2171 125.122 79.7694 125.087 79.7694 125.087C81.4937 124.256 83.8726 104.991 83.8726 104.991L106.174 125.122Z" fill="#EF7F25"/>
<path d="M92.7423 140.303C89.5831 141.178 87.1428 141.061 87.1428 141.061C87.1428 141.061 86.8944 150.252 78.7408 150.205C73.9274 150.179 71.2592 147.536 70.0844 143.118C69.573 141.184 69.345 138.91 69.3479 136.367C69.3596 128.209 75.5261 125.927 78.3667 125.31C81.1781 124.999 84.685 125.234 87.5373 127.387C88.4082 128.048 89.2207 128.885 89.9308 129.945C92.0029 133.029 92.6809 136.83 92.7423 140.303Z" fill="white"/>
<path d="M92.7422 140.303C89.583 141.178 87.1428 141.061 87.1428 141.061C87.1428 141.061 86.8944 150.252 78.7407 150.205C73.9274 150.179 71.2592 147.536 70.0844 143.118C71.5164 144.078 74.1875 145.058 78.0335 143.179C82.2769 141.108 79.5707 130.436 87.5373 127.387C88.4082 128.049 89.2207 128.885 89.9308 129.945C92.0029 133.029 92.6809 136.83 92.7422 140.303Z" fill="#C3CEE2"/>
<path d="M78.8027 151.417H78.735C71.6901 151.377 68.1248 146.313 68.1385 136.366C68.1525 126.222 76.8934 124.275 79.1598 123.942C80.1019 122.112 81.6839 112.846 82.6713 104.842C82.7531 104.178 83.3577 103.706 84.02 103.789C84.683 103.871 85.154 104.475 85.0723 105.139C85.0664 105.188 84.4657 110.037 83.661 114.925C81.939 125.388 81.0265 125.826 80.2932 126.179C80.1537 126.245 80.0029 126.285 79.8488 126.295C79.4728 126.322 70.5704 127.059 70.5577 136.369C70.5424 147.644 75.2251 148.974 78.7487 148.994C78.7659 148.995 78.7832 148.995 78.8001 148.995C85.6043 148.995 85.9235 141.352 85.934 141.025C85.9441 140.701 86.0838 140.393 86.3219 140.173C86.5598 139.953 86.8699 139.84 87.1999 139.851C87.8026 139.879 101.987 140.318 104.986 124.891C105.114 124.235 105.75 123.804 106.404 123.934C107.06 124.062 107.488 124.698 107.361 125.354C105.585 134.49 100.162 138.611 95.9248 140.459C92.7671 141.837 89.8253 142.179 88.2584 142.256C87.7769 145.957 85.3967 151.416 78.8027 151.417Z" fill="#000072"/>
<path d="M81.0522 144.429C81.4113 145.414 82.2064 146.693 83.3789 146.556C83.7714 146.545 84.1587 146.323 84.532 146.196C85.1648 145.968 85.8624 146.296 86.09 146.93C86.3177 147.564 85.9893 148.262 85.3565 148.49C84.98 148.59 84.6117 148.661 84.2207 148.702C83.2117 148.798 82.1251 148.512 81.3662 147.808C80.6515 147.141 80.28 146.373 80.0328 145.496C79.9046 144.988 79.6108 144.106 80.3876 143.977C80.6973 143.937 80.9734 144.14 81.0522 144.429Z" fill="#000072"/>
<path d="M74.7445 143.217C75.1142 145.488 76.1536 148.419 78.6544 148.943C80.2174 149.301 79.7692 151.591 78.184 151.328C77.6839 151.191 77.2115 150.95 76.7754 150.676C74.3437 149.057 73.5726 146.016 73.536 143.267C73.5476 142.501 74.6707 142.458 74.7445 143.217Z" fill="#512717"/>
<path d="M127.199 146.762C128.144 151.505 130.647 160.52 140.082 162.313C146.557 163.544 154.121 160.102 157.694 153.365C157.694 153.365 164.016 163.56 172.27 157.228C181.148 150.417 168.09 135.575 162.922 133.519C158.963 131.944 155.117 133.441 155.117 133.441C155.117 133.441 155.121 118.686 143.817 109.224" fill="#EF7F25"/>
<path d="M127.792 146.644C129.169 151.445 131.246 156.486 135.598 159.248C142.878 163.832 152.67 160.035 156.626 152.797L156.844 152.413C157.121 151.926 157.74 151.755 158.227 152.033C158.495 152.185 158.668 152.445 158.722 152.726C158.835 152.903 159 153.138 159.153 153.342C161.324 156.274 164.957 159.046 168.75 157.776C176.341 155.011 174.597 148.183 170.894 142.728C168.762 139.674 166.151 136.684 162.893 134.834C160.751 133.811 158.142 133.801 155.872 134.465C155.762 134.499 155.62 134.546 155.555 134.57C154.784 134.879 153.901 134.268 153.907 133.441C153.618 126.862 151.447 120.26 147.54 114.941C146.233 113.166 144.705 111.565 143.029 110.142C141.851 109.102 143.325 107.284 144.593 108.295C148.25 111.361 151.124 115.298 153.071 119.646C154.994 123.997 156.164 128.68 156.327 133.442L154.679 132.313C155.311 132.079 155.898 131.942 156.546 131.816C161.512 130.94 164.845 132.533 168.342 135.962C173.889 141.249 180.915 152.192 172.84 158.312C167.495 162.396 161.73 160.362 157.778 155.509C157.369 155.009 157.028 154.566 156.667 154.004L158.763 153.933C152.631 166.015 134.948 167.89 128.768 154.827C127.582 152.333 126.903 149.589 126.606 146.88C126.542 146.141 127.578 145.946 127.792 146.644Z" fill="#000072"/>
<path d="M167.417 135.253C167.321 135.44 167.23 135.621 167.142 135.8C166.78 136.531 166.429 137.251 166.081 137.95C163.457 143.217 160.941 147.528 154.871 149.912C135.796 157.403 88.3147 155.229 84.1064 111.58L113.892 97.1986C115.14 97.5204 116.429 97.7399 117.753 97.8803C126.371 98.7874 136.465 96.2739 146.387 96.0223C155.444 95.794 164.357 97.4531 171.862 105.333C178.838 115.943 171.14 127.899 167.417 135.253Z" fill="#FAA327"/>
<path d="M166.081 137.95C163.457 143.217 160.941 147.528 154.871 149.912C135.796 157.403 88.3147 155.229 84.1064 111.58L113.892 97.1985C115.14 97.5204 116.429 97.7398 117.753 97.8803C126.371 98.7874 136.465 96.2739 146.387 96.0222C144.888 100.789 139.303 110.577 118.553 114.925C113.048 116.078 110.733 122.752 114.482 126.951C116.66 129.389 120.509 131.604 126.301 134.009C130.793 140.066 143.646 141.754 146.936 140.944C156.569 138.571 163.13 128.057 163.13 128.057L166.081 137.95Z" fill="#EF7F25"/>
<path d="M166.342 167.419C166.382 167.428 166.394 167.434 166.374 167.434C166.362 167.434 166.35 167.428 166.342 167.419Z" fill="#FFF3E9"/>
<path d="M167.417 135.253C167.321 135.44 167.23 135.621 167.142 135.8C164.065 142.035 161.747 147.212 154.871 149.912C135.796 157.403 88.3147 155.229 84.1064 111.58L113.892 97.1986C115.14 97.5205 116.429 97.7399 117.753 97.8804C115.663 104.537 112.89 113.111 112.89 113.111C112.89 113.111 105.665 126.123 121.356 138.106C134.253 147.952 155.426 140.733 167.417 135.253Z" fill="#C3CEE2"/>
<path d="M134.855 154.479C124.267 154.479 112.743 152.087 103.381 146.334C97.7417 142.87 93.1649 138.38 89.7768 132.992C85.9985 126.982 83.6855 119.817 82.9023 111.696C82.8381 111.031 83.3252 110.439 83.9901 110.374C84.6534 110.313 85.2463 110.798 85.3105 111.464C86.7334 126.224 93.2392 137.261 104.646 144.27C120.166 153.806 141.878 153.714 154.428 148.785C160.596 146.364 162.845 141.792 165.693 136.003L166.057 135.262C166.503 134.359 167.016 133.387 167.559 132.357C171.42 125.037 176.704 115.021 170.911 106.088C160.48 95.2115 147.222 96.771 134.4 98.2793C126.925 99.159 119.864 99.9898 113.589 98.3719C112.942 98.2049 112.553 97.5447 112.719 96.8969C112.886 96.2491 113.547 95.8597 114.192 96.026C120.029 97.531 126.873 96.7257 134.118 95.8737C146.935 94.3661 161.461 92.6562 172.738 104.496C172.787 104.549 172.833 104.606 172.872 104.666C179.546 114.818 173.62 126.053 169.698 133.488C169.163 134.503 168.657 135.462 168.226 136.336L167.863 137.073C164.906 143.084 162.352 148.276 155.311 151.04C149.791 153.208 142.571 154.479 134.855 154.479Z" fill="#000072"/>
<path d="M191.288 157.623C183.14 162.661 178.677 154.021 178.023 152.625C177.988 152.552 177.964 152.499 177.95 152.467V152.464C177.941 152.446 177.938 152.438 177.938 152.438C173.616 157.658 165.468 160.239 159.126 158.457C151.276 156.25 148.439 149.713 147.176 142.454C147.088 141.953 147.009 141.45 146.936 140.944L171.862 105.333C180.282 115.039 178.572 132.359 178.572 132.359C178.572 132.359 178.631 132.347 178.742 132.329C179.539 132.195 183.046 131.759 186.264 133.681C191.039 136.537 200.055 152.201 191.288 157.623Z" fill="#FAA327"/>
<path d="M181.848 144.309C181.787 144.522 180.685 148.218 177.95 152.464C177.941 152.446 177.938 152.438 177.938 152.438C173.616 157.658 165.468 160.239 159.126 158.457C151.276 156.25 148.439 149.713 147.176 142.454C149.622 146.179 154.564 152.183 161.996 154.214C174.507 157.637 181.652 144.666 181.848 144.309Z" fill="#EF7F25"/>
<path d="M191.288 157.623C183.14 162.661 178.677 154.021 178.023 152.625C178.87 151.346 180.279 148.999 181.237 146.243C181.883 144.397 182.325 142.363 182.263 140.341C182.056 133.722 177.812 134.688 177.812 134.688L178.742 132.329C179.539 132.195 183.046 131.759 186.264 133.681C187.921 134.673 190.09 137.207 191.849 140.321C195.157 146.176 197.013 154.082 191.288 157.623Z" fill="white"/>
<path d="M191.288 157.623C183.14 162.661 178.677 154.021 178.023 152.625C178.87 151.346 180.279 148.999 181.237 146.243C181.305 148.988 182.149 152.812 186.062 154.146C192.422 156.315 194.973 148.982 191.849 140.321C195.157 146.176 197.013 154.082 191.288 157.623Z" fill="#C3CEE2"/>
<path d="M147.534 140.857C148.732 145.972 150.2 151.185 154.256 154.581C160.921 160.061 171.554 157.808 177.008 151.665L179.053 151.966C179.132 152.146 179.254 152.394 179.368 152.608C181.75 157.07 185.722 159.666 190.486 156.691C197.007 152.789 192.41 142.719 188.92 138.031C188.009 136.83 187.012 135.65 185.799 134.82C183.86 133.595 181.409 133.203 179.139 133.491C179.029 133.506 178.888 133.529 178.824 133.542C178.041 133.716 177.285 133.033 177.367 132.239C177.816 125.395 177.152 118.214 174.474 111.859C173.57 109.772 172.41 107.81 170.949 106.126C169.942 104.92 171.675 103.345 172.776 104.538C177.644 110.246 179.332 117.869 179.818 125.162C179.959 127.621 179.976 129.999 179.775 132.477L178.318 131.173C179.535 130.947 180.738 130.934 181.962 131.052C184.357 131.29 186.831 132.237 188.565 133.956C191.052 136.389 192.872 139.341 194.281 142.488C197.488 149.671 197.281 157.847 188.36 160.17C183.163 161.457 178.806 157.34 176.826 152.911C176.82 152.908 178.871 153.211 178.87 153.211C177.651 154.752 176.146 156.029 174.519 157.074C168.001 161.264 158.739 161.737 152.675 156.454C148.239 152.638 146.695 146.624 146.337 141.031C146.309 140.287 147.358 140.143 147.534 140.857Z" fill="#000072"/>
<path d="M181.85 144.301C181.85 144.301 180.638 148.819 177.939 152.438L181.85 144.301Z" fill="#E8C797"/>
<path d="M182.434 144.458C181.918 146.763 181.148 148.964 180.096 151.079C179.748 151.79 179.339 152.479 178.908 153.162C178.55 153.73 177.801 153.899 177.235 153.541C176.668 153.183 176.499 152.433 176.857 151.866C177.33 151.255 177.839 150.671 178.27 150.008C179.495 148.201 180.511 146.19 181.266 144.144C181.507 143.423 182.589 143.714 182.434 144.458Z" fill="#000072"/>
<path d="M86.8783 126.814C87.1544 126.814 83.8686 125.028 79.3863 125.127L86.8783 126.814Z" fill="#F9A528"/>
<path d="M86.8784 126.209C86.3981 126.189 86.1006 126.814 86.4177 127.18C86.4308 127.198 86.4488 127.218 86.4654 127.232C86.4912 127.256 86.4707 127.243 86.4764 127.248L86.4035 127.215C85.3491 126.774 84.2054 126.536 83.0753 126.384C81.8484 126.227 80.6144 126.212 79.4127 126.338C77.8164 126.456 77.5679 124.137 79.1613 123.92C80.6235 123.942 82.0719 124.219 83.4507 124.607C84.6974 124.979 85.9186 125.439 87.0268 126.133C87.1241 126.203 87.2391 126.274 87.3256 126.371C87.598 126.643 87.5383 127.166 87.179 127.342C86.2478 127.773 85.8679 126.284 86.8784 126.209Z" fill="#000072"/>
<path d="M177.054 137.02C177.054 137.02 178.092 134.285 178.571 132.358L177.054 137.02Z" fill="#E8C797"/>
<path d="M176.489 136.805C176.851 135.255 177.207 133.628 177.397 132.065C177.703 130.267 180.317 130.917 179.745 132.651C179.126 134.257 178.396 135.722 177.619 137.235C177.286 137.869 176.315 137.493 176.489 136.805Z" fill="#000072"/>
<path d="M118.788 153.384L81.8623 159.607C79.3802 160.026 77.138 158.062 77.2221 155.543L77.2457 154.837L120.204 148.311C121.289 148.145 122.254 149.015 122.203 150.113C122.205 151.744 120.687 153.04 118.788 153.384Z" fill="#5AC4FF"/>
<path d="M122.204 150.114C122.204 150.928 121.824 151.659 121.207 152.233C120.59 152.8 119.737 153.21 118.787 153.383L81.8619 159.607C79.3808 160.025 77.1392 158.062 77.221 155.542L77.2444 154.837L78.5742 154.635C79.3544 156.022 80.9355 156.888 82.648 156.628L119.67 151.021C120.623 150.866 121.485 150.471 122.11 149.909C122.139 149.883 122.169 149.857 122.195 149.83C122.204 149.921 122.207 150.018 122.204 150.114Z" fill="#3B98ED"/>
<path d="M81.1943 160.874C79.9478 160.874 78.7399 160.426 77.7837 159.588C76.6064 158.557 75.961 157.068 76.0131 155.502L76.0369 154.796C76.0568 154.213 76.4884 153.727 77.0644 153.639L120.023 147.114C120.898 146.98 121.78 147.244 122.439 147.838C123.091 148.426 123.444 149.263 123.412 150.14C123.399 152.285 121.59 154.107 119.003 154.576C118.999 154.576 118.994 154.577 118.989 154.578L82.0631 160.801C81.7735 160.85 81.4826 160.874 81.1943 160.874ZM78.4369 155.881C78.4893 156.606 78.8229 157.28 79.3764 157.765C80.0049 158.316 80.8362 158.552 81.6618 158.413L118.58 152.191C119.98 151.935 120.994 151.063 120.993 150.114C120.993 150.095 120.993 150.076 120.994 150.056C121.005 149.838 120.89 149.701 120.82 149.638C120.751 149.575 120.602 149.476 120.387 149.508L78.4369 155.881Z" fill="#000072"/>
<path d="M126.301 133.848C126.301 133.848 126.28 134.152 126.21 134.67C125.725 138.246 122.876 152.072 108.047 147.727C105.817 147.074 103.316 146.009 100.51 144.435C97.7542 146.041 95.4748 152.915 87.6308 150.073C85.1526 149.175 83.3582 146.521 82.8526 143.062C82.572 141.149 82.689 138.992 83.2997 136.748C84.3284 132.982 86.3157 129.939 89.2206 127.879C93.9726 124.511 101.179 123.773 110.636 126.822C110.636 126.822 112.039 125.289 113.115 121.912L126.301 133.848Z" fill="#FAA327"/>
<path d="M126.21 134.67C125.725 138.246 122.876 152.072 108.047 147.727C105.817 147.074 103.316 146.009 100.51 144.435C97.7543 146.041 95.4748 152.915 87.6309 150.073C85.1526 149.175 83.3582 146.521 82.8526 143.062C84.7142 145.494 87.6747 148.125 91.43 147.332C97.9676 145.953 100.256 138.258 104.154 139.498C105.75 140.005 106.191 143.156 113.831 144.25C120.246 145.166 124.799 138.752 126.21 134.67Z" fill="#EF7F25"/>
<path d="M108.047 147.727C105.817 147.074 103.316 146.009 100.51 144.435C97.7543 146.041 95.4748 152.915 87.6309 150.073C87.473 150.018 87.3211 149.953 87.1691 149.88C87.1048 149.851 87.0434 149.822 86.9821 149.789C86.9616 149.781 86.9412 149.769 86.9236 149.76C86.8681 149.731 86.8155 149.702 86.76 149.669C86.7366 149.658 86.7161 149.646 86.6928 149.631C86.6343 149.596 86.5788 149.561 86.5232 149.526C86.2368 149.348 85.9621 149.14 85.7049 148.909C85.6436 148.856 85.5851 148.8 85.5267 148.745C85.4653 148.686 85.4039 148.628 85.3455 148.566C85.1029 148.318 84.8721 148.043 84.6587 147.75C84.6119 147.686 84.5652 147.621 84.5214 147.557C84.3431 147.299 84.1794 147.027 84.0245 146.74C83.9339 146.568 83.8434 146.389 83.7615 146.208C83.7177 146.111 83.6738 146.015 83.6329 145.915C83.5715 145.775 83.516 145.634 83.4634 145.491C83.3494 145.181 83.2442 144.859 83.1565 144.528C83.1244 144.408 83.0923 144.288 83.066 144.168C83.0046 143.926 82.9549 143.677 82.9111 143.425C82.8906 143.305 82.8702 143.185 82.8526 143.062C84.7142 145.494 87.6747 148.124 91.43 147.332C97.9676 145.953 100.256 138.258 104.154 139.498C104.216 139.519 104.277 139.542 104.336 139.571C104.911 142.433 105.674 145.304 108.047 147.727Z" fill="#F9D3B7"/>
<path d="M108.047 147.727C105.817 147.074 103.316 146.009 100.51 144.435C97.7543 146.041 95.4748 152.915 87.6309 150.073C83.782 148.68 81.5814 143.048 83.2997 136.748C84.3285 132.982 86.3157 129.939 89.2207 127.879C92.2396 126.863 96.1849 126.509 99.7123 129.292C105.73 134.035 102.524 142.082 108.047 147.727Z" fill="white"/>
<path d="M108.047 147.727C105.817 147.074 103.316 146.009 100.51 144.435C97.7543 146.041 95.4748 152.915 87.6309 150.073C87.473 150.018 87.3211 149.953 87.1691 149.88C87.1048 149.851 87.0434 149.822 86.9821 149.789C86.9616 149.781 86.9412 149.769 86.9236 149.76C86.8681 149.731 86.8155 149.702 86.76 149.669C86.7366 149.658 86.7161 149.646 86.6928 149.631C86.6343 149.596 86.5788 149.561 86.5232 149.526C86.2368 149.348 85.9621 149.14 85.7049 148.909C85.6436 148.856 85.5851 148.8 85.5267 148.745C85.4653 148.686 85.4039 148.628 85.3455 148.566C85.1029 148.318 84.8721 148.043 84.6587 147.75C84.6119 147.686 84.5652 147.621 84.5214 147.557C84.3431 147.299 84.1794 147.027 84.0245 146.74C83.9339 146.568 83.8434 146.389 83.7615 146.208C83.7177 146.111 83.6738 146.015 83.6329 145.915C83.5715 145.775 83.516 145.634 83.4634 145.491C83.3494 145.181 83.2472 144.859 83.1565 144.528C83.1244 144.408 83.0923 144.288 83.066 144.168C83.0075 143.926 82.9549 143.677 82.9111 143.425C82.8906 143.305 82.8702 143.185 82.8526 143.062C84.7142 145.494 87.6747 148.124 91.43 147.332C97.9676 145.953 100.256 138.258 104.154 139.498C104.216 139.519 104.277 139.542 104.336 139.571C104.911 142.433 105.674 145.304 108.047 147.727Z" fill="#C3CEE2"/>
<path d="M126.905 133.89C126.982 138.575 125.377 143.368 121.922 146.654C117.011 151.356 109.569 150.233 103.943 147.587C102.556 146.961 101.214 146.261 99.9198 145.491L101.119 145.481C100.756 145.696 100.327 146.105 99.9097 146.562C98.5094 148.11 97.2499 149.753 95.2947 150.863C92.6209 152.442 89.249 152.176 86.5089 150.906C81.0037 147.917 80.659 140.371 82.5383 135.131C86.8864 122.585 100.141 122.013 111.006 125.669L109.744 126.003C109.747 126.009 109.792 125.966 109.821 125.939L109.922 125.841C110.74 124.991 111.385 123.979 111.947 122.936C112.158 122.543 112.352 122.139 112.539 121.728C112.674 121.416 113.041 121.274 113.35 121.416C113.614 121.537 113.75 121.824 113.691 122.097C113.592 122.563 113.484 123.029 113.353 123.493C112.984 124.802 112.499 126.094 111.784 127.265L111.672 127.439C111.4 127.927 110.772 128.154 110.265 127.975C107.8 127.192 105.285 126.582 102.751 126.293C97.8463 125.713 92.4833 126.417 88.7522 129.809C84.4628 133.696 82.3394 141.259 85.2656 146.473C86.0198 147.724 87.0052 148.635 88.3505 149.038C90.2231 149.694 92.3588 149.795 94.0995 148.757C95.6474 147.896 96.8799 146.299 98.1314 144.92C98.7546 144.331 99.9794 142.725 101.102 143.378C105.875 145.81 111.5 148.329 116.883 146.704C122.297 144.89 124.408 138.959 125.698 133.808C125.824 133.099 126.875 133.166 126.905 133.89Z" fill="#000072"/>
<path d="M111.195 32.6077L89.0044 37.0642L58.9732 43.0919C54.5895 34.1147 55.475 10.2757 62.7636 3.22376C64.9642 1.09649 67.7464 0.499558 71.1453 2.30205C79.6993 6.84044 91.1787 24.7921 111.195 32.6077Z" fill="#FAA327"/>
<g opacity="0.5">
<path d="M111.195 32.6077L107.208 33.4095C89.1038 25.0496 78.3842 8.73069 70.286 4.43518C66.8872 2.6327 64.105 3.22962 61.9044 5.3569C60.7559 6.46882 59.7652 8.0021 58.9264 9.82506C59.9142 7.05404 61.1884 4.74827 62.7636 3.22376C64.9642 1.09649 67.7464 0.499558 71.1453 2.30205C79.6993 6.84044 91.1787 24.7921 111.195 32.6077Z" fill="white"/>
</g>
<path d="M89.0044 37.0642L58.9732 43.0919C54.5895 34.1147 55.475 10.2757 62.7636 3.22376C64.1021 2.99847 65.6247 3.40518 67.1765 5.11403C71.1481 9.4827 78.6998 30.2346 89.0044 37.0642Z" fill="#EF7F25"/>
<path d="M58.9731 44.3247C58.518 44.3247 58.0805 44.0708 57.8671 43.6337C55.6346 39.0606 54.6374 30.9061 55.2648 22.3524C55.946 13.0662 58.3655 5.77426 61.9031 2.34625C64.669 -0.334639 68.0636 -0.726546 71.7201 1.21407C74.9853 2.94642 78.5864 6.47049 82.756 10.5509C90.0521 17.6907 99.1321 26.5763 111.642 31.4617C112.275 31.7088 112.587 32.423 112.341 33.0566C112.094 33.69 111.381 34.0035 110.748 33.7564C97.771 28.6887 88.4923 19.6084 81.0366 12.3124C77.0028 8.36528 73.5197 4.95652 70.5681 3.39052C67.8704 1.95858 65.5952 2.1967 63.6141 4.11611C60.5505 7.08485 58.3467 13.9696 57.7186 22.533C57.1299 30.5535 58.0561 38.4115 60.0772 42.5521C60.3756 43.1632 60.1228 43.9007 59.5123 44.1993C59.3383 44.2844 59.1543 44.3247 58.9731 44.3247Z" fill="#000072"/>
<path d="M80.4047 21.4957L59.8773 37.7238C59.8773 37.3874 59.3805 32.3691 59.585 26.7949C59.6727 24.3457 59.8977 21.7912 60.3595 19.4796C61.5402 13.5747 63.2439 9.68007 64.635 8.08534C65.0296 7.63471 65.3978 7.36844 65.7222 7.29236C68.2852 6.68958 71.8944 12.732 80.4047 21.4957Z" fill="white"/>
<path d="M80.4047 21.4957L59.8773 37.7238C59.8773 37.3874 59.3805 32.3691 59.585 26.7949C60.5407 26.5286 61.7155 25.9989 62.9196 24.969C64.673 23.4737 67.9754 19.9097 68.2326 16.0356C68.3699 13.9844 66.6428 10.7071 64.635 8.08534C65.0296 7.63471 65.3978 7.36844 65.7222 7.29236C68.2852 6.68958 71.8944 12.732 80.4047 21.4957Z" fill="#C3CEE2"/>
<path d="M59.8778 38.9561C59.6957 38.9561 59.5123 38.9154 59.3419 38.8328C58.9223 38.6292 58.6542 38.206 58.6483 37.7401C58.6454 37.6693 58.633 37.5101 58.6154 37.2743C58.0632 29.8572 58.2444 23.7889 59.1536 19.2377C60.2811 13.5914 62.6049 6.76095 65.442 6.09391C67.8313 5.53141 69.9143 7.92281 74.0611 12.6867C75.9701 14.8798 78.346 17.6093 81.2861 20.6372C81.5288 20.8872 81.6546 21.2284 81.6318 21.5764C81.609 21.9243 81.4399 22.2463 81.1666 22.4624L60.6404 38.691C60.4192 38.866 60.1495 38.9561 59.8778 38.9561ZM66.1128 8.47993C66.0747 8.47993 66.0385 8.48384 66.0046 8.49183C65.3831 8.74071 63.1323 11.8773 61.5656 19.7208C61.0115 22.4963 60.4792 27.4012 60.9493 35.3084L78.577 21.3711C76.0239 18.6902 73.9272 16.2819 72.2064 14.305C69.6015 11.3125 67.1357 8.47993 66.1128 8.47993Z" fill="#000072"/>
<path d="M72.6775 28.8371C72.4693 28.8371 72.2599 28.7841 72.0706 28.6766C68.8412 26.8415 67.0377 25.1438 66.5575 23.4863C66.0604 21.7665 66.55 20.6779 67.0481 20.0672C67.6902 19.2802 68.6545 18.8909 69.6191 18.7138C69.2728 18.0634 69.0259 17.3037 69.1067 16.5081C69.1679 15.9048 69.4488 15.0344 70.4372 14.3141C71.6373 13.4384 73.3258 13.482 75.4548 14.445C75.6141 14.5169 75.7561 14.6221 75.8714 14.7533C77.0996 16.1492 78.9969 18.2777 81.2868 20.6376C81.5295 20.8876 81.6549 21.2288 81.6321 21.5767C81.609 21.9244 81.4402 22.2463 81.1669 22.4622L73.4402 28.5719C73.2183 28.7476 72.9486 28.8371 72.6775 28.8371ZM71.1405 21.0455C69.9625 21.0455 69.2054 21.3164 68.9533 21.6256C68.7708 21.8493 68.7597 22.2447 68.9203 22.8008C69.0151 23.1281 69.5563 24.2867 72.5746 26.1178L78.5776 21.371C76.7784 19.4806 75.2717 17.7954 74.2067 16.5871C73.1248 16.1335 72.2667 16.0268 71.8856 16.3051C71.5774 16.5298 71.5611 16.6895 71.5542 16.7576C71.5226 17.0685 71.7034 17.6796 72.7453 18.8248C72.9567 19.0571 73.4519 19.6013 73.1229 20.3471C72.9258 20.7932 72.4807 21.083 71.9937 21.083C71.9751 21.083 71.9207 21.0815 71.8347 21.0747C71.5894 21.0548 71.3578 21.0455 71.1405 21.0455Z" fill="#000072"/>
<path d="M143.976 54.2492L132.882 44.438L108.36 22.7526C119.082 7.56909 135.7 0.572765 141.226 2.88732C141.997 3.20919 142.722 3.89391 143.377 4.92974C147.106 10.8054 148.652 27.967 143.976 54.2492Z" fill="#FAA327"/>
<g opacity="0.5">
<path d="M145.25 9.52373C144.867 8.48204 144.449 7.6042 143.996 6.89316C143.342 5.85731 142.617 5.17261 141.845 4.85073C136.424 2.58007 120.333 9.26916 109.605 23.8529L108.36 22.7526C119.082 7.56909 135.7 0.572764 141.226 2.88732C141.997 3.20919 142.722 3.89391 143.377 4.92974C144.09 6.05337 144.724 7.58957 145.25 9.52373Z" fill="white"/>
</g>
<path d="M143.976 54.2492L132.882 44.438C131.427 39.5016 130.007 32.0635 131.705 25.0525C134.262 14.5068 137.482 3.41691 143.377 4.92971C147.106 10.8053 148.652 27.9669 143.976 54.2492Z" fill="#EF7F25"/>
<path d="M143.978 55.4801C143.906 55.4801 143.834 55.4738 143.761 55.4607C143.092 55.3415 142.646 54.7019 142.766 54.0322C148.32 22.8171 144.848 5.73744 140.752 4.02286C135.962 2.01864 119.8 8.68775 109.365 23.4623C108.972 24.0178 108.205 24.1489 107.65 23.7569C107.096 23.3641 106.964 22.5955 107.356 22.0402C118.318 6.51914 135.48 -0.853715 141.7 1.75035C144.893 3.08672 147.065 8.74337 147.817 17.6783C148.391 24.4945 148.4 36.4096 145.187 54.4644C145.081 55.0608 144.562 55.4801 143.978 55.4801Z" fill="#000072"/>
<path d="M43.1013 82.7168C43.2649 83.7772 43.4989 84.8199 43.8037 85.8409C47.6637 98.9507 62.7067 108.64 87.5698 112.269L102.661 113.205C127.332 113.183 147.291 107.411 152.502 90.759C153.467 87.6741 154.14 83.9826 154.417 79.9135C155.485 64.549 150.992 43.8215 135.9 30.2515C119.924 15.8855 96.9726 16.8513 91.9807 17.0221C61.9323 18.0419 54.3785 39.0615 47.9251 64.1894C47.9243 64.1974 47.2978 64.9689 46.4849 66.3466C46.1437 66.9221 45.7719 67.6082 45.3995 68.3873C43.7998 71.7286 42.1859 76.8182 43.1013 82.7168Z" fill="#FAA327"/>
<path d="M43.1013 82.7168C45.3775 97.4032 60.7712 108.357 87.5698 112.269L102.661 113.205C127.332 113.183 147.291 107.411 152.502 90.759C153.467 87.6741 154.14 83.9826 154.417 79.9135C150.921 77.8067 145.242 75.3023 136.313 74.2222C119.187 72.1506 116.324 81.1905 108.795 79.4989C101.42 77.842 100.414 69.0165 87.4241 69.68C79.0856 70.1059 77.0067 75.6876 73.6653 76.2113C65.0698 77.5585 59.775 65.815 46.4849 66.3466C44.6895 69.4021 41.9711 75.4411 43.1013 82.7168Z" fill="white"/>
<path d="M154.418 79.9141C154.14 83.9814 153.465 87.6741 152.501 90.7582C147.29 107.411 127.332 113.184 102.661 113.204L87.5695 112.268C65.3851 109.029 51.0182 100.967 45.4393 89.9565C52.9061 98.3486 66.3553 104.452 85.2286 107.209L100.96 108.183C126.684 108.16 147.492 102.144 152.924 84.7831C153.407 83.244 153.819 81.5586 154.146 79.7502C154.24 79.8058 154.33 79.8614 154.418 79.9141Z" fill="#C3CEE2"/>
<path d="M95.2322 82.1028C92.6253 85.6346 95.3052 94.6002 89.7408 95.9199C86.3976 96.7128 83.8082 94.331 82.9344 90.846C82.648 89.7224 82.5428 88.4846 82.6509 87.2001C82.7533 85.9301 83.0601 84.6134 83.6066 83.323L95.2322 82.1028Z" fill="#FF8080"/>
<path d="M95.2321 82.1028C92.6253 85.6346 95.3052 94.6002 89.7408 95.9199C86.3976 96.7128 83.8082 94.331 82.9344 90.846C83.9164 92.1979 86.2163 94.7406 89.0891 93.816C92.3681 92.7626 91.7661 88.947 91.7661 88.947C91.7661 88.947 88.4784 88.6368 87.8676 86.5358C87.8676 86.5358 84.8369 87.8877 82.6509 87.2001C82.7533 85.9301 83.0601 84.6134 83.6066 83.323L95.2321 82.1028Z" fill="#F26666"/>
<path d="M90.2476 81.4536C90.2476 81.4536 87.97 84.2956 88.0987 90.9976C88.0987 90.9976 86.3632 86.0904 87.5791 82.6359C88.8661 78.9797 90.2476 81.4536 90.2476 81.4536Z" fill="#000072"/>
<path d="M88.4906 97.1292C86.6875 97.1292 85.014 96.3346 83.7532 94.8413C81.2975 91.9324 80.847 87.138 82.6316 82.9107C82.8593 82.3717 83.4799 82.1192 84.0184 82.3472C84.5566 82.5751 84.8087 83.1968 84.581 83.736C83.1225 87.1912 83.4467 91.1953 85.3697 93.473C86.1382 94.3834 87.4781 95.3665 89.4976 94.8886C91.9585 94.3047 92.3619 91.8545 92.7329 87.8879C92.9535 85.5326 93.1815 83.097 94.3804 81.4719C94.7276 81.0014 95.3896 80.9013 95.8604 81.249C96.3304 81.5967 96.4301 82.2602 96.0829 82.731C95.2342 83.8818 95.0339 86.0189 94.8407 88.0858C94.4944 91.7834 94.1021 95.9745 89.9856 96.9507C89.4813 97.0704 88.9813 97.1292 88.4906 97.1292Z" fill="#000072"/>
<path d="M78.9245 80.336C78.9245 80.336 77.8206 83.1891 80.3511 84.6783C83.5011 86.532 86.7882 83.8189 87.5791 82.6359C87.7631 82.3608 88.3074 82.4023 88.3992 82.7204C88.899 84.4525 91.1461 88.0086 95.3705 86.9765C97.0305 86.5709 98.7178 84.8014 98.1672 82.7644L90.9285 72.4955L78.9245 80.336Z" fill="white"/>
<path d="M98.0108 84.7853C97.5236 85.8856 96.4389 86.7158 95.3693 86.9755C91.1476 88.0077 88.8991 84.454 88.3985 82.7184C88.3071 82.401 87.7646 82.3602 87.5779 82.6372C86.7896 83.8203 83.5008 86.5321 80.353 84.6794C79.205 84.0065 78.8046 83.0519 78.7098 82.2096C82.6094 83.5117 86.3011 81.3463 86.7614 78.812C86.842 78.3679 90.7679 77.213 90.6984 77.6592C90.0199 82.0176 92.2292 86.2009 97.9948 84.79C97.9988 84.7899 98.0067 84.7855 98.0108 84.7853Z" fill="#C3CEE2"/>
<path d="M98.7511 82.6063C99.7182 84.8989 97.8929 87.4972 95.621 88.1158C93.5172 88.7491 91.3455 88.2835 89.6991 86.8257C88.557 85.795 87.7055 84.5547 87.2269 83.0786C87.2348 83.172 87.4059 83.4456 87.5301 83.5248C87.8978 83.8219 88.3708 83.6756 88.6006 83.3343L88.5103 83.4609C86.8609 85.6252 84.0209 87.0764 81.2867 86.3561C78.9463 85.6989 77.3141 83.6094 77.974 81.1167C78.1232 80.588 78.4026 79.5028 79.1751 79.8627C79.4396 79.9984 79.532 80.2845 79.4884 80.5547C79.2335 82.6499 80.4104 84.0067 82.5112 84.0579C83.9113 84.0634 85.5761 83.126 86.5037 82.0053C86.5281 81.9735 86.5817 81.9086 86.6042 81.8748C86.8342 81.5538 87.2661 81.3154 87.5998 81.2583C88.5062 81.066 89.4245 81.6036 89.6328 82.55C89.9276 83.4441 90.5546 84.343 91.2835 84.9491C92.3974 85.8492 93.8527 86.0852 95.2268 85.8151C96.5324 85.5229 97.7127 84.3083 97.5812 82.8777C97.5441 82.204 98.4931 81.9932 98.7511 82.6063Z" fill="#000072"/>
<path d="M81.6347 72.477C81.415 74.6833 83.6775 76.8777 85.449 78.2385C86.6756 79.1807 88.333 79.3461 89.7212 78.6648C91.7262 77.6809 94.3767 75.9769 94.5963 73.7705C94.9531 70.1868 81.9915 68.8932 81.6347 72.477Z" fill="#000072"/>
<g opacity="0.35">
<path d="M84.786 72.0076C84.7454 72.4158 85.6184 72.8671 86.2954 73.1537C86.7641 73.3521 87.3773 73.4133 87.876 73.3114C88.5962 73.1643 89.5409 72.8944 89.5815 72.4862C89.6475 71.8233 84.852 71.3447 84.786 72.0076Z" fill="white"/>
</g>
<path d="M87.3599 83.3402C87.1429 82.9754 86.1089 80.8758 87.0745 75.3494C87.1895 74.6907 87.814 74.2515 88.4744 74.365C89.1324 74.4803 89.5725 75.1079 89.4572 75.7666C88.6402 80.4437 89.4507 82.1206 89.4589 82.137L89.4383 82.1004L87.3599 83.3402Z" fill="#000072"/>
<path d="M43.1013 82.7168C43.2649 83.7772 43.4989 84.8199 43.8037 85.8409C45.2656 86.3429 46.8632 86.6916 48.5515 86.8502C56.299 87.5784 62.9729 84.0093 63.4537 78.8819C63.9344 73.7546 58.0404 69.0044 50.2929 68.2762C48.5926 68.1164 46.9416 68.1637 45.3995 68.3874C43.7998 71.7286 42.1859 76.8183 43.1013 82.7168Z" fill="#FF8080"/>
<path d="M143.79 86.3501C144.271 81.2219 138.378 76.4741 130.628 75.7457C122.878 75.0173 116.205 78.584 115.724 83.7123C115.244 88.8405 121.137 93.5883 128.887 94.3167C136.637 95.0451 143.31 91.4783 143.79 86.3501Z" fill="#FF8080"/>
<path d="M143.731 38.1755C153.112 50.3116 156.933 66.2751 155.528 81.4495C155.205 82.9165 155.122 84.4336 154.853 85.9228C154.137 90.7278 152.421 95.5809 149.32 99.4158C139.003 112.239 118.062 114.649 102.661 113.706C102.078 113.637 102.009 112.791 102.66 112.706C107.358 112.364 112.03 112.005 116.657 111.397C146.554 107.577 156.649 94.727 152.448 64.7746C151.051 55.6137 147.898 46.6816 142.805 38.838C142.633 38.5738 142.708 38.2205 142.972 38.0488C143.221 37.8867 143.551 37.9462 143.731 38.1755Z" fill="#000072"/>
<path d="M87.4862 112.832C74.6888 111.64 61.5005 107.906 51.5096 99.4774C40.5192 90.144 38.3082 75.5356 46.7356 63.6786L46.8337 63.5474L46.8834 63.4822L46.9083 63.4497C46.9544 63.3902 46.822 63.5487 46.7591 63.708C46.6928 63.8643 46.6635 64.0401 46.6683 64.1926L46.7045 63.8904C54.126 32.0579 66.6008 12.3413 102.473 16.2564C106.363 16.6516 110.219 17.3755 113.974 18.4572C114.691 18.7038 114.475 19.7602 113.685 19.6331C109.931 18.8898 106.134 18.396 102.317 18.175C99.4575 18.013 96.5953 18.0052 93.7358 18.144C89.0488 18.31 84.1946 18.7086 79.7427 20.0759C60.2725 25.6088 53.3889 46.7174 49.1477 64.4892L49.1837 64.187C49.1811 64.3495 49.1441 64.5352 49.0703 64.7014C48.9467 64.9657 48.8977 64.9763 48.8366 65.0705C45.3242 69.914 43.4641 76.1364 44.2749 82.0977C45.4096 91.4809 52.6967 98.6883 60.7428 102.953C69.1073 107.451 78.3627 109.733 87.6506 111.705C87.9588 111.769 88.1564 112.072 88.0919 112.38C88.0322 112.666 87.769 112.856 87.4862 112.832Z" fill="#000072"/>
<path d="M78.343 67.1005C78.5244 62.0962 75.1718 57.9122 70.8546 57.7552C66.5374 57.5983 62.8906 61.5279 62.7091 66.5322C62.5277 71.5366 65.8803 75.7206 70.1975 75.8775C74.5147 76.0344 78.1616 72.1048 78.343 67.1005Z" fill="#000072"/>
<path d="M74.616 70.7594C75.2207 68.8546 74.4699 66.9155 72.939 66.4284C71.4081 65.9412 69.6769 67.0904 69.0723 68.9952C68.4676 70.9 69.2184 72.839 70.7493 73.3262C72.2802 73.8134 74.0114 72.6642 74.616 70.7594Z" fill="white"/>
<g opacity="0.35">
<path d="M69.5804 64.469C70.3135 63.0976 70.1396 61.5743 69.1921 61.0665C68.2445 60.5588 66.8821 61.2589 66.1491 62.6303C65.4161 64.0017 65.5899 65.525 66.5375 66.0328C67.485 66.5405 68.8474 65.8404 69.5804 64.469Z" fill="white"/>
</g>
<path d="M120.05 73.3132C121.942 68.4299 120.061 63.1447 115.848 61.5084C111.635 59.872 106.686 62.5041 104.794 67.3874C102.902 72.2706 104.783 77.5558 108.996 79.1922C113.209 80.8285 118.158 78.1964 120.05 73.3132Z" fill="#000072"/>
<path d="M112.919 73.0454C113.125 70.965 111.936 69.1442 110.264 68.9785C108.592 68.8129 107.07 70.3652 106.864 72.4456C106.658 74.526 107.847 76.3468 109.519 76.5124C111.191 76.6781 112.713 75.1258 112.919 73.0454Z" fill="white"/>
<g opacity="0.35">
<path d="M116.578 71.2485C117.698 71.1529 118.494 69.7612 118.356 68.1402C118.218 66.5191 117.198 65.2825 116.078 65.3781C114.958 65.4736 114.162 66.8653 114.3 68.4864C114.438 70.1074 115.457 71.3441 116.578 71.2485Z" fill="white"/>
</g>
<path d="M113.377 54.2757C113.93 52.2744 107.922 45.0628 103.837 46.4127C99.7511 47.7626 100.008 52.1919 102.297 53.6568C105.621 55.7846 112.825 56.277 113.377 54.2757Z" fill="white"/>
<path d="M68.966 51.8642C68.7555 49.7985 75.2845 43.7554 78.8092 45.7986C82.3339 47.8418 81.4519 52.1545 79.1523 53.1951C75.8121 54.7064 69.1766 53.9298 68.966 51.8642Z" fill="white"/>
<path d="M141.516 32.2432C141.224 33.4898 140.856 34.6339 140.4 35.6287C130.276 25.3844 123.099 27.2367 123.415 21.4957C123.759 15.2806 133.731 7.36255 139.894 7.36255C140.277 7.36255 140.672 8.07068 141.04 9.27916C142.373 13.6976 143.284 24.7875 141.516 32.2432Z" fill="white"/>
<path d="M141.516 32.2432C141.224 33.4898 140.856 34.6339 140.4 35.6287C130.276 25.3844 123.099 27.2367 123.415 21.4957C123.759 15.2806 133.731 7.36255 139.894 7.36255C140.277 7.36255 140.672 8.07068 141.04 9.27916C138.009 10.2184 133.091 12.533 132.492 17.7415C131.706 24.5944 138.132 26.7334 141.516 32.2432Z" fill="#C3CEE2"/>
<path d="M140.401 36.8407C140.08 36.8407 139.77 36.7134 139.541 36.4815C134.798 31.6819 130.739 29.6235 127.776 28.1208C124.423 26.4202 122 25.1917 122.208 21.4288C122.6 14.3453 133.244 6.15063 139.893 6.15063C140.312 6.15063 140.921 6.32041 141.439 7.12869C143.441 10.2496 145.292 27.8363 141.501 36.1336C141.335 36.4953 141.003 36.7527 140.612 36.8222C140.541 36.8345 140.471 36.8407 140.401 36.8407ZM139.503 8.58509C134.047 8.92155 124.926 16.0884 124.623 21.5627C124.508 23.6464 125.552 24.2779 128.869 25.96C131.702 27.3966 135.488 29.317 139.932 33.4832C142.568 25.3163 140.816 10.9197 139.503 8.58509Z" fill="#000072"/>
<path d="M131.761 24.6647C131.647 26.3589 128.938 25.7474 129.113 27.4416C125.402 25.5425 123.239 24.7057 123.415 21.4957C123.491 20.1322 124.031 18.6867 124.89 17.2587C126.428 16.6091 128.213 16.258 129.683 17.0685C131.349 17.9902 130.972 19.2134 130.352 19.9478C129.438 21.0363 127.62 21.5396 127.62 21.5396C127.62 21.5396 131.898 22.6018 131.761 24.6647Z" fill="#C3CEE2"/>
<path d="M133.005 24.7481C132.952 25.4341 132.618 26.0986 132.073 26.5235C131.453 27.0317 130.7 27.1714 130.262 27.4444C130.254 27.4486 130.282 27.4336 130.275 27.4178C130.301 27.402 130.308 27.3645 130.313 27.3416C130.33 27.3299 130.322 27.2922 130.322 27.2922C130.328 27.3005 130.326 27.3072 130.316 27.3167L129.217 28.421C129.04 28.5988 128.773 28.6312 128.562 28.5198C127.041 27.7162 125.368 27.0159 123.979 25.843C122.29 24.5049 121.885 22.0463 122.408 20.0562C122.704 18.7971 123.236 17.6697 123.854 16.6337C123.991 16.4032 124.19 16.2459 124.42 16.143C125.891 15.383 127.883 14.9478 129.589 15.5802C132.111 16.4601 133.067 19.1254 130.971 20.9733C130.01 21.7569 128.97 22.0852 127.781 22.1234L127.766 20.9517C129.842 21.2713 133.045 22.0914 133.005 24.7481ZM130.517 24.5813C130.527 24.4477 130.522 24.3344 130.421 24.1638C130.064 23.5723 129.291 23.0748 128.644 22.7093C128.269 22.4986 127.859 22.293 127.474 22.1274C127.084 21.9698 126.981 21.4328 127.278 21.1391C127.969 20.4951 128.892 19.9701 129.351 19.3353C129.555 19.0412 129.703 18.7931 129.602 18.634C129.5 18.5212 129.302 18.3431 129.129 18.2651C127.943 17.641 126.68 17.9767 125.361 18.3744L125.926 17.8837C125.013 19.455 124.189 21.367 124.859 23.1075C125.21 23.8772 125.997 24.381 126.759 24.8429C127.658 25.3624 128.661 25.849 129.664 26.3631L127.91 27.5664C127.737 26.1271 128.805 25.2697 129.913 24.8885C130.253 24.7499 130.464 24.6494 130.534 24.5712C130.521 24.5696 130.531 24.5829 130.522 24.586C130.508 24.586 130.516 24.6082 130.513 24.602C130.507 24.5932 130.508 24.5877 130.517 24.5813Z" fill="#000072"/>
<path d="M77.2444 153.699L56.945 151.715L23.6844 148.464C22.3869 148.394 21.1595 147.964 20.1278 147.253C19.0962 146.541 18.2545 145.55 17.7256 144.359L1.39481 107.534C1.80984 104.098 4.72061 101.541 8.13694 101.541C8.25967 101.541 8.38538 101.544 8.5081 101.55L55.7614 104.063C59.9931 104.289 63.6871 107.016 65.1513 110.998L73.2114 132.92L78.7962 148.11C79.5327 150.111 78.9102 152.364 77.2444 153.699Z" fill="#5AC4FF"/>
<g opacity="0.5">
<path d="M78.992 150.857C78.9453 150.629 78.8781 150.401 78.7962 150.176L73.2114 134.986L65.1513 113.064C63.6871 109.081 59.9931 106.354 55.7614 106.129L8.5081 103.616C8.38539 103.61 8.25967 103.607 8.13695 103.607C5.19108 103.607 2.62226 105.506 1.7046 108.233L1.39481 107.534C1.80984 104.098 4.72061 101.541 8.13695 101.541C8.25967 101.541 8.38539 101.544 8.5081 101.55L55.7614 104.063C59.9931 104.289 63.6871 107.016 65.1513 110.998L73.2114 132.92L78.7962 148.11C79.1265 149.011 79.1849 149.962 78.992 150.857Z" fill="white"/>
</g>
<path d="M77.2444 153.699L56.945 151.715C61.9132 144.303 69.2047 132.66 69.2047 132.66C69.2047 132.66 72.7643 137.315 73.2114 132.92L78.7963 148.11C79.5327 150.111 78.9102 152.364 77.2444 153.699Z" fill="#3B98ED"/>
<path d="M77.2459 154.911C77.2068 154.911 77.1677 154.909 77.1283 154.905L23.5932 149.673C20.5358 149.499 17.8655 147.654 16.6197 144.851L0.289859 108.025C0.201243 107.826 0.168344 107.606 0.194404 107.389C0.697078 103.212 4.3829 100.119 8.57368 100.339L55.8261 102.853C60.5469 103.105 64.6527 106.137 66.2858 110.579L79.9319 147.691C80.8493 150.186 80.0739 152.98 78.003 154.644C77.7873 154.817 77.5199 154.911 77.2459 154.911ZM2.64326 107.364L18.8301 143.867C19.7077 145.842 21.593 147.141 23.7496 147.255C23.7675 147.256 23.7851 147.258 23.803 147.26L76.8325 152.442C77.8297 151.416 78.1655 149.897 77.6619 148.528L64.0158 111.416C62.7169 107.884 59.452 105.472 55.6978 105.272L8.44532 102.758C5.61694 102.601 3.1342 104.609 2.64326 107.364Z" fill="#000072"/>
<path d="M77.262 154.568L20.9169 151.569C19.6164 151.501 18.389 151.068 17.3573 150.357C16.3257 149.646 15.484 148.654 14.9551 147.463L13.8942 144.522L1.64618 110.574C0.573623 107.604 2.87652 104.502 6.02403 104.669L52.76 107.156C57.135 107.387 60.9488 110.205 62.4626 114.322L69.4561 133.339L77.262 154.568Z" fill="#5AC4FF"/>
<path d="M77.262 154.568L20.9169 151.568C19.6164 151.501 18.389 151.068 17.3573 150.357C16.3257 149.646 15.484 148.654 14.9551 147.463L13.8942 144.522C17.5298 146.222 26.002 148.967 41.5202 147.914C60.7676 146.609 67.6558 136.68 69.4561 133.339L77.262 154.568Z" fill="#3B98ED"/>
<path d="M52.7928 106.551C57.9826 106.459 62.4202 110.075 63.951 114.985C65.6208 119.313 67.254 123.654 68.8532 128.008C71.1985 134.521 76.0203 147.646 78.3963 154.15C78.7041 154.941 78.044 155.841 77.1969 155.778C62.3643 154.918 35.8054 153.625 21.2451 152.8C18.0885 152.781 15.0371 150.811 13.8181 147.875C9.99827 137.199 4.27595 121.685 0.458403 111.056C-0.933993 107.273 2.06152 103.189 6.10559 103.454C10.875 103.762 15.6564 104.139 20.3906 104.827C21.1188 104.948 21.0455 106 20.3264 106.036C16.4268 106.186 12.5411 106.119 8.6479 105.989C8.1298 105.981 6.32468 105.886 5.79444 105.89C3.73872 105.833 2.11136 108.064 2.81184 110.005C4.55833 114.881 9.03416 127.365 10.8206 132.402L16.0933 147.052C16.3249 147.614 17.3088 148.988 18.181 149.447C19.1322 150.071 20.2394 150.362 21.3735 150.381L29.3666 150.807C39.5691 151.353 66.7925 152.796 77.3253 153.359L76.1261 154.987C72.6092 145.448 67.5247 131.854 64.0878 122.35C63.3057 120.166 62.5134 117.987 61.7588 115.793C61.0849 113.619 60.1843 111.866 58.5096 110.392C56.9357 108.979 54.9059 108.05 52.7286 107.76C51.9808 107.655 52.0582 106.571 52.7928 106.551Z" fill="#000072"/>
<path d="M114.162 129.727C112.901 128.953 111.481 128.403 110.086 127.901C108.403 127.206 109.608 124.798 111.172 125.734C112.347 126.54 113.505 127.39 114.541 128.379C114.896 128.717 115.47 129.207 114.956 129.708C114.726 129.918 114.396 129.901 114.162 129.727Z" fill="#000072"/>
<path d="M103.534 140.795C102.029 142.576 100.541 144.632 99.6681 146.766C98.9552 148.351 96.6631 147.205 97.5056 145.681C98.9193 143.404 100.707 141.632 102.698 139.92C103.275 139.446 104.032 140.242 103.534 140.795Z" fill="#000072"/>
<path d="M82.8672 157.683C83.2683 157.683 83.5935 157.23 83.5935 156.67C83.5935 156.111 83.2683 155.657 82.8672 155.657C82.4661 155.657 82.1409 156.111 82.1409 156.67C82.1409 157.23 82.4661 157.683 82.8672 157.683Z" fill="#000072"/>
<path d="M88.1079 155.388V156.034C88.1079 156.28 88.3284 156.468 88.5711 156.428L91.3841 155.965C91.5767 155.934 91.718 155.767 91.718 155.572V154.992C91.718 154.75 91.5038 154.563 91.264 154.597L88.451 154.993C88.2543 155.021 88.1079 155.189 88.1079 155.388Z" fill="#000072"/>
<path d="M109.993 152.088C109.983 152.463 110.311 152.756 110.681 152.703L112.355 152.463C112.645 152.421 112.863 152.177 112.871 151.883L112.873 151.814C112.877 151.701 112.779 151.611 112.667 151.624L110.158 151.909C110.066 151.919 109.996 151.996 109.993 152.088Z" fill="#000072"/>
<g opacity="0.5">
<path d="M7.75194 108.199C14.1097 107.214 40.9247 107.83 46.9266 109.548C52.9285 111.266 2.42767 109.025 7.75194 108.199Z" fill="white"/>
</g>
<path d="M37.7164 131.632C38.1539 134.237 35.8199 131.664 33.4806 131.704C31.1413 131.743 29.6824 134.379 29.2449 131.775C28.8073 129.17 30.349 127.027 32.6883 126.987C35.0277 126.948 37.2788 129.028 37.7164 131.632Z" fill="white"/>
<path d="M36.9316 127.028C37.6461 126.597 37.8019 125.544 37.2797 124.677C36.7575 123.809 35.755 123.456 35.0406 123.887C34.3261 124.318 34.1703 125.371 34.6925 126.238C35.2147 127.105 36.2172 127.459 36.9316 127.028Z" fill="white"/>
<path d="M29.6441 127.15C30.3585 126.719 30.5143 125.666 29.9921 124.799C29.4699 123.932 28.4674 123.578 27.753 124.009C27.0386 124.44 26.8827 125.493 27.4049 126.361C27.9271 127.228 28.9296 127.582 29.6441 127.15Z" fill="white"/>
<path d="M33.0373 125.597C33.7517 125.166 33.9075 124.114 33.3853 123.246C32.8631 122.379 31.8606 122.025 31.1462 122.456C30.4317 122.888 30.2759 123.94 30.7981 124.808C31.3203 125.675 32.3228 126.029 33.0373 125.597Z" fill="white"/>
<path d="M92.1735 145.639C91.9302 146.772 92.2975 148.419 93.4738 148.786C93.7498 148.857 94.0202 148.801 94.3231 148.668C94.9393 148.398 95.6577 148.679 95.9277 149.296C96.198 149.912 95.9173 150.632 95.3013 150.902C93.6785 151.505 91.7594 150.659 91.0866 149.099C90.5071 147.87 90.5368 146.484 91.0219 145.268C91.1473 144.958 91.5006 144.808 91.8109 144.933C92.0945 145.047 92.2421 145.352 92.1735 145.639Z" fill="#000072"/>
<path d="M86.8443 144.64C86.5573 146.255 86.9003 148.484 88.5635 149.127C90.0722 149.696 89.3153 151.915 87.7729 151.439C85.7421 150.51 84.9878 148.075 85.2526 146.028C85.3224 145.426 85.4622 144.837 85.6925 144.271C85.8187 143.96 86.1725 143.811 86.4827 143.937C86.7646 144.052 86.9118 144.355 86.8443 144.64Z" fill="#000072"/>
<path d="M190.863 151.726C191.365 152.391 192.603 152.817 193.295 152.289C193.46 152.154 193.565 151.975 193.655 151.739C193.895 151.107 194.602 150.788 195.233 151.029C195.969 151.297 196.257 152.233 195.806 152.871C195.124 154.004 193.59 154.681 192.325 154.322C191.195 154.035 190.253 153.346 189.779 152.263C189.506 151.567 190.476 151.097 190.863 151.726Z" fill="#000072"/>
<path d="M185.187 155.834C185.847 156.864 187.35 157.536 188.57 157.445C188.974 157.416 189.346 157.307 189.682 157.14C190.284 156.84 191.015 157.086 191.314 157.689C191.667 158.378 191.257 159.246 190.505 159.418C187.953 160.112 185.018 158.739 184.049 156.245C183.831 155.497 184.869 155.132 185.187 155.834Z" fill="#000072"/>
<g opacity="0.5">
<path d="M157.145 100.233C159.874 100.16 172.58 105.347 173.762 116.24C174.31 121.296 168.964 115.797 163.916 110.275C158.985 104.882 154.416 100.306 157.145 100.233Z" fill="white"/>
</g>
<path d="M35.6898 39.4349C37.2534 36.8736 38.0243 33.799 37.6944 30.5824C36.8938 22.7752 29.9236 17.096 22.1261 17.8976C14.3286 18.6992 8.65641 25.678 9.45701 33.4853C10.2576 41.2926 17.2278 46.9718 25.0253 46.1702C27.1942 45.9472 29.1978 45.2451 30.9443 44.1814L37.5124 45.6562L35.6898 39.4349Z" fill="white"/>
<g opacity="0.5">
<path d="M22.4049 20.6164C29.6889 19.8676 36.2493 24.7747 37.7347 31.7883C37.7364 31.2873 37.7149 30.7818 37.6626 30.2723C36.862 22.465 29.8919 16.7858 22.0943 17.5874C14.2968 18.389 8.62461 25.3678 9.42522 33.1751C9.4777 33.6869 9.55818 34.1889 9.66219 34.6812C9.68962 27.5087 15.1185 21.3655 22.4049 20.6164Z" fill="white"/>
</g>
<path d="M23.547 47.4961C20.0107 47.4963 16.6096 46.2909 13.8294 44.0256C10.6303 41.419 8.63654 37.7211 8.21531 33.613C7.79409 29.5049 8.99555 25.4784 11.5988 22.2754C14.2024 19.0723 17.8957 17.0759 21.9989 16.6542C30.4638 15.7849 38.0665 21.9745 38.9363 30.4548C39.2653 33.6608 38.6102 36.8109 37.0396 39.6014L38.7102 45.3045C38.8346 45.7292 38.7255 46.1881 38.4232 46.5111C38.1205 46.8341 37.6716 46.9729 37.239 46.8759L31.1509 45.5089C29.3015 46.5541 27.2862 47.1944 25.1527 47.4136C24.6155 47.4689 24.0796 47.4961 23.547 47.4961ZM23.5854 19.0725C23.145 19.0725 22.7016 19.095 22.2536 19.141C18.8141 19.4946 15.7179 21.1681 13.5355 23.8532C11.3532 26.5385 10.3459 29.9138 10.699 33.3576C11.0522 36.8015 12.7234 39.9015 15.4052 42.0866C18.087 44.2715 21.4574 45.2804 24.898 44.9268C26.8301 44.7282 28.6463 44.1182 30.2957 43.1136C30.5717 42.9456 30.9017 42.8908 31.2177 42.9619L35.7179 43.9724L34.492 39.7867C34.393 39.4484 34.4412 39.0839 34.6246 38.783C36.1125 36.3461 36.7445 33.5545 36.4526 30.7102C35.7694 24.0492 30.1335 19.0725 23.5854 19.0725Z" fill="#000072"/>
<g opacity="0.3">
<path d="M35.7695 39.2985C31.882 42.5908 26.5265 44.0325 21.2082 42.7072C15.3101 41.2374 10.9644 36.7405 9.40139 31.2828C9.36403 32.0065 9.38081 32.7421 9.45703 33.4853C10.2576 41.2926 17.2278 46.9718 25.0254 46.1702C27.1943 45.9472 29.1978 45.2451 30.9443 44.1814L37.5124 45.6563L35.6899 39.435C35.7173 39.39 35.7426 39.3437 35.7695 39.2985Z" fill="#000072"/>
</g>
<path d="M28.1141 28.0434H28.1141C26.8858 26.8136 24.8944 27.034 23.6661 28.2638L23.4749 28.4552L23.2838 28.2638C22.0555 27.034 20.0641 26.8136 18.8358 28.0434C17.6075 29.2732 17.6075 31.2672 18.8358 32.497L19.027 32.6884L22.8886 36.5549C23.2124 36.8791 23.7375 36.8791 24.0613 36.5549L27.9229 32.6884L28.1141 32.497C29.3424 31.2671 29.3424 29.2732 28.1141 28.0434H28.1141Z" fill="#FF0068"/>
</g>
<defs>
<clipPath id="clip0_550_10221">
<rect width="221.775" height="192" fill="white" transform="translate(0.112305)"/>
</clipPath>
</defs>
</svg>
