<svg width="177" height="191" viewBox="0 0 177 191" fill="none" xmlns="http://www.w3.org/2000/svg">
<path d="M50.9258 123.951C48.5975 144.157 47.6693 163.694 46.4602 179.433C57.8174 194.625 106.648 195.104 116.504 177.769C112.724 164.143 134.464 136.096 111.947 117.397C101.385 108.63 50.9258 123.951 50.9258 123.951Z" fill="#444342"/>
<path d="M57.093 119.878C33.9704 126.669 43.8868 156.881 57.5884 175.149C59.8044 178.105 62.0238 172.255 64.3834 169.498C66.9245 166.533 84.0038 158.47 82.826 143.789C81.8308 131.369 63.5133 120.559 57.093 119.878Z" fill="#2C211E"/>
<path d="M111.363 7.93695C110.086 8.16133 108.322 9.10203 107.051 8.70694C104.789 8.00665 102.707 6.45561 100.614 5.3757C97.7938 3.92246 94.8556 2.67302 91.6577 2.48523C78.881 1.73589 67.0037 9.04049 58.5281 17.9868C52.7379 24.0981 47.8424 31.5412 43.3668 38.6674C36.8994 48.9629 31.3684 59.6443 30.3357 71.9223C30.0228 75.6208 28.4931 80.5775 29.2283 84.7972C30.0565 89.5547 31.4345 94.2149 33.0619 98.7529C34.7658 103.503 37.7485 107.647 40.3045 111.951C41.6488 114.214 43.0203 116.463 44.4181 118.695C44.8237 119.46 46.8577 121.448 46.5933 122.256C46.9519 121.158 47.3629 120.121 47.2135 118.941C47.0868 117.934 46.566 116.844 46.7176 115.823C51.2321 121.67 56.7292 126.733 60.9593 132.827C63.5046 136.491 66.4833 139.992 68.675 143.884C69.2671 144.935 69.8006 146.457 71.0225 146.935C72.664 147.579 74.9529 145.977 76.318 145.236C83.9046 141.125 92.7024 139.668 101.172 138.709C104.84 138.296 108.333 137.537 111.924 136.738C115.07 136.039 118.319 134.206 121.413 132.934C121.089 134.608 119.503 136.05 119.055 137.743C122.309 136.969 143.704 127.081 154.299 114.565C154.558 115.455 154.766 117.094 155.146 122.395C156.45 119.112 158.013 114.048 158.945 110.635C160.625 104.494 161.686 98.1889 162.221 91.8455C163.275 79.356 162.344 66.6617 159.566 54.4385C157.144 43.7798 152.562 33.6238 147.233 24.0208C135.595 3.04692 113.133 7.62461 111.363 7.93695Z" fill="#F08E1E"/>
<path d="M108.956 134.428C111.625 132.324 117.919 124.901 117.971 122.985C113.963 124.482 113.198 125.846 108.025 128.035C109.092 126.651 112.538 122.22 114.093 118.276C102.061 130.66 76.3509 134.582 70.6569 141.142C62.2872 121.546 45.4096 106.108 42.791 101.835C42.2854 104.029 43.5901 107.372 43.4964 109.718C37.2194 102.003 34.2287 88.7547 34.7532 78.879C33.6773 80.5058 32.7203 82.1962 31.8534 83.944C32.8379 81.9581 32.3542 77.6968 32.6684 75.453C33.238 71.3793 34.0371 67.336 35.083 63.3596C37.5078 54.1419 41.2742 44.9638 47.4535 37.615C51.8827 32.3461 64.2279 23.4653 64.9115 23.0557C66.0706 22.3632 73.7569 22.291 77.1972 22.7132C81.4951 23.2407 84.9785 24.9508 88.7512 26.9806C93.0706 29.3027 97.0694 33.2308 102.181 33.1923C104.683 33.172 105.318 30.5366 106.428 29.661C108.429 28.0844 123.12 30.0502 131.722 35.7312C128.39 34.9267 122.203 34.3855 117.015 34.7277C129.558 37.4509 139.945 43.3452 145.751 55.1982C143.685 53.939 143.087 53.8678 139.603 52.2482C156.6 71.6406 153.281 98.939 140.689 118.44C142.22 113.321 143.229 108.156 143.545 102.822C141.318 109.007 136.726 116.146 129.586 121.955C130.879 119.756 131.052 116.533 132.043 114.175C118.563 129.925 108.956 134.428 108.956 134.428Z" fill="#D97700"/>
<path d="M151.5 77.0765C151.775 73.3045 151.744 66.4733 148.952 63.4817C146.034 60.3542 139.903 60.0689 136.049 59.107C135.66 65.264 132.006 94.2873 129.585 100.249C130.388 98.2411 134.806 97.6106 136.579 96.8276C139.585 95.5029 142.462 93.7715 145.063 91.7662C150.08 87.8969 151.047 83.2688 151.5 77.0765C151.562 76.2159 151.331 79.3873 151.5 77.0765Z" fill="#F3B91D"/>
<path d="M32.8907 43.219C33.1703 45.6818 31.2734 48.3296 31.7077 50.9115C32.1056 53.2815 33.1783 55.7151 34.0349 57.9501C34.9944 60.4585 36.0484 62.9468 37.2512 65.3501C37.6398 66.1271 40.0881 71.5243 40.2496 68.7768C40.7859 59.699 44.6607 51.1194 49.6525 43.6583C51.2752 41.2329 53.0408 38.91 54.8927 36.6568C55.3596 36.0902 55.8419 35.5348 56.2881 34.9517C56.9018 34.1498 54.706 33.836 54.1479 33.6102C50.2367 32.0229 45.3645 30.0496 41.1511 31.4627C36.658 32.9689 34.4857 39.1896 32.8907 43.219Z" fill="#F3B91D"/>
<path d="M53.6817 110.586C55.0316 111.91 58.0703 112.889 59.0749 114.435C60.5962 116.742 61.2588 119.407 63.459 121.276C66.3719 123.75 69.9841 124.104 73.5463 123.61C82.2563 122.405 90.9739 121.205 99.657 119.811C102.534 119.35 105.412 119.08 107.907 117.423C114.118 113.299 115.58 109.184 115.368 101.79C115.073 91.4847 126.361 84.5835 125.938 74.2076C125.788 69.0362 124.789 63.9117 123.518 58.919C122.454 54.7348 120.771 46.8139 115.925 45.3945C108.795 43.3118 101.046 42.4382 93.6392 43.0201C91.373 43.1994 87.2495 43.9758 86.178 45.3632C84.4171 43.6355 82.5185 40.899 81.1367 39.7424C78.287 37.3614 75.0665 35.3008 71.9367 33.3168C71.9025 33.1348 62.3238 39.4513 60.7986 40.594C55.7251 44.3936 51.6956 47.9448 50.7012 54.3389C49.7758 60.278 49.4399 66.5344 49.3662 72.5357C49.3664 77.2362 47.7498 78.7451 44.3913 81.9294C41.5365 84.5883 42.3454 89.165 43.2395 92.4981C44.9758 98.9692 48.869 105.866 53.6817 110.586C54.4345 111.323 52.2362 109.168 53.6817 110.586Z" fill="#F4C82C"/>
<path d="M121.135 87.0975C123.838 81.524 126.274 77.0051 125.628 70.7165C124.82 62.5661 123.728 59.2506 121.738 53.528C120.179 49.0424 118.815 46.0303 114.008 44.8748C106.117 42.9761 97.6552 42.0141 89.6496 43.7004C91.5717 44.1477 98.5515 45.1491 96.8741 48.0173C94.2247 52.5297 92.0709 57.351 90.2729 62.2634C86.6792 72.0797 84.7863 82.0847 83.4716 92.4208C82.8575 97.2527 82.4327 99.0383 87.7994 100.374C92.2461 101.481 97.2367 101.534 101.794 101.534C106.682 101.536 110.713 102.566 114.411 98.6928C116.99 95.9934 119.445 90.6007 121.135 87.0975C122.347 84.5948 120.8 87.7908 121.135 87.0975Z" fill="#F1AC00"/>
<path d="M50.193 80.8423C52.8211 84.3232 57.8563 86.8364 62.0981 87.5611C67.2771 88.4473 69.5419 79.0673 70.8356 75.1714C73.0416 68.5327 74.1403 61.504 74.735 54.5467C75.0695 50.6268 75.2346 46.6523 75.0474 42.7175C75.0009 41.674 83.4946 42.6462 84.4483 42.766C81.7 39.6096 77.6448 36.9002 74.125 34.6837C70.6077 32.4651 70.4467 33.708 66.7829 36.2825C64.6423 37.7882 62.4438 39.2677 60.4065 40.9108C55.0491 45.2191 51.1879 48.2751 50.5949 55.2721C50.2045 59.8708 49.5295 64.5695 49.6177 69.1936C49.6884 72.8621 47.8225 77.7004 50.193 80.8423C52.8937 84.4209 49.1608 79.4734 50.193 80.8423Z" fill="#F1AC00"/>
<path d="M131.532 91.1697C132.932 90.5924 134.218 89.9184 135.5 89.2357C136.035 88.9552 136.578 88.7099 137.145 88.4966C138.868 87.8454 140.472 86.9635 141.962 85.8772C143.092 85.0554 144.025 84.0244 144.756 82.8492C145.166 82.1926 145.577 81.4529 145.324 80.5853C145.254 80.3536 145.393 80.1511 145.465 79.9382C146.432 77.2047 146.859 74.3889 146.641 71.4909C146.582 70.7111 146.396 69.9515 146.072 69.2294C145.93 68.9141 145.722 68.7012 145.392 68.5732C142.957 67.6248 140.578 66.5343 138.055 65.826C137.133 65.5658 136.269 65.8341 135.391 66.0211C135.156 66.0708 135.12 66.2705 135.114 66.4914C134.971 70.8612 134.422 75.1887 133.724 79.4953C133.255 82.3683 132.693 85.2243 132.08 88.0713C131.865 89.0729 131.503 90.0528 131.532 91.1697Z" fill="#D78A0B"/>
<path d="M37.2646 43.1085L36.3087 45.5088C35.8562 47.0574 35.8778 48.6158 36.1147 50.203C36.4526 52.4663 37.2868 54.513 38.6522 56.3358C39.7742 57.8375 41.2804 58.9417 42.6516 60.2355C42.8693 59.6896 43.0852 59.2382 43.2297 58.7625C43.8445 56.7445 44.5622 54.7685 45.3713 52.8198C46.8625 49.2402 48.764 45.8948 50.8849 42.667C51.2102 42.1736 51.2605 41.7145 51.0873 41.1774C50.633 39.7699 49.334 38.8859 47.8393 39.0336C47.4225 39.0743 47.1761 39.0336 46.9481 38.612C46.586 37.9302 45.8883 37.7219 45.1571 37.6887C44.7299 37.6699 44.3158 37.6586 43.897 37.5251C43.5885 37.4258 43.25 37.4421 42.9306 37.5282C42.5669 37.6252 42.1994 37.6857 41.8203 37.6925C41.3433 37.7072 40.3984 37.6466 40.1073 37.9977C39.2625 39.0229 38.9755 40.389 38.2476 41.5045C37.9057 42.0303 37.5907 42.5744 37.2646 43.1085Z" fill="#D78A0B"/>
<path d="M114.479 110.283C115.444 105.813 115.151 101.187 115.619 96.6637C108.454 100.347 96.9991 99.3542 89.7432 96.2552C88.176 95.5858 85.9611 94.1663 85.9929 96.8674C83.2019 97.5961 82.8291 95.9243 80.2565 94.7238C77.8675 93.6088 75.6733 92.0534 73.1907 91.1415C69.9189 89.939 66.2886 90.2426 62.9109 89.5195C65.8701 87.8791 59.773 86.652 58.6991 86.3074C56.6471 85.6483 51.9082 82.2498 51.4055 80.5141C49.4434 73.7581 43.3172 81.5483 42.7625 85.3638C41.4327 94.768 49.4688 107.877 57.6388 113.125C61.304 115.477 60.7265 119.814 64.776 122.221C68.641 124.516 72.6072 123.844 76.7758 123.402C83.7881 122.659 90.7998 121.758 97.7288 120.44C103.466 119.349 112.966 117.252 114.479 110.283C114.676 109.36 114.451 110.413 114.479 110.283Z" fill="#FFF7C5"/>
<path d="M97.796 104.228C96.4894 104.034 93.568 103.12 92.3815 102.538C91.8257 102.267 92.0903 103.803 92.6339 104.07C92.8849 104.193 93.1402 104.299 93.3933 104.405C92.8434 104.568 92.3119 104.889 91.6562 105.182C90.4233 105.732 89.1836 106.251 87.8937 106.656C85.4158 107.437 82.6151 107.859 80.0535 108.225C79.461 108.313 79.0215 108.372 78.6263 108.409C78.5553 108.411 78.4853 108.414 78.4155 108.416C78.3947 108.416 78.3787 108.424 78.3598 108.427C77.8299 108.46 77.3334 108.442 76.5846 108.365C75.3274 108.234 74.1004 108.02 72.8545 107.803C71.6348 107.594 70.494 107.298 69.3635 106.949C69.3604 106.941 69.361 106.936 69.3584 106.928C68.616 104.849 68.3753 104.879 68.3717 102.671C68.3717 102.671 67.4729 101.893 67.4743 102.293C67.4752 104.356 67.6511 104.712 68.2709 106.328C67.6319 106.236 66.9962 106.1 66.3715 105.926C66.1315 105.837 65.8894 105.751 65.6432 105.662C65.2105 105.501 64.7914 105.363 64.3897 105.215C62.2881 104.287 60.4079 102.87 59.0049 101.027C58.0504 99.7746 57.6666 98.3532 56.9316 97C56.7413 96.6484 56.526 96.3711 56.2645 96.1602C56.3211 96.1722 56.3776 96.1842 56.4339 96.1986C56.6205 96.2488 56.8865 96.2053 56.9101 95.977C56.9317 95.7408 56.6124 95.5771 56.4311 95.5268C55.484 95.2691 54.5028 95.3441 53.618 95.7693C53.1402 95.9999 53.9275 96.5789 54.2862 96.4088C54.4942 96.3077 54.7082 96.2335 54.9215 96.1807C54.9977 96.2816 56.2524 96.933 56.8629 99.0344C57.157 99.6412 57.5003 100.224 57.8891 100.774C58.0362 100.982 58.1934 101.182 58.3507 101.381C58.3395 101.422 58.3402 101.47 58.3569 101.529C58.7723 103.09 59.1827 104.653 59.6081 106.212C59.8093 106.947 60.0196 107.795 60.7019 108.247C60.9404 108.407 61.1841 108.479 61.4286 108.495L62.177 108.369C63.1775 107.966 64.0877 106.752 64.5827 105.985C65.5887 106.391 66.637 106.695 67.7145 106.9C71.1108 108.082 74.7659 109.059 78.3565 108.988C78.8857 110.199 79.4494 111.246 80.2724 112.322C80.6516 112.817 81.0287 113.344 81.6976 113.394C82.7882 113.478 84.0167 111.991 84.6798 111.298C85.6657 110.263 86.4677 109.102 87.128 107.834C87.1366 107.815 87.1397 107.799 87.1438 107.779C87.6155 107.669 88.0817 107.551 88.5388 107.412C89.595 107.087 90.6159 106.515 91.6264 106.066C92.4334 105.704 93.2803 105.384 94.0682 104.978C94.1289 104.945 94.1718 104.92 94.2163 104.897L95.5928 104.692C96.1132 104.827 96.9146 104.713 97.4531 104.793C98.097 104.888 98.2205 104.291 97.796 104.228Z" fill="#925722"/>
<path d="M80.1379 108.992C79.0221 109.045 79.3348 109.475 79.7925 110.371C80.0804 110.942 80.5837 111.776 81.0613 112.269C81.6229 112.841 81.3654 112.718 81.9533 112.456C82.3111 112.295 82.6424 111.921 82.9388 111.661C84.0915 110.646 85.0416 109.46 85.8104 108.144C84.6831 108.382 83.5649 108.685 82.4067 108.817C81.6526 108.901 80.8949 108.956 80.1379 108.992Z" fill="#F9F8E7"/>
<path d="M62.1377 107.301C62.2815 107.19 62.4178 107.072 62.549 106.949C62.9413 106.58 63.2801 106.163 63.5841 105.712C62.6286 105.154 61.7074 104.551 60.8384 103.88C60.5491 103.654 60.266 103.423 59.9893 103.184C59.8697 103.101 59.752 103.017 59.6319 102.934C59.9462 104.126 60.2602 105.32 60.5913 106.506C60.6578 106.748 60.7163 107.136 60.8644 107.34C61.3005 107.94 61.6585 107.679 62.1377 107.301Z" fill="#F9F8E7"/>
<path d="M64.9378 114.309C64.9394 114.212 71.3678 117.242 71.9289 117.426C72.3738 116.363 71.2987 114.921 70.6873 113.923C69.988 112.784 69.2109 111.995 67.9454 111.333C65.2698 109.932 64.9564 112.359 64.9378 114.309Z" fill="#E1C289"/>
<path d="M58.5704 113.174C56.7596 111.387 54.4659 110.419 52.7946 108.4C50.9905 106.223 49.5718 103.668 48.4297 101.089C46.67 97.1101 45.153 92.1142 45.304 87.7054C45.5089 81.7565 50.1326 84.8411 53.8528 85.3602C56.461 85.7247 52.5666 81.602 52.25 81.1441C51.8157 80.5135 49.9764 76.2405 49.1488 76.9185C47.2284 78.4902 45.3017 80.389 43.7354 82.3167C40.8329 85.8862 42.1825 91.8109 43.8938 95.5713C46.0869 100.39 48.8491 105.499 52.4776 109.378C53.9776 110.981 55.6237 112.184 57.4538 113.366C59.1904 114.491 59.5682 115.481 60.5234 117.334C60.3102 116.003 59.5473 114.148 58.5704 113.174C57.9291 112.542 58.8444 113.448 58.5704 113.174Z" fill="#E1C289"/>
<path d="M114.352 111.491C115.498 109.167 114.908 106.166 115.382 103.669C115.616 102.439 115.322 101.298 115.44 100.075C115.578 98.6808 115.832 97.297 115.837 95.8912C112.724 97.4541 109.317 98.2378 105.862 98.559C103.218 98.8056 100.095 97.7277 97.5948 98.8268C93.9353 100.438 98.769 103.519 99.9984 105.059C101.896 107.437 102.22 110.471 101.058 113.255C99.8769 116.09 97.5184 118.196 94.8915 119.678C91.9051 121.365 88.2669 121.234 84.9465 121.48C83.0418 121.618 81.2058 121.783 79.3122 121.411C77.6391 121.082 76.8185 121.743 75.2238 122.29C71.7309 123.49 67.9175 123.506 64.4931 122.043C68.4828 124.571 72.4918 123.759 76.8684 123.385C82.6816 122.888 88.5399 122.652 94.3186 121.814C97.3177 121.381 100.243 120.711 103.087 119.66C107.046 118.197 112.376 115.503 114.352 111.491C114.593 111.005 113.336 113.554 114.352 111.491Z" fill="#E1C289"/>
<path d="M83.6469 98.631C83.4788 98.7038 83.567 99.6291 83.5351 99.7956C83.3861 100.55 81.951 101.199 81.3501 101.547C80.6331 101.965 80.1518 101.612 79.3655 101.557C79.2277 101.545 78.9482 101.222 78.8907 101.349C78.8271 101.49 79.0019 101.576 79.1021 101.666C80.1592 102.617 81.4526 102.925 82.8185 102.978C84.1866 103.032 86.0143 102.687 86.8714 101.497C87.5411 100.563 87.3077 98.8754 86.358 98.1285C85.5619 97.5046 84.7775 98.1984 83.9056 98.6261C83.6479 98.7503 83.8829 98.4304 83.6469 98.631Z" fill="#E1C289"/>
<path d="M48.8794 31.038C54.0351 27.7995 60.421 23.1072 65.864 20.3631C63.6407 20.1384 61.4698 20.4706 59.3352 20.5455C61.96 17.0337 66.1467 12.4132 69.1592 9.25382C61.5512 13.8592 52.5719 23.9449 48.8794 31.038Z" fill="#F9C16E"/>
<path d="M100.383 64.289C96.5403 65.1284 90.5614 62.5502 86.6075 87.4538C86.2846 89.4969 85.971 92.6079 86.3861 94.6356C86.5706 95.538 103.678 101.26 106.564 97.6472C108.336 95.4283 109.716 92.2356 110.124 90.634C110.78 88.0682 111.234 86.4891 111.597 83.8648C111.815 82.2794 110.885 79.6416 110.777 78.0438C110.629 75.8523 109.73 73.6921 108.773 71.7189C107.185 68.4539 106.824 67.439 103.987 65.597C103.004 64.9614 101.542 64.166 100.383 64.289Z" fill="white"/>
<path d="M134.541 53.1551C135.632 54.9963 136.046 56.9896 136.052 59.1064L136.124 60.741C136.123 62.2587 136.119 63.7574 136.115 65.288C136.289 65.3275 136.427 65.3755 136.567 65.3883C139.562 65.7083 142.339 66.6982 144.965 68.1481C145.867 68.6448 146.382 69.3992 146.597 70.3892C146.99 72.192 146.963 73.9938 146.559 75.7841C146.07 77.9445 145.54 80.0929 145.021 82.2446C144.971 82.463 144.887 82.6716 144.739 82.8712C144.765 82.6447 144.79 82.4197 144.822 82.1944C145.165 79.5252 145.528 76.8583 145.857 74.1855C146.004 73.0041 145.922 71.8249 145.681 70.655C145.517 69.8612 145.095 69.2895 144.386 68.8985C142.098 67.6399 139.672 66.7537 137.123 66.215C136.817 66.1498 136.494 66.1506 136.085 66.1113C135.655 76.3422 133.63 86.2315 131.24 96.1793L129.585 100.252C129.365 100.791 129.143 101.361 128.598 101.915C128.696 101.443 128.753 101.127 128.827 100.819C129.355 98.5652 129.919 96.3214 130.415 94.0607C131.284 90.0798 132.175 86.1004 132.944 82.1C134.759 72.6867 135.423 63.1958 134.527 53.6251C134.511 53.4685 134.537 53.3117 134.541 53.1551Z" fill="#995702"/>
<path d="M58.433 32.8208C57.1062 34.4639 55.7577 36.0894 54.4454 37.743C50.4526 42.7774 47.1516 48.2245 44.8002 54.2236C42.4138 60.3086 40.9682 66.6189 40.4458 73.1406C40.4009 73.6673 40.3227 74.1905 40.2521 74.714C40.2439 74.7729 40.1857 74.8282 40.1166 74.942C39.8282 74.3038 39.7744 73.6699 39.8241 73.0584L40.0037 68.3585C41.3076 58.4011 44.8126 49.3135 50.5214 41.0535C48.5662 39.7539 46.6295 38.6991 44.5007 38.0376C44.0942 37.912 43.6765 37.8031 43.2582 37.7476C41.7886 37.5577 40.5583 37.9931 39.7347 39.2687C39.231 40.0479 38.7603 40.8571 38.3667 41.6966C37.3371 43.8929 36.6516 46.2085 36.1616 48.5831C36.1137 48.821 36.052 49.0531 35.9313 49.2834C35.7632 48.7423 35.7934 48.1976 35.8784 47.6606C36.2477 45.3349 36.9101 43.0974 37.9428 40.9776C38.1981 40.4582 38.4758 39.9508 38.7638 39.4493C39.9681 37.3605 41.696 36.3685 44.6097 37.2099C46.8396 37.851 48.9668 38.7671 50.8259 40.212C50.8587 40.2392 50.9203 40.2379 51.0093 40.2614C52.3055 38.5721 53.6157 36.8682 54.9913 35.0769L56.4645 33.5746C57.1699 32.9749 57.8889 32.3914 58.629 31.7779C58.7745 32.3821 58.785 32.3869 58.433 32.8208Z" fill="#995702"/>
<path d="M48.2518 31.4067C49.6034 31.7982 55.5052 34.405 56.4672 33.5775C56.0731 33.9796 55.6799 34.38 55.2871 34.7817C54.5698 35.5125 52.9917 34.4164 52.2071 34.1227C49.2876 33.0301 45.7736 31.9782 42.6322 31.9613C39.707 31.946 38.2294 34.7372 36.8179 36.9411C35.1486 39.5477 33.9716 42.3198 33.3732 45.3609C32.7434 48.5355 32.453 50.9007 33.4381 53.9919C34.4112 57.048 35.5524 60.055 36.93 62.9532C37.5583 64.2736 38.234 65.5711 38.9624 66.8407C39.3997 67.602 40.0187 68.0793 39.9873 68.9139C39.934 70.296 39.8824 71.6776 39.8292 73.0591C40.0132 70.759 37.4089 68.2187 36.4843 66.1807C35.2469 63.461 34.2341 60.6525 33.2196 57.8444C31.9419 54.3076 30.8111 51.0163 31.3647 47.1959C31.7809 44.3312 32.8804 41.5131 34.1803 38.9429C35.2736 36.7805 36.9706 33.101 39.0375 31.7388C41.4044 30.18 45.6289 30.6613 48.2518 31.4067Z" fill="#FFDB53"/>
<path d="M98.3374 120.903C98.4551 120.87 98.5851 120.866 98.709 120.848L101.055 120.06C104.753 118.882 108.001 116.914 110.935 114.405C111.12 114.248 111.281 114.063 111.526 113.819L112.468 112.845C113.154 112.067 113.821 111.351 113.879 110.248C113.972 108.514 114.115 106.782 114.253 105.052C114.46 102.442 114.689 99.8366 114.894 97.2259C114.95 96.4831 115.174 95.8244 115.528 95.1639C116.735 92.8934 118.201 90.7877 119.573 88.6218C120.095 87.796 120.583 86.9352 120.971 86.0393C122.186 83.2492 123.363 80.4401 124.521 77.6234C124.84 76.8343 125.072 76.0028 125.297 75.1773C125.399 74.8005 125.454 74.378 125.405 73.9924C124.962 70.5956 124.538 67.1959 124.013 63.8101C123.833 62.6645 123.629 61.5166 123.393 60.3771L126.315 69.5963C126.382 70.4207 126.479 71.2429 126.575 72.0633C126.847 74.3738 126.795 76.6638 125.866 78.8235C124.827 81.2497 123.729 83.6584 122.544 86.0153C121.841 87.3997 120.895 88.6556 120.101 89.9959C118.866 92.0718 117.683 94.1766 116.455 96.2556C116.209 96.6703 116.128 97.0758 116.17 97.5425C116.366 99.9317 116.346 102.326 116.185 104.712C116.056 106.67 115.725 108.617 115.68 110.574C115.653 111.77 115.157 112.561 114.332 113.276C114.172 113.411 114.056 113.598 113.9 113.781L112.924 114.723C111.168 115.901 109.534 117.095 107.81 118.128C104.13 119.713 100.365 120.85 96.4988 121.391C97.1107 121.233 97.7257 121.074 98.3374 120.903Z" fill="#995702"/>
<path d="M43.2337 95.9928C42.6312 94.7637 42.1136 93.5088 41.7433 92.1582C40.7295 88.468 40.3617 83.4346 43.7867 80.8411C44.809 80.0675 45.791 79.2467 46.8037 78.4604C47.5493 77.8839 48.1474 77.1799 48.6956 76.4221C48.9638 76.0553 49.0888 75.6917 49.0649 75.237C49.018 74.3828 48.9686 73.5249 49.0013 72.6704C49.1105 69.828 49.1975 66.9853 49.4047 64.1488C49.6682 60.4839 50.8866 53.247 50.8866 53.247C50.8866 53.247 51.4459 51.253 51.6156 50.5906L50.6727 60.537C50.4713 62.4471 50.3053 64.3632 50.2021 66.2828C50.0344 69.3741 50.0469 72.4748 50.0147 75.5702C50.0081 76.1504 49.8605 76.6357 49.5922 77.1403C48.2542 79.6469 45.5611 80.8091 44.1616 82.9815C40.3328 88.938 45.5452 97.6286 48.2245 102.975C47.3237 101.18 45.2735 99.7944 44.2418 97.9224C43.8893 97.2793 43.5498 96.639 43.2337 95.9928Z" fill="#995702"/>
<path d="M52.8302 81.5275C51.8424 72.4176 53.4367 68.6938 56.909 61.8645C58.2163 59.2912 59.9491 56.4957 62.8077 55.5931C63.4415 55.3913 64.6514 55.5332 65.2504 55.8365C65.7154 56.0703 67.2673 56.8969 67.544 57.325C70.6297 62.0837 71.3372 67.2661 70.4862 72.7457C70.1718 74.7749 69.4384 76.716 68.6999 78.6361C67.7252 81.1546 66.7313 83.6645 65.7121 86.162C65.1903 87.4424 65.6171 88.0239 64.1729 87.944C54.7548 87.4184 52.8723 81.9169 52.8302 81.5275Z" fill="white"/>
<path d="M155.607 50.1241C154.959 49.6905 154.676 48.9699 154.267 48.3609C152.511 45.7345 150.43 43.3643 148.419 40.9374C145.928 37.932 143.342 35.0105 140.642 32.1939C138.352 29.7986 135.935 27.5206 133.22 25.5928C133.037 25.4621 132.875 25.2945 132.531 25.4007C132.924 25.7851 133.273 26.1509 133.648 26.4837C135.649 28.2647 137.341 30.3265 139.052 32.3715C141.453 35.2405 143.619 38.2877 145.683 41.4023C147.01 43.4074 148.221 45.4806 149.516 47.5052C150.251 48.6556 151.024 49.778 151.7 50.965C152.487 52.3455 153.328 53.6987 154.125 55.0752C155.873 58.0959 157.284 61.2867 158.847 64.4003C159.579 65.8538 160.21 67.3493 160.756 68.8822C160.831 69.09 160.905 69.3082 161.111 69.4574C161.625 66.6252 156.146 42.5088 154.196 38.9744C153.935 39.1505 154.087 39.3949 154.11 39.593C154.526 42.7554 154.971 45.9144 155.553 49.0549C155.616 49.4008 155.722 49.7549 155.618 50.1167C155.633 50.1546 155.649 50.1931 155.661 50.2306C155.644 50.1936 155.623 50.1597 155.607 50.1241Z" fill="#F9C16E"/>
<path d="M139.777 126.921C140.375 126.654 140.89 126.266 141.422 125.909C142.464 125.208 143.482 124.477 144.528 123.786C144.984 123.483 145.33 123.079 145.551 122.615C146.11 121.439 146.842 120.344 147.294 119.119C147.625 118.218 148.159 117.422 148.501 116.525C149.03 115.141 149.477 113.726 149.943 112.322C150.44 110.834 150.809 109.293 151.189 107.763C151.577 106.208 151.976 104.656 152.34 103.096C153.046 100.073 153.733 97.0448 154.262 93.9837C154.645 91.7587 154.946 89.5229 155.048 87.2636C155.062 86.9378 155.053 86.6106 155.047 86.2836C155.046 86.2486 154.988 86.2154 154.938 86.1537C154.704 86.678 154.761 87.232 154.693 87.7612C154.435 89.8389 153.939 91.8625 153.419 93.8837C153.04 95.3398 152.64 96.7846 152.199 98.2234C151.733 99.7334 151.218 101.226 150.751 102.733C150.283 104.252 149.601 105.686 149.129 107.194C148.098 110.491 146.692 113.638 145.434 116.846C145.023 117.89 144.461 118.877 143.961 119.887C143.414 120.986 142.787 122.036 142.182 123.101C141.485 124.324 140.695 125.479 139.868 126.611C139.809 126.694 139.738 126.766 139.777 126.921Z" fill="#F9C16E"/>
<path d="M39.5982 111.115C39.6794 110.523 39.5607 110.133 39.4861 109.753C38.8809 106.727 38.2178 103.709 37.7033 100.662C37.6838 100.543 37.6547 100.411 37.5904 100.313C37.5065 100.182 37.3577 100.115 37.1981 100.154C37.0485 100.192 37.0348 100.327 37.0348 100.455C37.0406 101.033 37.0462 101.609 37.0529 102.189C37.0725 103.44 37.0926 104.697 37.1138 105.953C37.1253 106.557 37.2154 107.119 37.5668 107.662C38.124 108.525 38.5835 109.448 39.0901 110.342C39.2119 110.558 39.3635 110.759 39.5982 111.115Z" fill="#F9C16E"/>
<path d="M64.0914 55.0485C64.8923 56.4153 65.4707 57.9002 65.9199 59.4132C68.5525 68.3384 66.573 78.094 62.2596 86.3198C61.9528 86.9052 61.4911 86.9882 61.1065 87.4562C62.1096 87.8563 63.6467 88.8613 64.6053 88.0582C65.5016 87.3062 66.1856 85.2767 66.638 84.2133C67.927 81.1893 68.6083 77.9522 69.4734 74.7918C69.9552 73.0428 70.4352 71.2749 70.4772 69.4638C70.5165 67.7256 70.6843 63.8768 70.2058 62.1997C69.3466 59.1877 68.3075 57.5277 65.8166 55.5731" fill="#DFDFDF"/>
<path d="M103.669 65.2437C106.023 67.4331 106.768 70.8407 107.044 74.0449C107.714 81.8544 106.277 89.8315 102.932 96.9117C102.614 97.59 102.183 98.1651 101.705 98.7364C103.173 99.008 106.414 99.3971 107.166 97.7469C108.463 94.8938 109.581 91.7174 110.385 88.6504C111.063 86.0609 111.6 82.4343 111.377 79.7663C111.122 76.735 109.875 73.8835 108.563 71.1394C107.506 68.9277 106.21 66.5675 103.941 65.6508" fill="#DFDFDF"/>
<path d="M93.4267 87.0732C93.3707 88.8264 93.5197 90.6263 94.3947 92.1465C95.2672 93.6682 97.0053 94.8625 98.9729 94.8083C100.565 94.764 102.08 93.9211 103.151 92.8201C104.222 91.7197 104.905 90.3738 105.491 89.0302C107.415 84.6223 108.384 79.4393 105.667 75.629C105.195 74.9653 104.592 74.3429 103.775 74.036C102.51 73.5591 100.486 73.3531 99.2244 73.9666C97.826 74.648 96.7496 75.835 95.9757 77.1676C94.2543 80.1382 93.5351 83.6559 93.4267 87.0732Z" fill="#2C211E"/>
<path d="M60.8354 67.9126C59.2945 70.945 58.3681 74.1943 58.1119 77.4572C57.9516 79.5473 58.5698 81.581 60.4308 82.9139C63.114 84.8346 66.8947 80.6346 67.6313 79.4754C69.7237 76.1848 70.4687 72.2916 69.6969 68.6935C69.4766 67.667 69.1092 66.6182 68.2696 65.897C67.1703 64.9486 65.3712 64.7452 63.8853 65.2685C62.3984 65.791 61.242 66.9626 60.6983 68.2816" fill="#2C211E"/>
<path d="M95.9365 77.2203C95.7189 79.3719 96.8541 81.1523 98.4744 81.1975C100.095 81.2415 101.586 79.534 101.803 77.38C102.02 75.2283 100.883 73.4489 99.2654 73.404C97.6444 73.3599 96.1547 75.0687 95.9365 77.2203Z" fill="white"/>
<path d="M59.1198 67.8403C58.7729 69.8397 59.7278 71.5746 61.2547 71.7173C62.776 71.8587 64.2933 70.3532 64.64 68.3555C64.9857 66.357 64.0298 64.6209 62.5051 64.4785C60.9833 64.337 59.4644 65.8411 59.1198 67.8403Z" fill="white"/>
<path d="M72.0045 58.6346C71.9669 57.3776 71.8374 56.123 71.7701 54.8677C71.7692 54.8461 71.7692 54.8211 71.7684 54.7989C71.7052 54.3273 71.6361 53.8573 71.5614 53.3896C71.5401 53.4329 71.5202 53.4777 71.4989 53.521C71.5474 54.8717 71.5312 56.224 71.4429 57.5787C71.4586 59.1377 71.3764 60.6902 71.2022 62.245C71.1833 62.9393 71.1511 63.6332 71.1073 64.3268C70.6901 60.3647 69.1509 56.0503 64.1458 55.056C64.0575 55.0082 63.9658 54.9733 63.882 54.9708C63.8111 54.9669 63.7453 54.9782 63.675 54.9785C63.5855 54.9649 63.5007 54.9459 63.4103 54.9351C63.2807 54.9224 63.2462 54.9491 63.2634 54.9948C58.8324 55.3085 56.2268 60.706 54.6881 64.2878C52.5689 69.2186 51.7004 74.5951 52.0773 79.938C51.9001 80.0284 51.7721 80.2072 51.789 80.4767C51.967 83.3019 54.8249 85.8006 57.1574 86.9768C58.6557 87.7336 60.3163 88.1779 61.9692 88.4276C62.4605 88.5029 63.152 88.6918 63.7719 88.7203C63.188 89.452 62.5225 90.1221 61.7177 90.6802C61.5161 90.8188 63.1996 90.8931 63.3921 90.6935C65.4871 88.4972 66.8139 85.7063 68.0895 82.5046C69.5576 78.8084 70.8967 74.9817 71.1161 70.9803C71.8026 66.9205 72.1292 62.8081 72.0045 58.6346ZM69.8758 73.2955C69.2639 76.8381 67.9355 80.2161 66.5767 83.5282C66.0666 84.7729 65.519 86.0119 64.8415 87.1609C62.5165 87.2944 59.7857 86.6541 57.7858 85.644C56.5265 85.0061 55.3935 84.1548 54.5063 83.0498C53.879 82.2651 53.6254 81.1561 53.0622 80.3645C52.7026 75.5958 53.3235 70.8158 54.9757 66.315C56.3509 62.5658 59.3017 55.3986 64.1846 55.5816C64.277 55.5858 64.3405 55.5736 64.3885 55.5555C71.5923 57.4681 70.4234 70.1499 69.8758 73.2955Z" fill="#995702"/>
<path d="M111.906 79.3329C110.949 73.2169 107.566 64.9589 100.819 63.5191C100.632 63.4792 100.51 63.5192 100.437 63.5924C97.2015 63.3333 93.9855 65.8532 92.0171 68.2102C91.7753 68.498 91.5574 68.8003 91.3373 69.1006C91.3708 69.0238 91.414 68.9622 91.4655 68.9149C91.8478 68.0573 92.225 67.1986 92.606 66.3415C92.4015 66.0943 92.1877 65.8564 91.9705 65.6222C90.9163 67.9855 90.0174 70.4048 89.2328 72.8675C88.667 74.2314 88.2586 75.6585 87.9998 77.1198C87.0087 80.8814 86.0449 84.6533 85.5425 88.5115C85.2995 90.3543 85.1429 92.2076 84.998 94.0593C84.9282 94.9538 84.8993 95.8596 84.79 96.7493C84.7222 97.322 84.1496 98.2683 84.2999 98.7922C84.3709 99.0408 84.7559 99.3121 84.9413 99.4762C85.1042 99.6202 85.7783 98.3506 85.8621 98.2845C86.0136 98.1661 86.129 98.1079 86.2349 98.0857C86.194 98 86.164 97.9057 86.1633 97.7934C86.1569 97.0095 86.2034 96.2924 86.3164 95.5485C87.0714 96.5182 89.0884 96.992 90.0355 97.3622C91.9685 98.1194 93.9744 98.7209 96.017 99.1058C98.0589 99.4919 100.161 99.652 102.236 99.5211C103.782 99.4254 106.054 99.3328 107.32 98.3047C107.422 98.2459 107.52 98.188 107.619 98.129C109.199 95.4782 110.299 92.5197 111.068 89.5564C111.929 86.2297 112.442 82.7542 111.906 79.3329ZM109.795 90.3563C109.064 92.8405 108.097 95.3074 106.779 97.5542C106.177 97.5813 105.654 97.7888 104.984 97.9269C104.045 98.1229 103.085 98.2389 102.126 98.2951C99.9636 98.4184 97.7942 98.1839 95.6799 97.7183C93.6642 97.2732 91.7052 96.6087 89.7888 95.8436C89.0021 95.5293 87.7981 95.0254 86.3123 94.1562C86.0246 92.1402 86.3076 89.3464 86.6069 87.4545C87.5943 81.2425 88.7055 76.7406 89.8794 73.469C89.8885 73.4404 89.8972 73.4112 89.9068 73.3839C90.4782 72.2375 91.1336 71.2389 91.8497 70.1785C93.584 67.6084 97.2791 64.0798 100.765 64.4986L100.77 64.4992C107.317 65.2858 110.449 74.5125 111.062 80.3594C111.412 83.7345 110.745 87.1333 109.795 90.3563Z" fill="#995702"/>
<path d="M122.827 54.9695C122.288 52.6785 121.215 49.1579 119.278 47.188C119.747 47.3524 120.214 47.5165 120.685 47.6863C121.011 47.8039 121.371 47.3621 121.036 47.1308C116.966 44.316 111.966 43.2782 107.109 42.6886C104.705 42.3976 102.287 42.2466 99.8665 42.1941C97.6128 42.1488 94.3246 41.6582 92.254 42.667C92.1421 42.7215 92.1176 42.8841 92.241 42.9436C94.1017 43.8402 96.8792 43.4524 98.8957 43.5226C101.371 43.6067 103.856 43.7395 106.319 44.0115C110.289 44.4533 114.061 45.4459 117.806 46.6895C118.481 47.9693 119.444 49.1363 120.11 50.4301C120.906 51.9818 121.566 53.5955 122.373 55.1397C122.519 55.4164 122.898 55.2749 122.827 54.9695Z" fill="#995702"/>
<path d="M30.7222 67.7414C29.4767 72.2834 28.8288 82.7297 29.2665 87.3971C29.6952 91.9979 30.8845 96.4632 32.9507 100.604C36.8888 108.498 43.078 115.083 46.4193 123.303C46.627 123.813 47.4735 123.805 47.5483 123.202C47.897 120.413 47.802 117.685 47.159 114.944C46.7867 115.143 46.4147 115.34 46.0418 115.538C47.6443 118.032 49.3755 119.944 51.5964 121.865C51.7782 122.026 52.0757 121.768 51.9154 121.573C50.194 119.471 48.5432 117.095 47.0835 114.798C46.6568 114.132 45.8151 114.742 45.9642 115.389C46.5408 117.912 46.7158 120.42 46.3909 122.989L47.5222 122.888C44.3113 114.955 38.4181 108.62 34.4819 101.092C32.2698 96.8645 30.9652 92.3342 30.4498 87.5928C29.9281 82.7925 30.4548 70.6188 30.8637 67.781" fill="#995702"/>
<path d="M50.8861 120.744C52.4728 123.09 54.4939 125.123 56.3475 127.262C58.0905 129.274 59.7832 131.337 61.4167 133.44C64.8097 137.802 67.8303 142.424 70.5379 147.241C70.6505 147.442 70.976 147.533 71.1806 147.441C74.8651 145.772 78.569 144.179 82.4063 142.89C84.2735 142.264 86.1637 141.698 88.0642 141.178C90.0021 140.65 92.2174 140.449 94.0252 139.569C94.2493 139.46 94.2857 139.049 93.9766 139.02C92.1665 138.86 90.2714 139.467 88.5167 139.868C86.3996 140.356 84.3075 140.933 82.2435 141.605C78.2566 142.899 74.3556 144.481 70.6682 146.474C70.9228 146.517 71.1793 146.56 71.4342 146.606C68.7014 141.699 65.6325 136.98 62.2541 132.494C59.0835 128.277 55.4946 123.518 51.0415 120.602C50.9458 120.538 50.8147 120.636 50.8861 120.744Z" fill="#995702"/>
<path d="M60.0494 94.1751C60.6362 95.5383 61.5004 96.7176 62.5394 97.7482C64.0259 99.2259 65.4422 100.788 67.1796 101.988C67.3051 102.074 67.4294 102.165 67.5573 102.246C67.6364 102.249 67.7413 102.283 67.8499 102.331C67.9492 102.374 68.0478 102.423 68.1369 102.474C68.1919 102.504 68.2357 102.53 68.2742 102.554C68.3343 102.589 68.3757 102.617 68.3757 102.617C68.3761 102.643 68.3764 102.665 68.3769 102.69C68.5194 102.691 68.6737 102.686 68.8297 102.71C71.7927 103.149 74.767 103.34 77.763 103.225C79.4891 103.154 81.165 102.791 82.7404 102.121C82.8945 102.054 83.0439 101.978 83.1894 101.899C84.4145 101.245 85.2856 100.186 85.6742 98.7785C86.0533 97.3982 83.734 95.9698 82.7722 95.3412C79.0129 92.8747 74.8738 91.0016 70.5133 89.9009C68.3461 89.3535 66.05 88.8854 63.8112 88.8052C62.3427 88.7532 60.7131 88.9885 60.04 90.4915C59.5178 91.6553 59.5473 93.0085 60.0494 94.1751Z" fill="#2C211E"/>
<path d="M60.3905 91.8189C60.4079 91.4074 60.5425 91.0691 60.8255 90.7749C60.8658 90.7286 60.9019 90.6835 60.9493 90.6404C61.3242 90.3142 61.7325 90.0786 62.1691 89.9225C62.4532 89.8195 62.7487 89.7533 63.0606 89.7298C63.108 89.7256 63.1518 89.7134 63.2416 89.7091C64.0039 89.6816 64.7773 89.6786 65.5311 89.7669C68.6692 90.1363 71.6776 91.0234 74.5963 92.2129C75.3035 92.4843 76.0287 92.7167 76.7178 93.0284C76.8048 93.0673 76.8951 93.1031 76.9805 93.1459C77.2595 93.2822 77.5306 93.4316 77.8067 93.5728C78.7173 94.1597 79.4292 95.0092 79.69 96.4947C79.6286 96.1457 76.4059 95.5262 76.0777 95.4479C73.867 94.9256 71.7698 94.6783 69.5252 95.0739C69.0057 95.1666 68.3108 95.3643 67.9158 95.7131C67.2111 96.3366 66.7363 98.094 66.7772 99.0029C65.5158 99.1808 61.387 95.2955 60.4699 92.1532C60.4389 92.0472 60.4149 91.9462 60.3905 91.8189Z" fill="#444342"/>
<path d="M62.0976 90.7692C62.4426 89.8684 64.7871 89.9367 67.3363 90.9201C69.1171 91.6062 70.5229 92.5599 71.0935 93.3778C71.333 93.7302 71.4279 94.0593 71.3229 94.3291C71.2391 94.5479 71.0375 94.7072 70.7461 94.8128C70.4415 94.9215 70.0373 94.9712 69.5614 94.9599C68.6099 94.9392 67.3746 94.6764 66.0852 94.18C66.0592 94.1693 66.0316 94.1573 66.0068 94.1468C63.5009 93.1639 61.7567 91.6601 62.0976 90.7692Z" fill="#90908F"/>
<path d="M66.1386 95.3258C66.5732 95.1863 67.1264 95.2022 67.6831 95.4132C67.7994 95.4597 67.9099 95.5114 68.015 95.5687C68.8074 95.9993 69.2464 96.7401 69.0175 97.3415C68.7584 98.0164 67.751 98.2569 66.7588 97.8831C66.7523 97.8788 66.7466 97.8781 66.7405 97.8756C66.5925 97.8183 66.4552 97.7484 66.3274 97.6714C65.5883 97.2368 65.1829 96.5261 65.4073 95.9481C65.5212 95.6468 65.7912 95.4381 66.1386 95.3258Z" fill="#90908F"/>
<path d="M99.3012 7.34101C98.6437 10.3278 98.6742 13.1199 97.1012 15.7671C95.6522 18.2059 93.8917 21.1625 93.3553 23.969C95.4099 21.239 98.571 19.5728 100.65 16.6696C101.593 15.3568 105.406 12.8914 105.222 11.1048C105.05 9.39623 100.973 8.00234 99.3012 7.34101Z" fill="#D97700"/>
<path d="M80.8112 7.67642C73.0667 10.8085 66.5241 18.6917 69.2808 27.5059C70.2889 30.7267 72.2789 33.2403 75.0172 35.1735C76.4242 36.1658 77.8801 37.0588 79.2217 38.1427C81.8392 40.2584 83.7188 43.0576 85.7513 45.6985C85.9711 45.9836 86.4814 45.6972 86.3003 45.3696C84.355 41.8258 81.7081 38.7327 78.4507 36.3412C75.9574 34.5102 73.4803 33.1259 71.6541 30.5221C69.3727 27.2687 69.0834 22.9122 70.0855 19.1759C71.5161 13.8399 76.2128 10.2666 80.9085 7.89917C81.0472 7.82979 80.9562 7.61826 80.8112 7.67642Z" fill="#995702"/>
<path d="M93.4979 4.85447C85.6202 0.783439 78.7313 9.75848 77.0261 16.566C75.8507 21.2583 76.0929 26.0964 78.3999 30.4102C80.7589 34.8198 88.187 39.5504 85.869 45.2643C85.6331 45.8443 86.5285 46.2094 86.7658 45.632C88.3586 41.7743 86.0846 38.4413 83.7185 35.4549C80.52 31.4149 77.7285 28.1484 77.3412 22.7555C76.7508 14.557 83.5285 1.5301 93.3808 5.14278C93.571 5.21273 93.6734 4.94648 93.4979 4.85447Z" fill="#995702"/>
<path d="M100.789 22.2C97.3072 21.7631 92.9104 25.4029 89.6123 23.3646C87.8691 22.2859 88.2784 19.9498 86.894 18.7358C86.2735 18.1912 81.3906 17.1077 81.2626 17.8663C82.2946 11.7032 87.3656 8.77138 92.5439 6.33942C89.7026 7.67501 88.8576 12.3208 88.6061 15.1715C90.396 14.9391 91.7606 12.8851 93.5855 12.1607C92.3639 15.7746 88.8591 21.4675 95.6078 21.9024C101.612 22.2896 105.946 15.7312 110.369 13.3752C111.31 16.2362 108.4 17.9139 108.007 20.435C110.161 20.1852 114.355 16.9477 116.517 15.7292C117.132 18.3465 115.929 20.8603 114.465 22.9744C113.834 23.8852 111.457 28.2946 110.298 28.5023C108.767 28.7768 103.999 22.6031 100.789 22.2Z" fill="#F9C16E"/>
<path d="M70.3571 20.0614C70.3763 20.0561 75.0783 7.87437 78.0823 11.8236C78.5087 12.3835 76.1578 18.1154 75.9837 19.0421C73.6516 18.2649 72.3607 19.7016 70.3571 20.0614Z" fill="#F9C16E"/>
<path d="M95.0504 26.8615C92.5668 32.0207 95.0359 42.7925 87.4805 43.8688C86.9992 43.9377 86.986 44.7508 87.4944 44.7473C95.7563 44.7003 93.7671 32.2282 95.5487 27.0655C95.6609 26.7359 95.1999 26.5497 95.0504 26.8615Z" fill="#995702"/>
<path d="M101.793 32.7484C101.86 35.5557 101.173 37.437 98.7342 38.8916C96.8401 40.0232 94.583 40.8927 93.1018 42.5751C92.8765 42.8317 93.2094 43.2299 93.5051 43.0887C95.0089 42.3729 96.3546 41.3166 97.8195 40.5078C98.7983 39.9679 99.7788 39.4438 100.662 38.7529C102.582 37.2511 102.673 34.8901 102.396 32.6552C102.347 32.2528 101.783 32.3641 101.793 32.7484Z" fill="#995702"/>
<path d="M67.4899 16.6553C64.4092 21.7367 63.7021 26.6837 68.581 30.7619C73.7962 35.1201 80.4514 36.9865 83.7727 43.4133C84.0485 43.9452 84.8851 43.5964 84.6328 43.037C82.2813 37.8522 77.1138 35.1153 72.4905 32.2804C70.1772 30.8619 67.7401 29.2738 66.4545 26.7982C64.8198 23.6504 66.4529 19.7617 67.9262 16.9042C68.0584 16.6504 67.6396 16.4094 67.4899 16.6553Z" fill="#995702"/>
<path d="M34.3482 93.0115C34.4302 92.706 34.6828 92.6487 34.9552 92.675C35.1402 92.6937 35.3251 92.724 35.5011 92.7748C35.9491 92.8994 36.4004 93.0198 36.8337 93.1798C38.5965 93.8397 40.3527 94.511 42.1112 95.1774C44.0957 95.9284 46.7923 96.9971 48.2612 98.5957C47.1608 98.179 46.1549 97.5519 45.0504 97.1498C43.7061 96.6627 42.3099 96.1972 40.9387 95.8241C38.9631 95.2873 37.0385 94.6127 35.1509 93.8176C34.981 93.7437 34.8142 93.6645 34.6485 93.5749C34.426 93.4564 34.2773 93.2777 34.3482 93.0115Z" fill="#995702"/>
<path d="M31.5689 80.4493C31.6799 80.29 31.9309 80.2133 32.1372 80.1358C32.2034 80.1106 32.3133 80.1767 32.3972 80.2129C35.5005 81.5096 38.7743 82.7879 41.422 84.9206C42.6655 85.9242 43.8226 87.0254 44.975 88.1273C46.4205 89.5067 47.8002 90.9566 49.0019 92.5629C49.0796 92.6704 49.1537 92.7798 49.1985 92.916C49.0782 92.5604 48.1174 92.015 47.8199 91.7654C47.3206 91.3487 46.8249 90.9312 46.3242 90.5166C45.3224 89.6856 44.3127 88.863 43.279 88.0711C41.6557 86.8273 39.965 85.6683 38.2077 84.6251C36.4638 83.5917 34.7828 82.3944 32.8877 81.6344C32.4825 81.4713 32.1036 81.2282 31.7493 80.9683C31.6221 80.8723 31.5044 80.5438 31.5689 80.4493Z" fill="#995702"/>
<path d="M103.069 107.612C105.575 107.335 108.089 107.179 110.598 107.207C113.103 107.209 115.604 107.369 118.079 107.689L119.929 107.966L121.766 108.319C122.377 108.45 122.987 108.576 123.596 108.687C124.206 108.814 124.816 108.924 125.43 109.035L129.11 109.739C129.721 109.872 130.339 109.991 130.964 110.104C131.582 110.232 132.201 110.359 132.838 110.448L132.896 110.291C132.342 109.966 131.771 109.677 131.201 109.386C130.616 109.12 130.032 108.862 129.438 108.619C128.846 108.386 128.235 108.18 127.633 107.963L125.796 107.413C125.171 107.262 124.549 107.116 123.922 106.986C123.29 106.878 122.659 106.782 122.024 106.695L120.117 106.508L118.206 106.365C115.658 106.207 113.104 106.213 110.57 106.378C108.034 106.573 105.514 106.907 103.043 107.451L103.069 107.612Z" fill="#995702"/>
<path d="M103.53 111.607C105.566 112.557 107.604 113.49 109.621 114.468C111.645 115.434 113.661 116.406 115.67 117.393C117.679 118.379 119.619 119.514 121.686 120.374C122.719 120.803 123.752 121.231 124.808 121.616C125.866 122.009 126.931 122.375 128.037 122.671L128.112 122.521C127.219 121.803 126.28 121.169 125.327 120.567C124.849 120.261 124.359 119.984 123.877 119.692L122.402 118.871C120.423 117.789 118.295 117.037 116.216 116.179C114.14 115.316 112.047 114.493 109.942 113.704C107.833 112.929 105.725 112.156 103.593 111.453L103.53 111.607Z" fill="#995702"/>
<path d="M103.883 52.352C96.536 49.6426 91.9706 56.3612 89.9558 65.1604C89.1228 68.7999 95.9622 62.6644 101.613 63.699C109.636 65.1687 113.337 74.3323 116.673 82.4214C116.673 82.4214 122.265 59.1311 103.883 52.352Z" fill="#F1AC00"/>
<path d="M90.654 71.173C93.2068 65.5244 98.9436 63.5995 101.341 64.178C109.606 66.1726 110.942 77.3888 111.638 80.0874" stroke="#995802" stroke-width="0.60762"/>
<path d="M71.3329 43.5596C71.3155 43.5334 71.2954 43.5101 71.2772 43.4847C70.8528 42.5871 70.1226 41.8742 69.0381 41.5005C67.1444 40.8468 64.7139 41.5411 62.9 42.1928C60.2848 43.1308 57.728 44.8238 55.7936 46.8181C55.5624 47.0535 55.4013 47.2995 55.2949 47.5464C53.8522 48.995 55.7782 51.2889 57.5605 50.9892C60.5568 50.4863 63.1831 48.4348 66.2043 48.1344C67.9087 47.9643 69.9378 48.851 71.3996 47.6231C72.7138 46.518 72.1982 44.7679 71.3329 43.5596Z" fill="#834A06"/>
<path d="M96.0468 52.7501C96.026 53.8195 96.6597 54.9187 97.5869 55.4411C98.8129 56.1314 105.279 57.9553 107.954 60.9149C109.127 62.2125 109.887 63.8266 111.274 64.9623C112.54 65.9991 114.575 66.1368 115.849 64.8461C116.339 64.3486 116.915 63.3851 116.775 62.0833C116.39 58.5032 112.774 53.6097 104.741 50.3004C101.129 48.8129 96.142 48.1101 96.0468 52.7501Z" fill="#834A06"/>
<path d="M85.5737 79.7359C82.9791 80.972 81.1905 100.358 97.3142 105.262C114.833 110.587 118.118 91.6742 116.998 88.7928C115.949 86.0817 88.8922 78.1564 85.5737 79.7359Z" stroke="#24201F" stroke-width="1.33524" stroke-linecap="round" stroke-linejoin="round"/>
<path d="M43.0912 67.2537C35.0974 70.5483 36.509 86.844 48.8078 90.2482C59.6508 93.2488 68.6895 81.2592 67.6866 74.366C67.2541 71.3918 49.979 64.415 43.0912 67.2537Z" stroke="#24201F" stroke-width="1.5148" stroke-linecap="round" stroke-linejoin="round"/>
<path d="M84.3111 82.1488C84.488 75.7939 71.4849 73.1766 68.1023 76.5087" stroke="#24201F" stroke-width="1.42791" stroke-linecap="round" stroke-linejoin="round"/>
<path d="M117.285 88.947C117.364 89.1011 137.217 80.3982 137.529 79.9989" stroke="#24201F" stroke-width="1.42791" stroke-linecap="round" stroke-linejoin="round"/>
<path d="M62.2761 121.473C59.8798 121.247 57.2306 121.966 55.0432 123.286C55.2436 121.042 55.4089 118.664 55.6366 115.546C56.2534 107.174 56.0702 99.4478 50.0714 98.8733C44.6227 95.716 42.9251 112.049 43.3141 112.173C40.0862 110.51 35.5345 111.771 33.2537 117.584C29.0398 122.514 29.0175 128.909 30.9754 129.259C28.3096 130.495 27.6575 140.173 26.6936 141.046C27.2353 141.348 40.9284 149.926 47.2965 151.368C50.1016 147.377 51.5804 143.665 52.5874 139.517C52.6515 139.81 52.6955 140.024 52.7104 140.125C56.2628 134.475 62.2341 133.282 65.3192 130.162C68.9812 126.559 67.4542 121.957 62.2761 121.473Z" fill="#F3B91D"/>
<path d="M40.4957 111.743C39.0659 111.499 38.3401 116.279 38.2136 118.614C29.3803 116.726 38.3077 124.864 37.1297 131.929C27.6137 139.189 32.723 149.281 35.6392 148.192C34.0092 148.801 27.3319 145.174 27.4877 144.348C28.541 138.738 26.3798 128.035 28.2361 121.445C30.0916 114.854 34.1911 116.261 34.2146 116.427C33.6798 112.503 37.052 110.643 40.4957 111.743Z" fill="#D78A0B"/>
<path d="M28.0573 123.715C26.8373 126.603 26.9987 130.123 26.8827 133.193C26.7527 136.562 27.5218 140.641 26.6635 143.922C26.4261 144.833 27.844 145.175 28.0819 144.267C28.812 141.474 28.2838 138.025 28.2687 135.175C28.2504 131.578 27.4973 127.366 28.3731 123.838C28.4182 123.656 28.1344 123.533 28.0573 123.715Z" fill="#995702"/>
<path d="M55.0588 123.827C55.4685 118.111 56.7341 112.67 56.4607 106.867C56.3001 103.483 55.4405 100.011 52.1604 98.4485C50.1578 97.4932 47.4225 96.9087 45.629 98.5105C42.6862 101.138 43.1643 107.989 42.9944 111.433C42.9484 112.373 44.406 112.324 44.4519 111.389C44.6212 107.952 44.2572 102.699 46.4677 99.7559C47.8796 97.8794 51.6781 99.5455 53.0117 100.715C55.6084 102.991 55.1878 107.948 55.1394 111.003C55.07 115.301 54.4881 119.552 54.4789 123.844C54.4767 124.228 55.0327 124.194 55.0588 123.827Z" fill="#995702"/>
<path d="M44.7914 130.821C47.312 132.118 49.3419 130.344 50.368 128.065C51.8078 124.859 50.9372 121.485 49.5446 118.425C47.8343 114.662 45.2579 110.982 40.8405 110.614C37.6398 110.347 34.1417 112.311 33.7574 115.602C33.6561 116.471 34.8675 116.819 35.1058 115.93C35.8522 113.145 38.0536 112.203 40.8876 112.073C44.3174 111.916 46.7121 115.761 48.0703 118.378C49.771 121.65 51.757 131.649 44.9752 130.348C44.6997 130.295 44.5247 130.685 44.7914 130.821Z" fill="#995702"/>
<path d="M50.5759 146.687C52.54 141.708 54.7662 137.849 59.1715 134.676C61.5566 132.958 65.4101 131.816 67.1794 129.404C69.3624 126.424 67.8408 123.263 64.8591 121.619C61.1978 119.596 55.7653 122.079 52.381 123.615C51.8332 123.863 52.133 124.802 52.7137 124.735C57.1758 124.209 61.7134 120.235 65.8519 124.087C69.729 127.697 63.0096 130.669 60.5792 132.143C55.412 135.278 50.4906 140.192 50.0426 146.558C50.0227 146.83 50.4731 146.947 50.5759 146.687Z" fill="#995702"/>
<path d="M50.8002 148.673C47.487 151.947 29.8878 149.56 24.786 145.947C24.9699 144.753 24.9443 141.008 25.1337 141.082C36.1629 145.314 46.9895 145.682 51.8795 144.193C51.7886 144.996 51.5542 145.968 50.8002 148.673Z" fill="white"/>
<path d="M32.2605 126.074C32.3227 130.587 39.4548 135.551 43.1993 131.744C46.2012 128.693 44.7051 124.367 42.6695 121.193C40.8435 118.348 37.3536 114.919 33.6438 115.524C28.2118 116.408 26.896 124.99 27.2238 129.311C27.2742 129.971 28.2736 130.129 28.4125 129.436C29.1841 125.583 28.8114 119.617 32.7883 117.307C35.3828 115.8 38.4899 118.448 40.1175 120.236C41.9926 122.293 43.7824 125.439 43.4465 128.321C43.1375 130.957 40.6667 131.787 38.371 131.41C35.5849 130.953 33.2142 128.78 32.6952 126.001C32.6469 125.749 32.2572 125.829 32.2605 126.074Z" fill="#995702"/>
<path d="M24.131 143.881C23.9945 144.943 21.1208 156.653 21.4271 163.088C21.591 166.532 22.0058 170.259 23.8889 173.243C25.0958 175.158 28.2827 181.496 36.9454 180.901C48.6507 180.098 54.4476 164.855 51.2191 147.347C51.0679 146.532 41.5125 151.708 24.131 143.881Z" fill="#444342"/>
<path d="M48.2457 162.051C46.4877 166.054 38.4172 178.661 27.8414 178.254C28.2992 178.818 34.9932 183.509 42.4251 180.123C53.8663 174.909 53.1257 153.093 51.1185 147.313C50.5638 147.439 50.2656 157.451 48.2457 162.051Z" fill="#2C211E"/>
<path d="M44.6102 142.159C43.1565 137.836 38.5407 129.435 33.9486 132.11C27.0678 136.127 32.2666 141.729 32.754 145.128C33.01 146.933 20.2334 136.79 17.1337 138.447C14.2834 139.971 11.7607 142.72 13.7259 145.541C9.90672 147.871 11.3865 152.117 12.9161 155.288C6.52637 164.538 24.5236 175.401 47.4193 175.51C55.1757 175.545 53.3692 169.142 53.8727 163.66C55.1175 150.068 54.8421 156.462 46.7789 149.901C45.5364 146.514 46.0047 146.301 44.6102 142.159Z" fill="#F3B91D"/>
<path d="M48.0434 152.432C47.0567 150.334 46.8534 148.561 46.5103 146.335C46.1629 144.075 44.5455 141.833 43.5426 139.814C42.1832 137.078 40.8425 132.351 37.9142 130.792C34.9131 129.193 31.9928 132.02 30.117 134.124C27.2892 137.296 30.5103 141.372 31.5323 144.559C31.7341 145.188 32.7968 145.085 32.8398 144.411C33.0513 141.047 29.2086 138.515 31.4173 135.162C32.3379 133.765 34.3352 132.184 36.0359 131.953C37.6851 131.73 38.9083 134.258 39.5287 135.39C41.2191 138.479 42.5098 141.731 44.4099 144.709C46.0441 147.273 45.8175 150.139 47.7614 152.591C47.8729 152.732 48.1247 152.604 48.0434 152.432Z" fill="#995702"/>
<path d="M35.2125 144.301C32.9454 144.113 30.8721 144.011 28.819 142.922C27.1624 142.041 25.8327 140.544 24.4205 139.335C21.9945 137.258 19.0317 136.523 15.9777 137.638C13.6526 138.487 11.5931 140.943 11.7662 143.514C12.0641 147.925 16.419 150.524 19.9532 152.287C20.9157 152.77 21.5824 151.241 20.6261 150.763C17.6002 149.25 12.2439 146.272 13.6642 142.016C14.6439 139.077 18.4802 138.216 21.0852 139.12C23.5761 139.989 25.3836 142.469 27.6133 143.826C29.9233 145.234 32.6875 145.633 35.2739 144.85C35.5434 144.768 35.4892 144.324 35.2125 144.301Z" fill="#995702"/>
<path d="M11.9616 145.44C6.92685 152.385 13.7036 157.386 18.9615 161.041C19.8358 161.648 20.8629 160.393 20.0005 159.737C17.6806 157.967 15.0717 156.408 13.1432 154.186C10.9304 151.635 12.3754 148.687 12.7552 145.791C12.8116 145.362 12.2353 145.061 11.9616 145.44Z" fill="#995702"/>
<path d="M12.5117 155.098C6.5518 157.884 14.7865 166.516 17.2824 168.705C20.5062 171.533 24.8692 172.931 28.9268 174.039C33.85 175.384 39.8692 176.554 44.9824 175.932C45.781 175.834 45.8196 174.633 45.0139 174.512C41.0221 173.915 36.9711 173.966 32.9666 173.24C28.695 172.467 24.5781 171.113 20.7181 169.128C17.0394 167.24 8.63629 159.83 12.8632 155.573C13.081 155.354 12.7778 154.974 12.5117 155.098Z" fill="#995702"/>
<path d="M58.0512 179.799C68.2248 181.987 79.9244 182.998 88.0269 179.428C115.605 167.267 118.414 138.279 110.761 134.048C95.3017 125.507 79.0713 147.647 75.8652 149.79C74.5962 150.637 58.7856 147.677 60.3942 150.846C61.9442 153.9 56.2479 163.651 58.0512 179.799Z" fill="#444342"/>
<path d="M58.3966 179.794C67.8491 183.262 80.5241 182.228 88.0307 179.429C100.339 174.836 116.032 160.508 114.544 144.479C91.0425 179.925 61.2795 171.867 59.9494 172.955C58.7002 173.978 58.7295 178.313 58.3966 179.794Z" fill="#2C211E"/>
<path d="M60.8779 150.924C60.5716 149.097 58.7027 150.415 57.0772 150.751C55.8689 154.826 51.8165 171.343 54.2451 178.188C55.7628 179.582 56.7013 179.587 58.4954 179.675C61.1442 172.255 61.3933 154.005 60.8779 150.924Z" fill="white"/>
<path d="M54.0606 171.494C54.1517 174.111 54.0207 177.002 53.7898 178.999C55.2834 179.283 56.7064 179.588 58.4999 179.675C58.3961 179.67 59.2286 178.986 59.9433 172.746C55.8185 171.901 54.2957 171.512 54.0606 171.494Z" fill="#CCCCCC"/>
<path d="M83.2048 159.73C83.3997 153.01 75.4086 148.353 69.4329 148.778C68.7676 148.825 68.7802 149.81 69.4073 149.923C73.5377 150.668 77.1368 151.351 79.9747 154.732C81.1487 156.131 82.2911 158.004 82.8224 159.773C82.877 159.956 83.1989 159.927 83.2048 159.73Z" fill="#2C211E"/>
<path d="M87.1166 152.197C83.5655 148.008 78.5022 147.179 73.5566 149.592C72.8555 149.934 73.2638 150.913 74 150.703C78.654 149.378 83.0856 148.815 86.9226 152.385C87.0358 152.49 87.216 152.314 87.1166 152.197Z" fill="#2C211E"/>
<path d="M55.3143 179.575C54.9952 174.008 53.0455 163.321 57.5169 151.104C51.8603 148.822 48.5657 148.376 47.1645 148.44C41.5161 153.105 37.7033 174.328 49.0989 178.415C50.8264 179.689 55.3143 179.575 55.3143 179.575Z" fill="#B77904"/>
<path d="M55.905 155.064C52.3215 154.044 48.3745 152.276 44.6242 152.195C43.8687 152.18 43.3584 153.281 44.2124 153.592C47.7964 154.897 51.9917 155.392 55.7497 156.044C56.3955 156.156 56.4998 155.233 55.905 155.064Z" fill="#995F04"/>
<path d="M54.6067 159.1C52.6704 158.997 50.5704 158.124 48.7221 157.591C47.4857 157.234 46.2577 156.848 45.0192 156.498C44.4166 156.327 43.6048 155.922 42.9868 156.194C42.493 156.411 42.2513 157.069 42.6138 157.518C43.0285 158.03 43.7998 158.098 44.404 158.268C45.7454 158.647 47.0933 158.996 48.4457 159.333C50.2594 159.786 52.852 160.799 54.7277 160.183C55.2413 160.014 55.165 159.129 54.6067 159.1Z" fill="#995F04"/>
<path d="M54.9834 163.611C53.5916 162.463 50.9012 162.301 49.2191 161.896C47.6554 161.519 46.0891 161.155 44.5227 160.789C43.7654 160.612 42.6211 160.177 41.8618 160.569C41.4598 160.778 41.3633 161.174 41.5836 161.559C42.4776 163.125 46.9254 163.241 48.449 163.513C50.118 163.812 53.2315 164.95 54.8962 164.204C55.134 164.097 55.1896 163.781 54.9834 163.611Z" fill="#995F04"/>
<path d="M50.7516 165.251C46.4357 163.384 41.7377 164.651 40.256 168.079C38.7793 171.51 41.0746 175.804 45.3919 177.673C49.7067 179.539 54.4049 178.27 55.8863 174.839C57.3662 171.411 55.0675 167.117 50.7516 165.251Z" fill="#995F04"/>
<path d="M50.7516 165.251C46.4357 163.384 41.7377 164.651 40.256 168.079C38.7793 171.51 41.0746 175.804 45.3919 177.673C49.7067 179.539 54.4049 178.27 55.8863 174.839C57.3662 171.411 55.0675 167.117 50.7516 165.251Z" stroke="#995F04" stroke-width="0.597898" stroke-linecap="round" stroke-linejoin="round"/>
<path d="M50.3379 167.098C46.0217 165.229 41.3219 166.501 39.8414 169.929C38.3629 173.359 40.6605 177.654 44.9776 179.52C49.2912 181.387 53.9904 180.121 55.4717 176.69C56.9525 173.259 54.6537 168.965 50.3379 167.098Z" fill="white"/>
<path d="M49.82 166.872C45.7905 165.131 41.4839 166.123 40.2047 169.091C38.9245 172.06 41.1529 175.879 45.1819 177.622C49.2114 179.364 53.5194 178.373 54.7997 175.405C56.0812 172.437 53.8498 168.617 49.82 166.872Z" fill="#FCEE8A"/>
<path d="M51.6373 174.753C49.6543 173.602 47.336 173.212 45.4016 171.946C45.3607 172.224 45.3198 172.501 45.2789 172.778C46.6325 172.221 48.4264 171.564 49.4001 170.428C49.5765 170.222 49.3894 169.855 49.113 169.907C47.6507 170.18 46.2883 171.282 44.9184 171.875C44.5203 172.047 44.5279 172.581 44.902 172.771C46.9791 173.83 49.2669 174.611 51.5759 174.96C51.7055 174.979 51.7396 174.812 51.6373 174.753Z" fill="#995F04"/>
<path d="M9.36772 60.4216C8.84411 58.9159 7.60928 57.2572 5.83807 56.9271C7.47925 56.4579 8.73196 55.5265 9.45503 53.387C10.0643 55.681 10.8478 56.4539 12.8495 57.0142C10.4593 57.5286 9.74179 58.8337 9.36772 60.4216Z" fill="#F3B91D"/>
<path d="M166.231 57.8228C165.708 56.3172 164.473 54.6584 162.701 54.3283C164.343 53.8591 165.595 52.9278 166.318 50.7882C166.928 53.0822 167.711 53.8552 169.713 54.4155C167.323 54.9299 166.605 56.2349 166.231 57.8228Z" fill="#F3B91D"/>
<path d="M159.058 29.4782C158.026 26.5089 155.59 23.2379 152.098 22.5869C155.334 21.6616 157.804 19.8249 159.23 15.6056C160.432 20.1295 161.977 21.6538 165.924 22.7587C161.211 23.7731 159.796 26.3468 159.058 29.4782Z" fill="#F3B91D"/>
<path d="M169.996 77.1246C168.964 74.1554 166.529 70.8844 163.036 70.2334C166.272 69.3081 168.743 67.4714 170.169 63.2521C171.37 67.776 172.915 69.3003 176.863 70.4052C172.149 71.4196 170.734 73.9933 169.996 77.1246Z" fill="#F3B91D"/>
<path d="M144.668 145.275C143.635 142.306 141.2 139.035 137.707 138.384C140.943 137.459 143.414 135.622 144.84 131.403C146.041 135.926 147.586 137.451 151.534 138.556C146.82 139.57 145.405 142.144 144.668 145.275Z" fill="#F3B91D"/>
<path d="M16.0112 95.0281C14.9786 92.0589 12.5434 88.7878 9.05054 88.1368C12.287 87.2116 14.7574 85.3748 16.1833 81.1555C17.3849 85.6794 18.9299 87.2038 22.8775 88.3086C18.1638 89.323 16.7489 91.8967 16.0112 95.0281Z" fill="#F3B91D"/>
<path d="M7.08887 79.4343C6.05629 76.4651 3.62114 73.1941 0.128235 72.5431C3.36472 71.6178 5.83512 69.7811 7.26104 65.5618C8.46259 70.0857 10.0076 71.61 13.9552 72.7149C9.24149 73.7293 7.82656 76.3029 7.08887 79.4343Z" fill="#F3B91D"/>
<path d="M25.4918 30.0522C24.8467 28.1971 23.3252 26.1534 21.1429 25.7467C23.165 25.1686 24.7085 24.021 25.5994 21.3849C26.3501 24.2113 27.3153 25.1637 29.7817 25.854C26.8367 26.4878 25.9527 28.0957 25.4918 30.0522Z" fill="#F3B91D"/>
<path d="M154.73 133.424C153.957 131.201 152.134 128.752 149.519 128.265C151.942 127.572 153.791 126.197 154.859 123.039C155.758 126.425 156.915 127.566 159.87 128.394C156.341 129.153 155.282 131.08 154.73 133.424Z" fill="#F3B91D"/>
</svg>
