<svg width="249" height="249" viewBox="0 0 249 249" fill="none" xmlns="http://www.w3.org/2000/svg">
<path fill-rule="evenodd" clip-rule="evenodd" d="M163.95 200.658C200.87 178.851 158.987 131.297 123.433 126.078C89.9337 121.141 39.0217 149.089 68.9183 180.58C88.4252 201.081 102.759 181.229 115.283 183.579C128.661 186.087 136.348 216.991 163.95 200.658Z" fill="#F9F9F9"/>
<path fill-rule="evenodd" clip-rule="evenodd" d="M32.1655 96.4897C39.5421 94.4446 48.0779 102.046 51.2201 113.46C54.3797 124.879 50.9376 135.787 43.5615 137.831C36.1695 139.872 27.6446 132.292 24.4851 120.873C21.3427 109.458 24.7847 98.5504 32.1655 96.4897Z" fill="#F9F9F9"/>
<path fill-rule="evenodd" clip-rule="evenodd" d="M224.674 122.655C220.127 116.483 208.733 117.198 199.209 124.25C189.703 131.307 185.689 142.006 190.236 148.178C194.786 154.335 206.179 153.618 215.699 146.583C225.207 139.526 229.226 128.81 224.674 122.655Z" fill="#F9F9F9"/>
<path fill-rule="evenodd" clip-rule="evenodd" d="M91.1415 47.0072C103.414 45.4137 115.151 57.9292 117.343 74.9583C119.554 91.9924 111.398 107.111 99.1098 108.702C86.8323 110.312 75.0953 97.7968 72.9014 80.7673C70.6966 63.7165 78.864 48.6178 91.1415 47.0072Z" fill="#F9F9F9"/>
<path fill-rule="evenodd" clip-rule="evenodd" d="M147.243 114.059C135.85 109.229 132.039 92.4849 138.732 76.6695C145.43 60.837 160.109 51.9348 171.503 56.7653C182.897 61.5957 186.707 78.3413 180.015 94.1572C173.305 109.968 158.637 118.89 147.243 114.059Z" fill="#F9F9F9"/>
</svg>
