<svg width="2560" height="189" viewBox="0 0 2560 189" fill="none" xmlns="http://www.w3.org/2000/svg">
<g clip-path="url(#clip0_118_1326)">
<path fill-rule="evenodd" clip-rule="evenodd" d="M560.001 136.341C595 139.182 602.5 138.959 620.001 140.729C637.501 142.5 800.001 153.894 920.001 149.506C1040 145.118 1160 127.565 1280 92.459C1400 57.3531 1520 4.69437 1640 0.306142C1760 -4.08209 1880 39.8002 1940 61.7414C1940 61.7414 1965.5 72.365 2000 83.6825C2034.5 95 2150.5 133 2278.5 117C2406.5 101 2560 153 2560 153V189H2000H1940C1880 189 1760 189 1640 189C1520 189 1400 189 1280 189C1160 189 1040 189 920.001 189C800.001 189 680.001 189 620.001 189H560.001H1.52588e-05L0 153C111 176 193.5 161 321 144.5C448.5 128 525.001 133.5 560.001 136.341Z" fill="#00AFE7"/>
</g>
<defs>
<clipPath id="clip0_118_1326">
<rect width="2560" height="189" fill="white"/>
</clipPath>
</defs>
</svg>
