<svg width="1440" height="153" viewBox="0 0 1440 153" fill="none" xmlns="http://www.w3.org/2000/svg">
<path id="Vector" fill-rule="evenodd" clip-rule="evenodd" d="M10.0005 136.341C45.0005 139.182 52.5005 138.959 70.0005 140.729C87.5006 142.5 250.001 153.894 370.001 149.506C490.001 145.118 609.999 127.565 729.999 92.459C849.999 57.3531 969.999 4.69437 1090 0.306142C1210 -4.08209 1330 39.8002 1390 61.7414C1390 61.7414 1415.5 72.365 1450 83.6825C1484.5 95 1600.5 133 1728.5 117C1856.5 101 2010 153 2010 153V189H1450H1390C1330 189 1210 189 1090 189C969.999 189 849.999 189 729.999 189C609.999 189 490.001 189 370.001 189C250.001 189 130.001 189 70.0005 189H10.0005H-550L-550 153C-439 176 -356.5 161 -229 144.5C-101.5 128 -24.9994 133.5 10.0005 136.341Z" fill="#00AFE7"/>
</svg>
